%TF.GenerationSoftware,KiCad,Pcbnew,10.0.4*%
%TF.CreationDate,2026-09-10T19:55:13+08:00*%
%TF.ProjectId,adsb-fpc-antenna-connected-candidate,61647362-2d66-4706-932d-616e74656e6e,rev?*%
%TF.SameCoordinates,Original*%
%TF.FileFunction,Legend,Top*%
%TF.FilePolarity,Positive*%
%FSLAX46Y46*%
G04 Gerber Fmt 4.6, Leading zero omitted, Abs format (unit mm)*
G04 Created by KiCad (PCBNEW 10.0.4) date 2026-09-10 19:55:13*
%MOMM*%
%LPD*%
G01*
G04 APERTURE LIST*
%ADD10C,0.150000*%
%ADD11C,0.120000*%
%ADD12C,0.112500*%
%ADD13C,0.140000*%
%ADD14C,0.160000*%
%ADD15C,0.200000*%
G04 APERTURE END LIST*
D10*
X5000000Y-6000000D02*
X95000000Y-6000000D01*
X95000000Y-22000000D01*
X5000000Y-22000000D01*
X5000000Y-6000000D01*
X5000000Y-29000000D02*
X95000000Y-29000000D01*
X95000000Y-45000000D01*
X5000000Y-45000000D01*
X5000000Y-29000000D01*
X5000000Y-52000000D02*
X95000000Y-52000000D01*
X95000000Y-68000000D01*
X5000000Y-68000000D01*
X5000000Y-52000000D01*
X5000000Y-75000000D02*
X95000000Y-75000000D01*
X95000000Y-91000000D01*
X5000000Y-91000000D01*
X5000000Y-75000000D01*
X16500000Y-63200000D02*
X16500000Y-66800000D01*
X17500000Y-17200000D02*
X17500000Y-20800000D01*
X18000000Y-63200000D02*
X18000000Y-66800000D01*
X19000000Y-17200000D02*
X19000000Y-20800000D01*
X19500000Y-63200000D02*
X19500000Y-66800000D01*
X20500000Y-17200000D02*
X20500000Y-20800000D01*
D11*
X42300000Y-6300000D02*
X50200000Y-6300000D01*
X50200000Y-9600000D01*
X42300000Y-9600000D01*
X42300000Y-6300000D01*
X42300000Y-29300000D02*
X50200000Y-29300000D01*
X50200000Y-32600000D01*
X42300000Y-32600000D01*
X42300000Y-29300000D01*
X42300000Y-52300000D02*
X50200000Y-52300000D01*
X50200000Y-55600000D01*
X42300000Y-55600000D01*
X42300000Y-52300000D01*
X42300000Y-75300000D02*
X50200000Y-75300000D01*
X50200000Y-78600000D01*
X42300000Y-78600000D01*
X42300000Y-75300000D01*
X51800000Y-6300000D02*
X57700000Y-6300000D01*
X57700000Y-9600000D01*
X51800000Y-9600000D01*
X51800000Y-6300000D01*
X51800000Y-29300000D02*
X57700000Y-29300000D01*
X57700000Y-32600000D01*
X51800000Y-32600000D01*
X51800000Y-29300000D01*
X51800000Y-52300000D02*
X57700000Y-52300000D01*
X57700000Y-55600000D01*
X51800000Y-55600000D01*
X51800000Y-52300000D01*
X51800000Y-75300000D02*
X57700000Y-75300000D01*
X57700000Y-78600000D01*
X51800000Y-78600000D01*
X51800000Y-75300000D01*
D10*
X57200000Y-6350000D02*
X58400000Y-6350000D01*
X57200000Y-29350000D02*
X58400000Y-29350000D01*
X57200000Y-52350000D02*
X58400000Y-52350000D01*
X57200000Y-75350000D02*
X58400000Y-75350000D01*
X79500000Y-17200000D02*
X79500000Y-20800000D01*
X80500000Y-63200000D02*
X80500000Y-66800000D01*
X81000000Y-17200000D02*
X81000000Y-20800000D01*
X82000000Y-63200000D02*
X82000000Y-66800000D01*
X82500000Y-17200000D02*
X82500000Y-20800000D01*
X83500000Y-63200000D02*
X83500000Y-66800000D01*
X94400000Y-89200000D02*
X99600000Y-89200000D01*
X99600000Y-93800000D01*
X94400000Y-93800000D01*
X94400000Y-89200000D01*
D12*
X89785715Y-6952328D02*
X89635715Y-6738042D01*
X89528572Y-6952328D02*
X89528572Y-6502328D01*
X89528572Y-6502328D02*
X89700001Y-6502328D01*
X89700001Y-6502328D02*
X89742858Y-6523757D01*
X89742858Y-6523757D02*
X89764287Y-6545185D01*
X89764287Y-6545185D02*
X89785715Y-6588042D01*
X89785715Y-6588042D02*
X89785715Y-6652328D01*
X89785715Y-6652328D02*
X89764287Y-6695185D01*
X89764287Y-6695185D02*
X89742858Y-6716614D01*
X89742858Y-6716614D02*
X89700001Y-6738042D01*
X89700001Y-6738042D02*
X89528572Y-6738042D01*
X90214287Y-6952328D02*
X89957144Y-6952328D01*
X90085715Y-6952328D02*
X90085715Y-6502328D01*
X90085715Y-6502328D02*
X90042858Y-6566614D01*
X90042858Y-6566614D02*
X90000001Y-6609471D01*
X90000001Y-6609471D02*
X89957144Y-6630900D01*
X90835715Y-6502328D02*
X90878572Y-6502328D01*
X90878572Y-6502328D02*
X90921429Y-6523757D01*
X90921429Y-6523757D02*
X90942858Y-6545185D01*
X90942858Y-6545185D02*
X90964286Y-6588042D01*
X90964286Y-6588042D02*
X90985715Y-6673757D01*
X90985715Y-6673757D02*
X90985715Y-6780900D01*
X90985715Y-6780900D02*
X90964286Y-6866614D01*
X90964286Y-6866614D02*
X90942858Y-6909471D01*
X90942858Y-6909471D02*
X90921429Y-6930900D01*
X90921429Y-6930900D02*
X90878572Y-6952328D01*
X90878572Y-6952328D02*
X90835715Y-6952328D01*
X90835715Y-6952328D02*
X90792858Y-6930900D01*
X90792858Y-6930900D02*
X90771429Y-6909471D01*
X90771429Y-6909471D02*
X90750000Y-6866614D01*
X90750000Y-6866614D02*
X90728572Y-6780900D01*
X90728572Y-6780900D02*
X90728572Y-6673757D01*
X90728572Y-6673757D02*
X90750000Y-6588042D01*
X90750000Y-6588042D02*
X90771429Y-6545185D01*
X90771429Y-6545185D02*
X90792858Y-6523757D01*
X90792858Y-6523757D02*
X90835715Y-6502328D01*
X91435714Y-6952328D02*
X91285714Y-6738042D01*
X91178571Y-6952328D02*
X91178571Y-6502328D01*
X91178571Y-6502328D02*
X91350000Y-6502328D01*
X91350000Y-6502328D02*
X91392857Y-6523757D01*
X91392857Y-6523757D02*
X91414286Y-6545185D01*
X91414286Y-6545185D02*
X91435714Y-6588042D01*
X91435714Y-6588042D02*
X91435714Y-6652328D01*
X91435714Y-6652328D02*
X91414286Y-6695185D01*
X91414286Y-6695185D02*
X91392857Y-6716614D01*
X91392857Y-6716614D02*
X91350000Y-6738042D01*
X91350000Y-6738042D02*
X91178571Y-6738042D01*
X92057143Y-6502328D02*
X92100000Y-6502328D01*
X92100000Y-6502328D02*
X92142857Y-6523757D01*
X92142857Y-6523757D02*
X92164286Y-6545185D01*
X92164286Y-6545185D02*
X92185714Y-6588042D01*
X92185714Y-6588042D02*
X92207143Y-6673757D01*
X92207143Y-6673757D02*
X92207143Y-6780900D01*
X92207143Y-6780900D02*
X92185714Y-6866614D01*
X92185714Y-6866614D02*
X92164286Y-6909471D01*
X92164286Y-6909471D02*
X92142857Y-6930900D01*
X92142857Y-6930900D02*
X92100000Y-6952328D01*
X92100000Y-6952328D02*
X92057143Y-6952328D01*
X92057143Y-6952328D02*
X92014286Y-6930900D01*
X92014286Y-6930900D02*
X91992857Y-6909471D01*
X91992857Y-6909471D02*
X91971428Y-6866614D01*
X91971428Y-6866614D02*
X91950000Y-6780900D01*
X91950000Y-6780900D02*
X91950000Y-6673757D01*
X91950000Y-6673757D02*
X91971428Y-6588042D01*
X91971428Y-6588042D02*
X91992857Y-6545185D01*
X91992857Y-6545185D02*
X92014286Y-6523757D01*
X92014286Y-6523757D02*
X92057143Y-6502328D01*
X92464285Y-6695185D02*
X92421428Y-6673757D01*
X92421428Y-6673757D02*
X92399999Y-6652328D01*
X92399999Y-6652328D02*
X92378571Y-6609471D01*
X92378571Y-6609471D02*
X92378571Y-6588042D01*
X92378571Y-6588042D02*
X92399999Y-6545185D01*
X92399999Y-6545185D02*
X92421428Y-6523757D01*
X92421428Y-6523757D02*
X92464285Y-6502328D01*
X92464285Y-6502328D02*
X92549999Y-6502328D01*
X92549999Y-6502328D02*
X92592857Y-6523757D01*
X92592857Y-6523757D02*
X92614285Y-6545185D01*
X92614285Y-6545185D02*
X92635714Y-6588042D01*
X92635714Y-6588042D02*
X92635714Y-6609471D01*
X92635714Y-6609471D02*
X92614285Y-6652328D01*
X92614285Y-6652328D02*
X92592857Y-6673757D01*
X92592857Y-6673757D02*
X92549999Y-6695185D01*
X92549999Y-6695185D02*
X92464285Y-6695185D01*
X92464285Y-6695185D02*
X92421428Y-6716614D01*
X92421428Y-6716614D02*
X92399999Y-6738042D01*
X92399999Y-6738042D02*
X92378571Y-6780900D01*
X92378571Y-6780900D02*
X92378571Y-6866614D01*
X92378571Y-6866614D02*
X92399999Y-6909471D01*
X92399999Y-6909471D02*
X92421428Y-6930900D01*
X92421428Y-6930900D02*
X92464285Y-6952328D01*
X92464285Y-6952328D02*
X92549999Y-6952328D01*
X92549999Y-6952328D02*
X92592857Y-6930900D01*
X92592857Y-6930900D02*
X92614285Y-6909471D01*
X92614285Y-6909471D02*
X92635714Y-6866614D01*
X92635714Y-6866614D02*
X92635714Y-6780900D01*
X92635714Y-6780900D02*
X92614285Y-6738042D01*
X92614285Y-6738042D02*
X92592857Y-6716614D01*
X92592857Y-6716614D02*
X92549999Y-6695185D01*
X92914285Y-6502328D02*
X92957142Y-6502328D01*
X92957142Y-6502328D02*
X92999999Y-6523757D01*
X92999999Y-6523757D02*
X93021428Y-6545185D01*
X93021428Y-6545185D02*
X93042856Y-6588042D01*
X93042856Y-6588042D02*
X93064285Y-6673757D01*
X93064285Y-6673757D02*
X93064285Y-6780900D01*
X93064285Y-6780900D02*
X93042856Y-6866614D01*
X93042856Y-6866614D02*
X93021428Y-6909471D01*
X93021428Y-6909471D02*
X92999999Y-6930900D01*
X92999999Y-6930900D02*
X92957142Y-6952328D01*
X92957142Y-6952328D02*
X92914285Y-6952328D01*
X92914285Y-6952328D02*
X92871428Y-6930900D01*
X92871428Y-6930900D02*
X92849999Y-6909471D01*
X92849999Y-6909471D02*
X92828570Y-6866614D01*
X92828570Y-6866614D02*
X92807142Y-6780900D01*
X92807142Y-6780900D02*
X92807142Y-6673757D01*
X92807142Y-6673757D02*
X92828570Y-6588042D01*
X92828570Y-6588042D02*
X92849999Y-6545185D01*
X92849999Y-6545185D02*
X92871428Y-6523757D01*
X92871428Y-6523757D02*
X92914285Y-6502328D01*
X93449999Y-6652328D02*
X93449999Y-6952328D01*
X93342856Y-6480900D02*
X93235713Y-6802328D01*
X93235713Y-6802328D02*
X93514284Y-6802328D01*
X89785715Y-29952328D02*
X89635715Y-29738042D01*
X89528572Y-29952328D02*
X89528572Y-29502328D01*
X89528572Y-29502328D02*
X89700001Y-29502328D01*
X89700001Y-29502328D02*
X89742858Y-29523757D01*
X89742858Y-29523757D02*
X89764287Y-29545185D01*
X89764287Y-29545185D02*
X89785715Y-29588042D01*
X89785715Y-29588042D02*
X89785715Y-29652328D01*
X89785715Y-29652328D02*
X89764287Y-29695185D01*
X89764287Y-29695185D02*
X89742858Y-29716614D01*
X89742858Y-29716614D02*
X89700001Y-29738042D01*
X89700001Y-29738042D02*
X89528572Y-29738042D01*
X89957144Y-29545185D02*
X89978572Y-29523757D01*
X89978572Y-29523757D02*
X90021430Y-29502328D01*
X90021430Y-29502328D02*
X90128572Y-29502328D01*
X90128572Y-29502328D02*
X90171430Y-29523757D01*
X90171430Y-29523757D02*
X90192858Y-29545185D01*
X90192858Y-29545185D02*
X90214287Y-29588042D01*
X90214287Y-29588042D02*
X90214287Y-29630900D01*
X90214287Y-29630900D02*
X90192858Y-29695185D01*
X90192858Y-29695185D02*
X89935715Y-29952328D01*
X89935715Y-29952328D02*
X90214287Y-29952328D01*
X90835715Y-29502328D02*
X90878572Y-29502328D01*
X90878572Y-29502328D02*
X90921429Y-29523757D01*
X90921429Y-29523757D02*
X90942858Y-29545185D01*
X90942858Y-29545185D02*
X90964286Y-29588042D01*
X90964286Y-29588042D02*
X90985715Y-29673757D01*
X90985715Y-29673757D02*
X90985715Y-29780900D01*
X90985715Y-29780900D02*
X90964286Y-29866614D01*
X90964286Y-29866614D02*
X90942858Y-29909471D01*
X90942858Y-29909471D02*
X90921429Y-29930900D01*
X90921429Y-29930900D02*
X90878572Y-29952328D01*
X90878572Y-29952328D02*
X90835715Y-29952328D01*
X90835715Y-29952328D02*
X90792858Y-29930900D01*
X90792858Y-29930900D02*
X90771429Y-29909471D01*
X90771429Y-29909471D02*
X90750000Y-29866614D01*
X90750000Y-29866614D02*
X90728572Y-29780900D01*
X90728572Y-29780900D02*
X90728572Y-29673757D01*
X90728572Y-29673757D02*
X90750000Y-29588042D01*
X90750000Y-29588042D02*
X90771429Y-29545185D01*
X90771429Y-29545185D02*
X90792858Y-29523757D01*
X90792858Y-29523757D02*
X90835715Y-29502328D01*
X91435714Y-29952328D02*
X91285714Y-29738042D01*
X91178571Y-29952328D02*
X91178571Y-29502328D01*
X91178571Y-29502328D02*
X91350000Y-29502328D01*
X91350000Y-29502328D02*
X91392857Y-29523757D01*
X91392857Y-29523757D02*
X91414286Y-29545185D01*
X91414286Y-29545185D02*
X91435714Y-29588042D01*
X91435714Y-29588042D02*
X91435714Y-29652328D01*
X91435714Y-29652328D02*
X91414286Y-29695185D01*
X91414286Y-29695185D02*
X91392857Y-29716614D01*
X91392857Y-29716614D02*
X91350000Y-29738042D01*
X91350000Y-29738042D02*
X91178571Y-29738042D01*
X92057143Y-29502328D02*
X92100000Y-29502328D01*
X92100000Y-29502328D02*
X92142857Y-29523757D01*
X92142857Y-29523757D02*
X92164286Y-29545185D01*
X92164286Y-29545185D02*
X92185714Y-29588042D01*
X92185714Y-29588042D02*
X92207143Y-29673757D01*
X92207143Y-29673757D02*
X92207143Y-29780900D01*
X92207143Y-29780900D02*
X92185714Y-29866614D01*
X92185714Y-29866614D02*
X92164286Y-29909471D01*
X92164286Y-29909471D02*
X92142857Y-29930900D01*
X92142857Y-29930900D02*
X92100000Y-29952328D01*
X92100000Y-29952328D02*
X92057143Y-29952328D01*
X92057143Y-29952328D02*
X92014286Y-29930900D01*
X92014286Y-29930900D02*
X91992857Y-29909471D01*
X91992857Y-29909471D02*
X91971428Y-29866614D01*
X91971428Y-29866614D02*
X91950000Y-29780900D01*
X91950000Y-29780900D02*
X91950000Y-29673757D01*
X91950000Y-29673757D02*
X91971428Y-29588042D01*
X91971428Y-29588042D02*
X91992857Y-29545185D01*
X91992857Y-29545185D02*
X92014286Y-29523757D01*
X92014286Y-29523757D02*
X92057143Y-29502328D01*
X92464285Y-29695185D02*
X92421428Y-29673757D01*
X92421428Y-29673757D02*
X92399999Y-29652328D01*
X92399999Y-29652328D02*
X92378571Y-29609471D01*
X92378571Y-29609471D02*
X92378571Y-29588042D01*
X92378571Y-29588042D02*
X92399999Y-29545185D01*
X92399999Y-29545185D02*
X92421428Y-29523757D01*
X92421428Y-29523757D02*
X92464285Y-29502328D01*
X92464285Y-29502328D02*
X92549999Y-29502328D01*
X92549999Y-29502328D02*
X92592857Y-29523757D01*
X92592857Y-29523757D02*
X92614285Y-29545185D01*
X92614285Y-29545185D02*
X92635714Y-29588042D01*
X92635714Y-29588042D02*
X92635714Y-29609471D01*
X92635714Y-29609471D02*
X92614285Y-29652328D01*
X92614285Y-29652328D02*
X92592857Y-29673757D01*
X92592857Y-29673757D02*
X92549999Y-29695185D01*
X92549999Y-29695185D02*
X92464285Y-29695185D01*
X92464285Y-29695185D02*
X92421428Y-29716614D01*
X92421428Y-29716614D02*
X92399999Y-29738042D01*
X92399999Y-29738042D02*
X92378571Y-29780900D01*
X92378571Y-29780900D02*
X92378571Y-29866614D01*
X92378571Y-29866614D02*
X92399999Y-29909471D01*
X92399999Y-29909471D02*
X92421428Y-29930900D01*
X92421428Y-29930900D02*
X92464285Y-29952328D01*
X92464285Y-29952328D02*
X92549999Y-29952328D01*
X92549999Y-29952328D02*
X92592857Y-29930900D01*
X92592857Y-29930900D02*
X92614285Y-29909471D01*
X92614285Y-29909471D02*
X92635714Y-29866614D01*
X92635714Y-29866614D02*
X92635714Y-29780900D01*
X92635714Y-29780900D02*
X92614285Y-29738042D01*
X92614285Y-29738042D02*
X92592857Y-29716614D01*
X92592857Y-29716614D02*
X92549999Y-29695185D01*
X92914285Y-29502328D02*
X92957142Y-29502328D01*
X92957142Y-29502328D02*
X92999999Y-29523757D01*
X92999999Y-29523757D02*
X93021428Y-29545185D01*
X93021428Y-29545185D02*
X93042856Y-29588042D01*
X93042856Y-29588042D02*
X93064285Y-29673757D01*
X93064285Y-29673757D02*
X93064285Y-29780900D01*
X93064285Y-29780900D02*
X93042856Y-29866614D01*
X93042856Y-29866614D02*
X93021428Y-29909471D01*
X93021428Y-29909471D02*
X92999999Y-29930900D01*
X92999999Y-29930900D02*
X92957142Y-29952328D01*
X92957142Y-29952328D02*
X92914285Y-29952328D01*
X92914285Y-29952328D02*
X92871428Y-29930900D01*
X92871428Y-29930900D02*
X92849999Y-29909471D01*
X92849999Y-29909471D02*
X92828570Y-29866614D01*
X92828570Y-29866614D02*
X92807142Y-29780900D01*
X92807142Y-29780900D02*
X92807142Y-29673757D01*
X92807142Y-29673757D02*
X92828570Y-29588042D01*
X92828570Y-29588042D02*
X92849999Y-29545185D01*
X92849999Y-29545185D02*
X92871428Y-29523757D01*
X92871428Y-29523757D02*
X92914285Y-29502328D01*
X93449999Y-29652328D02*
X93449999Y-29952328D01*
X93342856Y-29480900D02*
X93235713Y-29802328D01*
X93235713Y-29802328D02*
X93514284Y-29802328D01*
X89785715Y-52952328D02*
X89635715Y-52738042D01*
X89528572Y-52952328D02*
X89528572Y-52502328D01*
X89528572Y-52502328D02*
X89700001Y-52502328D01*
X89700001Y-52502328D02*
X89742858Y-52523757D01*
X89742858Y-52523757D02*
X89764287Y-52545185D01*
X89764287Y-52545185D02*
X89785715Y-52588042D01*
X89785715Y-52588042D02*
X89785715Y-52652328D01*
X89785715Y-52652328D02*
X89764287Y-52695185D01*
X89764287Y-52695185D02*
X89742858Y-52716614D01*
X89742858Y-52716614D02*
X89700001Y-52738042D01*
X89700001Y-52738042D02*
X89528572Y-52738042D01*
X89935715Y-52502328D02*
X90214287Y-52502328D01*
X90214287Y-52502328D02*
X90064287Y-52673757D01*
X90064287Y-52673757D02*
X90128572Y-52673757D01*
X90128572Y-52673757D02*
X90171430Y-52695185D01*
X90171430Y-52695185D02*
X90192858Y-52716614D01*
X90192858Y-52716614D02*
X90214287Y-52759471D01*
X90214287Y-52759471D02*
X90214287Y-52866614D01*
X90214287Y-52866614D02*
X90192858Y-52909471D01*
X90192858Y-52909471D02*
X90171430Y-52930900D01*
X90171430Y-52930900D02*
X90128572Y-52952328D01*
X90128572Y-52952328D02*
X90000001Y-52952328D01*
X90000001Y-52952328D02*
X89957144Y-52930900D01*
X89957144Y-52930900D02*
X89935715Y-52909471D01*
X90835715Y-52502328D02*
X90878572Y-52502328D01*
X90878572Y-52502328D02*
X90921429Y-52523757D01*
X90921429Y-52523757D02*
X90942858Y-52545185D01*
X90942858Y-52545185D02*
X90964286Y-52588042D01*
X90964286Y-52588042D02*
X90985715Y-52673757D01*
X90985715Y-52673757D02*
X90985715Y-52780900D01*
X90985715Y-52780900D02*
X90964286Y-52866614D01*
X90964286Y-52866614D02*
X90942858Y-52909471D01*
X90942858Y-52909471D02*
X90921429Y-52930900D01*
X90921429Y-52930900D02*
X90878572Y-52952328D01*
X90878572Y-52952328D02*
X90835715Y-52952328D01*
X90835715Y-52952328D02*
X90792858Y-52930900D01*
X90792858Y-52930900D02*
X90771429Y-52909471D01*
X90771429Y-52909471D02*
X90750000Y-52866614D01*
X90750000Y-52866614D02*
X90728572Y-52780900D01*
X90728572Y-52780900D02*
X90728572Y-52673757D01*
X90728572Y-52673757D02*
X90750000Y-52588042D01*
X90750000Y-52588042D02*
X90771429Y-52545185D01*
X90771429Y-52545185D02*
X90792858Y-52523757D01*
X90792858Y-52523757D02*
X90835715Y-52502328D01*
X91435714Y-52952328D02*
X91285714Y-52738042D01*
X91178571Y-52952328D02*
X91178571Y-52502328D01*
X91178571Y-52502328D02*
X91350000Y-52502328D01*
X91350000Y-52502328D02*
X91392857Y-52523757D01*
X91392857Y-52523757D02*
X91414286Y-52545185D01*
X91414286Y-52545185D02*
X91435714Y-52588042D01*
X91435714Y-52588042D02*
X91435714Y-52652328D01*
X91435714Y-52652328D02*
X91414286Y-52695185D01*
X91414286Y-52695185D02*
X91392857Y-52716614D01*
X91392857Y-52716614D02*
X91350000Y-52738042D01*
X91350000Y-52738042D02*
X91178571Y-52738042D01*
X92057143Y-52502328D02*
X92100000Y-52502328D01*
X92100000Y-52502328D02*
X92142857Y-52523757D01*
X92142857Y-52523757D02*
X92164286Y-52545185D01*
X92164286Y-52545185D02*
X92185714Y-52588042D01*
X92185714Y-52588042D02*
X92207143Y-52673757D01*
X92207143Y-52673757D02*
X92207143Y-52780900D01*
X92207143Y-52780900D02*
X92185714Y-52866614D01*
X92185714Y-52866614D02*
X92164286Y-52909471D01*
X92164286Y-52909471D02*
X92142857Y-52930900D01*
X92142857Y-52930900D02*
X92100000Y-52952328D01*
X92100000Y-52952328D02*
X92057143Y-52952328D01*
X92057143Y-52952328D02*
X92014286Y-52930900D01*
X92014286Y-52930900D02*
X91992857Y-52909471D01*
X91992857Y-52909471D02*
X91971428Y-52866614D01*
X91971428Y-52866614D02*
X91950000Y-52780900D01*
X91950000Y-52780900D02*
X91950000Y-52673757D01*
X91950000Y-52673757D02*
X91971428Y-52588042D01*
X91971428Y-52588042D02*
X91992857Y-52545185D01*
X91992857Y-52545185D02*
X92014286Y-52523757D01*
X92014286Y-52523757D02*
X92057143Y-52502328D01*
X92464285Y-52695185D02*
X92421428Y-52673757D01*
X92421428Y-52673757D02*
X92399999Y-52652328D01*
X92399999Y-52652328D02*
X92378571Y-52609471D01*
X92378571Y-52609471D02*
X92378571Y-52588042D01*
X92378571Y-52588042D02*
X92399999Y-52545185D01*
X92399999Y-52545185D02*
X92421428Y-52523757D01*
X92421428Y-52523757D02*
X92464285Y-52502328D01*
X92464285Y-52502328D02*
X92549999Y-52502328D01*
X92549999Y-52502328D02*
X92592857Y-52523757D01*
X92592857Y-52523757D02*
X92614285Y-52545185D01*
X92614285Y-52545185D02*
X92635714Y-52588042D01*
X92635714Y-52588042D02*
X92635714Y-52609471D01*
X92635714Y-52609471D02*
X92614285Y-52652328D01*
X92614285Y-52652328D02*
X92592857Y-52673757D01*
X92592857Y-52673757D02*
X92549999Y-52695185D01*
X92549999Y-52695185D02*
X92464285Y-52695185D01*
X92464285Y-52695185D02*
X92421428Y-52716614D01*
X92421428Y-52716614D02*
X92399999Y-52738042D01*
X92399999Y-52738042D02*
X92378571Y-52780900D01*
X92378571Y-52780900D02*
X92378571Y-52866614D01*
X92378571Y-52866614D02*
X92399999Y-52909471D01*
X92399999Y-52909471D02*
X92421428Y-52930900D01*
X92421428Y-52930900D02*
X92464285Y-52952328D01*
X92464285Y-52952328D02*
X92549999Y-52952328D01*
X92549999Y-52952328D02*
X92592857Y-52930900D01*
X92592857Y-52930900D02*
X92614285Y-52909471D01*
X92614285Y-52909471D02*
X92635714Y-52866614D01*
X92635714Y-52866614D02*
X92635714Y-52780900D01*
X92635714Y-52780900D02*
X92614285Y-52738042D01*
X92614285Y-52738042D02*
X92592857Y-52716614D01*
X92592857Y-52716614D02*
X92549999Y-52695185D01*
X92914285Y-52502328D02*
X92957142Y-52502328D01*
X92957142Y-52502328D02*
X92999999Y-52523757D01*
X92999999Y-52523757D02*
X93021428Y-52545185D01*
X93021428Y-52545185D02*
X93042856Y-52588042D01*
X93042856Y-52588042D02*
X93064285Y-52673757D01*
X93064285Y-52673757D02*
X93064285Y-52780900D01*
X93064285Y-52780900D02*
X93042856Y-52866614D01*
X93042856Y-52866614D02*
X93021428Y-52909471D01*
X93021428Y-52909471D02*
X92999999Y-52930900D01*
X92999999Y-52930900D02*
X92957142Y-52952328D01*
X92957142Y-52952328D02*
X92914285Y-52952328D01*
X92914285Y-52952328D02*
X92871428Y-52930900D01*
X92871428Y-52930900D02*
X92849999Y-52909471D01*
X92849999Y-52909471D02*
X92828570Y-52866614D01*
X92828570Y-52866614D02*
X92807142Y-52780900D01*
X92807142Y-52780900D02*
X92807142Y-52673757D01*
X92807142Y-52673757D02*
X92828570Y-52588042D01*
X92828570Y-52588042D02*
X92849999Y-52545185D01*
X92849999Y-52545185D02*
X92871428Y-52523757D01*
X92871428Y-52523757D02*
X92914285Y-52502328D01*
X93449999Y-52652328D02*
X93449999Y-52952328D01*
X93342856Y-52480900D02*
X93235713Y-52802328D01*
X93235713Y-52802328D02*
X93514284Y-52802328D01*
X89785715Y-75952328D02*
X89635715Y-75738042D01*
X89528572Y-75952328D02*
X89528572Y-75502328D01*
X89528572Y-75502328D02*
X89700001Y-75502328D01*
X89700001Y-75502328D02*
X89742858Y-75523757D01*
X89742858Y-75523757D02*
X89764287Y-75545185D01*
X89764287Y-75545185D02*
X89785715Y-75588042D01*
X89785715Y-75588042D02*
X89785715Y-75652328D01*
X89785715Y-75652328D02*
X89764287Y-75695185D01*
X89764287Y-75695185D02*
X89742858Y-75716614D01*
X89742858Y-75716614D02*
X89700001Y-75738042D01*
X89700001Y-75738042D02*
X89528572Y-75738042D01*
X90171430Y-75652328D02*
X90171430Y-75952328D01*
X90064287Y-75480900D02*
X89957144Y-75802328D01*
X89957144Y-75802328D02*
X90235715Y-75802328D01*
X90835715Y-75502328D02*
X90878572Y-75502328D01*
X90878572Y-75502328D02*
X90921429Y-75523757D01*
X90921429Y-75523757D02*
X90942858Y-75545185D01*
X90942858Y-75545185D02*
X90964286Y-75588042D01*
X90964286Y-75588042D02*
X90985715Y-75673757D01*
X90985715Y-75673757D02*
X90985715Y-75780900D01*
X90985715Y-75780900D02*
X90964286Y-75866614D01*
X90964286Y-75866614D02*
X90942858Y-75909471D01*
X90942858Y-75909471D02*
X90921429Y-75930900D01*
X90921429Y-75930900D02*
X90878572Y-75952328D01*
X90878572Y-75952328D02*
X90835715Y-75952328D01*
X90835715Y-75952328D02*
X90792858Y-75930900D01*
X90792858Y-75930900D02*
X90771429Y-75909471D01*
X90771429Y-75909471D02*
X90750000Y-75866614D01*
X90750000Y-75866614D02*
X90728572Y-75780900D01*
X90728572Y-75780900D02*
X90728572Y-75673757D01*
X90728572Y-75673757D02*
X90750000Y-75588042D01*
X90750000Y-75588042D02*
X90771429Y-75545185D01*
X90771429Y-75545185D02*
X90792858Y-75523757D01*
X90792858Y-75523757D02*
X90835715Y-75502328D01*
X91435714Y-75952328D02*
X91285714Y-75738042D01*
X91178571Y-75952328D02*
X91178571Y-75502328D01*
X91178571Y-75502328D02*
X91350000Y-75502328D01*
X91350000Y-75502328D02*
X91392857Y-75523757D01*
X91392857Y-75523757D02*
X91414286Y-75545185D01*
X91414286Y-75545185D02*
X91435714Y-75588042D01*
X91435714Y-75588042D02*
X91435714Y-75652328D01*
X91435714Y-75652328D02*
X91414286Y-75695185D01*
X91414286Y-75695185D02*
X91392857Y-75716614D01*
X91392857Y-75716614D02*
X91350000Y-75738042D01*
X91350000Y-75738042D02*
X91178571Y-75738042D01*
X92057143Y-75502328D02*
X92100000Y-75502328D01*
X92100000Y-75502328D02*
X92142857Y-75523757D01*
X92142857Y-75523757D02*
X92164286Y-75545185D01*
X92164286Y-75545185D02*
X92185714Y-75588042D01*
X92185714Y-75588042D02*
X92207143Y-75673757D01*
X92207143Y-75673757D02*
X92207143Y-75780900D01*
X92207143Y-75780900D02*
X92185714Y-75866614D01*
X92185714Y-75866614D02*
X92164286Y-75909471D01*
X92164286Y-75909471D02*
X92142857Y-75930900D01*
X92142857Y-75930900D02*
X92100000Y-75952328D01*
X92100000Y-75952328D02*
X92057143Y-75952328D01*
X92057143Y-75952328D02*
X92014286Y-75930900D01*
X92014286Y-75930900D02*
X91992857Y-75909471D01*
X91992857Y-75909471D02*
X91971428Y-75866614D01*
X91971428Y-75866614D02*
X91950000Y-75780900D01*
X91950000Y-75780900D02*
X91950000Y-75673757D01*
X91950000Y-75673757D02*
X91971428Y-75588042D01*
X91971428Y-75588042D02*
X91992857Y-75545185D01*
X91992857Y-75545185D02*
X92014286Y-75523757D01*
X92014286Y-75523757D02*
X92057143Y-75502328D01*
X92464285Y-75695185D02*
X92421428Y-75673757D01*
X92421428Y-75673757D02*
X92399999Y-75652328D01*
X92399999Y-75652328D02*
X92378571Y-75609471D01*
X92378571Y-75609471D02*
X92378571Y-75588042D01*
X92378571Y-75588042D02*
X92399999Y-75545185D01*
X92399999Y-75545185D02*
X92421428Y-75523757D01*
X92421428Y-75523757D02*
X92464285Y-75502328D01*
X92464285Y-75502328D02*
X92549999Y-75502328D01*
X92549999Y-75502328D02*
X92592857Y-75523757D01*
X92592857Y-75523757D02*
X92614285Y-75545185D01*
X92614285Y-75545185D02*
X92635714Y-75588042D01*
X92635714Y-75588042D02*
X92635714Y-75609471D01*
X92635714Y-75609471D02*
X92614285Y-75652328D01*
X92614285Y-75652328D02*
X92592857Y-75673757D01*
X92592857Y-75673757D02*
X92549999Y-75695185D01*
X92549999Y-75695185D02*
X92464285Y-75695185D01*
X92464285Y-75695185D02*
X92421428Y-75716614D01*
X92421428Y-75716614D02*
X92399999Y-75738042D01*
X92399999Y-75738042D02*
X92378571Y-75780900D01*
X92378571Y-75780900D02*
X92378571Y-75866614D01*
X92378571Y-75866614D02*
X92399999Y-75909471D01*
X92399999Y-75909471D02*
X92421428Y-75930900D01*
X92421428Y-75930900D02*
X92464285Y-75952328D01*
X92464285Y-75952328D02*
X92549999Y-75952328D01*
X92549999Y-75952328D02*
X92592857Y-75930900D01*
X92592857Y-75930900D02*
X92614285Y-75909471D01*
X92614285Y-75909471D02*
X92635714Y-75866614D01*
X92635714Y-75866614D02*
X92635714Y-75780900D01*
X92635714Y-75780900D02*
X92614285Y-75738042D01*
X92614285Y-75738042D02*
X92592857Y-75716614D01*
X92592857Y-75716614D02*
X92549999Y-75695185D01*
X92914285Y-75502328D02*
X92957142Y-75502328D01*
X92957142Y-75502328D02*
X92999999Y-75523757D01*
X92999999Y-75523757D02*
X93021428Y-75545185D01*
X93021428Y-75545185D02*
X93042856Y-75588042D01*
X93042856Y-75588042D02*
X93064285Y-75673757D01*
X93064285Y-75673757D02*
X93064285Y-75780900D01*
X93064285Y-75780900D02*
X93042856Y-75866614D01*
X93042856Y-75866614D02*
X93021428Y-75909471D01*
X93021428Y-75909471D02*
X92999999Y-75930900D01*
X92999999Y-75930900D02*
X92957142Y-75952328D01*
X92957142Y-75952328D02*
X92914285Y-75952328D01*
X92914285Y-75952328D02*
X92871428Y-75930900D01*
X92871428Y-75930900D02*
X92849999Y-75909471D01*
X92849999Y-75909471D02*
X92828570Y-75866614D01*
X92828570Y-75866614D02*
X92807142Y-75780900D01*
X92807142Y-75780900D02*
X92807142Y-75673757D01*
X92807142Y-75673757D02*
X92828570Y-75588042D01*
X92828570Y-75588042D02*
X92849999Y-75545185D01*
X92849999Y-75545185D02*
X92871428Y-75523757D01*
X92871428Y-75523757D02*
X92914285Y-75502328D01*
X93449999Y-75652328D02*
X93449999Y-75952328D01*
X93342856Y-75480900D02*
X93235713Y-75802328D01*
X93235713Y-75802328D02*
X93514284Y-75802328D01*
D11*
X95166666Y-88898200D02*
X95166666Y-88348200D01*
X95428571Y-88898200D02*
X95428571Y-88348200D01*
X95428571Y-88348200D02*
X95638095Y-88348200D01*
X95638095Y-88348200D02*
X95690476Y-88374390D01*
X95690476Y-88374390D02*
X95716666Y-88400581D01*
X95716666Y-88400581D02*
X95742857Y-88452962D01*
X95742857Y-88452962D02*
X95742857Y-88531533D01*
X95742857Y-88531533D02*
X95716666Y-88583914D01*
X95716666Y-88583914D02*
X95690476Y-88610105D01*
X95690476Y-88610105D02*
X95638095Y-88636295D01*
X95638095Y-88636295D02*
X95428571Y-88636295D01*
X95978571Y-88610105D02*
X96161904Y-88610105D01*
X96240476Y-88898200D02*
X95978571Y-88898200D01*
X95978571Y-88898200D02*
X95978571Y-88348200D01*
X95978571Y-88348200D02*
X96240476Y-88348200D01*
X96423809Y-88348200D02*
X96790476Y-88898200D01*
X96790476Y-88348200D02*
X96423809Y-88898200D01*
X97707143Y-88374390D02*
X97654762Y-88348200D01*
X97654762Y-88348200D02*
X97576191Y-88348200D01*
X97576191Y-88348200D02*
X97497619Y-88374390D01*
X97497619Y-88374390D02*
X97445238Y-88426771D01*
X97445238Y-88426771D02*
X97419048Y-88479152D01*
X97419048Y-88479152D02*
X97392857Y-88583914D01*
X97392857Y-88583914D02*
X97392857Y-88662486D01*
X97392857Y-88662486D02*
X97419048Y-88767248D01*
X97419048Y-88767248D02*
X97445238Y-88819629D01*
X97445238Y-88819629D02*
X97497619Y-88872010D01*
X97497619Y-88872010D02*
X97576191Y-88898200D01*
X97576191Y-88898200D02*
X97628572Y-88898200D01*
X97628572Y-88898200D02*
X97707143Y-88872010D01*
X97707143Y-88872010D02*
X97733334Y-88845819D01*
X97733334Y-88845819D02*
X97733334Y-88662486D01*
X97733334Y-88662486D02*
X97628572Y-88662486D01*
X97969048Y-88898200D02*
X97969048Y-88348200D01*
X97969048Y-88348200D02*
X98283334Y-88898200D01*
X98283334Y-88898200D02*
X98283334Y-88348200D01*
X98545238Y-88898200D02*
X98545238Y-88348200D01*
X98545238Y-88348200D02*
X98676190Y-88348200D01*
X98676190Y-88348200D02*
X98754762Y-88374390D01*
X98754762Y-88374390D02*
X98807143Y-88426771D01*
X98807143Y-88426771D02*
X98833333Y-88479152D01*
X98833333Y-88479152D02*
X98859524Y-88583914D01*
X98859524Y-88583914D02*
X98859524Y-88662486D01*
X98859524Y-88662486D02*
X98833333Y-88767248D01*
X98833333Y-88767248D02*
X98807143Y-88819629D01*
X98807143Y-88819629D02*
X98754762Y-88872010D01*
X98754762Y-88872010D02*
X98676190Y-88898200D01*
X98676190Y-88898200D02*
X98545238Y-88898200D01*
X59564661Y-6564188D02*
X59536089Y-6592760D01*
X59536089Y-6592760D02*
X59450375Y-6621331D01*
X59450375Y-6621331D02*
X59393232Y-6621331D01*
X59393232Y-6621331D02*
X59307518Y-6592760D01*
X59307518Y-6592760D02*
X59250375Y-6535617D01*
X59250375Y-6535617D02*
X59221804Y-6478474D01*
X59221804Y-6478474D02*
X59193232Y-6364188D01*
X59193232Y-6364188D02*
X59193232Y-6278474D01*
X59193232Y-6278474D02*
X59221804Y-6164188D01*
X59221804Y-6164188D02*
X59250375Y-6107045D01*
X59250375Y-6107045D02*
X59307518Y-6049902D01*
X59307518Y-6049902D02*
X59393232Y-6021331D01*
X59393232Y-6021331D02*
X59450375Y-6021331D01*
X59450375Y-6021331D02*
X59536089Y-6049902D01*
X59536089Y-6049902D02*
X59564661Y-6078474D01*
X59821804Y-6021331D02*
X59821804Y-6507045D01*
X59821804Y-6507045D02*
X59850375Y-6564188D01*
X59850375Y-6564188D02*
X59878947Y-6592760D01*
X59878947Y-6592760D02*
X59936089Y-6621331D01*
X59936089Y-6621331D02*
X60050375Y-6621331D01*
X60050375Y-6621331D02*
X60107518Y-6592760D01*
X60107518Y-6592760D02*
X60136089Y-6564188D01*
X60136089Y-6564188D02*
X60164661Y-6507045D01*
X60164661Y-6507045D02*
X60164661Y-6021331D01*
X60364660Y-6021331D02*
X60707518Y-6021331D01*
X60536089Y-6621331D02*
X60536089Y-6021331D01*
X61650375Y-6621331D02*
X61364661Y-6621331D01*
X61364661Y-6621331D02*
X61364661Y-6021331D01*
X61850375Y-6621331D02*
X61850375Y-6021331D01*
X62136089Y-6621331D02*
X62136089Y-6021331D01*
X62136089Y-6021331D02*
X62478946Y-6621331D01*
X62478946Y-6621331D02*
X62478946Y-6021331D01*
X62764660Y-6621331D02*
X62764660Y-6021331D01*
X63107517Y-6621331D02*
X62850374Y-6278474D01*
X63107517Y-6021331D02*
X62764660Y-6364188D01*
X59564661Y-29564188D02*
X59536089Y-29592760D01*
X59536089Y-29592760D02*
X59450375Y-29621331D01*
X59450375Y-29621331D02*
X59393232Y-29621331D01*
X59393232Y-29621331D02*
X59307518Y-29592760D01*
X59307518Y-29592760D02*
X59250375Y-29535617D01*
X59250375Y-29535617D02*
X59221804Y-29478474D01*
X59221804Y-29478474D02*
X59193232Y-29364188D01*
X59193232Y-29364188D02*
X59193232Y-29278474D01*
X59193232Y-29278474D02*
X59221804Y-29164188D01*
X59221804Y-29164188D02*
X59250375Y-29107045D01*
X59250375Y-29107045D02*
X59307518Y-29049902D01*
X59307518Y-29049902D02*
X59393232Y-29021331D01*
X59393232Y-29021331D02*
X59450375Y-29021331D01*
X59450375Y-29021331D02*
X59536089Y-29049902D01*
X59536089Y-29049902D02*
X59564661Y-29078474D01*
X59821804Y-29021331D02*
X59821804Y-29507045D01*
X59821804Y-29507045D02*
X59850375Y-29564188D01*
X59850375Y-29564188D02*
X59878947Y-29592760D01*
X59878947Y-29592760D02*
X59936089Y-29621331D01*
X59936089Y-29621331D02*
X60050375Y-29621331D01*
X60050375Y-29621331D02*
X60107518Y-29592760D01*
X60107518Y-29592760D02*
X60136089Y-29564188D01*
X60136089Y-29564188D02*
X60164661Y-29507045D01*
X60164661Y-29507045D02*
X60164661Y-29021331D01*
X60364660Y-29021331D02*
X60707518Y-29021331D01*
X60536089Y-29621331D02*
X60536089Y-29021331D01*
X61650375Y-29621331D02*
X61364661Y-29621331D01*
X61364661Y-29621331D02*
X61364661Y-29021331D01*
X61850375Y-29621331D02*
X61850375Y-29021331D01*
X62136089Y-29621331D02*
X62136089Y-29021331D01*
X62136089Y-29021331D02*
X62478946Y-29621331D01*
X62478946Y-29621331D02*
X62478946Y-29021331D01*
X62764660Y-29621331D02*
X62764660Y-29021331D01*
X63107517Y-29621331D02*
X62850374Y-29278474D01*
X63107517Y-29021331D02*
X62764660Y-29364188D01*
X59564661Y-52564188D02*
X59536089Y-52592760D01*
X59536089Y-52592760D02*
X59450375Y-52621331D01*
X59450375Y-52621331D02*
X59393232Y-52621331D01*
X59393232Y-52621331D02*
X59307518Y-52592760D01*
X59307518Y-52592760D02*
X59250375Y-52535617D01*
X59250375Y-52535617D02*
X59221804Y-52478474D01*
X59221804Y-52478474D02*
X59193232Y-52364188D01*
X59193232Y-52364188D02*
X59193232Y-52278474D01*
X59193232Y-52278474D02*
X59221804Y-52164188D01*
X59221804Y-52164188D02*
X59250375Y-52107045D01*
X59250375Y-52107045D02*
X59307518Y-52049902D01*
X59307518Y-52049902D02*
X59393232Y-52021331D01*
X59393232Y-52021331D02*
X59450375Y-52021331D01*
X59450375Y-52021331D02*
X59536089Y-52049902D01*
X59536089Y-52049902D02*
X59564661Y-52078474D01*
X59821804Y-52021331D02*
X59821804Y-52507045D01*
X59821804Y-52507045D02*
X59850375Y-52564188D01*
X59850375Y-52564188D02*
X59878947Y-52592760D01*
X59878947Y-52592760D02*
X59936089Y-52621331D01*
X59936089Y-52621331D02*
X60050375Y-52621331D01*
X60050375Y-52621331D02*
X60107518Y-52592760D01*
X60107518Y-52592760D02*
X60136089Y-52564188D01*
X60136089Y-52564188D02*
X60164661Y-52507045D01*
X60164661Y-52507045D02*
X60164661Y-52021331D01*
X60364660Y-52021331D02*
X60707518Y-52021331D01*
X60536089Y-52621331D02*
X60536089Y-52021331D01*
X61650375Y-52621331D02*
X61364661Y-52621331D01*
X61364661Y-52621331D02*
X61364661Y-52021331D01*
X61850375Y-52621331D02*
X61850375Y-52021331D01*
X62136089Y-52621331D02*
X62136089Y-52021331D01*
X62136089Y-52021331D02*
X62478946Y-52621331D01*
X62478946Y-52621331D02*
X62478946Y-52021331D01*
X62764660Y-52621331D02*
X62764660Y-52021331D01*
X63107517Y-52621331D02*
X62850374Y-52278474D01*
X63107517Y-52021331D02*
X62764660Y-52364188D01*
X59564661Y-75564188D02*
X59536089Y-75592760D01*
X59536089Y-75592760D02*
X59450375Y-75621331D01*
X59450375Y-75621331D02*
X59393232Y-75621331D01*
X59393232Y-75621331D02*
X59307518Y-75592760D01*
X59307518Y-75592760D02*
X59250375Y-75535617D01*
X59250375Y-75535617D02*
X59221804Y-75478474D01*
X59221804Y-75478474D02*
X59193232Y-75364188D01*
X59193232Y-75364188D02*
X59193232Y-75278474D01*
X59193232Y-75278474D02*
X59221804Y-75164188D01*
X59221804Y-75164188D02*
X59250375Y-75107045D01*
X59250375Y-75107045D02*
X59307518Y-75049902D01*
X59307518Y-75049902D02*
X59393232Y-75021331D01*
X59393232Y-75021331D02*
X59450375Y-75021331D01*
X59450375Y-75021331D02*
X59536089Y-75049902D01*
X59536089Y-75049902D02*
X59564661Y-75078474D01*
X59821804Y-75021331D02*
X59821804Y-75507045D01*
X59821804Y-75507045D02*
X59850375Y-75564188D01*
X59850375Y-75564188D02*
X59878947Y-75592760D01*
X59878947Y-75592760D02*
X59936089Y-75621331D01*
X59936089Y-75621331D02*
X60050375Y-75621331D01*
X60050375Y-75621331D02*
X60107518Y-75592760D01*
X60107518Y-75592760D02*
X60136089Y-75564188D01*
X60136089Y-75564188D02*
X60164661Y-75507045D01*
X60164661Y-75507045D02*
X60164661Y-75021331D01*
X60364660Y-75021331D02*
X60707518Y-75021331D01*
X60536089Y-75621331D02*
X60536089Y-75021331D01*
X61650375Y-75621331D02*
X61364661Y-75621331D01*
X61364661Y-75621331D02*
X61364661Y-75021331D01*
X61850375Y-75621331D02*
X61850375Y-75021331D01*
X62136089Y-75621331D02*
X62136089Y-75021331D01*
X62136089Y-75021331D02*
X62478946Y-75621331D01*
X62478946Y-75621331D02*
X62478946Y-75021331D01*
X62764660Y-75621331D02*
X62764660Y-75021331D01*
X63107517Y-75621331D02*
X62850374Y-75278474D01*
X63107517Y-75021331D02*
X62764660Y-75364188D01*
D13*
X20225438Y-7433220D02*
X20325438Y-7466553D01*
X20325438Y-7466553D02*
X20492105Y-7466553D01*
X20492105Y-7466553D02*
X20558771Y-7433220D01*
X20558771Y-7433220D02*
X20592105Y-7399886D01*
X20592105Y-7399886D02*
X20625438Y-7333220D01*
X20625438Y-7333220D02*
X20625438Y-7266553D01*
X20625438Y-7266553D02*
X20592105Y-7199886D01*
X20592105Y-7199886D02*
X20558771Y-7166553D01*
X20558771Y-7166553D02*
X20492105Y-7133220D01*
X20492105Y-7133220D02*
X20358771Y-7099886D01*
X20358771Y-7099886D02*
X20292105Y-7066553D01*
X20292105Y-7066553D02*
X20258771Y-7033220D01*
X20258771Y-7033220D02*
X20225438Y-6966553D01*
X20225438Y-6966553D02*
X20225438Y-6899886D01*
X20225438Y-6899886D02*
X20258771Y-6833220D01*
X20258771Y-6833220D02*
X20292105Y-6799886D01*
X20292105Y-6799886D02*
X20358771Y-6766553D01*
X20358771Y-6766553D02*
X20525438Y-6766553D01*
X20525438Y-6766553D02*
X20625438Y-6799886D01*
X21058772Y-6766553D02*
X21125438Y-6766553D01*
X21125438Y-6766553D02*
X21192105Y-6799886D01*
X21192105Y-6799886D02*
X21225438Y-6833220D01*
X21225438Y-6833220D02*
X21258772Y-6899886D01*
X21258772Y-6899886D02*
X21292105Y-7033220D01*
X21292105Y-7033220D02*
X21292105Y-7199886D01*
X21292105Y-7199886D02*
X21258772Y-7333220D01*
X21258772Y-7333220D02*
X21225438Y-7399886D01*
X21225438Y-7399886D02*
X21192105Y-7433220D01*
X21192105Y-7433220D02*
X21125438Y-7466553D01*
X21125438Y-7466553D02*
X21058772Y-7466553D01*
X21058772Y-7466553D02*
X20992105Y-7433220D01*
X20992105Y-7433220D02*
X20958772Y-7399886D01*
X20958772Y-7399886D02*
X20925438Y-7333220D01*
X20925438Y-7333220D02*
X20892105Y-7199886D01*
X20892105Y-7199886D02*
X20892105Y-7033220D01*
X20892105Y-7033220D02*
X20925438Y-6899886D01*
X20925438Y-6899886D02*
X20958772Y-6833220D01*
X20958772Y-6833220D02*
X20992105Y-6799886D01*
X20992105Y-6799886D02*
X21058772Y-6766553D01*
X22592105Y-6999886D02*
X22725438Y-7466553D01*
X22725438Y-7466553D02*
X22858771Y-7133220D01*
X22858771Y-7133220D02*
X22992105Y-7466553D01*
X22992105Y-7466553D02*
X23125438Y-6999886D01*
X23358771Y-6833220D02*
X23392104Y-6799886D01*
X23392104Y-6799886D02*
X23458771Y-6766553D01*
X23458771Y-6766553D02*
X23625438Y-6766553D01*
X23625438Y-6766553D02*
X23692104Y-6799886D01*
X23692104Y-6799886D02*
X23725438Y-6833220D01*
X23725438Y-6833220D02*
X23758771Y-6899886D01*
X23758771Y-6899886D02*
X23758771Y-6966553D01*
X23758771Y-6966553D02*
X23725438Y-7066553D01*
X23725438Y-7066553D02*
X23325438Y-7466553D01*
X23325438Y-7466553D02*
X23758771Y-7466553D01*
X24058771Y-7399886D02*
X24092105Y-7433220D01*
X24092105Y-7433220D02*
X24058771Y-7466553D01*
X24058771Y-7466553D02*
X24025438Y-7433220D01*
X24025438Y-7433220D02*
X24058771Y-7399886D01*
X24058771Y-7399886D02*
X24058771Y-7466553D01*
X24525438Y-6766553D02*
X24592104Y-6766553D01*
X24592104Y-6766553D02*
X24658771Y-6799886D01*
X24658771Y-6799886D02*
X24692104Y-6833220D01*
X24692104Y-6833220D02*
X24725438Y-6899886D01*
X24725438Y-6899886D02*
X24758771Y-7033220D01*
X24758771Y-7033220D02*
X24758771Y-7199886D01*
X24758771Y-7199886D02*
X24725438Y-7333220D01*
X24725438Y-7333220D02*
X24692104Y-7399886D01*
X24692104Y-7399886D02*
X24658771Y-7433220D01*
X24658771Y-7433220D02*
X24592104Y-7466553D01*
X24592104Y-7466553D02*
X24525438Y-7466553D01*
X24525438Y-7466553D02*
X24458771Y-7433220D01*
X24458771Y-7433220D02*
X24425438Y-7399886D01*
X24425438Y-7399886D02*
X24392104Y-7333220D01*
X24392104Y-7333220D02*
X24358771Y-7199886D01*
X24358771Y-7199886D02*
X24358771Y-7033220D01*
X24358771Y-7033220D02*
X24392104Y-6899886D01*
X24392104Y-6899886D02*
X24425438Y-6833220D01*
X24425438Y-6833220D02*
X24458771Y-6799886D01*
X24458771Y-6799886D02*
X24525438Y-6766553D01*
X25558771Y-7266553D02*
X25892104Y-7266553D01*
X25492104Y-7466553D02*
X25725438Y-6766553D01*
X25725438Y-6766553D02*
X25958771Y-7466553D01*
X26592104Y-7466553D02*
X26358771Y-7133220D01*
X26192104Y-7466553D02*
X26192104Y-6766553D01*
X26192104Y-6766553D02*
X26458771Y-6766553D01*
X26458771Y-6766553D02*
X26525438Y-6799886D01*
X26525438Y-6799886D02*
X26558771Y-6833220D01*
X26558771Y-6833220D02*
X26592104Y-6899886D01*
X26592104Y-6899886D02*
X26592104Y-6999886D01*
X26592104Y-6999886D02*
X26558771Y-7066553D01*
X26558771Y-7066553D02*
X26525438Y-7099886D01*
X26525438Y-7099886D02*
X26458771Y-7133220D01*
X26458771Y-7133220D02*
X26192104Y-7133220D01*
X26892104Y-7466553D02*
X26892104Y-6766553D01*
X26892104Y-6766553D02*
X27125438Y-7266553D01*
X27125438Y-7266553D02*
X27358771Y-6766553D01*
X27358771Y-6766553D02*
X27358771Y-7466553D01*
X27692104Y-7099886D02*
X28225438Y-7099886D01*
X28225438Y-7299886D02*
X27692104Y-7299886D01*
X28492105Y-6766553D02*
X28958771Y-6766553D01*
X28958771Y-6766553D02*
X28658771Y-7466553D01*
X29358772Y-6766553D02*
X29425438Y-6766553D01*
X29425438Y-6766553D02*
X29492105Y-6799886D01*
X29492105Y-6799886D02*
X29525438Y-6833220D01*
X29525438Y-6833220D02*
X29558772Y-6899886D01*
X29558772Y-6899886D02*
X29592105Y-7033220D01*
X29592105Y-7033220D02*
X29592105Y-7199886D01*
X29592105Y-7199886D02*
X29558772Y-7333220D01*
X29558772Y-7333220D02*
X29525438Y-7399886D01*
X29525438Y-7399886D02*
X29492105Y-7433220D01*
X29492105Y-7433220D02*
X29425438Y-7466553D01*
X29425438Y-7466553D02*
X29358772Y-7466553D01*
X29358772Y-7466553D02*
X29292105Y-7433220D01*
X29292105Y-7433220D02*
X29258772Y-7399886D01*
X29258772Y-7399886D02*
X29225438Y-7333220D01*
X29225438Y-7333220D02*
X29192105Y-7199886D01*
X29192105Y-7199886D02*
X29192105Y-7033220D01*
X29192105Y-7033220D02*
X29225438Y-6899886D01*
X29225438Y-6899886D02*
X29258772Y-6833220D01*
X29258772Y-6833220D02*
X29292105Y-6799886D01*
X29292105Y-6799886D02*
X29358772Y-6766553D01*
X29892105Y-7399886D02*
X29925439Y-7433220D01*
X29925439Y-7433220D02*
X29892105Y-7466553D01*
X29892105Y-7466553D02*
X29858772Y-7433220D01*
X29858772Y-7433220D02*
X29892105Y-7399886D01*
X29892105Y-7399886D02*
X29892105Y-7466553D01*
X30558772Y-6766553D02*
X30225438Y-6766553D01*
X30225438Y-6766553D02*
X30192105Y-7099886D01*
X30192105Y-7099886D02*
X30225438Y-7066553D01*
X30225438Y-7066553D02*
X30292105Y-7033220D01*
X30292105Y-7033220D02*
X30458772Y-7033220D01*
X30458772Y-7033220D02*
X30525438Y-7066553D01*
X30525438Y-7066553D02*
X30558772Y-7099886D01*
X30558772Y-7099886D02*
X30592105Y-7166553D01*
X30592105Y-7166553D02*
X30592105Y-7333220D01*
X30592105Y-7333220D02*
X30558772Y-7399886D01*
X30558772Y-7399886D02*
X30525438Y-7433220D01*
X30525438Y-7433220D02*
X30458772Y-7466553D01*
X30458772Y-7466553D02*
X30292105Y-7466553D01*
X30292105Y-7466553D02*
X30225438Y-7433220D01*
X30225438Y-7433220D02*
X30192105Y-7399886D01*
X31892105Y-6766553D02*
X32325438Y-6766553D01*
X32325438Y-6766553D02*
X32092105Y-7033220D01*
X32092105Y-7033220D02*
X32192105Y-7033220D01*
X32192105Y-7033220D02*
X32258771Y-7066553D01*
X32258771Y-7066553D02*
X32292105Y-7099886D01*
X32292105Y-7099886D02*
X32325438Y-7166553D01*
X32325438Y-7166553D02*
X32325438Y-7333220D01*
X32325438Y-7333220D02*
X32292105Y-7399886D01*
X32292105Y-7399886D02*
X32258771Y-7433220D01*
X32258771Y-7433220D02*
X32192105Y-7466553D01*
X32192105Y-7466553D02*
X31992105Y-7466553D01*
X31992105Y-7466553D02*
X31925438Y-7433220D01*
X31925438Y-7433220D02*
X31892105Y-7399886D01*
X33025438Y-7399886D02*
X32992105Y-7433220D01*
X32992105Y-7433220D02*
X32892105Y-7466553D01*
X32892105Y-7466553D02*
X32825438Y-7466553D01*
X32825438Y-7466553D02*
X32725438Y-7433220D01*
X32725438Y-7433220D02*
X32658772Y-7366553D01*
X32658772Y-7366553D02*
X32625438Y-7299886D01*
X32625438Y-7299886D02*
X32592105Y-7166553D01*
X32592105Y-7166553D02*
X32592105Y-7066553D01*
X32592105Y-7066553D02*
X32625438Y-6933220D01*
X32625438Y-6933220D02*
X32658772Y-6866553D01*
X32658772Y-6866553D02*
X32725438Y-6799886D01*
X32725438Y-6799886D02*
X32825438Y-6766553D01*
X32825438Y-6766553D02*
X32892105Y-6766553D01*
X32892105Y-6766553D02*
X32992105Y-6799886D01*
X32992105Y-6799886D02*
X33025438Y-6833220D01*
X33325438Y-6766553D02*
X33325438Y-7333220D01*
X33325438Y-7333220D02*
X33358772Y-7399886D01*
X33358772Y-7399886D02*
X33392105Y-7433220D01*
X33392105Y-7433220D02*
X33458772Y-7466553D01*
X33458772Y-7466553D02*
X33592105Y-7466553D01*
X33592105Y-7466553D02*
X33658772Y-7433220D01*
X33658772Y-7433220D02*
X33692105Y-7399886D01*
X33692105Y-7399886D02*
X33725438Y-7333220D01*
X33725438Y-7333220D02*
X33725438Y-6766553D01*
X33958771Y-6766553D02*
X34358771Y-6766553D01*
X34158771Y-7466553D02*
X34158771Y-6766553D01*
X34558771Y-7433220D02*
X34658771Y-7466553D01*
X34658771Y-7466553D02*
X34825438Y-7466553D01*
X34825438Y-7466553D02*
X34892104Y-7433220D01*
X34892104Y-7433220D02*
X34925438Y-7399886D01*
X34925438Y-7399886D02*
X34958771Y-7333220D01*
X34958771Y-7333220D02*
X34958771Y-7266553D01*
X34958771Y-7266553D02*
X34925438Y-7199886D01*
X34925438Y-7199886D02*
X34892104Y-7166553D01*
X34892104Y-7166553D02*
X34825438Y-7133220D01*
X34825438Y-7133220D02*
X34692104Y-7099886D01*
X34692104Y-7099886D02*
X34625438Y-7066553D01*
X34625438Y-7066553D02*
X34592104Y-7033220D01*
X34592104Y-7033220D02*
X34558771Y-6966553D01*
X34558771Y-6966553D02*
X34558771Y-6899886D01*
X34558771Y-6899886D02*
X34592104Y-6833220D01*
X34592104Y-6833220D02*
X34625438Y-6799886D01*
X34625438Y-6799886D02*
X34692104Y-6766553D01*
X34692104Y-6766553D02*
X34858771Y-6766553D01*
X34858771Y-6766553D02*
X34958771Y-6799886D01*
X35258771Y-7199886D02*
X35792105Y-7199886D01*
X36125438Y-6999886D02*
X36658772Y-7199886D01*
X36658772Y-7199886D02*
X36125438Y-7399886D01*
X36992105Y-7199886D02*
X37525439Y-7199886D01*
X38158772Y-6999886D02*
X38158772Y-7466553D01*
X37992106Y-6733220D02*
X37825439Y-7233220D01*
X37825439Y-7233220D02*
X38258772Y-7233220D01*
X38525439Y-7399886D02*
X38558773Y-7433220D01*
X38558773Y-7433220D02*
X38525439Y-7466553D01*
X38525439Y-7466553D02*
X38492106Y-7433220D01*
X38492106Y-7433220D02*
X38525439Y-7399886D01*
X38525439Y-7399886D02*
X38525439Y-7466553D01*
X39192106Y-6766553D02*
X38858772Y-6766553D01*
X38858772Y-6766553D02*
X38825439Y-7099886D01*
X38825439Y-7099886D02*
X38858772Y-7066553D01*
X38858772Y-7066553D02*
X38925439Y-7033220D01*
X38925439Y-7033220D02*
X39092106Y-7033220D01*
X39092106Y-7033220D02*
X39158772Y-7066553D01*
X39158772Y-7066553D02*
X39192106Y-7099886D01*
X39192106Y-7099886D02*
X39225439Y-7166553D01*
X39225439Y-7166553D02*
X39225439Y-7333220D01*
X39225439Y-7333220D02*
X39192106Y-7399886D01*
X39192106Y-7399886D02*
X39158772Y-7433220D01*
X39158772Y-7433220D02*
X39092106Y-7466553D01*
X39092106Y-7466553D02*
X38925439Y-7466553D01*
X38925439Y-7466553D02*
X38858772Y-7433220D01*
X38858772Y-7433220D02*
X38825439Y-7399886D01*
X39525439Y-7466553D02*
X39525439Y-6999886D01*
X39525439Y-7066553D02*
X39558773Y-7033220D01*
X39558773Y-7033220D02*
X39625439Y-6999886D01*
X39625439Y-6999886D02*
X39725439Y-6999886D01*
X39725439Y-6999886D02*
X39792106Y-7033220D01*
X39792106Y-7033220D02*
X39825439Y-7099886D01*
X39825439Y-7099886D02*
X39825439Y-7466553D01*
X39825439Y-7099886D02*
X39858773Y-7033220D01*
X39858773Y-7033220D02*
X39925439Y-6999886D01*
X39925439Y-6999886D02*
X40025439Y-6999886D01*
X40025439Y-6999886D02*
X40092106Y-7033220D01*
X40092106Y-7033220D02*
X40125439Y-7099886D01*
X40125439Y-7099886D02*
X40125439Y-7466553D01*
X40458772Y-7466553D02*
X40458772Y-6999886D01*
X40458772Y-7066553D02*
X40492106Y-7033220D01*
X40492106Y-7033220D02*
X40558772Y-6999886D01*
X40558772Y-6999886D02*
X40658772Y-6999886D01*
X40658772Y-6999886D02*
X40725439Y-7033220D01*
X40725439Y-7033220D02*
X40758772Y-7099886D01*
X40758772Y-7099886D02*
X40758772Y-7466553D01*
X40758772Y-7099886D02*
X40792106Y-7033220D01*
X40792106Y-7033220D02*
X40858772Y-6999886D01*
X40858772Y-6999886D02*
X40958772Y-6999886D01*
X40958772Y-6999886D02*
X41025439Y-7033220D01*
X41025439Y-7033220D02*
X41058772Y-7099886D01*
X41058772Y-7099886D02*
X41058772Y-7466553D01*
X20225438Y-30433220D02*
X20325438Y-30466553D01*
X20325438Y-30466553D02*
X20492105Y-30466553D01*
X20492105Y-30466553D02*
X20558771Y-30433220D01*
X20558771Y-30433220D02*
X20592105Y-30399886D01*
X20592105Y-30399886D02*
X20625438Y-30333220D01*
X20625438Y-30333220D02*
X20625438Y-30266553D01*
X20625438Y-30266553D02*
X20592105Y-30199886D01*
X20592105Y-30199886D02*
X20558771Y-30166553D01*
X20558771Y-30166553D02*
X20492105Y-30133220D01*
X20492105Y-30133220D02*
X20358771Y-30099886D01*
X20358771Y-30099886D02*
X20292105Y-30066553D01*
X20292105Y-30066553D02*
X20258771Y-30033220D01*
X20258771Y-30033220D02*
X20225438Y-29966553D01*
X20225438Y-29966553D02*
X20225438Y-29899886D01*
X20225438Y-29899886D02*
X20258771Y-29833220D01*
X20258771Y-29833220D02*
X20292105Y-29799886D01*
X20292105Y-29799886D02*
X20358771Y-29766553D01*
X20358771Y-29766553D02*
X20525438Y-29766553D01*
X20525438Y-29766553D02*
X20625438Y-29799886D01*
X20925438Y-30199886D02*
X21458772Y-30199886D01*
X22092105Y-29999886D02*
X22092105Y-30466553D01*
X21925439Y-29733220D02*
X21758772Y-30233220D01*
X21758772Y-30233220D02*
X22192105Y-30233220D01*
X23458772Y-29999886D02*
X23592105Y-30466553D01*
X23592105Y-30466553D02*
X23725438Y-30133220D01*
X23725438Y-30133220D02*
X23858772Y-30466553D01*
X23858772Y-30466553D02*
X23992105Y-29999886D01*
X24225438Y-29833220D02*
X24258771Y-29799886D01*
X24258771Y-29799886D02*
X24325438Y-29766553D01*
X24325438Y-29766553D02*
X24492105Y-29766553D01*
X24492105Y-29766553D02*
X24558771Y-29799886D01*
X24558771Y-29799886D02*
X24592105Y-29833220D01*
X24592105Y-29833220D02*
X24625438Y-29899886D01*
X24625438Y-29899886D02*
X24625438Y-29966553D01*
X24625438Y-29966553D02*
X24592105Y-30066553D01*
X24592105Y-30066553D02*
X24192105Y-30466553D01*
X24192105Y-30466553D02*
X24625438Y-30466553D01*
X24925438Y-30399886D02*
X24958772Y-30433220D01*
X24958772Y-30433220D02*
X24925438Y-30466553D01*
X24925438Y-30466553D02*
X24892105Y-30433220D01*
X24892105Y-30433220D02*
X24925438Y-30399886D01*
X24925438Y-30399886D02*
X24925438Y-30466553D01*
X25392105Y-29766553D02*
X25458771Y-29766553D01*
X25458771Y-29766553D02*
X25525438Y-29799886D01*
X25525438Y-29799886D02*
X25558771Y-29833220D01*
X25558771Y-29833220D02*
X25592105Y-29899886D01*
X25592105Y-29899886D02*
X25625438Y-30033220D01*
X25625438Y-30033220D02*
X25625438Y-30199886D01*
X25625438Y-30199886D02*
X25592105Y-30333220D01*
X25592105Y-30333220D02*
X25558771Y-30399886D01*
X25558771Y-30399886D02*
X25525438Y-30433220D01*
X25525438Y-30433220D02*
X25458771Y-30466553D01*
X25458771Y-30466553D02*
X25392105Y-30466553D01*
X25392105Y-30466553D02*
X25325438Y-30433220D01*
X25325438Y-30433220D02*
X25292105Y-30399886D01*
X25292105Y-30399886D02*
X25258771Y-30333220D01*
X25258771Y-30333220D02*
X25225438Y-30199886D01*
X25225438Y-30199886D02*
X25225438Y-30033220D01*
X25225438Y-30033220D02*
X25258771Y-29899886D01*
X25258771Y-29899886D02*
X25292105Y-29833220D01*
X25292105Y-29833220D02*
X25325438Y-29799886D01*
X25325438Y-29799886D02*
X25392105Y-29766553D01*
X26425438Y-30266553D02*
X26758771Y-30266553D01*
X26358771Y-30466553D02*
X26592105Y-29766553D01*
X26592105Y-29766553D02*
X26825438Y-30466553D01*
X27458771Y-30466553D02*
X27225438Y-30133220D01*
X27058771Y-30466553D02*
X27058771Y-29766553D01*
X27058771Y-29766553D02*
X27325438Y-29766553D01*
X27325438Y-29766553D02*
X27392105Y-29799886D01*
X27392105Y-29799886D02*
X27425438Y-29833220D01*
X27425438Y-29833220D02*
X27458771Y-29899886D01*
X27458771Y-29899886D02*
X27458771Y-29999886D01*
X27458771Y-29999886D02*
X27425438Y-30066553D01*
X27425438Y-30066553D02*
X27392105Y-30099886D01*
X27392105Y-30099886D02*
X27325438Y-30133220D01*
X27325438Y-30133220D02*
X27058771Y-30133220D01*
X27758771Y-30466553D02*
X27758771Y-29766553D01*
X27758771Y-29766553D02*
X27992105Y-30266553D01*
X27992105Y-30266553D02*
X28225438Y-29766553D01*
X28225438Y-29766553D02*
X28225438Y-30466553D01*
X28558771Y-30099886D02*
X29092105Y-30099886D01*
X29092105Y-30299886D02*
X28558771Y-30299886D01*
X29725438Y-29766553D02*
X29592105Y-29766553D01*
X29592105Y-29766553D02*
X29525438Y-29799886D01*
X29525438Y-29799886D02*
X29492105Y-29833220D01*
X29492105Y-29833220D02*
X29425438Y-29933220D01*
X29425438Y-29933220D02*
X29392105Y-30066553D01*
X29392105Y-30066553D02*
X29392105Y-30333220D01*
X29392105Y-30333220D02*
X29425438Y-30399886D01*
X29425438Y-30399886D02*
X29458772Y-30433220D01*
X29458772Y-30433220D02*
X29525438Y-30466553D01*
X29525438Y-30466553D02*
X29658772Y-30466553D01*
X29658772Y-30466553D02*
X29725438Y-30433220D01*
X29725438Y-30433220D02*
X29758772Y-30399886D01*
X29758772Y-30399886D02*
X29792105Y-30333220D01*
X29792105Y-30333220D02*
X29792105Y-30166553D01*
X29792105Y-30166553D02*
X29758772Y-30099886D01*
X29758772Y-30099886D02*
X29725438Y-30066553D01*
X29725438Y-30066553D02*
X29658772Y-30033220D01*
X29658772Y-30033220D02*
X29525438Y-30033220D01*
X29525438Y-30033220D02*
X29458772Y-30066553D01*
X29458772Y-30066553D02*
X29425438Y-30099886D01*
X29425438Y-30099886D02*
X29392105Y-30166553D01*
X30425439Y-29766553D02*
X30092105Y-29766553D01*
X30092105Y-29766553D02*
X30058772Y-30099886D01*
X30058772Y-30099886D02*
X30092105Y-30066553D01*
X30092105Y-30066553D02*
X30158772Y-30033220D01*
X30158772Y-30033220D02*
X30325439Y-30033220D01*
X30325439Y-30033220D02*
X30392105Y-30066553D01*
X30392105Y-30066553D02*
X30425439Y-30099886D01*
X30425439Y-30099886D02*
X30458772Y-30166553D01*
X30458772Y-30166553D02*
X30458772Y-30333220D01*
X30458772Y-30333220D02*
X30425439Y-30399886D01*
X30425439Y-30399886D02*
X30392105Y-30433220D01*
X30392105Y-30433220D02*
X30325439Y-30466553D01*
X30325439Y-30466553D02*
X30158772Y-30466553D01*
X30158772Y-30466553D02*
X30092105Y-30433220D01*
X30092105Y-30433220D02*
X30058772Y-30399886D01*
X30758772Y-30399886D02*
X30792106Y-30433220D01*
X30792106Y-30433220D02*
X30758772Y-30466553D01*
X30758772Y-30466553D02*
X30725439Y-30433220D01*
X30725439Y-30433220D02*
X30758772Y-30399886D01*
X30758772Y-30399886D02*
X30758772Y-30466553D01*
X31425439Y-29766553D02*
X31092105Y-29766553D01*
X31092105Y-29766553D02*
X31058772Y-30099886D01*
X31058772Y-30099886D02*
X31092105Y-30066553D01*
X31092105Y-30066553D02*
X31158772Y-30033220D01*
X31158772Y-30033220D02*
X31325439Y-30033220D01*
X31325439Y-30033220D02*
X31392105Y-30066553D01*
X31392105Y-30066553D02*
X31425439Y-30099886D01*
X31425439Y-30099886D02*
X31458772Y-30166553D01*
X31458772Y-30166553D02*
X31458772Y-30333220D01*
X31458772Y-30333220D02*
X31425439Y-30399886D01*
X31425439Y-30399886D02*
X31392105Y-30433220D01*
X31392105Y-30433220D02*
X31325439Y-30466553D01*
X31325439Y-30466553D02*
X31158772Y-30466553D01*
X31158772Y-30466553D02*
X31092105Y-30433220D01*
X31092105Y-30433220D02*
X31058772Y-30399886D01*
X20258771Y-53466553D02*
X20258771Y-52766553D01*
X20258771Y-52766553D02*
X20425438Y-52766553D01*
X20425438Y-52766553D02*
X20525438Y-52799886D01*
X20525438Y-52799886D02*
X20592105Y-52866553D01*
X20592105Y-52866553D02*
X20625438Y-52933220D01*
X20625438Y-52933220D02*
X20658771Y-53066553D01*
X20658771Y-53066553D02*
X20658771Y-53166553D01*
X20658771Y-53166553D02*
X20625438Y-53299886D01*
X20625438Y-53299886D02*
X20592105Y-53366553D01*
X20592105Y-53366553D02*
X20525438Y-53433220D01*
X20525438Y-53433220D02*
X20425438Y-53466553D01*
X20425438Y-53466553D02*
X20258771Y-53466553D01*
X21092105Y-52766553D02*
X21158771Y-52766553D01*
X21158771Y-52766553D02*
X21225438Y-52799886D01*
X21225438Y-52799886D02*
X21258771Y-52833220D01*
X21258771Y-52833220D02*
X21292105Y-52899886D01*
X21292105Y-52899886D02*
X21325438Y-53033220D01*
X21325438Y-53033220D02*
X21325438Y-53199886D01*
X21325438Y-53199886D02*
X21292105Y-53333220D01*
X21292105Y-53333220D02*
X21258771Y-53399886D01*
X21258771Y-53399886D02*
X21225438Y-53433220D01*
X21225438Y-53433220D02*
X21158771Y-53466553D01*
X21158771Y-53466553D02*
X21092105Y-53466553D01*
X21092105Y-53466553D02*
X21025438Y-53433220D01*
X21025438Y-53433220D02*
X20992105Y-53399886D01*
X20992105Y-53399886D02*
X20958771Y-53333220D01*
X20958771Y-53333220D02*
X20925438Y-53199886D01*
X20925438Y-53199886D02*
X20925438Y-53033220D01*
X20925438Y-53033220D02*
X20958771Y-52899886D01*
X20958771Y-52899886D02*
X20992105Y-52833220D01*
X20992105Y-52833220D02*
X21025438Y-52799886D01*
X21025438Y-52799886D02*
X21092105Y-52766553D01*
X22625438Y-52999886D02*
X22758771Y-53466553D01*
X22758771Y-53466553D02*
X22892104Y-53133220D01*
X22892104Y-53133220D02*
X23025438Y-53466553D01*
X23025438Y-53466553D02*
X23158771Y-52999886D01*
X23392104Y-52833220D02*
X23425437Y-52799886D01*
X23425437Y-52799886D02*
X23492104Y-52766553D01*
X23492104Y-52766553D02*
X23658771Y-52766553D01*
X23658771Y-52766553D02*
X23725437Y-52799886D01*
X23725437Y-52799886D02*
X23758771Y-52833220D01*
X23758771Y-52833220D02*
X23792104Y-52899886D01*
X23792104Y-52899886D02*
X23792104Y-52966553D01*
X23792104Y-52966553D02*
X23758771Y-53066553D01*
X23758771Y-53066553D02*
X23358771Y-53466553D01*
X23358771Y-53466553D02*
X23792104Y-53466553D01*
X24092104Y-53399886D02*
X24125438Y-53433220D01*
X24125438Y-53433220D02*
X24092104Y-53466553D01*
X24092104Y-53466553D02*
X24058771Y-53433220D01*
X24058771Y-53433220D02*
X24092104Y-53399886D01*
X24092104Y-53399886D02*
X24092104Y-53466553D01*
X24758771Y-52766553D02*
X24425437Y-52766553D01*
X24425437Y-52766553D02*
X24392104Y-53099886D01*
X24392104Y-53099886D02*
X24425437Y-53066553D01*
X24425437Y-53066553D02*
X24492104Y-53033220D01*
X24492104Y-53033220D02*
X24658771Y-53033220D01*
X24658771Y-53033220D02*
X24725437Y-53066553D01*
X24725437Y-53066553D02*
X24758771Y-53099886D01*
X24758771Y-53099886D02*
X24792104Y-53166553D01*
X24792104Y-53166553D02*
X24792104Y-53333220D01*
X24792104Y-53333220D02*
X24758771Y-53399886D01*
X24758771Y-53399886D02*
X24725437Y-53433220D01*
X24725437Y-53433220D02*
X24658771Y-53466553D01*
X24658771Y-53466553D02*
X24492104Y-53466553D01*
X24492104Y-53466553D02*
X24425437Y-53433220D01*
X24425437Y-53433220D02*
X24392104Y-53399886D01*
X25592104Y-53266553D02*
X25925437Y-53266553D01*
X25525437Y-53466553D02*
X25758771Y-52766553D01*
X25758771Y-52766553D02*
X25992104Y-53466553D01*
X26625437Y-53466553D02*
X26392104Y-53133220D01*
X26225437Y-53466553D02*
X26225437Y-52766553D01*
X26225437Y-52766553D02*
X26492104Y-52766553D01*
X26492104Y-52766553D02*
X26558771Y-52799886D01*
X26558771Y-52799886D02*
X26592104Y-52833220D01*
X26592104Y-52833220D02*
X26625437Y-52899886D01*
X26625437Y-52899886D02*
X26625437Y-52999886D01*
X26625437Y-52999886D02*
X26592104Y-53066553D01*
X26592104Y-53066553D02*
X26558771Y-53099886D01*
X26558771Y-53099886D02*
X26492104Y-53133220D01*
X26492104Y-53133220D02*
X26225437Y-53133220D01*
X26925437Y-53466553D02*
X26925437Y-52766553D01*
X26925437Y-52766553D02*
X27158771Y-53266553D01*
X27158771Y-53266553D02*
X27392104Y-52766553D01*
X27392104Y-52766553D02*
X27392104Y-53466553D01*
X27725437Y-53099886D02*
X28258771Y-53099886D01*
X28258771Y-53299886D02*
X27725437Y-53299886D01*
X28525438Y-52766553D02*
X28992104Y-52766553D01*
X28992104Y-52766553D02*
X28692104Y-53466553D01*
X29592105Y-52766553D02*
X29258771Y-52766553D01*
X29258771Y-52766553D02*
X29225438Y-53099886D01*
X29225438Y-53099886D02*
X29258771Y-53066553D01*
X29258771Y-53066553D02*
X29325438Y-53033220D01*
X29325438Y-53033220D02*
X29492105Y-53033220D01*
X29492105Y-53033220D02*
X29558771Y-53066553D01*
X29558771Y-53066553D02*
X29592105Y-53099886D01*
X29592105Y-53099886D02*
X29625438Y-53166553D01*
X29625438Y-53166553D02*
X29625438Y-53333220D01*
X29625438Y-53333220D02*
X29592105Y-53399886D01*
X29592105Y-53399886D02*
X29558771Y-53433220D01*
X29558771Y-53433220D02*
X29492105Y-53466553D01*
X29492105Y-53466553D02*
X29325438Y-53466553D01*
X29325438Y-53466553D02*
X29258771Y-53433220D01*
X29258771Y-53433220D02*
X29225438Y-53399886D01*
X29925438Y-53399886D02*
X29958772Y-53433220D01*
X29958772Y-53433220D02*
X29925438Y-53466553D01*
X29925438Y-53466553D02*
X29892105Y-53433220D01*
X29892105Y-53433220D02*
X29925438Y-53399886D01*
X29925438Y-53399886D02*
X29925438Y-53466553D01*
X30592105Y-52766553D02*
X30258771Y-52766553D01*
X30258771Y-52766553D02*
X30225438Y-53099886D01*
X30225438Y-53099886D02*
X30258771Y-53066553D01*
X30258771Y-53066553D02*
X30325438Y-53033220D01*
X30325438Y-53033220D02*
X30492105Y-53033220D01*
X30492105Y-53033220D02*
X30558771Y-53066553D01*
X30558771Y-53066553D02*
X30592105Y-53099886D01*
X30592105Y-53099886D02*
X30625438Y-53166553D01*
X30625438Y-53166553D02*
X30625438Y-53333220D01*
X30625438Y-53333220D02*
X30592105Y-53399886D01*
X30592105Y-53399886D02*
X30558771Y-53433220D01*
X30558771Y-53433220D02*
X30492105Y-53466553D01*
X30492105Y-53466553D02*
X30325438Y-53466553D01*
X30325438Y-53466553D02*
X30258771Y-53433220D01*
X30258771Y-53433220D02*
X30225438Y-53399886D01*
X31925438Y-52766553D02*
X32358771Y-52766553D01*
X32358771Y-52766553D02*
X32125438Y-53033220D01*
X32125438Y-53033220D02*
X32225438Y-53033220D01*
X32225438Y-53033220D02*
X32292104Y-53066553D01*
X32292104Y-53066553D02*
X32325438Y-53099886D01*
X32325438Y-53099886D02*
X32358771Y-53166553D01*
X32358771Y-53166553D02*
X32358771Y-53333220D01*
X32358771Y-53333220D02*
X32325438Y-53399886D01*
X32325438Y-53399886D02*
X32292104Y-53433220D01*
X32292104Y-53433220D02*
X32225438Y-53466553D01*
X32225438Y-53466553D02*
X32025438Y-53466553D01*
X32025438Y-53466553D02*
X31958771Y-53433220D01*
X31958771Y-53433220D02*
X31925438Y-53399886D01*
X33058771Y-53399886D02*
X33025438Y-53433220D01*
X33025438Y-53433220D02*
X32925438Y-53466553D01*
X32925438Y-53466553D02*
X32858771Y-53466553D01*
X32858771Y-53466553D02*
X32758771Y-53433220D01*
X32758771Y-53433220D02*
X32692105Y-53366553D01*
X32692105Y-53366553D02*
X32658771Y-53299886D01*
X32658771Y-53299886D02*
X32625438Y-53166553D01*
X32625438Y-53166553D02*
X32625438Y-53066553D01*
X32625438Y-53066553D02*
X32658771Y-52933220D01*
X32658771Y-52933220D02*
X32692105Y-52866553D01*
X32692105Y-52866553D02*
X32758771Y-52799886D01*
X32758771Y-52799886D02*
X32858771Y-52766553D01*
X32858771Y-52766553D02*
X32925438Y-52766553D01*
X32925438Y-52766553D02*
X33025438Y-52799886D01*
X33025438Y-52799886D02*
X33058771Y-52833220D01*
X33358771Y-52766553D02*
X33358771Y-53333220D01*
X33358771Y-53333220D02*
X33392105Y-53399886D01*
X33392105Y-53399886D02*
X33425438Y-53433220D01*
X33425438Y-53433220D02*
X33492105Y-53466553D01*
X33492105Y-53466553D02*
X33625438Y-53466553D01*
X33625438Y-53466553D02*
X33692105Y-53433220D01*
X33692105Y-53433220D02*
X33725438Y-53399886D01*
X33725438Y-53399886D02*
X33758771Y-53333220D01*
X33758771Y-53333220D02*
X33758771Y-52766553D01*
X33992104Y-52766553D02*
X34392104Y-52766553D01*
X34192104Y-53466553D02*
X34192104Y-52766553D01*
X34592104Y-53433220D02*
X34692104Y-53466553D01*
X34692104Y-53466553D02*
X34858771Y-53466553D01*
X34858771Y-53466553D02*
X34925437Y-53433220D01*
X34925437Y-53433220D02*
X34958771Y-53399886D01*
X34958771Y-53399886D02*
X34992104Y-53333220D01*
X34992104Y-53333220D02*
X34992104Y-53266553D01*
X34992104Y-53266553D02*
X34958771Y-53199886D01*
X34958771Y-53199886D02*
X34925437Y-53166553D01*
X34925437Y-53166553D02*
X34858771Y-53133220D01*
X34858771Y-53133220D02*
X34725437Y-53099886D01*
X34725437Y-53099886D02*
X34658771Y-53066553D01*
X34658771Y-53066553D02*
X34625437Y-53033220D01*
X34625437Y-53033220D02*
X34592104Y-52966553D01*
X34592104Y-52966553D02*
X34592104Y-52899886D01*
X34592104Y-52899886D02*
X34625437Y-52833220D01*
X34625437Y-52833220D02*
X34658771Y-52799886D01*
X34658771Y-52799886D02*
X34725437Y-52766553D01*
X34725437Y-52766553D02*
X34892104Y-52766553D01*
X34892104Y-52766553D02*
X34992104Y-52799886D01*
X35292104Y-53199886D02*
X35825438Y-53199886D01*
X36158771Y-52999886D02*
X36692105Y-53199886D01*
X36692105Y-53199886D02*
X36158771Y-53399886D01*
X37025438Y-53199886D02*
X37558772Y-53199886D01*
X38192105Y-52999886D02*
X38192105Y-53466553D01*
X38025439Y-52733220D02*
X37858772Y-53233220D01*
X37858772Y-53233220D02*
X38292105Y-53233220D01*
X38558772Y-53399886D02*
X38592106Y-53433220D01*
X38592106Y-53433220D02*
X38558772Y-53466553D01*
X38558772Y-53466553D02*
X38525439Y-53433220D01*
X38525439Y-53433220D02*
X38558772Y-53399886D01*
X38558772Y-53399886D02*
X38558772Y-53466553D01*
X39225439Y-52766553D02*
X38892105Y-52766553D01*
X38892105Y-52766553D02*
X38858772Y-53099886D01*
X38858772Y-53099886D02*
X38892105Y-53066553D01*
X38892105Y-53066553D02*
X38958772Y-53033220D01*
X38958772Y-53033220D02*
X39125439Y-53033220D01*
X39125439Y-53033220D02*
X39192105Y-53066553D01*
X39192105Y-53066553D02*
X39225439Y-53099886D01*
X39225439Y-53099886D02*
X39258772Y-53166553D01*
X39258772Y-53166553D02*
X39258772Y-53333220D01*
X39258772Y-53333220D02*
X39225439Y-53399886D01*
X39225439Y-53399886D02*
X39192105Y-53433220D01*
X39192105Y-53433220D02*
X39125439Y-53466553D01*
X39125439Y-53466553D02*
X38958772Y-53466553D01*
X38958772Y-53466553D02*
X38892105Y-53433220D01*
X38892105Y-53433220D02*
X38858772Y-53399886D01*
X39558772Y-53466553D02*
X39558772Y-52999886D01*
X39558772Y-53066553D02*
X39592106Y-53033220D01*
X39592106Y-53033220D02*
X39658772Y-52999886D01*
X39658772Y-52999886D02*
X39758772Y-52999886D01*
X39758772Y-52999886D02*
X39825439Y-53033220D01*
X39825439Y-53033220D02*
X39858772Y-53099886D01*
X39858772Y-53099886D02*
X39858772Y-53466553D01*
X39858772Y-53099886D02*
X39892106Y-53033220D01*
X39892106Y-53033220D02*
X39958772Y-52999886D01*
X39958772Y-52999886D02*
X40058772Y-52999886D01*
X40058772Y-52999886D02*
X40125439Y-53033220D01*
X40125439Y-53033220D02*
X40158772Y-53099886D01*
X40158772Y-53099886D02*
X40158772Y-53466553D01*
X40492105Y-53466553D02*
X40492105Y-52999886D01*
X40492105Y-53066553D02*
X40525439Y-53033220D01*
X40525439Y-53033220D02*
X40592105Y-52999886D01*
X40592105Y-52999886D02*
X40692105Y-52999886D01*
X40692105Y-52999886D02*
X40758772Y-53033220D01*
X40758772Y-53033220D02*
X40792105Y-53099886D01*
X40792105Y-53099886D02*
X40792105Y-53466553D01*
X40792105Y-53099886D02*
X40825439Y-53033220D01*
X40825439Y-53033220D02*
X40892105Y-52999886D01*
X40892105Y-52999886D02*
X40992105Y-52999886D01*
X40992105Y-52999886D02*
X41058772Y-53033220D01*
X41058772Y-53033220D02*
X41092105Y-53099886D01*
X41092105Y-53099886D02*
X41092105Y-53466553D01*
X20258771Y-76466553D02*
X20258771Y-75766553D01*
X20258771Y-75766553D02*
X20425438Y-75766553D01*
X20425438Y-75766553D02*
X20525438Y-75799886D01*
X20525438Y-75799886D02*
X20592105Y-75866553D01*
X20592105Y-75866553D02*
X20625438Y-75933220D01*
X20625438Y-75933220D02*
X20658771Y-76066553D01*
X20658771Y-76066553D02*
X20658771Y-76166553D01*
X20658771Y-76166553D02*
X20625438Y-76299886D01*
X20625438Y-76299886D02*
X20592105Y-76366553D01*
X20592105Y-76366553D02*
X20525438Y-76433220D01*
X20525438Y-76433220D02*
X20425438Y-76466553D01*
X20425438Y-76466553D02*
X20258771Y-76466553D01*
X20958771Y-76199886D02*
X21492105Y-76199886D01*
X22158772Y-75766553D02*
X21825438Y-75766553D01*
X21825438Y-75766553D02*
X21792105Y-76099886D01*
X21792105Y-76099886D02*
X21825438Y-76066553D01*
X21825438Y-76066553D02*
X21892105Y-76033220D01*
X21892105Y-76033220D02*
X22058772Y-76033220D01*
X22058772Y-76033220D02*
X22125438Y-76066553D01*
X22125438Y-76066553D02*
X22158772Y-76099886D01*
X22158772Y-76099886D02*
X22192105Y-76166553D01*
X22192105Y-76166553D02*
X22192105Y-76333220D01*
X22192105Y-76333220D02*
X22158772Y-76399886D01*
X22158772Y-76399886D02*
X22125438Y-76433220D01*
X22125438Y-76433220D02*
X22058772Y-76466553D01*
X22058772Y-76466553D02*
X21892105Y-76466553D01*
X21892105Y-76466553D02*
X21825438Y-76433220D01*
X21825438Y-76433220D02*
X21792105Y-76399886D01*
X23492105Y-75999886D02*
X23625438Y-76466553D01*
X23625438Y-76466553D02*
X23758771Y-76133220D01*
X23758771Y-76133220D02*
X23892105Y-76466553D01*
X23892105Y-76466553D02*
X24025438Y-75999886D01*
X24258771Y-75833220D02*
X24292104Y-75799886D01*
X24292104Y-75799886D02*
X24358771Y-75766553D01*
X24358771Y-75766553D02*
X24525438Y-75766553D01*
X24525438Y-75766553D02*
X24592104Y-75799886D01*
X24592104Y-75799886D02*
X24625438Y-75833220D01*
X24625438Y-75833220D02*
X24658771Y-75899886D01*
X24658771Y-75899886D02*
X24658771Y-75966553D01*
X24658771Y-75966553D02*
X24625438Y-76066553D01*
X24625438Y-76066553D02*
X24225438Y-76466553D01*
X24225438Y-76466553D02*
X24658771Y-76466553D01*
X24958771Y-76399886D02*
X24992105Y-76433220D01*
X24992105Y-76433220D02*
X24958771Y-76466553D01*
X24958771Y-76466553D02*
X24925438Y-76433220D01*
X24925438Y-76433220D02*
X24958771Y-76399886D01*
X24958771Y-76399886D02*
X24958771Y-76466553D01*
X25625438Y-75766553D02*
X25292104Y-75766553D01*
X25292104Y-75766553D02*
X25258771Y-76099886D01*
X25258771Y-76099886D02*
X25292104Y-76066553D01*
X25292104Y-76066553D02*
X25358771Y-76033220D01*
X25358771Y-76033220D02*
X25525438Y-76033220D01*
X25525438Y-76033220D02*
X25592104Y-76066553D01*
X25592104Y-76066553D02*
X25625438Y-76099886D01*
X25625438Y-76099886D02*
X25658771Y-76166553D01*
X25658771Y-76166553D02*
X25658771Y-76333220D01*
X25658771Y-76333220D02*
X25625438Y-76399886D01*
X25625438Y-76399886D02*
X25592104Y-76433220D01*
X25592104Y-76433220D02*
X25525438Y-76466553D01*
X25525438Y-76466553D02*
X25358771Y-76466553D01*
X25358771Y-76466553D02*
X25292104Y-76433220D01*
X25292104Y-76433220D02*
X25258771Y-76399886D01*
X26458771Y-76266553D02*
X26792104Y-76266553D01*
X26392104Y-76466553D02*
X26625438Y-75766553D01*
X26625438Y-75766553D02*
X26858771Y-76466553D01*
X27492104Y-76466553D02*
X27258771Y-76133220D01*
X27092104Y-76466553D02*
X27092104Y-75766553D01*
X27092104Y-75766553D02*
X27358771Y-75766553D01*
X27358771Y-75766553D02*
X27425438Y-75799886D01*
X27425438Y-75799886D02*
X27458771Y-75833220D01*
X27458771Y-75833220D02*
X27492104Y-75899886D01*
X27492104Y-75899886D02*
X27492104Y-75999886D01*
X27492104Y-75999886D02*
X27458771Y-76066553D01*
X27458771Y-76066553D02*
X27425438Y-76099886D01*
X27425438Y-76099886D02*
X27358771Y-76133220D01*
X27358771Y-76133220D02*
X27092104Y-76133220D01*
X27792104Y-76466553D02*
X27792104Y-75766553D01*
X27792104Y-75766553D02*
X28025438Y-76266553D01*
X28025438Y-76266553D02*
X28258771Y-75766553D01*
X28258771Y-75766553D02*
X28258771Y-76466553D01*
X28592104Y-76099886D02*
X29125438Y-76099886D01*
X29125438Y-76299886D02*
X28592104Y-76299886D01*
X29392105Y-75766553D02*
X29858771Y-75766553D01*
X29858771Y-75766553D02*
X29558771Y-76466553D01*
X30258772Y-75766553D02*
X30325438Y-75766553D01*
X30325438Y-75766553D02*
X30392105Y-75799886D01*
X30392105Y-75799886D02*
X30425438Y-75833220D01*
X30425438Y-75833220D02*
X30458772Y-75899886D01*
X30458772Y-75899886D02*
X30492105Y-76033220D01*
X30492105Y-76033220D02*
X30492105Y-76199886D01*
X30492105Y-76199886D02*
X30458772Y-76333220D01*
X30458772Y-76333220D02*
X30425438Y-76399886D01*
X30425438Y-76399886D02*
X30392105Y-76433220D01*
X30392105Y-76433220D02*
X30325438Y-76466553D01*
X30325438Y-76466553D02*
X30258772Y-76466553D01*
X30258772Y-76466553D02*
X30192105Y-76433220D01*
X30192105Y-76433220D02*
X30158772Y-76399886D01*
X30158772Y-76399886D02*
X30125438Y-76333220D01*
X30125438Y-76333220D02*
X30092105Y-76199886D01*
X30092105Y-76199886D02*
X30092105Y-76033220D01*
X30092105Y-76033220D02*
X30125438Y-75899886D01*
X30125438Y-75899886D02*
X30158772Y-75833220D01*
X30158772Y-75833220D02*
X30192105Y-75799886D01*
X30192105Y-75799886D02*
X30258772Y-75766553D01*
X30792105Y-76399886D02*
X30825439Y-76433220D01*
X30825439Y-76433220D02*
X30792105Y-76466553D01*
X30792105Y-76466553D02*
X30758772Y-76433220D01*
X30758772Y-76433220D02*
X30792105Y-76399886D01*
X30792105Y-76399886D02*
X30792105Y-76466553D01*
X31258772Y-75766553D02*
X31325438Y-75766553D01*
X31325438Y-75766553D02*
X31392105Y-75799886D01*
X31392105Y-75799886D02*
X31425438Y-75833220D01*
X31425438Y-75833220D02*
X31458772Y-75899886D01*
X31458772Y-75899886D02*
X31492105Y-76033220D01*
X31492105Y-76033220D02*
X31492105Y-76199886D01*
X31492105Y-76199886D02*
X31458772Y-76333220D01*
X31458772Y-76333220D02*
X31425438Y-76399886D01*
X31425438Y-76399886D02*
X31392105Y-76433220D01*
X31392105Y-76433220D02*
X31325438Y-76466553D01*
X31325438Y-76466553D02*
X31258772Y-76466553D01*
X31258772Y-76466553D02*
X31192105Y-76433220D01*
X31192105Y-76433220D02*
X31158772Y-76399886D01*
X31158772Y-76399886D02*
X31125438Y-76333220D01*
X31125438Y-76333220D02*
X31092105Y-76199886D01*
X31092105Y-76199886D02*
X31092105Y-76033220D01*
X31092105Y-76033220D02*
X31125438Y-75899886D01*
X31125438Y-75899886D02*
X31158772Y-75833220D01*
X31158772Y-75833220D02*
X31192105Y-75799886D01*
X31192105Y-75799886D02*
X31258772Y-75766553D01*
X56300001Y-19249886D02*
X56266668Y-19283220D01*
X56266668Y-19283220D02*
X56166668Y-19316553D01*
X56166668Y-19316553D02*
X56100001Y-19316553D01*
X56100001Y-19316553D02*
X56000001Y-19283220D01*
X56000001Y-19283220D02*
X55933335Y-19216553D01*
X55933335Y-19216553D02*
X55900001Y-19149886D01*
X55900001Y-19149886D02*
X55866668Y-19016553D01*
X55866668Y-19016553D02*
X55866668Y-18916553D01*
X55866668Y-18916553D02*
X55900001Y-18783220D01*
X55900001Y-18783220D02*
X55933335Y-18716553D01*
X55933335Y-18716553D02*
X56000001Y-18649886D01*
X56000001Y-18649886D02*
X56100001Y-18616553D01*
X56100001Y-18616553D02*
X56166668Y-18616553D01*
X56166668Y-18616553D02*
X56266668Y-18649886D01*
X56266668Y-18649886D02*
X56300001Y-18683220D01*
X56600001Y-18616553D02*
X56600001Y-19183220D01*
X56600001Y-19183220D02*
X56633335Y-19249886D01*
X56633335Y-19249886D02*
X56666668Y-19283220D01*
X56666668Y-19283220D02*
X56733335Y-19316553D01*
X56733335Y-19316553D02*
X56866668Y-19316553D01*
X56866668Y-19316553D02*
X56933335Y-19283220D01*
X56933335Y-19283220D02*
X56966668Y-19249886D01*
X56966668Y-19249886D02*
X57000001Y-19183220D01*
X57000001Y-19183220D02*
X57000001Y-18616553D01*
X57233334Y-18616553D02*
X57633334Y-18616553D01*
X57433334Y-19316553D02*
X57433334Y-18616553D01*
X58400000Y-18949886D02*
X58933334Y-18949886D01*
X58933334Y-19149886D02*
X58400000Y-19149886D01*
X60033334Y-18949886D02*
X59800000Y-18949886D01*
X59800000Y-19316553D02*
X59800000Y-18616553D01*
X59800000Y-18616553D02*
X60133334Y-18616553D01*
X60800000Y-19316553D02*
X60566667Y-18983220D01*
X60400000Y-19316553D02*
X60400000Y-18616553D01*
X60400000Y-18616553D02*
X60666667Y-18616553D01*
X60666667Y-18616553D02*
X60733334Y-18649886D01*
X60733334Y-18649886D02*
X60766667Y-18683220D01*
X60766667Y-18683220D02*
X60800000Y-18749886D01*
X60800000Y-18749886D02*
X60800000Y-18849886D01*
X60800000Y-18849886D02*
X60766667Y-18916553D01*
X60766667Y-18916553D02*
X60733334Y-18949886D01*
X60733334Y-18949886D02*
X60666667Y-18983220D01*
X60666667Y-18983220D02*
X60400000Y-18983220D01*
X61100000Y-18949886D02*
X61333334Y-18949886D01*
X61433334Y-19316553D02*
X61100000Y-19316553D01*
X61100000Y-19316553D02*
X61100000Y-18616553D01*
X61100000Y-18616553D02*
X61433334Y-18616553D01*
X62200000Y-19383220D02*
X62133333Y-19349886D01*
X62133333Y-19349886D02*
X62066667Y-19283220D01*
X62066667Y-19283220D02*
X61966667Y-19183220D01*
X61966667Y-19183220D02*
X61900000Y-19149886D01*
X61900000Y-19149886D02*
X61833333Y-19149886D01*
X61866667Y-19316553D02*
X61800000Y-19283220D01*
X61800000Y-19283220D02*
X61733333Y-19216553D01*
X61733333Y-19216553D02*
X61700000Y-19083220D01*
X61700000Y-19083220D02*
X61700000Y-18849886D01*
X61700000Y-18849886D02*
X61733333Y-18716553D01*
X61733333Y-18716553D02*
X61800000Y-18649886D01*
X61800000Y-18649886D02*
X61866667Y-18616553D01*
X61866667Y-18616553D02*
X62000000Y-18616553D01*
X62000000Y-18616553D02*
X62066667Y-18649886D01*
X62066667Y-18649886D02*
X62133333Y-18716553D01*
X62133333Y-18716553D02*
X62166667Y-18849886D01*
X62166667Y-18849886D02*
X62166667Y-19083220D01*
X62166667Y-19083220D02*
X62133333Y-19216553D01*
X62133333Y-19216553D02*
X62066667Y-19283220D01*
X62066667Y-19283220D02*
X62000000Y-19316553D01*
X62000000Y-19316553D02*
X61866667Y-19316553D01*
X62999999Y-18616553D02*
X62999999Y-19183220D01*
X62999999Y-19183220D02*
X63033333Y-19249886D01*
X63033333Y-19249886D02*
X63066666Y-19283220D01*
X63066666Y-19283220D02*
X63133333Y-19316553D01*
X63133333Y-19316553D02*
X63266666Y-19316553D01*
X63266666Y-19316553D02*
X63333333Y-19283220D01*
X63333333Y-19283220D02*
X63366666Y-19249886D01*
X63366666Y-19249886D02*
X63399999Y-19183220D01*
X63399999Y-19183220D02*
X63399999Y-18616553D01*
X63733332Y-19316553D02*
X63733332Y-18616553D01*
X63733332Y-18616553D02*
X63999999Y-18616553D01*
X63999999Y-18616553D02*
X64066666Y-18649886D01*
X64066666Y-18649886D02*
X64099999Y-18683220D01*
X64099999Y-18683220D02*
X64133332Y-18749886D01*
X64133332Y-18749886D02*
X64133332Y-18849886D01*
X64133332Y-18849886D02*
X64099999Y-18916553D01*
X64099999Y-18916553D02*
X64066666Y-18949886D01*
X64066666Y-18949886D02*
X63999999Y-18983220D01*
X63999999Y-18983220D02*
X63733332Y-18983220D01*
X56300001Y-65249886D02*
X56266668Y-65283220D01*
X56266668Y-65283220D02*
X56166668Y-65316553D01*
X56166668Y-65316553D02*
X56100001Y-65316553D01*
X56100001Y-65316553D02*
X56000001Y-65283220D01*
X56000001Y-65283220D02*
X55933335Y-65216553D01*
X55933335Y-65216553D02*
X55900001Y-65149886D01*
X55900001Y-65149886D02*
X55866668Y-65016553D01*
X55866668Y-65016553D02*
X55866668Y-64916553D01*
X55866668Y-64916553D02*
X55900001Y-64783220D01*
X55900001Y-64783220D02*
X55933335Y-64716553D01*
X55933335Y-64716553D02*
X56000001Y-64649886D01*
X56000001Y-64649886D02*
X56100001Y-64616553D01*
X56100001Y-64616553D02*
X56166668Y-64616553D01*
X56166668Y-64616553D02*
X56266668Y-64649886D01*
X56266668Y-64649886D02*
X56300001Y-64683220D01*
X56600001Y-64616553D02*
X56600001Y-65183220D01*
X56600001Y-65183220D02*
X56633335Y-65249886D01*
X56633335Y-65249886D02*
X56666668Y-65283220D01*
X56666668Y-65283220D02*
X56733335Y-65316553D01*
X56733335Y-65316553D02*
X56866668Y-65316553D01*
X56866668Y-65316553D02*
X56933335Y-65283220D01*
X56933335Y-65283220D02*
X56966668Y-65249886D01*
X56966668Y-65249886D02*
X57000001Y-65183220D01*
X57000001Y-65183220D02*
X57000001Y-64616553D01*
X57233334Y-64616553D02*
X57633334Y-64616553D01*
X57433334Y-65316553D02*
X57433334Y-64616553D01*
X58400000Y-64949886D02*
X58933334Y-64949886D01*
X58933334Y-65149886D02*
X58400000Y-65149886D01*
X60033334Y-64949886D02*
X59800000Y-64949886D01*
X59800000Y-65316553D02*
X59800000Y-64616553D01*
X59800000Y-64616553D02*
X60133334Y-64616553D01*
X60800000Y-65316553D02*
X60566667Y-64983220D01*
X60400000Y-65316553D02*
X60400000Y-64616553D01*
X60400000Y-64616553D02*
X60666667Y-64616553D01*
X60666667Y-64616553D02*
X60733334Y-64649886D01*
X60733334Y-64649886D02*
X60766667Y-64683220D01*
X60766667Y-64683220D02*
X60800000Y-64749886D01*
X60800000Y-64749886D02*
X60800000Y-64849886D01*
X60800000Y-64849886D02*
X60766667Y-64916553D01*
X60766667Y-64916553D02*
X60733334Y-64949886D01*
X60733334Y-64949886D02*
X60666667Y-64983220D01*
X60666667Y-64983220D02*
X60400000Y-64983220D01*
X61100000Y-64949886D02*
X61333334Y-64949886D01*
X61433334Y-65316553D02*
X61100000Y-65316553D01*
X61100000Y-65316553D02*
X61100000Y-64616553D01*
X61100000Y-64616553D02*
X61433334Y-64616553D01*
X62200000Y-65383220D02*
X62133333Y-65349886D01*
X62133333Y-65349886D02*
X62066667Y-65283220D01*
X62066667Y-65283220D02*
X61966667Y-65183220D01*
X61966667Y-65183220D02*
X61900000Y-65149886D01*
X61900000Y-65149886D02*
X61833333Y-65149886D01*
X61866667Y-65316553D02*
X61800000Y-65283220D01*
X61800000Y-65283220D02*
X61733333Y-65216553D01*
X61733333Y-65216553D02*
X61700000Y-65083220D01*
X61700000Y-65083220D02*
X61700000Y-64849886D01*
X61700000Y-64849886D02*
X61733333Y-64716553D01*
X61733333Y-64716553D02*
X61800000Y-64649886D01*
X61800000Y-64649886D02*
X61866667Y-64616553D01*
X61866667Y-64616553D02*
X62000000Y-64616553D01*
X62000000Y-64616553D02*
X62066667Y-64649886D01*
X62066667Y-64649886D02*
X62133333Y-64716553D01*
X62133333Y-64716553D02*
X62166667Y-64849886D01*
X62166667Y-64849886D02*
X62166667Y-65083220D01*
X62166667Y-65083220D02*
X62133333Y-65216553D01*
X62133333Y-65216553D02*
X62066667Y-65283220D01*
X62066667Y-65283220D02*
X62000000Y-65316553D01*
X62000000Y-65316553D02*
X61866667Y-65316553D01*
X62999999Y-64616553D02*
X62999999Y-65183220D01*
X62999999Y-65183220D02*
X63033333Y-65249886D01*
X63033333Y-65249886D02*
X63066666Y-65283220D01*
X63066666Y-65283220D02*
X63133333Y-65316553D01*
X63133333Y-65316553D02*
X63266666Y-65316553D01*
X63266666Y-65316553D02*
X63333333Y-65283220D01*
X63333333Y-65283220D02*
X63366666Y-65249886D01*
X63366666Y-65249886D02*
X63399999Y-65183220D01*
X63399999Y-65183220D02*
X63399999Y-64616553D01*
X63733332Y-65316553D02*
X63733332Y-64616553D01*
X63733332Y-64616553D02*
X63999999Y-64616553D01*
X63999999Y-64616553D02*
X64066666Y-64649886D01*
X64066666Y-64649886D02*
X64099999Y-64683220D01*
X64099999Y-64683220D02*
X64133332Y-64749886D01*
X64133332Y-64749886D02*
X64133332Y-64849886D01*
X64133332Y-64849886D02*
X64099999Y-64916553D01*
X64099999Y-64916553D02*
X64066666Y-64949886D01*
X64066666Y-64949886D02*
X63999999Y-64983220D01*
X63999999Y-64983220D02*
X63733332Y-64983220D01*
D14*
X5257643Y-96923680D02*
X5371929Y-96961775D01*
X5371929Y-96961775D02*
X5562405Y-96961775D01*
X5562405Y-96961775D02*
X5638596Y-96923680D01*
X5638596Y-96923680D02*
X5676691Y-96885584D01*
X5676691Y-96885584D02*
X5714786Y-96809394D01*
X5714786Y-96809394D02*
X5714786Y-96733203D01*
X5714786Y-96733203D02*
X5676691Y-96657013D01*
X5676691Y-96657013D02*
X5638596Y-96618918D01*
X5638596Y-96618918D02*
X5562405Y-96580822D01*
X5562405Y-96580822D02*
X5410024Y-96542727D01*
X5410024Y-96542727D02*
X5333834Y-96504632D01*
X5333834Y-96504632D02*
X5295739Y-96466537D01*
X5295739Y-96466537D02*
X5257643Y-96390346D01*
X5257643Y-96390346D02*
X5257643Y-96314156D01*
X5257643Y-96314156D02*
X5295739Y-96237965D01*
X5295739Y-96237965D02*
X5333834Y-96199870D01*
X5333834Y-96199870D02*
X5410024Y-96161775D01*
X5410024Y-96161775D02*
X5600501Y-96161775D01*
X5600501Y-96161775D02*
X5714786Y-96199870D01*
X6210025Y-96580822D02*
X6210025Y-96961775D01*
X5943358Y-96161775D02*
X6210025Y-96580822D01*
X6210025Y-96580822D02*
X6476691Y-96161775D01*
X6743358Y-96961775D02*
X6743358Y-96161775D01*
X6743358Y-96161775D02*
X7010024Y-96733203D01*
X7010024Y-96733203D02*
X7276691Y-96161775D01*
X7276691Y-96161775D02*
X7276691Y-96961775D01*
X7657644Y-96961775D02*
X7657644Y-96161775D01*
X7657644Y-96161775D02*
X7924310Y-96733203D01*
X7924310Y-96733203D02*
X8190977Y-96161775D01*
X8190977Y-96161775D02*
X8190977Y-96961775D01*
X8571930Y-96542727D02*
X8838596Y-96542727D01*
X8952882Y-96961775D02*
X8571930Y-96961775D01*
X8571930Y-96961775D02*
X8571930Y-96161775D01*
X8571930Y-96161775D02*
X8952882Y-96161775D01*
X9181454Y-96161775D02*
X9638597Y-96161775D01*
X9410025Y-96961775D02*
X9410025Y-96161775D01*
X10362407Y-96961775D02*
X10095740Y-96580822D01*
X9905264Y-96961775D02*
X9905264Y-96161775D01*
X9905264Y-96161775D02*
X10210026Y-96161775D01*
X10210026Y-96161775D02*
X10286216Y-96199870D01*
X10286216Y-96199870D02*
X10324311Y-96237965D01*
X10324311Y-96237965D02*
X10362407Y-96314156D01*
X10362407Y-96314156D02*
X10362407Y-96428441D01*
X10362407Y-96428441D02*
X10324311Y-96504632D01*
X10324311Y-96504632D02*
X10286216Y-96542727D01*
X10286216Y-96542727D02*
X10210026Y-96580822D01*
X10210026Y-96580822D02*
X9905264Y-96580822D01*
X10705264Y-96961775D02*
X10705264Y-96161775D01*
X11543359Y-96885584D02*
X11505263Y-96923680D01*
X11505263Y-96923680D02*
X11390978Y-96961775D01*
X11390978Y-96961775D02*
X11314787Y-96961775D01*
X11314787Y-96961775D02*
X11200501Y-96923680D01*
X11200501Y-96923680D02*
X11124311Y-96847489D01*
X11124311Y-96847489D02*
X11086216Y-96771299D01*
X11086216Y-96771299D02*
X11048120Y-96618918D01*
X11048120Y-96618918D02*
X11048120Y-96504632D01*
X11048120Y-96504632D02*
X11086216Y-96352251D01*
X11086216Y-96352251D02*
X11124311Y-96276060D01*
X11124311Y-96276060D02*
X11200501Y-96199870D01*
X11200501Y-96199870D02*
X11314787Y-96161775D01*
X11314787Y-96161775D02*
X11390978Y-96161775D01*
X11390978Y-96161775D02*
X11505263Y-96199870D01*
X11505263Y-96199870D02*
X11543359Y-96237965D01*
X12495740Y-96961775D02*
X12495740Y-96161775D01*
X12495740Y-96161775D02*
X12762406Y-96733203D01*
X12762406Y-96733203D02*
X13029073Y-96161775D01*
X13029073Y-96161775D02*
X13029073Y-96961775D01*
X13410026Y-96542727D02*
X13676692Y-96542727D01*
X13790978Y-96961775D02*
X13410026Y-96961775D01*
X13410026Y-96961775D02*
X13410026Y-96161775D01*
X13410026Y-96161775D02*
X13790978Y-96161775D01*
X14095740Y-96733203D02*
X14476693Y-96733203D01*
X14019550Y-96961775D02*
X14286217Y-96161775D01*
X14286217Y-96161775D02*
X14552883Y-96961775D01*
X14819550Y-96961775D02*
X14819550Y-96161775D01*
X14819550Y-96161775D02*
X15276693Y-96961775D01*
X15276693Y-96961775D02*
X15276693Y-96161775D01*
X15657645Y-96961775D02*
X15657645Y-96161775D01*
X15657645Y-96161775D02*
X15848121Y-96161775D01*
X15848121Y-96161775D02*
X15962407Y-96199870D01*
X15962407Y-96199870D02*
X16038597Y-96276060D01*
X16038597Y-96276060D02*
X16076692Y-96352251D01*
X16076692Y-96352251D02*
X16114788Y-96504632D01*
X16114788Y-96504632D02*
X16114788Y-96618918D01*
X16114788Y-96618918D02*
X16076692Y-96771299D01*
X16076692Y-96771299D02*
X16038597Y-96847489D01*
X16038597Y-96847489D02*
X15962407Y-96923680D01*
X15962407Y-96923680D02*
X15848121Y-96961775D01*
X15848121Y-96961775D02*
X15657645Y-96961775D01*
X16457645Y-96542727D02*
X16724311Y-96542727D01*
X16838597Y-96961775D02*
X16457645Y-96961775D01*
X16457645Y-96961775D02*
X16457645Y-96161775D01*
X16457645Y-96161775D02*
X16838597Y-96161775D01*
X17638598Y-96961775D02*
X17371931Y-96580822D01*
X17181455Y-96961775D02*
X17181455Y-96161775D01*
X17181455Y-96161775D02*
X17486217Y-96161775D01*
X17486217Y-96161775D02*
X17562407Y-96199870D01*
X17562407Y-96199870D02*
X17600502Y-96237965D01*
X17600502Y-96237965D02*
X17638598Y-96314156D01*
X17638598Y-96314156D02*
X17638598Y-96428441D01*
X17638598Y-96428441D02*
X17600502Y-96504632D01*
X17600502Y-96504632D02*
X17562407Y-96542727D01*
X17562407Y-96542727D02*
X17486217Y-96580822D01*
X17486217Y-96580822D02*
X17181455Y-96580822D01*
X17981455Y-96542727D02*
X18248121Y-96542727D01*
X18362407Y-96961775D02*
X17981455Y-96961775D01*
X17981455Y-96961775D02*
X17981455Y-96161775D01*
X17981455Y-96161775D02*
X18362407Y-96161775D01*
X18705265Y-96961775D02*
X18705265Y-96161775D01*
X18705265Y-96161775D02*
X18895741Y-96161775D01*
X18895741Y-96161775D02*
X19010027Y-96199870D01*
X19010027Y-96199870D02*
X19086217Y-96276060D01*
X19086217Y-96276060D02*
X19124312Y-96352251D01*
X19124312Y-96352251D02*
X19162408Y-96504632D01*
X19162408Y-96504632D02*
X19162408Y-96618918D01*
X19162408Y-96618918D02*
X19124312Y-96771299D01*
X19124312Y-96771299D02*
X19086217Y-96847489D01*
X19086217Y-96847489D02*
X19010027Y-96923680D01*
X19010027Y-96923680D02*
X18895741Y-96961775D01*
X18895741Y-96961775D02*
X18705265Y-96961775D01*
X20114789Y-96961775D02*
X20114789Y-96161775D01*
X20114789Y-96161775D02*
X20305265Y-96161775D01*
X20305265Y-96161775D02*
X20419551Y-96199870D01*
X20419551Y-96199870D02*
X20495741Y-96276060D01*
X20495741Y-96276060D02*
X20533836Y-96352251D01*
X20533836Y-96352251D02*
X20571932Y-96504632D01*
X20571932Y-96504632D02*
X20571932Y-96618918D01*
X20571932Y-96618918D02*
X20533836Y-96771299D01*
X20533836Y-96771299D02*
X20495741Y-96847489D01*
X20495741Y-96847489D02*
X20419551Y-96923680D01*
X20419551Y-96923680D02*
X20305265Y-96961775D01*
X20305265Y-96961775D02*
X20114789Y-96961775D01*
X20914789Y-96961775D02*
X20914789Y-96161775D01*
X21295741Y-96961775D02*
X21295741Y-96161775D01*
X21295741Y-96161775D02*
X21600503Y-96161775D01*
X21600503Y-96161775D02*
X21676693Y-96199870D01*
X21676693Y-96199870D02*
X21714788Y-96237965D01*
X21714788Y-96237965D02*
X21752884Y-96314156D01*
X21752884Y-96314156D02*
X21752884Y-96428441D01*
X21752884Y-96428441D02*
X21714788Y-96504632D01*
X21714788Y-96504632D02*
X21676693Y-96542727D01*
X21676693Y-96542727D02*
X21600503Y-96580822D01*
X21600503Y-96580822D02*
X21295741Y-96580822D01*
X22248122Y-96161775D02*
X22400503Y-96161775D01*
X22400503Y-96161775D02*
X22476693Y-96199870D01*
X22476693Y-96199870D02*
X22552884Y-96276060D01*
X22552884Y-96276060D02*
X22590979Y-96428441D01*
X22590979Y-96428441D02*
X22590979Y-96695108D01*
X22590979Y-96695108D02*
X22552884Y-96847489D01*
X22552884Y-96847489D02*
X22476693Y-96923680D01*
X22476693Y-96923680D02*
X22400503Y-96961775D01*
X22400503Y-96961775D02*
X22248122Y-96961775D01*
X22248122Y-96961775D02*
X22171931Y-96923680D01*
X22171931Y-96923680D02*
X22095741Y-96847489D01*
X22095741Y-96847489D02*
X22057645Y-96695108D01*
X22057645Y-96695108D02*
X22057645Y-96428441D01*
X22057645Y-96428441D02*
X22095741Y-96276060D01*
X22095741Y-96276060D02*
X22171931Y-96199870D01*
X22171931Y-96199870D02*
X22248122Y-96161775D01*
X23314788Y-96961775D02*
X22933836Y-96961775D01*
X22933836Y-96961775D02*
X22933836Y-96161775D01*
X23581455Y-96542727D02*
X23848121Y-96542727D01*
X23962407Y-96961775D02*
X23581455Y-96961775D01*
X23581455Y-96961775D02*
X23581455Y-96161775D01*
X23581455Y-96161775D02*
X23962407Y-96161775D01*
X25143360Y-97266537D02*
X25105265Y-97228441D01*
X25105265Y-97228441D02*
X25029074Y-97114156D01*
X25029074Y-97114156D02*
X24990979Y-97037965D01*
X24990979Y-97037965D02*
X24952884Y-96923680D01*
X24952884Y-96923680D02*
X24914789Y-96733203D01*
X24914789Y-96733203D02*
X24914789Y-96580822D01*
X24914789Y-96580822D02*
X24952884Y-96390346D01*
X24952884Y-96390346D02*
X24990979Y-96276060D01*
X24990979Y-96276060D02*
X25029074Y-96199870D01*
X25029074Y-96199870D02*
X25105265Y-96085584D01*
X25105265Y-96085584D02*
X25143360Y-96047489D01*
X25410026Y-96923680D02*
X25524312Y-96961775D01*
X25524312Y-96961775D02*
X25714788Y-96961775D01*
X25714788Y-96961775D02*
X25790979Y-96923680D01*
X25790979Y-96923680D02*
X25829074Y-96885584D01*
X25829074Y-96885584D02*
X25867169Y-96809394D01*
X25867169Y-96809394D02*
X25867169Y-96733203D01*
X25867169Y-96733203D02*
X25829074Y-96657013D01*
X25829074Y-96657013D02*
X25790979Y-96618918D01*
X25790979Y-96618918D02*
X25714788Y-96580822D01*
X25714788Y-96580822D02*
X25562407Y-96542727D01*
X25562407Y-96542727D02*
X25486217Y-96504632D01*
X25486217Y-96504632D02*
X25448122Y-96466537D01*
X25448122Y-96466537D02*
X25410026Y-96390346D01*
X25410026Y-96390346D02*
X25410026Y-96314156D01*
X25410026Y-96314156D02*
X25448122Y-96237965D01*
X25448122Y-96237965D02*
X25486217Y-96199870D01*
X25486217Y-96199870D02*
X25562407Y-96161775D01*
X25562407Y-96161775D02*
X25752884Y-96161775D01*
X25752884Y-96161775D02*
X25867169Y-96199870D01*
X26210027Y-96961775D02*
X26210027Y-96161775D01*
X26590979Y-96961775D02*
X26590979Y-96161775D01*
X26590979Y-96161775D02*
X26857645Y-96733203D01*
X26857645Y-96733203D02*
X27124312Y-96161775D01*
X27124312Y-96161775D02*
X27124312Y-96961775D01*
X27505265Y-96657013D02*
X28114789Y-96657013D01*
X28381455Y-96161775D02*
X28648122Y-96961775D01*
X28648122Y-96961775D02*
X28914788Y-96161775D01*
X29143359Y-96733203D02*
X29524312Y-96733203D01*
X29067169Y-96961775D02*
X29333836Y-96161775D01*
X29333836Y-96161775D02*
X29600502Y-96961775D01*
X30248121Y-96961775D02*
X29867169Y-96961775D01*
X29867169Y-96961775D02*
X29867169Y-96161775D01*
X30514788Y-96961775D02*
X30514788Y-96161775D01*
X30895740Y-96961775D02*
X30895740Y-96161775D01*
X30895740Y-96161775D02*
X31086216Y-96161775D01*
X31086216Y-96161775D02*
X31200502Y-96199870D01*
X31200502Y-96199870D02*
X31276692Y-96276060D01*
X31276692Y-96276060D02*
X31314787Y-96352251D01*
X31314787Y-96352251D02*
X31352883Y-96504632D01*
X31352883Y-96504632D02*
X31352883Y-96618918D01*
X31352883Y-96618918D02*
X31314787Y-96771299D01*
X31314787Y-96771299D02*
X31276692Y-96847489D01*
X31276692Y-96847489D02*
X31200502Y-96923680D01*
X31200502Y-96923680D02*
X31086216Y-96961775D01*
X31086216Y-96961775D02*
X30895740Y-96961775D01*
X31657644Y-96733203D02*
X32038597Y-96733203D01*
X31581454Y-96961775D02*
X31848121Y-96161775D01*
X31848121Y-96161775D02*
X32114787Y-96961775D01*
X32267168Y-96161775D02*
X32724311Y-96161775D01*
X32495739Y-96961775D02*
X32495739Y-96161775D01*
X32990978Y-96542727D02*
X33257644Y-96542727D01*
X33371930Y-96961775D02*
X32990978Y-96961775D01*
X32990978Y-96961775D02*
X32990978Y-96161775D01*
X32990978Y-96161775D02*
X33371930Y-96161775D01*
X33714788Y-96961775D02*
X33714788Y-96161775D01*
X33714788Y-96161775D02*
X33905264Y-96161775D01*
X33905264Y-96161775D02*
X34019550Y-96199870D01*
X34019550Y-96199870D02*
X34095740Y-96276060D01*
X34095740Y-96276060D02*
X34133835Y-96352251D01*
X34133835Y-96352251D02*
X34171931Y-96504632D01*
X34171931Y-96504632D02*
X34171931Y-96618918D01*
X34171931Y-96618918D02*
X34133835Y-96771299D01*
X34133835Y-96771299D02*
X34095740Y-96847489D01*
X34095740Y-96847489D02*
X34019550Y-96923680D01*
X34019550Y-96923680D02*
X33905264Y-96961775D01*
X33905264Y-96961775D02*
X33714788Y-96961775D01*
X34438597Y-97266537D02*
X34476692Y-97228441D01*
X34476692Y-97228441D02*
X34552883Y-97114156D01*
X34552883Y-97114156D02*
X34590978Y-97037965D01*
X34590978Y-97037965D02*
X34629073Y-96923680D01*
X34629073Y-96923680D02*
X34667169Y-96733203D01*
X34667169Y-96733203D02*
X34667169Y-96580822D01*
X34667169Y-96580822D02*
X34629073Y-96390346D01*
X34629073Y-96390346D02*
X34590978Y-96276060D01*
X34590978Y-96276060D02*
X34552883Y-96199870D01*
X34552883Y-96199870D02*
X34476692Y-96085584D01*
X34476692Y-96085584D02*
X34438597Y-96047489D01*
X35048121Y-96885584D02*
X35086216Y-96923680D01*
X35086216Y-96923680D02*
X35048121Y-96961775D01*
X35048121Y-96961775D02*
X35010025Y-96923680D01*
X35010025Y-96923680D02*
X35048121Y-96885584D01*
X35048121Y-96885584D02*
X35048121Y-96961775D01*
X36038597Y-96961775D02*
X36038597Y-96161775D01*
X36038597Y-96161775D02*
X36343359Y-96161775D01*
X36343359Y-96161775D02*
X36419549Y-96199870D01*
X36419549Y-96199870D02*
X36457644Y-96237965D01*
X36457644Y-96237965D02*
X36495740Y-96314156D01*
X36495740Y-96314156D02*
X36495740Y-96428441D01*
X36495740Y-96428441D02*
X36457644Y-96504632D01*
X36457644Y-96504632D02*
X36419549Y-96542727D01*
X36419549Y-96542727D02*
X36343359Y-96580822D01*
X36343359Y-96580822D02*
X36038597Y-96580822D01*
X36838597Y-96961775D02*
X36838597Y-96161775D01*
X37638596Y-96199870D02*
X37562406Y-96161775D01*
X37562406Y-96161775D02*
X37448120Y-96161775D01*
X37448120Y-96161775D02*
X37333834Y-96199870D01*
X37333834Y-96199870D02*
X37257644Y-96276060D01*
X37257644Y-96276060D02*
X37219549Y-96352251D01*
X37219549Y-96352251D02*
X37181453Y-96504632D01*
X37181453Y-96504632D02*
X37181453Y-96618918D01*
X37181453Y-96618918D02*
X37219549Y-96771299D01*
X37219549Y-96771299D02*
X37257644Y-96847489D01*
X37257644Y-96847489D02*
X37333834Y-96923680D01*
X37333834Y-96923680D02*
X37448120Y-96961775D01*
X37448120Y-96961775D02*
X37524311Y-96961775D01*
X37524311Y-96961775D02*
X37638596Y-96923680D01*
X37638596Y-96923680D02*
X37676692Y-96885584D01*
X37676692Y-96885584D02*
X37676692Y-96618918D01*
X37676692Y-96618918D02*
X37524311Y-96618918D01*
X37905263Y-96161775D02*
X38362406Y-96161775D01*
X38133834Y-96961775D02*
X38133834Y-96161775D01*
X38590977Y-96733203D02*
X38971930Y-96733203D01*
X38514787Y-96961775D02*
X38781454Y-96161775D01*
X38781454Y-96161775D02*
X39048120Y-96961775D01*
X39314787Y-96961775D02*
X39314787Y-96161775D01*
X40076691Y-96961775D02*
X39695739Y-96961775D01*
X39695739Y-96961775D02*
X39695739Y-96161775D01*
X41410025Y-96961775D02*
X41143358Y-96580822D01*
X40952882Y-96961775D02*
X40952882Y-96161775D01*
X40952882Y-96161775D02*
X41257644Y-96161775D01*
X41257644Y-96161775D02*
X41333834Y-96199870D01*
X41333834Y-96199870D02*
X41371929Y-96237965D01*
X41371929Y-96237965D02*
X41410025Y-96314156D01*
X41410025Y-96314156D02*
X41410025Y-96428441D01*
X41410025Y-96428441D02*
X41371929Y-96504632D01*
X41371929Y-96504632D02*
X41333834Y-96542727D01*
X41333834Y-96542727D02*
X41257644Y-96580822D01*
X41257644Y-96580822D02*
X40952882Y-96580822D01*
X42019548Y-96542727D02*
X41752882Y-96542727D01*
X41752882Y-96961775D02*
X41752882Y-96161775D01*
X41752882Y-96161775D02*
X42133834Y-96161775D01*
X42857643Y-96961775D02*
X42400500Y-96961775D01*
X42629072Y-96961775D02*
X42629072Y-96161775D01*
X42629072Y-96161775D02*
X42552881Y-96276060D01*
X42552881Y-96276060D02*
X42476691Y-96352251D01*
X42476691Y-96352251D02*
X42400500Y-96390346D01*
X43124310Y-96161775D02*
X43619548Y-96161775D01*
X43619548Y-96161775D02*
X43352882Y-96466537D01*
X43352882Y-96466537D02*
X43467167Y-96466537D01*
X43467167Y-96466537D02*
X43543358Y-96504632D01*
X43543358Y-96504632D02*
X43581453Y-96542727D01*
X43581453Y-96542727D02*
X43619548Y-96618918D01*
X43619548Y-96618918D02*
X43619548Y-96809394D01*
X43619548Y-96809394D02*
X43581453Y-96885584D01*
X43581453Y-96885584D02*
X43543358Y-96923680D01*
X43543358Y-96923680D02*
X43467167Y-96961775D01*
X43467167Y-96961775D02*
X43238596Y-96961775D01*
X43238596Y-96961775D02*
X43162405Y-96923680D01*
X43162405Y-96923680D02*
X43124310Y-96885584D01*
X43886215Y-96161775D02*
X44419549Y-96161775D01*
X44419549Y-96161775D02*
X44076691Y-96961775D01*
X45295739Y-96733203D02*
X45676692Y-96733203D01*
X45219549Y-96961775D02*
X45486216Y-96161775D01*
X45486216Y-96161775D02*
X45752882Y-96961775D01*
X46400501Y-96961775D02*
X46019549Y-96961775D01*
X46019549Y-96961775D02*
X46019549Y-96161775D01*
X46819549Y-96161775D02*
X46971930Y-96161775D01*
X46971930Y-96161775D02*
X47048120Y-96199870D01*
X47048120Y-96199870D02*
X47124311Y-96276060D01*
X47124311Y-96276060D02*
X47162406Y-96428441D01*
X47162406Y-96428441D02*
X47162406Y-96695108D01*
X47162406Y-96695108D02*
X47124311Y-96847489D01*
X47124311Y-96847489D02*
X47048120Y-96923680D01*
X47048120Y-96923680D02*
X46971930Y-96961775D01*
X46971930Y-96961775D02*
X46819549Y-96961775D01*
X46819549Y-96961775D02*
X46743358Y-96923680D01*
X46743358Y-96923680D02*
X46667168Y-96847489D01*
X46667168Y-96847489D02*
X46629072Y-96695108D01*
X46629072Y-96695108D02*
X46629072Y-96428441D01*
X46629072Y-96428441D02*
X46667168Y-96276060D01*
X46667168Y-96276060D02*
X46743358Y-96199870D01*
X46743358Y-96199870D02*
X46819549Y-96161775D01*
X47505263Y-96961775D02*
X47505263Y-96161775D01*
X47505263Y-96161775D02*
X47962406Y-96961775D01*
X47962406Y-96961775D02*
X47962406Y-96161775D01*
X48762405Y-96199870D02*
X48686215Y-96161775D01*
X48686215Y-96161775D02*
X48571929Y-96161775D01*
X48571929Y-96161775D02*
X48457643Y-96199870D01*
X48457643Y-96199870D02*
X48381453Y-96276060D01*
X48381453Y-96276060D02*
X48343358Y-96352251D01*
X48343358Y-96352251D02*
X48305262Y-96504632D01*
X48305262Y-96504632D02*
X48305262Y-96618918D01*
X48305262Y-96618918D02*
X48343358Y-96771299D01*
X48343358Y-96771299D02*
X48381453Y-96847489D01*
X48381453Y-96847489D02*
X48457643Y-96923680D01*
X48457643Y-96923680D02*
X48571929Y-96961775D01*
X48571929Y-96961775D02*
X48648120Y-96961775D01*
X48648120Y-96961775D02*
X48762405Y-96923680D01*
X48762405Y-96923680D02*
X48800501Y-96885584D01*
X48800501Y-96885584D02*
X48800501Y-96618918D01*
X48800501Y-96618918D02*
X48648120Y-96618918D01*
X49638596Y-96161775D02*
X50095739Y-96161775D01*
X49867167Y-96961775D02*
X49867167Y-96161775D01*
X50514787Y-96161775D02*
X50667168Y-96161775D01*
X50667168Y-96161775D02*
X50743358Y-96199870D01*
X50743358Y-96199870D02*
X50819549Y-96276060D01*
X50819549Y-96276060D02*
X50857644Y-96428441D01*
X50857644Y-96428441D02*
X50857644Y-96695108D01*
X50857644Y-96695108D02*
X50819549Y-96847489D01*
X50819549Y-96847489D02*
X50743358Y-96923680D01*
X50743358Y-96923680D02*
X50667168Y-96961775D01*
X50667168Y-96961775D02*
X50514787Y-96961775D01*
X50514787Y-96961775D02*
X50438596Y-96923680D01*
X50438596Y-96923680D02*
X50362406Y-96847489D01*
X50362406Y-96847489D02*
X50324310Y-96695108D01*
X50324310Y-96695108D02*
X50324310Y-96428441D01*
X50324310Y-96428441D02*
X50362406Y-96276060D01*
X50362406Y-96276060D02*
X50438596Y-96199870D01*
X50438596Y-96199870D02*
X50514787Y-96161775D01*
X51200501Y-96961775D02*
X51200501Y-96161775D01*
X51200501Y-96161775D02*
X51505263Y-96161775D01*
X51505263Y-96161775D02*
X51581453Y-96199870D01*
X51581453Y-96199870D02*
X51619548Y-96237965D01*
X51619548Y-96237965D02*
X51657644Y-96314156D01*
X51657644Y-96314156D02*
X51657644Y-96428441D01*
X51657644Y-96428441D02*
X51619548Y-96504632D01*
X51619548Y-96504632D02*
X51581453Y-96542727D01*
X51581453Y-96542727D02*
X51505263Y-96580822D01*
X51505263Y-96580822D02*
X51200501Y-96580822D01*
X52610025Y-96542727D02*
X52876691Y-96542727D01*
X52990977Y-96961775D02*
X52610025Y-96961775D01*
X52610025Y-96961775D02*
X52610025Y-96161775D01*
X52610025Y-96161775D02*
X52990977Y-96161775D01*
X53333835Y-96961775D02*
X53333835Y-96161775D01*
X53333835Y-96161775D02*
X53524311Y-96161775D01*
X53524311Y-96161775D02*
X53638597Y-96199870D01*
X53638597Y-96199870D02*
X53714787Y-96276060D01*
X53714787Y-96276060D02*
X53752882Y-96352251D01*
X53752882Y-96352251D02*
X53790978Y-96504632D01*
X53790978Y-96504632D02*
X53790978Y-96618918D01*
X53790978Y-96618918D02*
X53752882Y-96771299D01*
X53752882Y-96771299D02*
X53714787Y-96847489D01*
X53714787Y-96847489D02*
X53638597Y-96923680D01*
X53638597Y-96923680D02*
X53524311Y-96961775D01*
X53524311Y-96961775D02*
X53333835Y-96961775D01*
X54552882Y-96199870D02*
X54476692Y-96161775D01*
X54476692Y-96161775D02*
X54362406Y-96161775D01*
X54362406Y-96161775D02*
X54248120Y-96199870D01*
X54248120Y-96199870D02*
X54171930Y-96276060D01*
X54171930Y-96276060D02*
X54133835Y-96352251D01*
X54133835Y-96352251D02*
X54095739Y-96504632D01*
X54095739Y-96504632D02*
X54095739Y-96618918D01*
X54095739Y-96618918D02*
X54133835Y-96771299D01*
X54133835Y-96771299D02*
X54171930Y-96847489D01*
X54171930Y-96847489D02*
X54248120Y-96923680D01*
X54248120Y-96923680D02*
X54362406Y-96961775D01*
X54362406Y-96961775D02*
X54438597Y-96961775D01*
X54438597Y-96961775D02*
X54552882Y-96923680D01*
X54552882Y-96923680D02*
X54590978Y-96885584D01*
X54590978Y-96885584D02*
X54590978Y-96618918D01*
X54590978Y-96618918D02*
X54438597Y-96618918D01*
X54933835Y-96542727D02*
X55200501Y-96542727D01*
X55314787Y-96961775D02*
X54933835Y-96961775D01*
X54933835Y-96961775D02*
X54933835Y-96161775D01*
X54933835Y-96161775D02*
X55314787Y-96161775D01*
X55657645Y-96885584D02*
X55695740Y-96923680D01*
X55695740Y-96923680D02*
X55657645Y-96961775D01*
X55657645Y-96961775D02*
X55619549Y-96923680D01*
X55619549Y-96923680D02*
X55657645Y-96885584D01*
X55657645Y-96885584D02*
X55657645Y-96961775D01*
X55657645Y-96466537D02*
X55695740Y-96504632D01*
X55695740Y-96504632D02*
X55657645Y-96542727D01*
X55657645Y-96542727D02*
X55619549Y-96504632D01*
X55619549Y-96504632D02*
X55657645Y-96466537D01*
X55657645Y-96466537D02*
X55657645Y-96542727D01*
X56533835Y-96161775D02*
X56990978Y-96161775D01*
X56762406Y-96961775D02*
X56762406Y-96161775D01*
X57257645Y-96961775D02*
X57257645Y-96161775D01*
X57638597Y-96961775D02*
X57638597Y-96161775D01*
X57638597Y-96161775D02*
X57943359Y-96161775D01*
X57943359Y-96161775D02*
X58019549Y-96199870D01*
X58019549Y-96199870D02*
X58057644Y-96237965D01*
X58057644Y-96237965D02*
X58095740Y-96314156D01*
X58095740Y-96314156D02*
X58095740Y-96428441D01*
X58095740Y-96428441D02*
X58057644Y-96504632D01*
X58057644Y-96504632D02*
X58019549Y-96542727D01*
X58019549Y-96542727D02*
X57943359Y-96580822D01*
X57943359Y-96580822D02*
X57638597Y-96580822D01*
X58438597Y-96657013D02*
X59048121Y-96657013D01*
X59429073Y-96428441D02*
X60038597Y-96657013D01*
X60038597Y-96657013D02*
X59429073Y-96885584D01*
X60381453Y-96923680D02*
X60495739Y-96961775D01*
X60495739Y-96961775D02*
X60686215Y-96961775D01*
X60686215Y-96961775D02*
X60762406Y-96923680D01*
X60762406Y-96923680D02*
X60800501Y-96885584D01*
X60800501Y-96885584D02*
X60838596Y-96809394D01*
X60838596Y-96809394D02*
X60838596Y-96733203D01*
X60838596Y-96733203D02*
X60800501Y-96657013D01*
X60800501Y-96657013D02*
X60762406Y-96618918D01*
X60762406Y-96618918D02*
X60686215Y-96580822D01*
X60686215Y-96580822D02*
X60533834Y-96542727D01*
X60533834Y-96542727D02*
X60457644Y-96504632D01*
X60457644Y-96504632D02*
X60419549Y-96466537D01*
X60419549Y-96466537D02*
X60381453Y-96390346D01*
X60381453Y-96390346D02*
X60381453Y-96314156D01*
X60381453Y-96314156D02*
X60419549Y-96237965D01*
X60419549Y-96237965D02*
X60457644Y-96199870D01*
X60457644Y-96199870D02*
X60533834Y-96161775D01*
X60533834Y-96161775D02*
X60724311Y-96161775D01*
X60724311Y-96161775D02*
X60838596Y-96199870D01*
X61181454Y-96961775D02*
X61181454Y-96161775D01*
X61981453Y-96199870D02*
X61905263Y-96161775D01*
X61905263Y-96161775D02*
X61790977Y-96161775D01*
X61790977Y-96161775D02*
X61676691Y-96199870D01*
X61676691Y-96199870D02*
X61600501Y-96276060D01*
X61600501Y-96276060D02*
X61562406Y-96352251D01*
X61562406Y-96352251D02*
X61524310Y-96504632D01*
X61524310Y-96504632D02*
X61524310Y-96618918D01*
X61524310Y-96618918D02*
X61562406Y-96771299D01*
X61562406Y-96771299D02*
X61600501Y-96847489D01*
X61600501Y-96847489D02*
X61676691Y-96923680D01*
X61676691Y-96923680D02*
X61790977Y-96961775D01*
X61790977Y-96961775D02*
X61867168Y-96961775D01*
X61867168Y-96961775D02*
X61981453Y-96923680D01*
X61981453Y-96923680D02*
X62019549Y-96885584D01*
X62019549Y-96885584D02*
X62019549Y-96618918D01*
X62019549Y-96618918D02*
X61867168Y-96618918D01*
X62400501Y-96923680D02*
X62400501Y-96961775D01*
X62400501Y-96961775D02*
X62362406Y-97037965D01*
X62362406Y-97037965D02*
X62324310Y-97076060D01*
X63619548Y-96542727D02*
X63733834Y-96580822D01*
X63733834Y-96580822D02*
X63771929Y-96618918D01*
X63771929Y-96618918D02*
X63810025Y-96695108D01*
X63810025Y-96695108D02*
X63810025Y-96809394D01*
X63810025Y-96809394D02*
X63771929Y-96885584D01*
X63771929Y-96885584D02*
X63733834Y-96923680D01*
X63733834Y-96923680D02*
X63657644Y-96961775D01*
X63657644Y-96961775D02*
X63352882Y-96961775D01*
X63352882Y-96961775D02*
X63352882Y-96161775D01*
X63352882Y-96161775D02*
X63619548Y-96161775D01*
X63619548Y-96161775D02*
X63695739Y-96199870D01*
X63695739Y-96199870D02*
X63733834Y-96237965D01*
X63733834Y-96237965D02*
X63771929Y-96314156D01*
X63771929Y-96314156D02*
X63771929Y-96390346D01*
X63771929Y-96390346D02*
X63733834Y-96466537D01*
X63733834Y-96466537D02*
X63695739Y-96504632D01*
X63695739Y-96504632D02*
X63619548Y-96542727D01*
X63619548Y-96542727D02*
X63352882Y-96542727D01*
X64610025Y-96961775D02*
X64343358Y-96580822D01*
X64152882Y-96961775D02*
X64152882Y-96161775D01*
X64152882Y-96161775D02*
X64457644Y-96161775D01*
X64457644Y-96161775D02*
X64533834Y-96199870D01*
X64533834Y-96199870D02*
X64571929Y-96237965D01*
X64571929Y-96237965D02*
X64610025Y-96314156D01*
X64610025Y-96314156D02*
X64610025Y-96428441D01*
X64610025Y-96428441D02*
X64571929Y-96504632D01*
X64571929Y-96504632D02*
X64533834Y-96542727D01*
X64533834Y-96542727D02*
X64457644Y-96580822D01*
X64457644Y-96580822D02*
X64152882Y-96580822D01*
X64914786Y-96733203D02*
X65295739Y-96733203D01*
X64838596Y-96961775D02*
X65105263Y-96161775D01*
X65105263Y-96161775D02*
X65371929Y-96961775D01*
X65638596Y-96961775D02*
X65638596Y-96161775D01*
X66019548Y-96961775D02*
X66019548Y-96161775D01*
X66019548Y-96161775D02*
X66210024Y-96161775D01*
X66210024Y-96161775D02*
X66324310Y-96199870D01*
X66324310Y-96199870D02*
X66400500Y-96276060D01*
X66400500Y-96276060D02*
X66438595Y-96352251D01*
X66438595Y-96352251D02*
X66476691Y-96504632D01*
X66476691Y-96504632D02*
X66476691Y-96618918D01*
X66476691Y-96618918D02*
X66438595Y-96771299D01*
X66438595Y-96771299D02*
X66400500Y-96847489D01*
X66400500Y-96847489D02*
X66324310Y-96923680D01*
X66324310Y-96923680D02*
X66210024Y-96961775D01*
X66210024Y-96961775D02*
X66019548Y-96961775D01*
X66819548Y-96657013D02*
X67429072Y-96657013D01*
X67810024Y-96428441D02*
X68419548Y-96657013D01*
X68419548Y-96657013D02*
X67810024Y-96885584D01*
X69219547Y-96199870D02*
X69143357Y-96161775D01*
X69143357Y-96161775D02*
X69029071Y-96161775D01*
X69029071Y-96161775D02*
X68914785Y-96199870D01*
X68914785Y-96199870D02*
X68838595Y-96276060D01*
X68838595Y-96276060D02*
X68800500Y-96352251D01*
X68800500Y-96352251D02*
X68762404Y-96504632D01*
X68762404Y-96504632D02*
X68762404Y-96618918D01*
X68762404Y-96618918D02*
X68800500Y-96771299D01*
X68800500Y-96771299D02*
X68838595Y-96847489D01*
X68838595Y-96847489D02*
X68914785Y-96923680D01*
X68914785Y-96923680D02*
X69029071Y-96961775D01*
X69029071Y-96961775D02*
X69105262Y-96961775D01*
X69105262Y-96961775D02*
X69219547Y-96923680D01*
X69219547Y-96923680D02*
X69257643Y-96885584D01*
X69257643Y-96885584D02*
X69257643Y-96618918D01*
X69257643Y-96618918D02*
X69105262Y-96618918D01*
X69600500Y-96961775D02*
X69600500Y-96161775D01*
X69600500Y-96161775D02*
X70057643Y-96961775D01*
X70057643Y-96961775D02*
X70057643Y-96161775D01*
X70438595Y-96961775D02*
X70438595Y-96161775D01*
X70438595Y-96161775D02*
X70629071Y-96161775D01*
X70629071Y-96161775D02*
X70743357Y-96199870D01*
X70743357Y-96199870D02*
X70819547Y-96276060D01*
X70819547Y-96276060D02*
X70857642Y-96352251D01*
X70857642Y-96352251D02*
X70895738Y-96504632D01*
X70895738Y-96504632D02*
X70895738Y-96618918D01*
X70895738Y-96618918D02*
X70857642Y-96771299D01*
X70857642Y-96771299D02*
X70819547Y-96847489D01*
X70819547Y-96847489D02*
X70743357Y-96923680D01*
X70743357Y-96923680D02*
X70629071Y-96961775D01*
X70629071Y-96961775D02*
X70438595Y-96961775D01*
X71276690Y-96923680D02*
X71276690Y-96961775D01*
X71276690Y-96961775D02*
X71238595Y-97037965D01*
X71238595Y-97037965D02*
X71200499Y-97076060D01*
X72229071Y-96542727D02*
X72495737Y-96542727D01*
X72610023Y-96961775D02*
X72229071Y-96961775D01*
X72229071Y-96961775D02*
X72229071Y-96161775D01*
X72229071Y-96161775D02*
X72610023Y-96161775D01*
X72952881Y-96961775D02*
X72952881Y-96161775D01*
X72952881Y-96161775D02*
X73257643Y-96161775D01*
X73257643Y-96161775D02*
X73333833Y-96199870D01*
X73333833Y-96199870D02*
X73371928Y-96237965D01*
X73371928Y-96237965D02*
X73410024Y-96314156D01*
X73410024Y-96314156D02*
X73410024Y-96428441D01*
X73410024Y-96428441D02*
X73371928Y-96504632D01*
X73371928Y-96504632D02*
X73333833Y-96542727D01*
X73333833Y-96542727D02*
X73257643Y-96580822D01*
X73257643Y-96580822D02*
X72952881Y-96580822D01*
X73905262Y-96161775D02*
X74057643Y-96161775D01*
X74057643Y-96161775D02*
X74133833Y-96199870D01*
X74133833Y-96199870D02*
X74210024Y-96276060D01*
X74210024Y-96276060D02*
X74248119Y-96428441D01*
X74248119Y-96428441D02*
X74248119Y-96695108D01*
X74248119Y-96695108D02*
X74210024Y-96847489D01*
X74210024Y-96847489D02*
X74133833Y-96923680D01*
X74133833Y-96923680D02*
X74057643Y-96961775D01*
X74057643Y-96961775D02*
X73905262Y-96961775D01*
X73905262Y-96961775D02*
X73829071Y-96923680D01*
X73829071Y-96923680D02*
X73752881Y-96847489D01*
X73752881Y-96847489D02*
X73714785Y-96695108D01*
X73714785Y-96695108D02*
X73714785Y-96428441D01*
X73714785Y-96428441D02*
X73752881Y-96276060D01*
X73752881Y-96276060D02*
X73829071Y-96199870D01*
X73829071Y-96199870D02*
X73905262Y-96161775D01*
X74514785Y-96161775D02*
X75048119Y-96961775D01*
X75048119Y-96161775D02*
X74514785Y-96961775D01*
X75505262Y-96580822D02*
X75505262Y-96961775D01*
X75238595Y-96161775D02*
X75505262Y-96580822D01*
X75505262Y-96580822D02*
X75771928Y-96161775D01*
X77067166Y-96961775D02*
X76610023Y-96961775D01*
X76838595Y-96961775D02*
X76838595Y-96161775D01*
X76838595Y-96161775D02*
X76762404Y-96276060D01*
X76762404Y-96276060D02*
X76686214Y-96352251D01*
X76686214Y-96352251D02*
X76610023Y-96390346D01*
X77562405Y-96161775D02*
X77638595Y-96161775D01*
X77638595Y-96161775D02*
X77714786Y-96199870D01*
X77714786Y-96199870D02*
X77752881Y-96237965D01*
X77752881Y-96237965D02*
X77790976Y-96314156D01*
X77790976Y-96314156D02*
X77829071Y-96466537D01*
X77829071Y-96466537D02*
X77829071Y-96657013D01*
X77829071Y-96657013D02*
X77790976Y-96809394D01*
X77790976Y-96809394D02*
X77752881Y-96885584D01*
X77752881Y-96885584D02*
X77714786Y-96923680D01*
X77714786Y-96923680D02*
X77638595Y-96961775D01*
X77638595Y-96961775D02*
X77562405Y-96961775D01*
X77562405Y-96961775D02*
X77486214Y-96923680D01*
X77486214Y-96923680D02*
X77448119Y-96885584D01*
X77448119Y-96885584D02*
X77410024Y-96809394D01*
X77410024Y-96809394D02*
X77371928Y-96657013D01*
X77371928Y-96657013D02*
X77371928Y-96466537D01*
X77371928Y-96466537D02*
X77410024Y-96314156D01*
X77410024Y-96314156D02*
X77448119Y-96237965D01*
X77448119Y-96237965D02*
X77486214Y-96199870D01*
X77486214Y-96199870D02*
X77562405Y-96161775D01*
X78171929Y-96961775D02*
X78171929Y-96161775D01*
X78171929Y-96161775D02*
X78438595Y-96733203D01*
X78438595Y-96733203D02*
X78705262Y-96161775D01*
X78705262Y-96161775D02*
X78705262Y-96961775D01*
X79086215Y-96961775D02*
X79086215Y-96161775D01*
X79086215Y-96161775D02*
X79352881Y-96733203D01*
X79352881Y-96733203D02*
X79619548Y-96161775D01*
X79619548Y-96161775D02*
X79619548Y-96961775D01*
X80000501Y-96885584D02*
X80038596Y-96923680D01*
X80038596Y-96923680D02*
X80000501Y-96961775D01*
X80000501Y-96961775D02*
X79962405Y-96923680D01*
X79962405Y-96923680D02*
X80000501Y-96885584D01*
X80000501Y-96885584D02*
X80000501Y-96961775D01*
X5752882Y-98485584D02*
X5714786Y-98523680D01*
X5714786Y-98523680D02*
X5600501Y-98561775D01*
X5600501Y-98561775D02*
X5524310Y-98561775D01*
X5524310Y-98561775D02*
X5410024Y-98523680D01*
X5410024Y-98523680D02*
X5333834Y-98447489D01*
X5333834Y-98447489D02*
X5295739Y-98371299D01*
X5295739Y-98371299D02*
X5257643Y-98218918D01*
X5257643Y-98218918D02*
X5257643Y-98104632D01*
X5257643Y-98104632D02*
X5295739Y-97952251D01*
X5295739Y-97952251D02*
X5333834Y-97876060D01*
X5333834Y-97876060D02*
X5410024Y-97799870D01*
X5410024Y-97799870D02*
X5524310Y-97761775D01*
X5524310Y-97761775D02*
X5600501Y-97761775D01*
X5600501Y-97761775D02*
X5714786Y-97799870D01*
X5714786Y-97799870D02*
X5752882Y-97837965D01*
X6095739Y-97761775D02*
X6095739Y-98409394D01*
X6095739Y-98409394D02*
X6133834Y-98485584D01*
X6133834Y-98485584D02*
X6171929Y-98523680D01*
X6171929Y-98523680D02*
X6248120Y-98561775D01*
X6248120Y-98561775D02*
X6400501Y-98561775D01*
X6400501Y-98561775D02*
X6476691Y-98523680D01*
X6476691Y-98523680D02*
X6514786Y-98485584D01*
X6514786Y-98485584D02*
X6552882Y-98409394D01*
X6552882Y-98409394D02*
X6552882Y-97761775D01*
X6819548Y-97761775D02*
X7276691Y-97761775D01*
X7048119Y-98561775D02*
X7048119Y-97761775D01*
X8152882Y-98561775D02*
X8152882Y-97761775D01*
X8152882Y-97761775D02*
X8457644Y-97761775D01*
X8457644Y-97761775D02*
X8533834Y-97799870D01*
X8533834Y-97799870D02*
X8571929Y-97837965D01*
X8571929Y-97837965D02*
X8610025Y-97914156D01*
X8610025Y-97914156D02*
X8610025Y-98028441D01*
X8610025Y-98028441D02*
X8571929Y-98104632D01*
X8571929Y-98104632D02*
X8533834Y-98142727D01*
X8533834Y-98142727D02*
X8457644Y-98180822D01*
X8457644Y-98180822D02*
X8152882Y-98180822D01*
X8952882Y-98561775D02*
X8952882Y-97761775D01*
X9333834Y-98142727D02*
X9600500Y-98142727D01*
X9714786Y-98561775D02*
X9333834Y-98561775D01*
X9333834Y-98561775D02*
X9333834Y-97761775D01*
X9333834Y-97761775D02*
X9714786Y-97761775D01*
X10514787Y-98485584D02*
X10476691Y-98523680D01*
X10476691Y-98523680D02*
X10362406Y-98561775D01*
X10362406Y-98561775D02*
X10286215Y-98561775D01*
X10286215Y-98561775D02*
X10171929Y-98523680D01*
X10171929Y-98523680D02*
X10095739Y-98447489D01*
X10095739Y-98447489D02*
X10057644Y-98371299D01*
X10057644Y-98371299D02*
X10019548Y-98218918D01*
X10019548Y-98218918D02*
X10019548Y-98104632D01*
X10019548Y-98104632D02*
X10057644Y-97952251D01*
X10057644Y-97952251D02*
X10095739Y-97876060D01*
X10095739Y-97876060D02*
X10171929Y-97799870D01*
X10171929Y-97799870D02*
X10286215Y-97761775D01*
X10286215Y-97761775D02*
X10362406Y-97761775D01*
X10362406Y-97761775D02*
X10476691Y-97799870D01*
X10476691Y-97799870D02*
X10514787Y-97837965D01*
X10857644Y-98142727D02*
X11124310Y-98142727D01*
X11238596Y-98561775D02*
X10857644Y-98561775D01*
X10857644Y-98561775D02*
X10857644Y-97761775D01*
X10857644Y-97761775D02*
X11238596Y-97761775D01*
X11543358Y-98523680D02*
X11657644Y-98561775D01*
X11657644Y-98561775D02*
X11848120Y-98561775D01*
X11848120Y-98561775D02*
X11924311Y-98523680D01*
X11924311Y-98523680D02*
X11962406Y-98485584D01*
X11962406Y-98485584D02*
X12000501Y-98409394D01*
X12000501Y-98409394D02*
X12000501Y-98333203D01*
X12000501Y-98333203D02*
X11962406Y-98257013D01*
X11962406Y-98257013D02*
X11924311Y-98218918D01*
X11924311Y-98218918D02*
X11848120Y-98180822D01*
X11848120Y-98180822D02*
X11695739Y-98142727D01*
X11695739Y-98142727D02*
X11619549Y-98104632D01*
X11619549Y-98104632D02*
X11581454Y-98066537D01*
X11581454Y-98066537D02*
X11543358Y-97990346D01*
X11543358Y-97990346D02*
X11543358Y-97914156D01*
X11543358Y-97914156D02*
X11581454Y-97837965D01*
X11581454Y-97837965D02*
X11619549Y-97799870D01*
X11619549Y-97799870D02*
X11695739Y-97761775D01*
X11695739Y-97761775D02*
X11886216Y-97761775D01*
X11886216Y-97761775D02*
X12000501Y-97799870D01*
X12914787Y-98333203D02*
X13295740Y-98333203D01*
X12838597Y-98561775D02*
X13105264Y-97761775D01*
X13105264Y-97761775D02*
X13371930Y-98561775D01*
X13638597Y-98561775D02*
X13638597Y-97761775D01*
X13638597Y-97761775D02*
X13943359Y-97761775D01*
X13943359Y-97761775D02*
X14019549Y-97799870D01*
X14019549Y-97799870D02*
X14057644Y-97837965D01*
X14057644Y-97837965D02*
X14095740Y-97914156D01*
X14095740Y-97914156D02*
X14095740Y-98028441D01*
X14095740Y-98028441D02*
X14057644Y-98104632D01*
X14057644Y-98104632D02*
X14019549Y-98142727D01*
X14019549Y-98142727D02*
X13943359Y-98180822D01*
X13943359Y-98180822D02*
X13638597Y-98180822D01*
X14400501Y-98333203D02*
X14781454Y-98333203D01*
X14324311Y-98561775D02*
X14590978Y-97761775D01*
X14590978Y-97761775D02*
X14857644Y-98561775D01*
X15581454Y-98561775D02*
X15314787Y-98180822D01*
X15124311Y-98561775D02*
X15124311Y-97761775D01*
X15124311Y-97761775D02*
X15429073Y-97761775D01*
X15429073Y-97761775D02*
X15505263Y-97799870D01*
X15505263Y-97799870D02*
X15543358Y-97837965D01*
X15543358Y-97837965D02*
X15581454Y-97914156D01*
X15581454Y-97914156D02*
X15581454Y-98028441D01*
X15581454Y-98028441D02*
X15543358Y-98104632D01*
X15543358Y-98104632D02*
X15505263Y-98142727D01*
X15505263Y-98142727D02*
X15429073Y-98180822D01*
X15429073Y-98180822D02*
X15124311Y-98180822D01*
X15810025Y-97761775D02*
X16267168Y-97761775D01*
X16038596Y-98561775D02*
X16038596Y-97761775D01*
X17067168Y-97761775D02*
X17257644Y-98561775D01*
X17257644Y-98561775D02*
X17410025Y-97990346D01*
X17410025Y-97990346D02*
X17562406Y-98561775D01*
X17562406Y-98561775D02*
X17752883Y-97761775D01*
X18057645Y-98561775D02*
X18057645Y-97761775D01*
X18324311Y-97761775D02*
X18781454Y-97761775D01*
X18552882Y-98561775D02*
X18552882Y-97761775D01*
X19048121Y-98561775D02*
X19048121Y-97761775D01*
X19048121Y-98142727D02*
X19505264Y-98142727D01*
X19505264Y-98561775D02*
X19505264Y-97761775D01*
X20457644Y-98523680D02*
X20571930Y-98561775D01*
X20571930Y-98561775D02*
X20762406Y-98561775D01*
X20762406Y-98561775D02*
X20838597Y-98523680D01*
X20838597Y-98523680D02*
X20876692Y-98485584D01*
X20876692Y-98485584D02*
X20914787Y-98409394D01*
X20914787Y-98409394D02*
X20914787Y-98333203D01*
X20914787Y-98333203D02*
X20876692Y-98257013D01*
X20876692Y-98257013D02*
X20838597Y-98218918D01*
X20838597Y-98218918D02*
X20762406Y-98180822D01*
X20762406Y-98180822D02*
X20610025Y-98142727D01*
X20610025Y-98142727D02*
X20533835Y-98104632D01*
X20533835Y-98104632D02*
X20495740Y-98066537D01*
X20495740Y-98066537D02*
X20457644Y-97990346D01*
X20457644Y-97990346D02*
X20457644Y-97914156D01*
X20457644Y-97914156D02*
X20495740Y-97837965D01*
X20495740Y-97837965D02*
X20533835Y-97799870D01*
X20533835Y-97799870D02*
X20610025Y-97761775D01*
X20610025Y-97761775D02*
X20800502Y-97761775D01*
X20800502Y-97761775D02*
X20914787Y-97799870D01*
X21714788Y-98485584D02*
X21676692Y-98523680D01*
X21676692Y-98523680D02*
X21562407Y-98561775D01*
X21562407Y-98561775D02*
X21486216Y-98561775D01*
X21486216Y-98561775D02*
X21371930Y-98523680D01*
X21371930Y-98523680D02*
X21295740Y-98447489D01*
X21295740Y-98447489D02*
X21257645Y-98371299D01*
X21257645Y-98371299D02*
X21219549Y-98218918D01*
X21219549Y-98218918D02*
X21219549Y-98104632D01*
X21219549Y-98104632D02*
X21257645Y-97952251D01*
X21257645Y-97952251D02*
X21295740Y-97876060D01*
X21295740Y-97876060D02*
X21371930Y-97799870D01*
X21371930Y-97799870D02*
X21486216Y-97761775D01*
X21486216Y-97761775D02*
X21562407Y-97761775D01*
X21562407Y-97761775D02*
X21676692Y-97799870D01*
X21676692Y-97799870D02*
X21714788Y-97837965D01*
X22057645Y-98561775D02*
X22057645Y-97761775D01*
X22400501Y-98523680D02*
X22514787Y-98561775D01*
X22514787Y-98561775D02*
X22705263Y-98561775D01*
X22705263Y-98561775D02*
X22781454Y-98523680D01*
X22781454Y-98523680D02*
X22819549Y-98485584D01*
X22819549Y-98485584D02*
X22857644Y-98409394D01*
X22857644Y-98409394D02*
X22857644Y-98333203D01*
X22857644Y-98333203D02*
X22819549Y-98257013D01*
X22819549Y-98257013D02*
X22781454Y-98218918D01*
X22781454Y-98218918D02*
X22705263Y-98180822D01*
X22705263Y-98180822D02*
X22552882Y-98142727D01*
X22552882Y-98142727D02*
X22476692Y-98104632D01*
X22476692Y-98104632D02*
X22438597Y-98066537D01*
X22438597Y-98066537D02*
X22400501Y-97990346D01*
X22400501Y-97990346D02*
X22400501Y-97914156D01*
X22400501Y-97914156D02*
X22438597Y-97837965D01*
X22438597Y-97837965D02*
X22476692Y-97799870D01*
X22476692Y-97799870D02*
X22552882Y-97761775D01*
X22552882Y-97761775D02*
X22743359Y-97761775D01*
X22743359Y-97761775D02*
X22857644Y-97799870D01*
X23162406Y-98523680D02*
X23276692Y-98561775D01*
X23276692Y-98561775D02*
X23467168Y-98561775D01*
X23467168Y-98561775D02*
X23543359Y-98523680D01*
X23543359Y-98523680D02*
X23581454Y-98485584D01*
X23581454Y-98485584D02*
X23619549Y-98409394D01*
X23619549Y-98409394D02*
X23619549Y-98333203D01*
X23619549Y-98333203D02*
X23581454Y-98257013D01*
X23581454Y-98257013D02*
X23543359Y-98218918D01*
X23543359Y-98218918D02*
X23467168Y-98180822D01*
X23467168Y-98180822D02*
X23314787Y-98142727D01*
X23314787Y-98142727D02*
X23238597Y-98104632D01*
X23238597Y-98104632D02*
X23200502Y-98066537D01*
X23200502Y-98066537D02*
X23162406Y-97990346D01*
X23162406Y-97990346D02*
X23162406Y-97914156D01*
X23162406Y-97914156D02*
X23200502Y-97837965D01*
X23200502Y-97837965D02*
X23238597Y-97799870D01*
X23238597Y-97799870D02*
X23314787Y-97761775D01*
X23314787Y-97761775D02*
X23505264Y-97761775D01*
X23505264Y-97761775D02*
X23619549Y-97799870D01*
X24114788Y-97761775D02*
X24267169Y-97761775D01*
X24267169Y-97761775D02*
X24343359Y-97799870D01*
X24343359Y-97799870D02*
X24419550Y-97876060D01*
X24419550Y-97876060D02*
X24457645Y-98028441D01*
X24457645Y-98028441D02*
X24457645Y-98295108D01*
X24457645Y-98295108D02*
X24419550Y-98447489D01*
X24419550Y-98447489D02*
X24343359Y-98523680D01*
X24343359Y-98523680D02*
X24267169Y-98561775D01*
X24267169Y-98561775D02*
X24114788Y-98561775D01*
X24114788Y-98561775D02*
X24038597Y-98523680D01*
X24038597Y-98523680D02*
X23962407Y-98447489D01*
X23962407Y-98447489D02*
X23924311Y-98295108D01*
X23924311Y-98295108D02*
X23924311Y-98028441D01*
X23924311Y-98028441D02*
X23962407Y-97876060D01*
X23962407Y-97876060D02*
X24038597Y-97799870D01*
X24038597Y-97799870D02*
X24114788Y-97761775D01*
X25257645Y-98561775D02*
X24990978Y-98180822D01*
X24800502Y-98561775D02*
X24800502Y-97761775D01*
X24800502Y-97761775D02*
X25105264Y-97761775D01*
X25105264Y-97761775D02*
X25181454Y-97799870D01*
X25181454Y-97799870D02*
X25219549Y-97837965D01*
X25219549Y-97837965D02*
X25257645Y-97914156D01*
X25257645Y-97914156D02*
X25257645Y-98028441D01*
X25257645Y-98028441D02*
X25219549Y-98104632D01*
X25219549Y-98104632D02*
X25181454Y-98142727D01*
X25181454Y-98142727D02*
X25105264Y-98180822D01*
X25105264Y-98180822D02*
X24800502Y-98180822D01*
X25562406Y-98523680D02*
X25676692Y-98561775D01*
X25676692Y-98561775D02*
X25867168Y-98561775D01*
X25867168Y-98561775D02*
X25943359Y-98523680D01*
X25943359Y-98523680D02*
X25981454Y-98485584D01*
X25981454Y-98485584D02*
X26019549Y-98409394D01*
X26019549Y-98409394D02*
X26019549Y-98333203D01*
X26019549Y-98333203D02*
X25981454Y-98257013D01*
X25981454Y-98257013D02*
X25943359Y-98218918D01*
X25943359Y-98218918D02*
X25867168Y-98180822D01*
X25867168Y-98180822D02*
X25714787Y-98142727D01*
X25714787Y-98142727D02*
X25638597Y-98104632D01*
X25638597Y-98104632D02*
X25600502Y-98066537D01*
X25600502Y-98066537D02*
X25562406Y-97990346D01*
X25562406Y-97990346D02*
X25562406Y-97914156D01*
X25562406Y-97914156D02*
X25600502Y-97837965D01*
X25600502Y-97837965D02*
X25638597Y-97799870D01*
X25638597Y-97799870D02*
X25714787Y-97761775D01*
X25714787Y-97761775D02*
X25905264Y-97761775D01*
X25905264Y-97761775D02*
X26019549Y-97799870D01*
X26933835Y-98333203D02*
X27314788Y-98333203D01*
X26857645Y-98561775D02*
X27124312Y-97761775D01*
X27124312Y-97761775D02*
X27390978Y-98561775D01*
X28038597Y-98561775D02*
X27657645Y-98561775D01*
X27657645Y-98561775D02*
X27657645Y-97761775D01*
X28457645Y-97761775D02*
X28610026Y-97761775D01*
X28610026Y-97761775D02*
X28686216Y-97799870D01*
X28686216Y-97799870D02*
X28762407Y-97876060D01*
X28762407Y-97876060D02*
X28800502Y-98028441D01*
X28800502Y-98028441D02*
X28800502Y-98295108D01*
X28800502Y-98295108D02*
X28762407Y-98447489D01*
X28762407Y-98447489D02*
X28686216Y-98523680D01*
X28686216Y-98523680D02*
X28610026Y-98561775D01*
X28610026Y-98561775D02*
X28457645Y-98561775D01*
X28457645Y-98561775D02*
X28381454Y-98523680D01*
X28381454Y-98523680D02*
X28305264Y-98447489D01*
X28305264Y-98447489D02*
X28267168Y-98295108D01*
X28267168Y-98295108D02*
X28267168Y-98028441D01*
X28267168Y-98028441D02*
X28305264Y-97876060D01*
X28305264Y-97876060D02*
X28381454Y-97799870D01*
X28381454Y-97799870D02*
X28457645Y-97761775D01*
X29143359Y-98561775D02*
X29143359Y-97761775D01*
X29143359Y-97761775D02*
X29600502Y-98561775D01*
X29600502Y-98561775D02*
X29600502Y-97761775D01*
X30400501Y-97799870D02*
X30324311Y-97761775D01*
X30324311Y-97761775D02*
X30210025Y-97761775D01*
X30210025Y-97761775D02*
X30095739Y-97799870D01*
X30095739Y-97799870D02*
X30019549Y-97876060D01*
X30019549Y-97876060D02*
X29981454Y-97952251D01*
X29981454Y-97952251D02*
X29943358Y-98104632D01*
X29943358Y-98104632D02*
X29943358Y-98218918D01*
X29943358Y-98218918D02*
X29981454Y-98371299D01*
X29981454Y-98371299D02*
X30019549Y-98447489D01*
X30019549Y-98447489D02*
X30095739Y-98523680D01*
X30095739Y-98523680D02*
X30210025Y-98561775D01*
X30210025Y-98561775D02*
X30286216Y-98561775D01*
X30286216Y-98561775D02*
X30400501Y-98523680D01*
X30400501Y-98523680D02*
X30438597Y-98485584D01*
X30438597Y-98485584D02*
X30438597Y-98218918D01*
X30438597Y-98218918D02*
X30286216Y-98218918D01*
X31352882Y-98523680D02*
X31467168Y-98561775D01*
X31467168Y-98561775D02*
X31657644Y-98561775D01*
X31657644Y-98561775D02*
X31733835Y-98523680D01*
X31733835Y-98523680D02*
X31771930Y-98485584D01*
X31771930Y-98485584D02*
X31810025Y-98409394D01*
X31810025Y-98409394D02*
X31810025Y-98333203D01*
X31810025Y-98333203D02*
X31771930Y-98257013D01*
X31771930Y-98257013D02*
X31733835Y-98218918D01*
X31733835Y-98218918D02*
X31657644Y-98180822D01*
X31657644Y-98180822D02*
X31505263Y-98142727D01*
X31505263Y-98142727D02*
X31429073Y-98104632D01*
X31429073Y-98104632D02*
X31390978Y-98066537D01*
X31390978Y-98066537D02*
X31352882Y-97990346D01*
X31352882Y-97990346D02*
X31352882Y-97914156D01*
X31352882Y-97914156D02*
X31390978Y-97837965D01*
X31390978Y-97837965D02*
X31429073Y-97799870D01*
X31429073Y-97799870D02*
X31505263Y-97761775D01*
X31505263Y-97761775D02*
X31695740Y-97761775D01*
X31695740Y-97761775D02*
X31810025Y-97799870D01*
X32152883Y-98561775D02*
X32152883Y-97761775D01*
X32914787Y-98561775D02*
X32533835Y-98561775D01*
X32533835Y-98561775D02*
X32533835Y-97761775D01*
X33181454Y-98561775D02*
X33181454Y-97761775D01*
X33638597Y-98561775D02*
X33295739Y-98104632D01*
X33638597Y-97761775D02*
X33181454Y-98218918D01*
X34743359Y-97761775D02*
X34895740Y-97761775D01*
X34895740Y-97761775D02*
X34971930Y-97799870D01*
X34971930Y-97799870D02*
X35048121Y-97876060D01*
X35048121Y-97876060D02*
X35086216Y-98028441D01*
X35086216Y-98028441D02*
X35086216Y-98295108D01*
X35086216Y-98295108D02*
X35048121Y-98447489D01*
X35048121Y-98447489D02*
X34971930Y-98523680D01*
X34971930Y-98523680D02*
X34895740Y-98561775D01*
X34895740Y-98561775D02*
X34743359Y-98561775D01*
X34743359Y-98561775D02*
X34667168Y-98523680D01*
X34667168Y-98523680D02*
X34590978Y-98447489D01*
X34590978Y-98447489D02*
X34552882Y-98295108D01*
X34552882Y-98295108D02*
X34552882Y-98028441D01*
X34552882Y-98028441D02*
X34590978Y-97876060D01*
X34590978Y-97876060D02*
X34667168Y-97799870D01*
X34667168Y-97799870D02*
X34743359Y-97761775D01*
X35429073Y-97761775D02*
X35429073Y-98409394D01*
X35429073Y-98409394D02*
X35467168Y-98485584D01*
X35467168Y-98485584D02*
X35505263Y-98523680D01*
X35505263Y-98523680D02*
X35581454Y-98561775D01*
X35581454Y-98561775D02*
X35733835Y-98561775D01*
X35733835Y-98561775D02*
X35810025Y-98523680D01*
X35810025Y-98523680D02*
X35848120Y-98485584D01*
X35848120Y-98485584D02*
X35886216Y-98409394D01*
X35886216Y-98409394D02*
X35886216Y-97761775D01*
X36152882Y-97761775D02*
X36610025Y-97761775D01*
X36381453Y-98561775D02*
X36381453Y-97761775D01*
X37257644Y-98561775D02*
X36876692Y-98561775D01*
X36876692Y-98561775D02*
X36876692Y-97761775D01*
X37524311Y-98561775D02*
X37524311Y-97761775D01*
X37905263Y-98561775D02*
X37905263Y-97761775D01*
X37905263Y-97761775D02*
X38362406Y-98561775D01*
X38362406Y-98561775D02*
X38362406Y-97761775D01*
X38743358Y-98142727D02*
X39010024Y-98142727D01*
X39124310Y-98561775D02*
X38743358Y-98561775D01*
X38743358Y-98561775D02*
X38743358Y-97761775D01*
X38743358Y-97761775D02*
X39124310Y-97761775D01*
X39429072Y-98523680D02*
X39543358Y-98561775D01*
X39543358Y-98561775D02*
X39733834Y-98561775D01*
X39733834Y-98561775D02*
X39810025Y-98523680D01*
X39810025Y-98523680D02*
X39848120Y-98485584D01*
X39848120Y-98485584D02*
X39886215Y-98409394D01*
X39886215Y-98409394D02*
X39886215Y-98333203D01*
X39886215Y-98333203D02*
X39848120Y-98257013D01*
X39848120Y-98257013D02*
X39810025Y-98218918D01*
X39810025Y-98218918D02*
X39733834Y-98180822D01*
X39733834Y-98180822D02*
X39581453Y-98142727D01*
X39581453Y-98142727D02*
X39505263Y-98104632D01*
X39505263Y-98104632D02*
X39467168Y-98066537D01*
X39467168Y-98066537D02*
X39429072Y-97990346D01*
X39429072Y-97990346D02*
X39429072Y-97914156D01*
X39429072Y-97914156D02*
X39467168Y-97837965D01*
X39467168Y-97837965D02*
X39505263Y-97799870D01*
X39505263Y-97799870D02*
X39581453Y-97761775D01*
X39581453Y-97761775D02*
X39771930Y-97761775D01*
X39771930Y-97761775D02*
X39886215Y-97799870D01*
X40229073Y-98485584D02*
X40267168Y-98523680D01*
X40267168Y-98523680D02*
X40229073Y-98561775D01*
X40229073Y-98561775D02*
X40190977Y-98523680D01*
X40190977Y-98523680D02*
X40229073Y-98485584D01*
X40229073Y-98485584D02*
X40229073Y-98561775D01*
X41219549Y-98561775D02*
X41219549Y-97761775D01*
X41676692Y-98561775D02*
X41333834Y-98104632D01*
X41676692Y-97761775D02*
X41219549Y-98218918D01*
X42019549Y-98142727D02*
X42286215Y-98142727D01*
X42400501Y-98561775D02*
X42019549Y-98561775D01*
X42019549Y-98561775D02*
X42019549Y-97761775D01*
X42019549Y-97761775D02*
X42400501Y-97761775D01*
X42743359Y-98142727D02*
X43010025Y-98142727D01*
X43124311Y-98561775D02*
X42743359Y-98561775D01*
X42743359Y-98561775D02*
X42743359Y-97761775D01*
X42743359Y-97761775D02*
X43124311Y-97761775D01*
X43467169Y-98561775D02*
X43467169Y-97761775D01*
X43467169Y-97761775D02*
X43771931Y-97761775D01*
X43771931Y-97761775D02*
X43848121Y-97799870D01*
X43848121Y-97799870D02*
X43886216Y-97837965D01*
X43886216Y-97837965D02*
X43924312Y-97914156D01*
X43924312Y-97914156D02*
X43924312Y-98028441D01*
X43924312Y-98028441D02*
X43886216Y-98104632D01*
X43886216Y-98104632D02*
X43848121Y-98142727D01*
X43848121Y-98142727D02*
X43771931Y-98180822D01*
X43771931Y-98180822D02*
X43467169Y-98180822D01*
X45295740Y-98561775D02*
X44838597Y-98561775D01*
X45067169Y-98561775D02*
X45067169Y-97761775D01*
X45067169Y-97761775D02*
X44990978Y-97876060D01*
X44990978Y-97876060D02*
X44914788Y-97952251D01*
X44914788Y-97952251D02*
X44838597Y-97990346D01*
X45790979Y-97761775D02*
X45867169Y-97761775D01*
X45867169Y-97761775D02*
X45943360Y-97799870D01*
X45943360Y-97799870D02*
X45981455Y-97837965D01*
X45981455Y-97837965D02*
X46019550Y-97914156D01*
X46019550Y-97914156D02*
X46057645Y-98066537D01*
X46057645Y-98066537D02*
X46057645Y-98257013D01*
X46057645Y-98257013D02*
X46019550Y-98409394D01*
X46019550Y-98409394D02*
X45981455Y-98485584D01*
X45981455Y-98485584D02*
X45943360Y-98523680D01*
X45943360Y-98523680D02*
X45867169Y-98561775D01*
X45867169Y-98561775D02*
X45790979Y-98561775D01*
X45790979Y-98561775D02*
X45714788Y-98523680D01*
X45714788Y-98523680D02*
X45676693Y-98485584D01*
X45676693Y-98485584D02*
X45638598Y-98409394D01*
X45638598Y-98409394D02*
X45600502Y-98257013D01*
X45600502Y-98257013D02*
X45600502Y-98066537D01*
X45600502Y-98066537D02*
X45638598Y-97914156D01*
X45638598Y-97914156D02*
X45676693Y-97837965D01*
X45676693Y-97837965D02*
X45714788Y-97799870D01*
X45714788Y-97799870D02*
X45790979Y-97761775D01*
X46400503Y-98561775D02*
X46400503Y-97761775D01*
X46400503Y-97761775D02*
X46667169Y-98333203D01*
X46667169Y-98333203D02*
X46933836Y-97761775D01*
X46933836Y-97761775D02*
X46933836Y-98561775D01*
X47314789Y-98561775D02*
X47314789Y-97761775D01*
X47314789Y-97761775D02*
X47581455Y-98333203D01*
X47581455Y-98333203D02*
X47848122Y-97761775D01*
X47848122Y-97761775D02*
X47848122Y-98561775D01*
X49295742Y-98485584D02*
X49257646Y-98523680D01*
X49257646Y-98523680D02*
X49143361Y-98561775D01*
X49143361Y-98561775D02*
X49067170Y-98561775D01*
X49067170Y-98561775D02*
X48952884Y-98523680D01*
X48952884Y-98523680D02*
X48876694Y-98447489D01*
X48876694Y-98447489D02*
X48838599Y-98371299D01*
X48838599Y-98371299D02*
X48800503Y-98218918D01*
X48800503Y-98218918D02*
X48800503Y-98104632D01*
X48800503Y-98104632D02*
X48838599Y-97952251D01*
X48838599Y-97952251D02*
X48876694Y-97876060D01*
X48876694Y-97876060D02*
X48952884Y-97799870D01*
X48952884Y-97799870D02*
X49067170Y-97761775D01*
X49067170Y-97761775D02*
X49143361Y-97761775D01*
X49143361Y-97761775D02*
X49257646Y-97799870D01*
X49257646Y-97799870D02*
X49295742Y-97837965D01*
X50019551Y-98561775D02*
X49638599Y-98561775D01*
X49638599Y-98561775D02*
X49638599Y-97761775D01*
X50286218Y-98142727D02*
X50552884Y-98142727D01*
X50667170Y-98561775D02*
X50286218Y-98561775D01*
X50286218Y-98561775D02*
X50286218Y-97761775D01*
X50286218Y-97761775D02*
X50667170Y-97761775D01*
X50971932Y-98333203D02*
X51352885Y-98333203D01*
X50895742Y-98561775D02*
X51162409Y-97761775D01*
X51162409Y-97761775D02*
X51429075Y-98561775D01*
X52152885Y-98561775D02*
X51886218Y-98180822D01*
X51695742Y-98561775D02*
X51695742Y-97761775D01*
X51695742Y-97761775D02*
X52000504Y-97761775D01*
X52000504Y-97761775D02*
X52076694Y-97799870D01*
X52076694Y-97799870D02*
X52114789Y-97837965D01*
X52114789Y-97837965D02*
X52152885Y-97914156D01*
X52152885Y-97914156D02*
X52152885Y-98028441D01*
X52152885Y-98028441D02*
X52114789Y-98104632D01*
X52114789Y-98104632D02*
X52076694Y-98142727D01*
X52076694Y-98142727D02*
X52000504Y-98180822D01*
X52000504Y-98180822D02*
X51695742Y-98180822D01*
X53257647Y-97761775D02*
X53410028Y-97761775D01*
X53410028Y-97761775D02*
X53486218Y-97799870D01*
X53486218Y-97799870D02*
X53562409Y-97876060D01*
X53562409Y-97876060D02*
X53600504Y-98028441D01*
X53600504Y-98028441D02*
X53600504Y-98295108D01*
X53600504Y-98295108D02*
X53562409Y-98447489D01*
X53562409Y-98447489D02*
X53486218Y-98523680D01*
X53486218Y-98523680D02*
X53410028Y-98561775D01*
X53410028Y-98561775D02*
X53257647Y-98561775D01*
X53257647Y-98561775D02*
X53181456Y-98523680D01*
X53181456Y-98523680D02*
X53105266Y-98447489D01*
X53105266Y-98447489D02*
X53067170Y-98295108D01*
X53067170Y-98295108D02*
X53067170Y-98028441D01*
X53067170Y-98028441D02*
X53105266Y-97876060D01*
X53105266Y-97876060D02*
X53181456Y-97799870D01*
X53181456Y-97799870D02*
X53257647Y-97761775D01*
X54210027Y-98142727D02*
X53943361Y-98142727D01*
X53943361Y-98561775D02*
X53943361Y-97761775D01*
X53943361Y-97761775D02*
X54324313Y-97761775D01*
X55238599Y-98561775D02*
X55238599Y-97761775D01*
X55238599Y-97761775D02*
X55505265Y-98333203D01*
X55505265Y-98333203D02*
X55771932Y-97761775D01*
X55771932Y-97761775D02*
X55771932Y-98561775D01*
X56152885Y-98142727D02*
X56419551Y-98142727D01*
X56533837Y-98561775D02*
X56152885Y-98561775D01*
X56152885Y-98561775D02*
X56152885Y-97761775D01*
X56152885Y-97761775D02*
X56533837Y-97761775D01*
X56762409Y-97761775D02*
X57219552Y-97761775D01*
X56990980Y-98561775D02*
X56990980Y-97761775D01*
X57448123Y-98333203D02*
X57829076Y-98333203D01*
X57371933Y-98561775D02*
X57638600Y-97761775D01*
X57638600Y-97761775D02*
X57905266Y-98561775D01*
X58552885Y-98561775D02*
X58171933Y-98561775D01*
X58171933Y-98561775D02*
X58171933Y-97761775D01*
X59390980Y-97723680D02*
X58705266Y-98752251D01*
X59924313Y-98142727D02*
X60038599Y-98180822D01*
X60038599Y-98180822D02*
X60076694Y-98218918D01*
X60076694Y-98218918D02*
X60114790Y-98295108D01*
X60114790Y-98295108D02*
X60114790Y-98409394D01*
X60114790Y-98409394D02*
X60076694Y-98485584D01*
X60076694Y-98485584D02*
X60038599Y-98523680D01*
X60038599Y-98523680D02*
X59962409Y-98561775D01*
X59962409Y-98561775D02*
X59657647Y-98561775D01*
X59657647Y-98561775D02*
X59657647Y-97761775D01*
X59657647Y-97761775D02*
X59924313Y-97761775D01*
X59924313Y-97761775D02*
X60000504Y-97799870D01*
X60000504Y-97799870D02*
X60038599Y-97837965D01*
X60038599Y-97837965D02*
X60076694Y-97914156D01*
X60076694Y-97914156D02*
X60076694Y-97990346D01*
X60076694Y-97990346D02*
X60038599Y-98066537D01*
X60038599Y-98066537D02*
X60000504Y-98104632D01*
X60000504Y-98104632D02*
X59924313Y-98142727D01*
X59924313Y-98142727D02*
X59657647Y-98142727D01*
X60419551Y-98333203D02*
X60800504Y-98333203D01*
X60343361Y-98561775D02*
X60610028Y-97761775D01*
X60610028Y-97761775D02*
X60876694Y-98561775D01*
X61029075Y-97761775D02*
X61486218Y-97761775D01*
X61257646Y-98561775D02*
X61257646Y-97761775D01*
X61638599Y-97761775D02*
X62095742Y-97761775D01*
X61867170Y-98561775D02*
X61867170Y-97761775D01*
X62362409Y-98142727D02*
X62629075Y-98142727D01*
X62743361Y-98561775D02*
X62362409Y-98561775D01*
X62362409Y-98561775D02*
X62362409Y-97761775D01*
X62362409Y-97761775D02*
X62743361Y-97761775D01*
X63543362Y-98561775D02*
X63276695Y-98180822D01*
X63086219Y-98561775D02*
X63086219Y-97761775D01*
X63086219Y-97761775D02*
X63390981Y-97761775D01*
X63390981Y-97761775D02*
X63467171Y-97799870D01*
X63467171Y-97799870D02*
X63505266Y-97837965D01*
X63505266Y-97837965D02*
X63543362Y-97914156D01*
X63543362Y-97914156D02*
X63543362Y-98028441D01*
X63543362Y-98028441D02*
X63505266Y-98104632D01*
X63505266Y-98104632D02*
X63467171Y-98142727D01*
X63467171Y-98142727D02*
X63390981Y-98180822D01*
X63390981Y-98180822D02*
X63086219Y-98180822D01*
X64038600Y-98180822D02*
X64038600Y-98561775D01*
X63771933Y-97761775D02*
X64038600Y-98180822D01*
X64038600Y-98180822D02*
X64305266Y-97761775D01*
X64571933Y-98485584D02*
X64610028Y-98523680D01*
X64610028Y-98523680D02*
X64571933Y-98561775D01*
X64571933Y-98561775D02*
X64533837Y-98523680D01*
X64533837Y-98523680D02*
X64571933Y-98485584D01*
X64571933Y-98485584D02*
X64571933Y-98561775D01*
X45180952Y-10823680D02*
X45295238Y-10861775D01*
X45295238Y-10861775D02*
X45485714Y-10861775D01*
X45485714Y-10861775D02*
X45561905Y-10823680D01*
X45561905Y-10823680D02*
X45600000Y-10785584D01*
X45600000Y-10785584D02*
X45638095Y-10709394D01*
X45638095Y-10709394D02*
X45638095Y-10633203D01*
X45638095Y-10633203D02*
X45600000Y-10557013D01*
X45600000Y-10557013D02*
X45561905Y-10518918D01*
X45561905Y-10518918D02*
X45485714Y-10480822D01*
X45485714Y-10480822D02*
X45333333Y-10442727D01*
X45333333Y-10442727D02*
X45257143Y-10404632D01*
X45257143Y-10404632D02*
X45219048Y-10366537D01*
X45219048Y-10366537D02*
X45180952Y-10290346D01*
X45180952Y-10290346D02*
X45180952Y-10214156D01*
X45180952Y-10214156D02*
X45219048Y-10137965D01*
X45219048Y-10137965D02*
X45257143Y-10099870D01*
X45257143Y-10099870D02*
X45333333Y-10061775D01*
X45333333Y-10061775D02*
X45523810Y-10061775D01*
X45523810Y-10061775D02*
X45638095Y-10099870D01*
X45980953Y-10861775D02*
X45980953Y-10061775D01*
X46780952Y-10099870D02*
X46704762Y-10061775D01*
X46704762Y-10061775D02*
X46590476Y-10061775D01*
X46590476Y-10061775D02*
X46476190Y-10099870D01*
X46476190Y-10099870D02*
X46400000Y-10176060D01*
X46400000Y-10176060D02*
X46361905Y-10252251D01*
X46361905Y-10252251D02*
X46323809Y-10404632D01*
X46323809Y-10404632D02*
X46323809Y-10518918D01*
X46323809Y-10518918D02*
X46361905Y-10671299D01*
X46361905Y-10671299D02*
X46400000Y-10747489D01*
X46400000Y-10747489D02*
X46476190Y-10823680D01*
X46476190Y-10823680D02*
X46590476Y-10861775D01*
X46590476Y-10861775D02*
X46666667Y-10861775D01*
X46666667Y-10861775D02*
X46780952Y-10823680D01*
X46780952Y-10823680D02*
X46819048Y-10785584D01*
X46819048Y-10785584D02*
X46819048Y-10518918D01*
X46819048Y-10518918D02*
X46666667Y-10518918D01*
X45180952Y-33823680D02*
X45295238Y-33861775D01*
X45295238Y-33861775D02*
X45485714Y-33861775D01*
X45485714Y-33861775D02*
X45561905Y-33823680D01*
X45561905Y-33823680D02*
X45600000Y-33785584D01*
X45600000Y-33785584D02*
X45638095Y-33709394D01*
X45638095Y-33709394D02*
X45638095Y-33633203D01*
X45638095Y-33633203D02*
X45600000Y-33557013D01*
X45600000Y-33557013D02*
X45561905Y-33518918D01*
X45561905Y-33518918D02*
X45485714Y-33480822D01*
X45485714Y-33480822D02*
X45333333Y-33442727D01*
X45333333Y-33442727D02*
X45257143Y-33404632D01*
X45257143Y-33404632D02*
X45219048Y-33366537D01*
X45219048Y-33366537D02*
X45180952Y-33290346D01*
X45180952Y-33290346D02*
X45180952Y-33214156D01*
X45180952Y-33214156D02*
X45219048Y-33137965D01*
X45219048Y-33137965D02*
X45257143Y-33099870D01*
X45257143Y-33099870D02*
X45333333Y-33061775D01*
X45333333Y-33061775D02*
X45523810Y-33061775D01*
X45523810Y-33061775D02*
X45638095Y-33099870D01*
X45980953Y-33861775D02*
X45980953Y-33061775D01*
X46780952Y-33099870D02*
X46704762Y-33061775D01*
X46704762Y-33061775D02*
X46590476Y-33061775D01*
X46590476Y-33061775D02*
X46476190Y-33099870D01*
X46476190Y-33099870D02*
X46400000Y-33176060D01*
X46400000Y-33176060D02*
X46361905Y-33252251D01*
X46361905Y-33252251D02*
X46323809Y-33404632D01*
X46323809Y-33404632D02*
X46323809Y-33518918D01*
X46323809Y-33518918D02*
X46361905Y-33671299D01*
X46361905Y-33671299D02*
X46400000Y-33747489D01*
X46400000Y-33747489D02*
X46476190Y-33823680D01*
X46476190Y-33823680D02*
X46590476Y-33861775D01*
X46590476Y-33861775D02*
X46666667Y-33861775D01*
X46666667Y-33861775D02*
X46780952Y-33823680D01*
X46780952Y-33823680D02*
X46819048Y-33785584D01*
X46819048Y-33785584D02*
X46819048Y-33518918D01*
X46819048Y-33518918D02*
X46666667Y-33518918D01*
X45180952Y-56823680D02*
X45295238Y-56861775D01*
X45295238Y-56861775D02*
X45485714Y-56861775D01*
X45485714Y-56861775D02*
X45561905Y-56823680D01*
X45561905Y-56823680D02*
X45600000Y-56785584D01*
X45600000Y-56785584D02*
X45638095Y-56709394D01*
X45638095Y-56709394D02*
X45638095Y-56633203D01*
X45638095Y-56633203D02*
X45600000Y-56557013D01*
X45600000Y-56557013D02*
X45561905Y-56518918D01*
X45561905Y-56518918D02*
X45485714Y-56480822D01*
X45485714Y-56480822D02*
X45333333Y-56442727D01*
X45333333Y-56442727D02*
X45257143Y-56404632D01*
X45257143Y-56404632D02*
X45219048Y-56366537D01*
X45219048Y-56366537D02*
X45180952Y-56290346D01*
X45180952Y-56290346D02*
X45180952Y-56214156D01*
X45180952Y-56214156D02*
X45219048Y-56137965D01*
X45219048Y-56137965D02*
X45257143Y-56099870D01*
X45257143Y-56099870D02*
X45333333Y-56061775D01*
X45333333Y-56061775D02*
X45523810Y-56061775D01*
X45523810Y-56061775D02*
X45638095Y-56099870D01*
X45980953Y-56861775D02*
X45980953Y-56061775D01*
X46780952Y-56099870D02*
X46704762Y-56061775D01*
X46704762Y-56061775D02*
X46590476Y-56061775D01*
X46590476Y-56061775D02*
X46476190Y-56099870D01*
X46476190Y-56099870D02*
X46400000Y-56176060D01*
X46400000Y-56176060D02*
X46361905Y-56252251D01*
X46361905Y-56252251D02*
X46323809Y-56404632D01*
X46323809Y-56404632D02*
X46323809Y-56518918D01*
X46323809Y-56518918D02*
X46361905Y-56671299D01*
X46361905Y-56671299D02*
X46400000Y-56747489D01*
X46400000Y-56747489D02*
X46476190Y-56823680D01*
X46476190Y-56823680D02*
X46590476Y-56861775D01*
X46590476Y-56861775D02*
X46666667Y-56861775D01*
X46666667Y-56861775D02*
X46780952Y-56823680D01*
X46780952Y-56823680D02*
X46819048Y-56785584D01*
X46819048Y-56785584D02*
X46819048Y-56518918D01*
X46819048Y-56518918D02*
X46666667Y-56518918D01*
X45180952Y-79823680D02*
X45295238Y-79861775D01*
X45295238Y-79861775D02*
X45485714Y-79861775D01*
X45485714Y-79861775D02*
X45561905Y-79823680D01*
X45561905Y-79823680D02*
X45600000Y-79785584D01*
X45600000Y-79785584D02*
X45638095Y-79709394D01*
X45638095Y-79709394D02*
X45638095Y-79633203D01*
X45638095Y-79633203D02*
X45600000Y-79557013D01*
X45600000Y-79557013D02*
X45561905Y-79518918D01*
X45561905Y-79518918D02*
X45485714Y-79480822D01*
X45485714Y-79480822D02*
X45333333Y-79442727D01*
X45333333Y-79442727D02*
X45257143Y-79404632D01*
X45257143Y-79404632D02*
X45219048Y-79366537D01*
X45219048Y-79366537D02*
X45180952Y-79290346D01*
X45180952Y-79290346D02*
X45180952Y-79214156D01*
X45180952Y-79214156D02*
X45219048Y-79137965D01*
X45219048Y-79137965D02*
X45257143Y-79099870D01*
X45257143Y-79099870D02*
X45333333Y-79061775D01*
X45333333Y-79061775D02*
X45523810Y-79061775D01*
X45523810Y-79061775D02*
X45638095Y-79099870D01*
X45980953Y-79861775D02*
X45980953Y-79061775D01*
X46780952Y-79099870D02*
X46704762Y-79061775D01*
X46704762Y-79061775D02*
X46590476Y-79061775D01*
X46590476Y-79061775D02*
X46476190Y-79099870D01*
X46476190Y-79099870D02*
X46400000Y-79176060D01*
X46400000Y-79176060D02*
X46361905Y-79252251D01*
X46361905Y-79252251D02*
X46323809Y-79404632D01*
X46323809Y-79404632D02*
X46323809Y-79518918D01*
X46323809Y-79518918D02*
X46361905Y-79671299D01*
X46361905Y-79671299D02*
X46400000Y-79747489D01*
X46400000Y-79747489D02*
X46476190Y-79823680D01*
X46476190Y-79823680D02*
X46590476Y-79861775D01*
X46590476Y-79861775D02*
X46666667Y-79861775D01*
X46666667Y-79861775D02*
X46780952Y-79823680D01*
X46780952Y-79823680D02*
X46819048Y-79785584D01*
X46819048Y-79785584D02*
X46819048Y-79518918D01*
X46819048Y-79518918D02*
X46666667Y-79518918D01*
X53890476Y-10099870D02*
X53814286Y-10061775D01*
X53814286Y-10061775D02*
X53700000Y-10061775D01*
X53700000Y-10061775D02*
X53585714Y-10099870D01*
X53585714Y-10099870D02*
X53509524Y-10176060D01*
X53509524Y-10176060D02*
X53471429Y-10252251D01*
X53471429Y-10252251D02*
X53433333Y-10404632D01*
X53433333Y-10404632D02*
X53433333Y-10518918D01*
X53433333Y-10518918D02*
X53471429Y-10671299D01*
X53471429Y-10671299D02*
X53509524Y-10747489D01*
X53509524Y-10747489D02*
X53585714Y-10823680D01*
X53585714Y-10823680D02*
X53700000Y-10861775D01*
X53700000Y-10861775D02*
X53776191Y-10861775D01*
X53776191Y-10861775D02*
X53890476Y-10823680D01*
X53890476Y-10823680D02*
X53928572Y-10785584D01*
X53928572Y-10785584D02*
X53928572Y-10518918D01*
X53928572Y-10518918D02*
X53776191Y-10518918D01*
X54271429Y-10861775D02*
X54271429Y-10061775D01*
X54271429Y-10061775D02*
X54728572Y-10861775D01*
X54728572Y-10861775D02*
X54728572Y-10061775D01*
X55109524Y-10861775D02*
X55109524Y-10061775D01*
X55109524Y-10061775D02*
X55300000Y-10061775D01*
X55300000Y-10061775D02*
X55414286Y-10099870D01*
X55414286Y-10099870D02*
X55490476Y-10176060D01*
X55490476Y-10176060D02*
X55528571Y-10252251D01*
X55528571Y-10252251D02*
X55566667Y-10404632D01*
X55566667Y-10404632D02*
X55566667Y-10518918D01*
X55566667Y-10518918D02*
X55528571Y-10671299D01*
X55528571Y-10671299D02*
X55490476Y-10747489D01*
X55490476Y-10747489D02*
X55414286Y-10823680D01*
X55414286Y-10823680D02*
X55300000Y-10861775D01*
X55300000Y-10861775D02*
X55109524Y-10861775D01*
X53890476Y-33099870D02*
X53814286Y-33061775D01*
X53814286Y-33061775D02*
X53700000Y-33061775D01*
X53700000Y-33061775D02*
X53585714Y-33099870D01*
X53585714Y-33099870D02*
X53509524Y-33176060D01*
X53509524Y-33176060D02*
X53471429Y-33252251D01*
X53471429Y-33252251D02*
X53433333Y-33404632D01*
X53433333Y-33404632D02*
X53433333Y-33518918D01*
X53433333Y-33518918D02*
X53471429Y-33671299D01*
X53471429Y-33671299D02*
X53509524Y-33747489D01*
X53509524Y-33747489D02*
X53585714Y-33823680D01*
X53585714Y-33823680D02*
X53700000Y-33861775D01*
X53700000Y-33861775D02*
X53776191Y-33861775D01*
X53776191Y-33861775D02*
X53890476Y-33823680D01*
X53890476Y-33823680D02*
X53928572Y-33785584D01*
X53928572Y-33785584D02*
X53928572Y-33518918D01*
X53928572Y-33518918D02*
X53776191Y-33518918D01*
X54271429Y-33861775D02*
X54271429Y-33061775D01*
X54271429Y-33061775D02*
X54728572Y-33861775D01*
X54728572Y-33861775D02*
X54728572Y-33061775D01*
X55109524Y-33861775D02*
X55109524Y-33061775D01*
X55109524Y-33061775D02*
X55300000Y-33061775D01*
X55300000Y-33061775D02*
X55414286Y-33099870D01*
X55414286Y-33099870D02*
X55490476Y-33176060D01*
X55490476Y-33176060D02*
X55528571Y-33252251D01*
X55528571Y-33252251D02*
X55566667Y-33404632D01*
X55566667Y-33404632D02*
X55566667Y-33518918D01*
X55566667Y-33518918D02*
X55528571Y-33671299D01*
X55528571Y-33671299D02*
X55490476Y-33747489D01*
X55490476Y-33747489D02*
X55414286Y-33823680D01*
X55414286Y-33823680D02*
X55300000Y-33861775D01*
X55300000Y-33861775D02*
X55109524Y-33861775D01*
X53890476Y-56099870D02*
X53814286Y-56061775D01*
X53814286Y-56061775D02*
X53700000Y-56061775D01*
X53700000Y-56061775D02*
X53585714Y-56099870D01*
X53585714Y-56099870D02*
X53509524Y-56176060D01*
X53509524Y-56176060D02*
X53471429Y-56252251D01*
X53471429Y-56252251D02*
X53433333Y-56404632D01*
X53433333Y-56404632D02*
X53433333Y-56518918D01*
X53433333Y-56518918D02*
X53471429Y-56671299D01*
X53471429Y-56671299D02*
X53509524Y-56747489D01*
X53509524Y-56747489D02*
X53585714Y-56823680D01*
X53585714Y-56823680D02*
X53700000Y-56861775D01*
X53700000Y-56861775D02*
X53776191Y-56861775D01*
X53776191Y-56861775D02*
X53890476Y-56823680D01*
X53890476Y-56823680D02*
X53928572Y-56785584D01*
X53928572Y-56785584D02*
X53928572Y-56518918D01*
X53928572Y-56518918D02*
X53776191Y-56518918D01*
X54271429Y-56861775D02*
X54271429Y-56061775D01*
X54271429Y-56061775D02*
X54728572Y-56861775D01*
X54728572Y-56861775D02*
X54728572Y-56061775D01*
X55109524Y-56861775D02*
X55109524Y-56061775D01*
X55109524Y-56061775D02*
X55300000Y-56061775D01*
X55300000Y-56061775D02*
X55414286Y-56099870D01*
X55414286Y-56099870D02*
X55490476Y-56176060D01*
X55490476Y-56176060D02*
X55528571Y-56252251D01*
X55528571Y-56252251D02*
X55566667Y-56404632D01*
X55566667Y-56404632D02*
X55566667Y-56518918D01*
X55566667Y-56518918D02*
X55528571Y-56671299D01*
X55528571Y-56671299D02*
X55490476Y-56747489D01*
X55490476Y-56747489D02*
X55414286Y-56823680D01*
X55414286Y-56823680D02*
X55300000Y-56861775D01*
X55300000Y-56861775D02*
X55109524Y-56861775D01*
X53890476Y-79099870D02*
X53814286Y-79061775D01*
X53814286Y-79061775D02*
X53700000Y-79061775D01*
X53700000Y-79061775D02*
X53585714Y-79099870D01*
X53585714Y-79099870D02*
X53509524Y-79176060D01*
X53509524Y-79176060D02*
X53471429Y-79252251D01*
X53471429Y-79252251D02*
X53433333Y-79404632D01*
X53433333Y-79404632D02*
X53433333Y-79518918D01*
X53433333Y-79518918D02*
X53471429Y-79671299D01*
X53471429Y-79671299D02*
X53509524Y-79747489D01*
X53509524Y-79747489D02*
X53585714Y-79823680D01*
X53585714Y-79823680D02*
X53700000Y-79861775D01*
X53700000Y-79861775D02*
X53776191Y-79861775D01*
X53776191Y-79861775D02*
X53890476Y-79823680D01*
X53890476Y-79823680D02*
X53928572Y-79785584D01*
X53928572Y-79785584D02*
X53928572Y-79518918D01*
X53928572Y-79518918D02*
X53776191Y-79518918D01*
X54271429Y-79861775D02*
X54271429Y-79061775D01*
X54271429Y-79061775D02*
X54728572Y-79861775D01*
X54728572Y-79861775D02*
X54728572Y-79061775D01*
X55109524Y-79861775D02*
X55109524Y-79061775D01*
X55109524Y-79061775D02*
X55300000Y-79061775D01*
X55300000Y-79061775D02*
X55414286Y-79099870D01*
X55414286Y-79099870D02*
X55490476Y-79176060D01*
X55490476Y-79176060D02*
X55528571Y-79252251D01*
X55528571Y-79252251D02*
X55566667Y-79404632D01*
X55566667Y-79404632D02*
X55566667Y-79518918D01*
X55566667Y-79518918D02*
X55528571Y-79671299D01*
X55528571Y-79671299D02*
X55490476Y-79747489D01*
X55490476Y-79747489D02*
X55414286Y-79823680D01*
X55414286Y-79823680D02*
X55300000Y-79861775D01*
X55300000Y-79861775D02*
X55109524Y-79861775D01*
D15*
X5322054Y-94766504D02*
X5798244Y-94766504D01*
X5226816Y-95052219D02*
X5560149Y-94052219D01*
X5560149Y-94052219D02*
X5893482Y-95052219D01*
X6226816Y-95052219D02*
X6226816Y-94052219D01*
X6226816Y-94052219D02*
X6464911Y-94052219D01*
X6464911Y-94052219D02*
X6607768Y-94099838D01*
X6607768Y-94099838D02*
X6703006Y-94195076D01*
X6703006Y-94195076D02*
X6750625Y-94290314D01*
X6750625Y-94290314D02*
X6798244Y-94480790D01*
X6798244Y-94480790D02*
X6798244Y-94623647D01*
X6798244Y-94623647D02*
X6750625Y-94814123D01*
X6750625Y-94814123D02*
X6703006Y-94909361D01*
X6703006Y-94909361D02*
X6607768Y-95004600D01*
X6607768Y-95004600D02*
X6464911Y-95052219D01*
X6464911Y-95052219D02*
X6226816Y-95052219D01*
X7179197Y-95004600D02*
X7322054Y-95052219D01*
X7322054Y-95052219D02*
X7560149Y-95052219D01*
X7560149Y-95052219D02*
X7655387Y-95004600D01*
X7655387Y-95004600D02*
X7703006Y-94956980D01*
X7703006Y-94956980D02*
X7750625Y-94861742D01*
X7750625Y-94861742D02*
X7750625Y-94766504D01*
X7750625Y-94766504D02*
X7703006Y-94671266D01*
X7703006Y-94671266D02*
X7655387Y-94623647D01*
X7655387Y-94623647D02*
X7560149Y-94576028D01*
X7560149Y-94576028D02*
X7369673Y-94528409D01*
X7369673Y-94528409D02*
X7274435Y-94480790D01*
X7274435Y-94480790D02*
X7226816Y-94433171D01*
X7226816Y-94433171D02*
X7179197Y-94337933D01*
X7179197Y-94337933D02*
X7179197Y-94242695D01*
X7179197Y-94242695D02*
X7226816Y-94147457D01*
X7226816Y-94147457D02*
X7274435Y-94099838D01*
X7274435Y-94099838D02*
X7369673Y-94052219D01*
X7369673Y-94052219D02*
X7607768Y-94052219D01*
X7607768Y-94052219D02*
X7750625Y-94099838D01*
X8512530Y-94528409D02*
X8655387Y-94576028D01*
X8655387Y-94576028D02*
X8703006Y-94623647D01*
X8703006Y-94623647D02*
X8750625Y-94718885D01*
X8750625Y-94718885D02*
X8750625Y-94861742D01*
X8750625Y-94861742D02*
X8703006Y-94956980D01*
X8703006Y-94956980D02*
X8655387Y-95004600D01*
X8655387Y-95004600D02*
X8560149Y-95052219D01*
X8560149Y-95052219D02*
X8179197Y-95052219D01*
X8179197Y-95052219D02*
X8179197Y-94052219D01*
X8179197Y-94052219D02*
X8512530Y-94052219D01*
X8512530Y-94052219D02*
X8607768Y-94099838D01*
X8607768Y-94099838D02*
X8655387Y-94147457D01*
X8655387Y-94147457D02*
X8703006Y-94242695D01*
X8703006Y-94242695D02*
X8703006Y-94337933D01*
X8703006Y-94337933D02*
X8655387Y-94433171D01*
X8655387Y-94433171D02*
X8607768Y-94480790D01*
X8607768Y-94480790D02*
X8512530Y-94528409D01*
X8512530Y-94528409D02*
X8179197Y-94528409D01*
X9179197Y-94671266D02*
X9941102Y-94671266D01*
X10750625Y-94528409D02*
X10417292Y-94528409D01*
X10417292Y-95052219D02*
X10417292Y-94052219D01*
X10417292Y-94052219D02*
X10893482Y-94052219D01*
X11274435Y-95052219D02*
X11274435Y-94052219D01*
X11274435Y-94052219D02*
X11655387Y-94052219D01*
X11655387Y-94052219D02*
X11750625Y-94099838D01*
X11750625Y-94099838D02*
X11798244Y-94147457D01*
X11798244Y-94147457D02*
X11845863Y-94242695D01*
X11845863Y-94242695D02*
X11845863Y-94385552D01*
X11845863Y-94385552D02*
X11798244Y-94480790D01*
X11798244Y-94480790D02*
X11750625Y-94528409D01*
X11750625Y-94528409D02*
X11655387Y-94576028D01*
X11655387Y-94576028D02*
X11274435Y-94576028D01*
X12845863Y-94956980D02*
X12798244Y-95004600D01*
X12798244Y-95004600D02*
X12655387Y-95052219D01*
X12655387Y-95052219D02*
X12560149Y-95052219D01*
X12560149Y-95052219D02*
X12417292Y-95004600D01*
X12417292Y-95004600D02*
X12322054Y-94909361D01*
X12322054Y-94909361D02*
X12274435Y-94814123D01*
X12274435Y-94814123D02*
X12226816Y-94623647D01*
X12226816Y-94623647D02*
X12226816Y-94480790D01*
X12226816Y-94480790D02*
X12274435Y-94290314D01*
X12274435Y-94290314D02*
X12322054Y-94195076D01*
X12322054Y-94195076D02*
X12417292Y-94099838D01*
X12417292Y-94099838D02*
X12560149Y-94052219D01*
X12560149Y-94052219D02*
X12655387Y-94052219D01*
X12655387Y-94052219D02*
X12798244Y-94099838D01*
X12798244Y-94099838D02*
X12845863Y-94147457D01*
X14607768Y-95052219D02*
X14274435Y-94576028D01*
X14036340Y-95052219D02*
X14036340Y-94052219D01*
X14036340Y-94052219D02*
X14417292Y-94052219D01*
X14417292Y-94052219D02*
X14512530Y-94099838D01*
X14512530Y-94099838D02*
X14560149Y-94147457D01*
X14560149Y-94147457D02*
X14607768Y-94242695D01*
X14607768Y-94242695D02*
X14607768Y-94385552D01*
X14607768Y-94385552D02*
X14560149Y-94480790D01*
X14560149Y-94480790D02*
X14512530Y-94528409D01*
X14512530Y-94528409D02*
X14417292Y-94576028D01*
X14417292Y-94576028D02*
X14036340Y-94576028D01*
X15036340Y-94528409D02*
X15369673Y-94528409D01*
X15512530Y-95052219D02*
X15036340Y-95052219D01*
X15036340Y-95052219D02*
X15036340Y-94052219D01*
X15036340Y-94052219D02*
X15512530Y-94052219D01*
X15798245Y-94052219D02*
X16131578Y-95052219D01*
X16131578Y-95052219D02*
X16464911Y-94052219D01*
X16798245Y-94671266D02*
X17560150Y-94671266D01*
X17988721Y-94766504D02*
X18464911Y-94766504D01*
X17893483Y-95052219D02*
X18226816Y-94052219D01*
X18226816Y-94052219D02*
X18560149Y-95052219D01*
X18798245Y-94052219D02*
X19417292Y-94052219D01*
X19417292Y-94052219D02*
X19083959Y-94433171D01*
X19083959Y-94433171D02*
X19226816Y-94433171D01*
X19226816Y-94433171D02*
X19322054Y-94480790D01*
X19322054Y-94480790D02*
X19369673Y-94528409D01*
X19369673Y-94528409D02*
X19417292Y-94623647D01*
X19417292Y-94623647D02*
X19417292Y-94861742D01*
X19417292Y-94861742D02*
X19369673Y-94956980D01*
X19369673Y-94956980D02*
X19322054Y-95004600D01*
X19322054Y-95004600D02*
X19226816Y-95052219D01*
X19226816Y-95052219D02*
X18941102Y-95052219D01*
X18941102Y-95052219D02*
X18845864Y-95004600D01*
X18845864Y-95004600D02*
X18798245Y-94956980D01*
X19845864Y-94956980D02*
X19893483Y-95004600D01*
X19893483Y-95004600D02*
X19845864Y-95052219D01*
X19845864Y-95052219D02*
X19798245Y-95004600D01*
X19798245Y-95004600D02*
X19845864Y-94956980D01*
X19845864Y-94956980D02*
X19845864Y-95052219D01*
X20845863Y-95052219D02*
X20274435Y-95052219D01*
X20560149Y-95052219D02*
X20560149Y-94052219D01*
X20560149Y-94052219D02*
X20464911Y-94195076D01*
X20464911Y-94195076D02*
X20369673Y-94290314D01*
X20369673Y-94290314D02*
X20274435Y-94337933D01*
X21607768Y-94528409D02*
X21274435Y-94528409D01*
X21274435Y-95052219D02*
X21274435Y-94052219D01*
X21274435Y-94052219D02*
X21750625Y-94052219D01*
X23941102Y-94052219D02*
X23941102Y-94766504D01*
X23941102Y-94766504D02*
X23893483Y-94909361D01*
X23893483Y-94909361D02*
X23798245Y-95004600D01*
X23798245Y-95004600D02*
X23655388Y-95052219D01*
X23655388Y-95052219D02*
X23560150Y-95052219D01*
X24893483Y-95052219D02*
X24417293Y-95052219D01*
X24417293Y-95052219D02*
X24417293Y-94052219D01*
X25798245Y-94956980D02*
X25750626Y-95004600D01*
X25750626Y-95004600D02*
X25607769Y-95052219D01*
X25607769Y-95052219D02*
X25512531Y-95052219D01*
X25512531Y-95052219D02*
X25369674Y-95004600D01*
X25369674Y-95004600D02*
X25274436Y-94909361D01*
X25274436Y-94909361D02*
X25226817Y-94814123D01*
X25226817Y-94814123D02*
X25179198Y-94623647D01*
X25179198Y-94623647D02*
X25179198Y-94480790D01*
X25179198Y-94480790D02*
X25226817Y-94290314D01*
X25226817Y-94290314D02*
X25274436Y-94195076D01*
X25274436Y-94195076D02*
X25369674Y-94099838D01*
X25369674Y-94099838D02*
X25512531Y-94052219D01*
X25512531Y-94052219D02*
X25607769Y-94052219D01*
X25607769Y-94052219D02*
X25750626Y-94099838D01*
X25750626Y-94099838D02*
X25798245Y-94147457D01*
X26941103Y-94147457D02*
X26988722Y-94099838D01*
X26988722Y-94099838D02*
X27083960Y-94052219D01*
X27083960Y-94052219D02*
X27322055Y-94052219D01*
X27322055Y-94052219D02*
X27417293Y-94099838D01*
X27417293Y-94099838D02*
X27464912Y-94147457D01*
X27464912Y-94147457D02*
X27512531Y-94242695D01*
X27512531Y-94242695D02*
X27512531Y-94337933D01*
X27512531Y-94337933D02*
X27464912Y-94480790D01*
X27464912Y-94480790D02*
X26893484Y-95052219D01*
X26893484Y-95052219D02*
X27512531Y-95052219D01*
X28417293Y-95052219D02*
X27941103Y-95052219D01*
X27941103Y-95052219D02*
X27941103Y-94052219D01*
X29703008Y-94052219D02*
X29798246Y-94052219D01*
X29798246Y-94052219D02*
X29893484Y-94099838D01*
X29893484Y-94099838D02*
X29941103Y-94147457D01*
X29941103Y-94147457D02*
X29988722Y-94242695D01*
X29988722Y-94242695D02*
X30036341Y-94433171D01*
X30036341Y-94433171D02*
X30036341Y-94671266D01*
X30036341Y-94671266D02*
X29988722Y-94861742D01*
X29988722Y-94861742D02*
X29941103Y-94956980D01*
X29941103Y-94956980D02*
X29893484Y-95004600D01*
X29893484Y-95004600D02*
X29798246Y-95052219D01*
X29798246Y-95052219D02*
X29703008Y-95052219D01*
X29703008Y-95052219D02*
X29607770Y-95004600D01*
X29607770Y-95004600D02*
X29560151Y-94956980D01*
X29560151Y-94956980D02*
X29512532Y-94861742D01*
X29512532Y-94861742D02*
X29464913Y-94671266D01*
X29464913Y-94671266D02*
X29464913Y-94433171D01*
X29464913Y-94433171D02*
X29512532Y-94242695D01*
X29512532Y-94242695D02*
X29560151Y-94147457D01*
X29560151Y-94147457D02*
X29607770Y-94099838D01*
X29607770Y-94099838D02*
X29703008Y-94052219D01*
X30464913Y-94956980D02*
X30512532Y-95004600D01*
X30512532Y-95004600D02*
X30464913Y-95052219D01*
X30464913Y-95052219D02*
X30417294Y-95004600D01*
X30417294Y-95004600D02*
X30464913Y-94956980D01*
X30464913Y-94956980D02*
X30464913Y-95052219D01*
X31464912Y-95052219D02*
X30893484Y-95052219D01*
X31179198Y-95052219D02*
X31179198Y-94052219D01*
X31179198Y-94052219D02*
X31083960Y-94195076D01*
X31083960Y-94195076D02*
X30988722Y-94290314D01*
X30988722Y-94290314D02*
X30893484Y-94337933D01*
X32417293Y-95052219D02*
X31845865Y-95052219D01*
X32131579Y-95052219D02*
X32131579Y-94052219D01*
X32131579Y-94052219D02*
X32036341Y-94195076D01*
X32036341Y-94195076D02*
X31941103Y-94290314D01*
X31941103Y-94290314D02*
X31845865Y-94337933D01*
X32845865Y-95052219D02*
X32845865Y-94385552D01*
X32845865Y-94480790D02*
X32893484Y-94433171D01*
X32893484Y-94433171D02*
X32988722Y-94385552D01*
X32988722Y-94385552D02*
X33131579Y-94385552D01*
X33131579Y-94385552D02*
X33226817Y-94433171D01*
X33226817Y-94433171D02*
X33274436Y-94528409D01*
X33274436Y-94528409D02*
X33274436Y-95052219D01*
X33274436Y-94528409D02*
X33322055Y-94433171D01*
X33322055Y-94433171D02*
X33417293Y-94385552D01*
X33417293Y-94385552D02*
X33560150Y-94385552D01*
X33560150Y-94385552D02*
X33655389Y-94433171D01*
X33655389Y-94433171D02*
X33703008Y-94528409D01*
X33703008Y-94528409D02*
X33703008Y-95052219D01*
X34179198Y-95052219D02*
X34179198Y-94385552D01*
X34179198Y-94480790D02*
X34226817Y-94433171D01*
X34226817Y-94433171D02*
X34322055Y-94385552D01*
X34322055Y-94385552D02*
X34464912Y-94385552D01*
X34464912Y-94385552D02*
X34560150Y-94433171D01*
X34560150Y-94433171D02*
X34607769Y-94528409D01*
X34607769Y-94528409D02*
X34607769Y-95052219D01*
X34607769Y-94528409D02*
X34655388Y-94433171D01*
X34655388Y-94433171D02*
X34750626Y-94385552D01*
X34750626Y-94385552D02*
X34893483Y-94385552D01*
X34893483Y-94385552D02*
X34988722Y-94433171D01*
X34988722Y-94433171D02*
X35036341Y-94528409D01*
X35036341Y-94528409D02*
X35036341Y-95052219D01*
X36274436Y-95052219D02*
X36274436Y-94052219D01*
X36274436Y-94052219D02*
X36655388Y-94052219D01*
X36655388Y-94052219D02*
X36750626Y-94099838D01*
X36750626Y-94099838D02*
X36798245Y-94147457D01*
X36798245Y-94147457D02*
X36845864Y-94242695D01*
X36845864Y-94242695D02*
X36845864Y-94385552D01*
X36845864Y-94385552D02*
X36798245Y-94480790D01*
X36798245Y-94480790D02*
X36750626Y-94528409D01*
X36750626Y-94528409D02*
X36655388Y-94576028D01*
X36655388Y-94576028D02*
X36274436Y-94576028D01*
X37274436Y-95052219D02*
X37274436Y-94052219D01*
X39226816Y-94004600D02*
X38369674Y-95290314D01*
X40845864Y-95052219D02*
X40274436Y-95052219D01*
X40560150Y-95052219D02*
X40560150Y-94052219D01*
X40560150Y-94052219D02*
X40464912Y-94195076D01*
X40464912Y-94195076D02*
X40369674Y-94290314D01*
X40369674Y-94290314D02*
X40274436Y-94337933D01*
X41988721Y-94004600D02*
X41131579Y-95290314D01*
X42226817Y-94052219D02*
X42845864Y-94052219D01*
X42845864Y-94052219D02*
X42512531Y-94433171D01*
X42512531Y-94433171D02*
X42655388Y-94433171D01*
X42655388Y-94433171D02*
X42750626Y-94480790D01*
X42750626Y-94480790D02*
X42798245Y-94528409D01*
X42798245Y-94528409D02*
X42845864Y-94623647D01*
X42845864Y-94623647D02*
X42845864Y-94861742D01*
X42845864Y-94861742D02*
X42798245Y-94956980D01*
X42798245Y-94956980D02*
X42750626Y-95004600D01*
X42750626Y-95004600D02*
X42655388Y-95052219D01*
X42655388Y-95052219D02*
X42369674Y-95052219D01*
X42369674Y-95052219D02*
X42274436Y-95004600D01*
X42274436Y-95004600D02*
X42226817Y-94956980D01*
X43417293Y-95052219D02*
X43322055Y-95004600D01*
X43322055Y-95004600D02*
X43274436Y-94956980D01*
X43274436Y-94956980D02*
X43226817Y-94861742D01*
X43226817Y-94861742D02*
X43226817Y-94576028D01*
X43226817Y-94576028D02*
X43274436Y-94480790D01*
X43274436Y-94480790D02*
X43322055Y-94433171D01*
X43322055Y-94433171D02*
X43417293Y-94385552D01*
X43417293Y-94385552D02*
X43560150Y-94385552D01*
X43560150Y-94385552D02*
X43655388Y-94433171D01*
X43655388Y-94433171D02*
X43703007Y-94480790D01*
X43703007Y-94480790D02*
X43750626Y-94576028D01*
X43750626Y-94576028D02*
X43750626Y-94861742D01*
X43750626Y-94861742D02*
X43703007Y-94956980D01*
X43703007Y-94956980D02*
X43655388Y-95004600D01*
X43655388Y-95004600D02*
X43560150Y-95052219D01*
X43560150Y-95052219D02*
X43417293Y-95052219D01*
X44083960Y-94385552D02*
X44607769Y-94385552D01*
X44607769Y-94385552D02*
X44083960Y-95052219D01*
X44083960Y-95052219D02*
X44607769Y-95052219D01*
X45750627Y-94528409D02*
X46083960Y-94528409D01*
X46226817Y-95052219D02*
X45750627Y-95052219D01*
X45750627Y-95052219D02*
X45750627Y-94052219D01*
X45750627Y-94052219D02*
X46226817Y-94052219D01*
X46655389Y-95052219D02*
X46655389Y-94052219D01*
X46655389Y-94052219D02*
X46893484Y-94052219D01*
X46893484Y-94052219D02*
X47036341Y-94099838D01*
X47036341Y-94099838D02*
X47131579Y-94195076D01*
X47131579Y-94195076D02*
X47179198Y-94290314D01*
X47179198Y-94290314D02*
X47226817Y-94480790D01*
X47226817Y-94480790D02*
X47226817Y-94623647D01*
X47226817Y-94623647D02*
X47179198Y-94814123D01*
X47179198Y-94814123D02*
X47131579Y-94909361D01*
X47131579Y-94909361D02*
X47036341Y-95004600D01*
X47036341Y-95004600D02*
X46893484Y-95052219D01*
X46893484Y-95052219D02*
X46655389Y-95052219D01*
X49131579Y-94004600D02*
X48274437Y-95290314D01*
X50417294Y-94576028D02*
X50417294Y-95052219D01*
X50083961Y-94052219D02*
X50417294Y-94576028D01*
X50417294Y-94576028D02*
X50750627Y-94052219D01*
X51083961Y-94528409D02*
X51417294Y-94528409D01*
X51560151Y-95052219D02*
X51083961Y-95052219D01*
X51083961Y-95052219D02*
X51083961Y-94052219D01*
X51083961Y-94052219D02*
X51560151Y-94052219D01*
X52464913Y-95052219D02*
X51988723Y-95052219D01*
X51988723Y-95052219D02*
X51988723Y-94052219D01*
X54131580Y-94956980D02*
X54083961Y-95004600D01*
X54083961Y-95004600D02*
X53941104Y-95052219D01*
X53941104Y-95052219D02*
X53845866Y-95052219D01*
X53845866Y-95052219D02*
X53703009Y-95004600D01*
X53703009Y-95004600D02*
X53607771Y-94909361D01*
X53607771Y-94909361D02*
X53560152Y-94814123D01*
X53560152Y-94814123D02*
X53512533Y-94623647D01*
X53512533Y-94623647D02*
X53512533Y-94480790D01*
X53512533Y-94480790D02*
X53560152Y-94290314D01*
X53560152Y-94290314D02*
X53607771Y-94195076D01*
X53607771Y-94195076D02*
X53703009Y-94099838D01*
X53703009Y-94099838D02*
X53845866Y-94052219D01*
X53845866Y-94052219D02*
X53941104Y-94052219D01*
X53941104Y-94052219D02*
X54083961Y-94099838D01*
X54083961Y-94099838D02*
X54131580Y-94147457D01*
X54750628Y-94052219D02*
X54941104Y-94052219D01*
X54941104Y-94052219D02*
X55036342Y-94099838D01*
X55036342Y-94099838D02*
X55131580Y-94195076D01*
X55131580Y-94195076D02*
X55179199Y-94385552D01*
X55179199Y-94385552D02*
X55179199Y-94718885D01*
X55179199Y-94718885D02*
X55131580Y-94909361D01*
X55131580Y-94909361D02*
X55036342Y-95004600D01*
X55036342Y-95004600D02*
X54941104Y-95052219D01*
X54941104Y-95052219D02*
X54750628Y-95052219D01*
X54750628Y-95052219D02*
X54655390Y-95004600D01*
X54655390Y-95004600D02*
X54560152Y-94909361D01*
X54560152Y-94909361D02*
X54512533Y-94718885D01*
X54512533Y-94718885D02*
X54512533Y-94385552D01*
X54512533Y-94385552D02*
X54560152Y-94195076D01*
X54560152Y-94195076D02*
X54655390Y-94099838D01*
X54655390Y-94099838D02*
X54750628Y-94052219D01*
X55464914Y-94052219D02*
X55798247Y-95052219D01*
X55798247Y-95052219D02*
X56131580Y-94052219D01*
X56464914Y-94528409D02*
X56798247Y-94528409D01*
X56941104Y-95052219D02*
X56464914Y-95052219D01*
X56464914Y-95052219D02*
X56464914Y-94052219D01*
X56464914Y-94052219D02*
X56941104Y-94052219D01*
X57941104Y-95052219D02*
X57607771Y-94576028D01*
X57369676Y-95052219D02*
X57369676Y-94052219D01*
X57369676Y-94052219D02*
X57750628Y-94052219D01*
X57750628Y-94052219D02*
X57845866Y-94099838D01*
X57845866Y-94099838D02*
X57893485Y-94147457D01*
X57893485Y-94147457D02*
X57941104Y-94242695D01*
X57941104Y-94242695D02*
X57941104Y-94385552D01*
X57941104Y-94385552D02*
X57893485Y-94480790D01*
X57893485Y-94480790D02*
X57845866Y-94528409D01*
X57845866Y-94528409D02*
X57750628Y-94576028D01*
X57750628Y-94576028D02*
X57369676Y-94576028D01*
X58845866Y-95052219D02*
X58369676Y-95052219D01*
X58369676Y-95052219D02*
X58369676Y-94052219D01*
X59131581Y-94766504D02*
X59607771Y-94766504D01*
X59036343Y-95052219D02*
X59369676Y-94052219D01*
X59369676Y-94052219D02*
X59703009Y-95052219D01*
X60226819Y-94576028D02*
X60226819Y-95052219D01*
X59893486Y-94052219D02*
X60226819Y-94576028D01*
X60226819Y-94576028D02*
X60560152Y-94052219D01*
X61607772Y-94147457D02*
X61655391Y-94099838D01*
X61655391Y-94099838D02*
X61750629Y-94052219D01*
X61750629Y-94052219D02*
X61988724Y-94052219D01*
X61988724Y-94052219D02*
X62083962Y-94099838D01*
X62083962Y-94099838D02*
X62131581Y-94147457D01*
X62131581Y-94147457D02*
X62179200Y-94242695D01*
X62179200Y-94242695D02*
X62179200Y-94337933D01*
X62179200Y-94337933D02*
X62131581Y-94480790D01*
X62131581Y-94480790D02*
X61560153Y-95052219D01*
X61560153Y-95052219D02*
X62179200Y-95052219D01*
X63083962Y-94052219D02*
X62607772Y-94052219D01*
X62607772Y-94052219D02*
X62560153Y-94528409D01*
X62560153Y-94528409D02*
X62607772Y-94480790D01*
X62607772Y-94480790D02*
X62703010Y-94433171D01*
X62703010Y-94433171D02*
X62941105Y-94433171D01*
X62941105Y-94433171D02*
X63036343Y-94480790D01*
X63036343Y-94480790D02*
X63083962Y-94528409D01*
X63083962Y-94528409D02*
X63131581Y-94623647D01*
X63131581Y-94623647D02*
X63131581Y-94861742D01*
X63131581Y-94861742D02*
X63083962Y-94956980D01*
X63083962Y-94956980D02*
X63036343Y-95004600D01*
X63036343Y-95004600D02*
X62941105Y-95052219D01*
X62941105Y-95052219D02*
X62703010Y-95052219D01*
X62703010Y-95052219D02*
X62607772Y-95004600D01*
X62607772Y-95004600D02*
X62560153Y-94956980D01*
X63988724Y-94385552D02*
X63988724Y-95052219D01*
X63560153Y-94385552D02*
X63560153Y-94909361D01*
X63560153Y-94909361D02*
X63607772Y-95004600D01*
X63607772Y-95004600D02*
X63703010Y-95052219D01*
X63703010Y-95052219D02*
X63845867Y-95052219D01*
X63845867Y-95052219D02*
X63941105Y-95004600D01*
X63941105Y-95004600D02*
X63988724Y-94956980D01*
X64464915Y-95052219D02*
X64464915Y-94385552D01*
X64464915Y-94480790D02*
X64512534Y-94433171D01*
X64512534Y-94433171D02*
X64607772Y-94385552D01*
X64607772Y-94385552D02*
X64750629Y-94385552D01*
X64750629Y-94385552D02*
X64845867Y-94433171D01*
X64845867Y-94433171D02*
X64893486Y-94528409D01*
X64893486Y-94528409D02*
X64893486Y-95052219D01*
X64893486Y-94528409D02*
X64941105Y-94433171D01*
X64941105Y-94433171D02*
X65036343Y-94385552D01*
X65036343Y-94385552D02*
X65179200Y-94385552D01*
X65179200Y-94385552D02*
X65274439Y-94433171D01*
X65274439Y-94433171D02*
X65322058Y-94528409D01*
X65322058Y-94528409D02*
X65322058Y-95052219D01*
X66464915Y-95052219D02*
X66988724Y-94385552D01*
X66464915Y-94385552D02*
X66988724Y-95052219D01*
X67322058Y-94147457D02*
X67369677Y-94099838D01*
X67369677Y-94099838D02*
X67464915Y-94052219D01*
X67464915Y-94052219D02*
X67703010Y-94052219D01*
X67703010Y-94052219D02*
X67798248Y-94099838D01*
X67798248Y-94099838D02*
X67845867Y-94147457D01*
X67845867Y-94147457D02*
X67893486Y-94242695D01*
X67893486Y-94242695D02*
X67893486Y-94337933D01*
X67893486Y-94337933D02*
X67845867Y-94480790D01*
X67845867Y-94480790D02*
X67274439Y-95052219D01*
X67274439Y-95052219D02*
X67893486Y-95052219D01*
X69798248Y-94004600D02*
X68941106Y-95290314D01*
X70893487Y-94528409D02*
X71226820Y-94528409D01*
X71369677Y-95052219D02*
X70893487Y-95052219D01*
X70893487Y-95052219D02*
X70893487Y-94052219D01*
X70893487Y-94052219D02*
X71369677Y-94052219D01*
X71798249Y-95052219D02*
X71798249Y-94052219D01*
X71798249Y-94052219D02*
X72369677Y-95052219D01*
X72369677Y-95052219D02*
X72369677Y-94052219D01*
X72845868Y-95052219D02*
X72845868Y-94052219D01*
X73845867Y-94099838D02*
X73750629Y-94052219D01*
X73750629Y-94052219D02*
X73607772Y-94052219D01*
X73607772Y-94052219D02*
X73464915Y-94099838D01*
X73464915Y-94099838D02*
X73369677Y-94195076D01*
X73369677Y-94195076D02*
X73322058Y-94290314D01*
X73322058Y-94290314D02*
X73274439Y-94480790D01*
X73274439Y-94480790D02*
X73274439Y-94623647D01*
X73274439Y-94623647D02*
X73322058Y-94814123D01*
X73322058Y-94814123D02*
X73369677Y-94909361D01*
X73369677Y-94909361D02*
X73464915Y-95004600D01*
X73464915Y-95004600D02*
X73607772Y-95052219D01*
X73607772Y-95052219D02*
X73703010Y-95052219D01*
X73703010Y-95052219D02*
X73845867Y-95004600D01*
X73845867Y-95004600D02*
X73893486Y-94956980D01*
X73893486Y-94956980D02*
X73893486Y-94623647D01*
X73893486Y-94623647D02*
X73703010Y-94623647D01*
X75607772Y-95052219D02*
X75036344Y-95052219D01*
X75322058Y-95052219D02*
X75322058Y-94052219D01*
X75322058Y-94052219D02*
X75226820Y-94195076D01*
X75226820Y-94195076D02*
X75131582Y-94290314D01*
X75131582Y-94290314D02*
X75036344Y-94337933D01*
X76464915Y-94385552D02*
X76464915Y-95052219D01*
X76036344Y-94385552D02*
X76036344Y-94909361D01*
X76036344Y-94909361D02*
X76083963Y-95004600D01*
X76083963Y-95004600D02*
X76179201Y-95052219D01*
X76179201Y-95052219D02*
X76322058Y-95052219D01*
X76322058Y-95052219D02*
X76417296Y-95004600D01*
X76417296Y-95004600D02*
X76464915Y-94956980D01*
X76941106Y-95052219D02*
X76941106Y-94385552D01*
X76941106Y-94052219D02*
X76893487Y-94099838D01*
X76893487Y-94099838D02*
X76941106Y-94147457D01*
X76941106Y-94147457D02*
X76988725Y-94099838D01*
X76988725Y-94099838D02*
X76941106Y-94052219D01*
X76941106Y-94052219D02*
X76941106Y-94147457D01*
X77417296Y-94385552D02*
X77417296Y-95052219D01*
X77417296Y-94480790D02*
X77464915Y-94433171D01*
X77464915Y-94433171D02*
X77560153Y-94385552D01*
X77560153Y-94385552D02*
X77703010Y-94385552D01*
X77703010Y-94385552D02*
X77798248Y-94433171D01*
X77798248Y-94433171D02*
X77845867Y-94528409D01*
X77845867Y-94528409D02*
X77845867Y-95052219D01*
X79798248Y-94004600D02*
X78941106Y-95290314D01*
X80893487Y-95052219D02*
X80893487Y-94052219D01*
X80893487Y-94052219D02*
X81464915Y-95052219D01*
X81464915Y-95052219D02*
X81464915Y-94052219D01*
X82131582Y-94052219D02*
X82322058Y-94052219D01*
X82322058Y-94052219D02*
X82417296Y-94099838D01*
X82417296Y-94099838D02*
X82512534Y-94195076D01*
X82512534Y-94195076D02*
X82560153Y-94385552D01*
X82560153Y-94385552D02*
X82560153Y-94718885D01*
X82560153Y-94718885D02*
X82512534Y-94909361D01*
X82512534Y-94909361D02*
X82417296Y-95004600D01*
X82417296Y-95004600D02*
X82322058Y-95052219D01*
X82322058Y-95052219D02*
X82131582Y-95052219D01*
X82131582Y-95052219D02*
X82036344Y-95004600D01*
X82036344Y-95004600D02*
X81941106Y-94909361D01*
X81941106Y-94909361D02*
X81893487Y-94718885D01*
X81893487Y-94718885D02*
X81893487Y-94385552D01*
X81893487Y-94385552D02*
X81941106Y-94195076D01*
X81941106Y-94195076D02*
X82036344Y-94099838D01*
X82036344Y-94099838D02*
X82131582Y-94052219D01*
X83703011Y-95004600D02*
X83845868Y-95052219D01*
X83845868Y-95052219D02*
X84083963Y-95052219D01*
X84083963Y-95052219D02*
X84179201Y-95004600D01*
X84179201Y-95004600D02*
X84226820Y-94956980D01*
X84226820Y-94956980D02*
X84274439Y-94861742D01*
X84274439Y-94861742D02*
X84274439Y-94766504D01*
X84274439Y-94766504D02*
X84226820Y-94671266D01*
X84226820Y-94671266D02*
X84179201Y-94623647D01*
X84179201Y-94623647D02*
X84083963Y-94576028D01*
X84083963Y-94576028D02*
X83893487Y-94528409D01*
X83893487Y-94528409D02*
X83798249Y-94480790D01*
X83798249Y-94480790D02*
X83750630Y-94433171D01*
X83750630Y-94433171D02*
X83703011Y-94337933D01*
X83703011Y-94337933D02*
X83703011Y-94242695D01*
X83703011Y-94242695D02*
X83750630Y-94147457D01*
X83750630Y-94147457D02*
X83798249Y-94099838D01*
X83798249Y-94099838D02*
X83893487Y-94052219D01*
X83893487Y-94052219D02*
X84131582Y-94052219D01*
X84131582Y-94052219D02*
X84274439Y-94099838D01*
X84703011Y-95052219D02*
X84703011Y-94052219D01*
X84703011Y-94528409D02*
X85274439Y-94528409D01*
X85274439Y-95052219D02*
X85274439Y-94052219D01*
X85750630Y-95052219D02*
X85750630Y-94052219D01*
X86226820Y-94528409D02*
X86560153Y-94528409D01*
X86703010Y-95052219D02*
X86226820Y-95052219D01*
X86226820Y-95052219D02*
X86226820Y-94052219D01*
X86226820Y-94052219D02*
X86703010Y-94052219D01*
X87607772Y-95052219D02*
X87131582Y-95052219D01*
X87131582Y-95052219D02*
X87131582Y-94052219D01*
X87941106Y-95052219D02*
X87941106Y-94052219D01*
X87941106Y-94052219D02*
X88179201Y-94052219D01*
X88179201Y-94052219D02*
X88322058Y-94099838D01*
X88322058Y-94099838D02*
X88417296Y-94195076D01*
X88417296Y-94195076D02*
X88464915Y-94290314D01*
X88464915Y-94290314D02*
X88512534Y-94480790D01*
X88512534Y-94480790D02*
X88512534Y-94623647D01*
X88512534Y-94623647D02*
X88464915Y-94814123D01*
X88464915Y-94814123D02*
X88417296Y-94909361D01*
X88417296Y-94909361D02*
X88322058Y-95004600D01*
X88322058Y-95004600D02*
X88179201Y-95052219D01*
X88179201Y-95052219D02*
X87941106Y-95052219D01*
M02*
