%TF.GenerationSoftware,KiCad,Pcbnew,10.0.4*%
%TF.CreationDate,2026-08-28T21:45:48+08:00*%
%TF.ProjectId,expansion-board-v4,65787061-6e73-4696-9f6e-2d626f617264,rev?*%
%TF.SameCoordinates,Original*%
%TF.FileFunction,Paste,Top*%
%TF.FilePolarity,Positive*%
%FSLAX46Y46*%
G04 Gerber Fmt 4.6, Leading zero omitted, Abs format (unit mm)*
G04 Created by KiCad (PCBNEW 10.0.4) date 2026-08-28 21:45:48*
%MOMM*%
%LPD*%
G01*
G04 APERTURE LIST*
G04 Aperture macros list*
%AMRoundRect*
0 Rectangle with rounded corners*
0 $1 Rounding radius*
0 $2 $3 $4 $5 $6 $7 $8 $9 X,Y pos of 4 corners*
0 Add a 4 corners polygon primitive as box body*
4,1,4,$2,$3,$4,$5,$6,$7,$8,$9,$2,$3,0*
0 Add four circle primitives for the rounded corners*
1,1,$1+$1,$2,$3*
1,1,$1+$1,$4,$5*
1,1,$1+$1,$6,$7*
1,1,$1+$1,$8,$9*
0 Add four rect primitives between the rounded corners*
20,1,$1+$1,$2,$3,$4,$5,0*
20,1,$1+$1,$4,$5,$6,$7,0*
20,1,$1+$1,$6,$7,$8,$9,0*
20,1,$1+$1,$8,$9,$2,$3,0*%
G04 Aperture macros list end*
%ADD10RoundRect,0.200000X0.275000X-0.200000X0.275000X0.200000X-0.275000X0.200000X-0.275000X-0.200000X0*%
%ADD11RoundRect,0.140000X-0.140000X-0.170000X0.140000X-0.170000X0.140000X0.170000X-0.140000X0.170000X0*%
%ADD12RoundRect,0.250000X0.250000X0.475000X-0.250000X0.475000X-0.250000X-0.475000X0.250000X-0.475000X0*%
%ADD13RoundRect,0.200000X0.200000X0.275000X-0.200000X0.275000X-0.200000X-0.275000X0.200000X-0.275000X0*%
%ADD14RoundRect,0.225000X0.225000X0.250000X-0.225000X0.250000X-0.225000X-0.250000X0.225000X-0.250000X0*%
%ADD15RoundRect,0.225000X0.250000X-0.225000X0.250000X0.225000X-0.250000X0.225000X-0.250000X-0.225000X0*%
%ADD16RoundRect,0.225000X-0.250000X0.225000X-0.250000X-0.225000X0.250000X-0.225000X0.250000X0.225000X0*%
%ADD17R,0.671317X0.671317*%
%ADD18RoundRect,0.062500X-0.350000X-0.062500X0.350000X-0.062500X0.350000X0.062500X-0.350000X0.062500X0*%
%ADD19RoundRect,0.062500X-0.062500X-0.350000X0.062500X-0.350000X0.062500X0.350000X-0.062500X0.350000X0*%
%ADD20RoundRect,0.100000X0.712500X0.100000X-0.712500X0.100000X-0.712500X-0.100000X0.712500X-0.100000X0*%
%ADD21RoundRect,0.062500X0.062500X-0.275000X0.062500X0.275000X-0.062500X0.275000X-0.062500X-0.275000X0*%
%ADD22RoundRect,0.062500X0.225000X-0.062500X0.225000X0.062500X-0.225000X0.062500X-0.225000X-0.062500X0*%
%ADD23R,0.852056X0.542217*%
%ADD24RoundRect,0.150000X-0.637500X-0.150000X0.637500X-0.150000X0.637500X0.150000X-0.637500X0.150000X0*%
%ADD25RoundRect,0.200000X-0.200000X-0.275000X0.200000X-0.275000X0.200000X0.275000X-0.200000X0.275000X0*%
%ADD26RoundRect,0.200000X-0.275000X0.200000X-0.275000X-0.200000X0.275000X-0.200000X0.275000X0.200000X0*%
%ADD27RoundRect,0.147500X0.147500X0.172500X-0.147500X0.172500X-0.147500X-0.172500X0.147500X-0.172500X0*%
%ADD28RoundRect,0.140000X-0.170000X0.140000X-0.170000X-0.140000X0.170000X-0.140000X0.170000X0.140000X0*%
%ADD29RoundRect,0.150000X0.587500X0.150000X-0.587500X0.150000X-0.587500X-0.150000X0.587500X-0.150000X0*%
%ADD30RoundRect,0.147500X0.172500X-0.147500X0.172500X0.147500X-0.172500X0.147500X-0.172500X-0.147500X0*%
%ADD31RoundRect,0.225000X-0.225000X-0.250000X0.225000X-0.250000X0.225000X0.250000X-0.225000X0.250000X0*%
%ADD32RoundRect,0.140000X0.170000X-0.140000X0.170000X0.140000X-0.170000X0.140000X-0.170000X-0.140000X0*%
%ADD33RoundRect,0.200000X-0.250000X-0.200000X0.250000X-0.200000X0.250000X0.200000X-0.250000X0.200000X0*%
%ADD34RoundRect,0.150000X0.150000X-0.587500X0.150000X0.587500X-0.150000X0.587500X-0.150000X-0.587500X0*%
%ADD35RoundRect,0.243750X0.456250X-0.243750X0.456250X0.243750X-0.456250X0.243750X-0.456250X-0.243750X0*%
%ADD36RoundRect,0.162500X-0.650000X-0.162500X0.650000X-0.162500X0.650000X0.162500X-0.650000X0.162500X0*%
%ADD37RoundRect,0.250000X0.250000X-0.275000X0.250000X0.275000X-0.250000X0.275000X-0.250000X-0.275000X0*%
%ADD38RoundRect,0.250000X0.275000X-0.850000X0.275000X0.850000X-0.275000X0.850000X-0.275000X-0.850000X0*%
%ADD39RoundRect,0.147500X-0.147500X-0.172500X0.147500X-0.172500X0.147500X0.172500X-0.147500X0.172500X0*%
%ADD40RoundRect,0.250000X0.275000X0.250000X-0.275000X0.250000X-0.275000X-0.250000X0.275000X-0.250000X0*%
%ADD41RoundRect,0.250000X0.850000X0.275000X-0.850000X0.275000X-0.850000X-0.275000X0.850000X-0.275000X0*%
%ADD42RoundRect,0.135000X0.185000X-0.135000X0.185000X0.135000X-0.185000X0.135000X-0.185000X-0.135000X0*%
%ADD43R,0.300000X0.450000*%
%ADD44R,0.450000X0.300000*%
%ADD45RoundRect,0.250000X-0.475000X0.250000X-0.475000X-0.250000X0.475000X-0.250000X0.475000X0.250000X0*%
%ADD46RoundRect,0.243750X0.243750X0.456250X-0.243750X0.456250X-0.243750X-0.456250X0.243750X-0.456250X0*%
%ADD47RoundRect,0.250000X0.650000X-0.325000X0.650000X0.325000X-0.650000X0.325000X-0.650000X-0.325000X0*%
%ADD48RoundRect,0.150000X0.150000X-0.512500X0.150000X0.512500X-0.150000X0.512500X-0.150000X-0.512500X0*%
%ADD49R,3.600000X1.500000*%
%ADD50R,1.329724X1.329724*%
%ADD51RoundRect,0.062500X0.375000X0.062500X-0.375000X0.062500X-0.375000X-0.062500X0.375000X-0.062500X0*%
%ADD52RoundRect,0.062500X0.062500X0.375000X-0.062500X0.375000X-0.062500X-0.375000X0.062500X-0.375000X0*%
%ADD53RoundRect,0.250000X0.475000X-0.250000X0.475000X0.250000X-0.475000X0.250000X-0.475000X-0.250000X0*%
%ADD54RoundRect,0.087500X0.087500X-0.425000X0.087500X0.425000X-0.087500X0.425000X-0.087500X-0.425000X0*%
%ADD55RoundRect,0.218750X-0.218750X-0.256250X0.218750X-0.256250X0.218750X0.256250X-0.218750X0.256250X0*%
%ADD56RoundRect,0.150000X-0.512500X-0.150000X0.512500X-0.150000X0.512500X0.150000X-0.512500X0.150000X0*%
%ADD57R,0.826236X0.826236*%
%ADD58RoundRect,0.050000X0.387500X0.050000X-0.387500X0.050000X-0.387500X-0.050000X0.387500X-0.050000X0*%
%ADD59RoundRect,0.050000X0.050000X0.387500X-0.050000X0.387500X-0.050000X-0.387500X0.050000X-0.387500X0*%
%ADD60RoundRect,0.150000X-0.587500X-0.150000X0.587500X-0.150000X0.587500X0.150000X-0.587500X0.150000X0*%
%ADD61RoundRect,0.150000X0.575000X-0.150000X0.575000X0.150000X-0.575000X0.150000X-0.575000X-0.150000X0*%
%ADD62RoundRect,0.075000X0.650000X-0.075000X0.650000X0.075000X-0.650000X0.075000X-0.650000X-0.075000X0*%
%ADD63RoundRect,0.250000X-0.650000X0.325000X-0.650000X-0.325000X0.650000X-0.325000X0.650000X0.325000X0*%
%ADD64RoundRect,0.150000X0.512500X0.150000X-0.512500X0.150000X-0.512500X-0.150000X0.512500X-0.150000X0*%
%ADD65R,1.000000X3.150000*%
%ADD66RoundRect,0.200000X0.900000X0.200000X-0.900000X0.200000X-0.900000X-0.200000X0.900000X-0.200000X0*%
%ADD67RoundRect,0.200000X0.400000X0.200000X-0.400000X0.200000X-0.400000X-0.200000X0.400000X-0.200000X0*%
%ADD68RoundRect,0.062500X-0.075000X0.062500X-0.075000X-0.062500X0.075000X-0.062500X0.075000X0.062500X0*%
%ADD69RoundRect,0.062500X-0.062500X0.075000X-0.062500X-0.075000X0.062500X-0.075000X0.062500X0.075000X0*%
%ADD70RoundRect,0.250000X0.325000X0.650000X-0.325000X0.650000X-0.325000X-0.650000X0.325000X-0.650000X0*%
%ADD71RoundRect,0.250000X0.350000X-0.450000X0.350000X0.450000X-0.350000X0.450000X-0.350000X-0.450000X0*%
%ADD72RoundRect,0.135000X0.135000X0.185000X-0.135000X0.185000X-0.135000X-0.185000X0.135000X-0.185000X0*%
%ADD73RoundRect,0.250000X0.450000X0.350000X-0.450000X0.350000X-0.450000X-0.350000X0.450000X-0.350000X0*%
%ADD74R,1.000000X1.800000*%
%ADD75RoundRect,0.218750X-0.381250X0.218750X-0.381250X-0.218750X0.381250X-0.218750X0.381250X0.218750X0*%
%ADD76RoundRect,0.243750X-0.456250X0.243750X-0.456250X-0.243750X0.456250X-0.243750X0.456250X0.243750X0*%
%ADD77RoundRect,0.200000X-0.900000X-0.200000X0.900000X-0.200000X0.900000X0.200000X-0.900000X0.200000X0*%
%ADD78RoundRect,0.200000X-0.400000X-0.200000X0.400000X-0.200000X0.400000X0.200000X-0.400000X0.200000X0*%
%ADD79RoundRect,0.147500X-0.172500X0.147500X-0.172500X-0.147500X0.172500X-0.147500X0.172500X0.147500X0*%
%ADD80RoundRect,0.062500X-0.287500X-0.062500X0.287500X-0.062500X0.287500X0.062500X-0.287500X0.062500X0*%
G04 APERTURE END LIST*
D10*
%TO.C,R6*%
X87884000Y-87185000D03*
X87884000Y-85535000D03*
%TD*%
D11*
%TO.C,C54*%
X103406000Y-61722000D03*
X104366000Y-61722000D03*
%TD*%
D12*
%TO.C,C66*%
X103820000Y-97155000D03*
X101920000Y-97155000D03*
%TD*%
D13*
%TO.C,R5*%
X80835000Y-73152000D03*
X79185000Y-73152000D03*
%TD*%
D10*
%TO.C,R4*%
X82042000Y-69913000D03*
X82042000Y-68263000D03*
%TD*%
D14*
%TO.C,C16*%
X65405000Y-92456000D03*
X63855000Y-92456000D03*
%TD*%
D15*
%TO.C,C6*%
X92092000Y-98697000D03*
X92092000Y-97147000D03*
%TD*%
D16*
%TO.C,C62*%
X105410000Y-97523000D03*
X105410000Y-99073000D03*
%TD*%
D17*
%TO.C,U19*%
X133610999Y-82811000D03*
X133610999Y-83678000D03*
X133610999Y-84545000D03*
X134478000Y-82811000D03*
X134478000Y-83678000D03*
X134478000Y-84545000D03*
X135345000Y-82811000D03*
X135345000Y-83678000D03*
X135345000Y-84545000D03*
D18*
X132540500Y-82428000D03*
X132540500Y-82928000D03*
X132540500Y-83428000D03*
X132540500Y-83928000D03*
X132540500Y-84428000D03*
X132540500Y-84928000D03*
D19*
X133228000Y-85615500D03*
X133728000Y-85615500D03*
X134228000Y-85615500D03*
X134728000Y-85615500D03*
X135228000Y-85615500D03*
X135728000Y-85615500D03*
D18*
X136415500Y-84928000D03*
X136415500Y-84428000D03*
X136415500Y-83928000D03*
X136415500Y-83428000D03*
X136415500Y-82928000D03*
X136415500Y-82428000D03*
D19*
X135728000Y-81740500D03*
X135228000Y-81740500D03*
X134728000Y-81740500D03*
X134228000Y-81740500D03*
X133728000Y-81740500D03*
X133228000Y-81740500D03*
%TD*%
D20*
%TO.C,U14*%
X113165100Y-74353400D03*
X113165100Y-73703400D03*
X113165100Y-73053400D03*
X113165100Y-72403400D03*
X108940100Y-72403400D03*
X108940100Y-73053400D03*
X108940100Y-73703400D03*
X108940100Y-74353400D03*
%TD*%
D13*
%TO.C,R2*%
X64960000Y-97790000D03*
X63310000Y-97790000D03*
%TD*%
D14*
%TO.C,C69*%
X110884000Y-84963000D03*
X109334000Y-84963000D03*
%TD*%
%TO.C,C29*%
X80785000Y-81026000D03*
X79235000Y-81026000D03*
%TD*%
%TO.C,C49*%
X77733000Y-75777000D03*
X76183000Y-75777000D03*
%TD*%
D13*
%TO.C,R45*%
X130067000Y-83966000D03*
X128417000Y-83966000D03*
%TD*%
D21*
%TO.C,U4*%
X57440000Y-82905000D03*
D22*
X57365000Y-83705000D03*
X57365000Y-84205000D03*
X57365000Y-84705000D03*
X57365000Y-85205000D03*
D21*
X57440000Y-86005000D03*
X57940000Y-86005000D03*
X58440000Y-86005000D03*
X58940000Y-86005000D03*
X59440000Y-86005000D03*
X59940000Y-86005000D03*
X60440000Y-86005000D03*
X60940000Y-86005000D03*
X61440000Y-86005000D03*
X61940000Y-86005000D03*
D22*
X62015000Y-85205000D03*
X62015000Y-84705000D03*
X62015000Y-84205000D03*
X62015000Y-83705000D03*
D21*
X61940000Y-82905000D03*
X61440000Y-82905000D03*
X60940000Y-82905000D03*
X60440000Y-82905000D03*
X59940000Y-82905000D03*
X59440000Y-82905000D03*
X58940000Y-82905000D03*
X58440000Y-82905000D03*
X57940000Y-82905000D03*
%TD*%
D23*
%TO.C,U18*%
X131365000Y-67896000D03*
X131365000Y-68596000D03*
X131365000Y-69296000D03*
X132465000Y-67896000D03*
X132465000Y-68596000D03*
X132465000Y-69296000D03*
X133565000Y-67896000D03*
X133565000Y-68596000D03*
X133565000Y-69296000D03*
D24*
X129802500Y-66596000D03*
X129802500Y-67596000D03*
X129802500Y-68596000D03*
X129802500Y-69596000D03*
X129802500Y-70596000D03*
X135127500Y-70596000D03*
X135127500Y-69596000D03*
X135127500Y-68596000D03*
X135127500Y-67596000D03*
X135127500Y-66596000D03*
%TD*%
D25*
%TO.C,R31*%
X100775000Y-75692000D03*
X102425000Y-75692000D03*
%TD*%
D26*
%TO.C,R42*%
X137414000Y-97727000D03*
X137414000Y-99377000D03*
%TD*%
D27*
%TO.C,D2*%
X101627800Y-72593200D03*
X100657800Y-72593200D03*
%TD*%
D28*
%TO.C,C31*%
X111252000Y-61750000D03*
X111252000Y-62710000D03*
%TD*%
D14*
%TO.C,C61*%
X103518000Y-99060000D03*
X101968000Y-99060000D03*
%TD*%
D29*
%TO.C,Q4*%
X64437500Y-76847000D03*
X64437500Y-74947000D03*
X62562500Y-75897000D03*
%TD*%
D28*
%TO.C,C52*%
X99568000Y-81816000D03*
X99568000Y-82776000D03*
%TD*%
D30*
%TO.C,L9*%
X112319000Y-95278000D03*
X112319000Y-94308000D03*
%TD*%
D31*
%TO.C,C68*%
X112382000Y-84963000D03*
X113932000Y-84963000D03*
%TD*%
D32*
%TO.C,C30*%
X102768400Y-67942400D03*
X102768400Y-66982400D03*
%TD*%
D14*
%TO.C,C3*%
X71585000Y-98918000D03*
X70035000Y-98918000D03*
%TD*%
D29*
%TO.C,Q5*%
X64437500Y-70156000D03*
X64437500Y-68256000D03*
X62562500Y-69206000D03*
%TD*%
D31*
%TO.C,C70*%
X134880000Y-80156000D03*
X136430000Y-80156000D03*
%TD*%
D25*
%TO.C,R34*%
X76137000Y-73152000D03*
X77787000Y-73152000D03*
%TD*%
D15*
%TO.C,C10*%
X60960000Y-93345000D03*
X60960000Y-91795000D03*
%TD*%
D13*
%TO.C,R36*%
X97345000Y-81788000D03*
X95695000Y-81788000D03*
%TD*%
D33*
%TO.C,U7*%
X78510000Y-93490000D03*
X78510000Y-92390000D03*
X78510000Y-91290000D03*
X78510000Y-90190000D03*
X78510000Y-89090000D03*
X78510000Y-87990000D03*
X78510000Y-86890000D03*
X78510000Y-85790000D03*
X78510000Y-84690000D03*
X68810000Y-84690000D03*
X68810000Y-85790000D03*
X68810000Y-86890000D03*
X68810000Y-87990000D03*
X68810000Y-89090000D03*
X68810000Y-90190000D03*
X68810000Y-91290000D03*
X68810000Y-92390000D03*
X68810000Y-93490000D03*
%TD*%
D34*
%TO.C,Q2*%
X120970000Y-96720500D03*
X122870000Y-96720500D03*
X121920000Y-94845500D03*
%TD*%
D13*
%TO.C,R46*%
X130067000Y-86506000D03*
X128417000Y-86506000D03*
%TD*%
%TO.C,R18*%
X92239600Y-71398800D03*
X90589600Y-71398800D03*
%TD*%
D31*
%TO.C,C67*%
X102872000Y-85784000D03*
X104422000Y-85784000D03*
%TD*%
D35*
%TO.C,F4*%
X60325000Y-76834500D03*
X60325000Y-74959500D03*
%TD*%
D36*
%TO.C,U9*%
X90138500Y-83978000D03*
X90138500Y-85248000D03*
X90138500Y-86518000D03*
X90138500Y-87788000D03*
X97313500Y-87788000D03*
X97313500Y-86518000D03*
X97313500Y-85248000D03*
X97313500Y-83978000D03*
%TD*%
D37*
%TO.C,J7*%
X90000000Y-62865000D03*
D38*
X88525000Y-61340000D03*
X91475000Y-61340000D03*
%TD*%
D12*
%TO.C,C1*%
X71760000Y-96518000D03*
X69860000Y-96518000D03*
%TD*%
D31*
%TO.C,C15*%
X59122000Y-99314000D03*
X60672000Y-99314000D03*
%TD*%
%TO.C,C79*%
X129785000Y-65040000D03*
X131335000Y-65040000D03*
%TD*%
D14*
%TO.C,C51*%
X77737000Y-81026000D03*
X76187000Y-81026000D03*
%TD*%
D31*
%TO.C,C27*%
X92443000Y-81788000D03*
X93993000Y-81788000D03*
%TD*%
D37*
%TO.C,J6*%
X106475000Y-68784200D03*
D38*
X105000000Y-67259200D03*
X107950000Y-67259200D03*
%TD*%
D27*
%TO.C,L13*%
X111229000Y-92202000D03*
X110259000Y-92202000D03*
%TD*%
D11*
%TO.C,C45*%
X110264000Y-90170000D03*
X111224000Y-90170000D03*
%TD*%
D15*
%TO.C,C17*%
X71374000Y-81801000D03*
X71374000Y-80251000D03*
%TD*%
D10*
%TO.C,R33*%
X100939600Y-83527400D03*
X100939600Y-81877400D03*
%TD*%
D11*
%TO.C,C40*%
X110264000Y-94234000D03*
X111224000Y-94234000D03*
%TD*%
D39*
%TO.C,L14*%
X100657800Y-70561200D03*
X101627800Y-70561200D03*
%TD*%
D15*
%TO.C,C55*%
X97636400Y-67272200D03*
X97636400Y-65722200D03*
%TD*%
D11*
%TO.C,C53*%
X93120000Y-62865000D03*
X94080000Y-62865000D03*
%TD*%
D31*
%TO.C,C2*%
X85077000Y-99111000D03*
X86627000Y-99111000D03*
%TD*%
D40*
%TO.C,J8*%
X55475000Y-69236000D03*
D41*
X53950000Y-70711000D03*
X53950000Y-67761000D03*
%TD*%
D10*
%TO.C,R41*%
X139065000Y-99377000D03*
X139065000Y-97727000D03*
%TD*%
D27*
%TO.C,L2*%
X58220000Y-75430000D03*
X57250000Y-75430000D03*
%TD*%
D42*
%TO.C,R19*%
X115087400Y-73890600D03*
X115087400Y-72870600D03*
%TD*%
D43*
%TO.C,U6*%
X60440000Y-95245000D03*
X59940000Y-95245000D03*
X59440000Y-95245000D03*
X58940000Y-95245000D03*
D44*
X58415000Y-95770000D03*
X58415000Y-96270000D03*
X58415000Y-96770000D03*
X58415000Y-97270000D03*
D43*
X58940000Y-97795000D03*
X59440000Y-97795000D03*
X59940000Y-97795000D03*
X60440000Y-97795000D03*
D44*
X60965000Y-97270000D03*
X60965000Y-96770000D03*
X60965000Y-96270000D03*
X60965000Y-95770000D03*
%TD*%
D10*
%TO.C,R39*%
X136163000Y-88982000D03*
X136163000Y-87332000D03*
%TD*%
D45*
%TO.C,C73*%
X141274800Y-87162600D03*
X141274800Y-89062600D03*
%TD*%
D46*
%TO.C,F2*%
X122857500Y-92456000D03*
X120982500Y-92456000D03*
%TD*%
D47*
%TO.C,C72*%
X130922000Y-80708000D03*
X130922000Y-77758000D03*
%TD*%
D48*
%TO.C,U2*%
X81346000Y-98927500D03*
X82296000Y-98927500D03*
X83246000Y-98927500D03*
X83246000Y-96652500D03*
X81346000Y-96652500D03*
%TD*%
D42*
%TO.C,R24*%
X101092000Y-63603600D03*
X101092000Y-62583600D03*
%TD*%
D28*
%TO.C,C34*%
X117119400Y-72900600D03*
X117119400Y-73860600D03*
%TD*%
D13*
%TO.C,R32*%
X105727000Y-75692000D03*
X104077000Y-75692000D03*
%TD*%
D10*
%TO.C,R44*%
X137037000Y-70310000D03*
X137037000Y-68660000D03*
%TD*%
D49*
%TO.C,L16*%
X139719000Y-82060000D03*
X139719000Y-85110000D03*
%TD*%
D50*
%TO.C,U10*%
X106230000Y-93685000D03*
X106230000Y-91968000D03*
X106230000Y-90251000D03*
X104513000Y-93685000D03*
X104513000Y-91968000D03*
X104513000Y-90251000D03*
X102796000Y-93685000D03*
X102796000Y-91968000D03*
X102796000Y-90251000D03*
D51*
X107950500Y-94718000D03*
X107950500Y-94218000D03*
X107950500Y-93718000D03*
X107950500Y-93218000D03*
X107950500Y-92718000D03*
X107950500Y-92218000D03*
X107950500Y-91718000D03*
X107950500Y-91218000D03*
X107950500Y-90718000D03*
X107950500Y-90218000D03*
X107950500Y-89718000D03*
X107950500Y-89218000D03*
D52*
X107263000Y-88530500D03*
X106763000Y-88530500D03*
X106263000Y-88530500D03*
X105763000Y-88530500D03*
X105263000Y-88530500D03*
X104763000Y-88530500D03*
X104263000Y-88530500D03*
X103763000Y-88530500D03*
X103263000Y-88530500D03*
X102763000Y-88530500D03*
X102263000Y-88530500D03*
X101763000Y-88530500D03*
D51*
X101075500Y-89218000D03*
X101075500Y-89718000D03*
X101075500Y-90218000D03*
X101075500Y-90718000D03*
X101075500Y-91218000D03*
X101075500Y-91718000D03*
X101075500Y-92218000D03*
X101075500Y-92718000D03*
X101075500Y-93218000D03*
X101075500Y-93718000D03*
X101075500Y-94218000D03*
X101075500Y-94718000D03*
D52*
X101763000Y-95405500D03*
X102263000Y-95405500D03*
X102763000Y-95405500D03*
X103263000Y-95405500D03*
X103763000Y-95405500D03*
X104263000Y-95405500D03*
X104763000Y-95405500D03*
X105263000Y-95405500D03*
X105763000Y-95405500D03*
X106263000Y-95405500D03*
X106763000Y-95405500D03*
X107263000Y-95405500D03*
%TD*%
D14*
%TO.C,C11*%
X65405000Y-87185000D03*
X63855000Y-87185000D03*
%TD*%
D16*
%TO.C,C25*%
X82804000Y-84315000D03*
X82804000Y-85865000D03*
%TD*%
D53*
%TO.C,C60*%
X99314000Y-98994000D03*
X99314000Y-97094000D03*
%TD*%
D11*
%TO.C,C5*%
X85372000Y-96723000D03*
X86332000Y-96723000D03*
%TD*%
D54*
%TO.C,U12*%
X116444000Y-63321500D03*
X117094000Y-63321500D03*
X117744000Y-63321500D03*
X117744000Y-61646500D03*
X117094000Y-61646500D03*
X116444000Y-61646500D03*
%TD*%
D55*
%TO.C,ZS1*%
X80884500Y-62865000D03*
X82459500Y-62865000D03*
%TD*%
D53*
%TO.C,C18*%
X74422000Y-81756000D03*
X74422000Y-79856000D03*
%TD*%
D27*
%TO.C,L8*%
X119763000Y-90322000D03*
X118793000Y-90322000D03*
%TD*%
D56*
%TO.C,U20*%
X138054500Y-94046000D03*
X138054500Y-94996000D03*
X138054500Y-95946000D03*
X140329500Y-95946000D03*
X140329500Y-94996000D03*
X140329500Y-94046000D03*
%TD*%
D49*
%TO.C,L17*%
X144780000Y-93471000D03*
X144780000Y-96521000D03*
%TD*%
D57*
%TO.C,U8*%
X87465000Y-77987000D03*
X87465000Y-76920000D03*
X87465000Y-75853000D03*
X86398000Y-77987000D03*
X86398000Y-76920000D03*
X86398000Y-75853000D03*
X85331000Y-77987000D03*
X85331000Y-76920000D03*
X85331000Y-75853000D03*
D58*
X89835500Y-79520000D03*
X89835500Y-79120000D03*
X89835500Y-78720000D03*
X89835500Y-78320000D03*
X89835500Y-77920000D03*
X89835500Y-77520000D03*
X89835500Y-77120000D03*
X89835500Y-76720000D03*
X89835500Y-76320000D03*
X89835500Y-75920000D03*
X89835500Y-75520000D03*
X89835500Y-75120000D03*
X89835500Y-74720000D03*
X89835500Y-74320000D03*
D59*
X88998000Y-73482500D03*
X88598000Y-73482500D03*
X88198000Y-73482500D03*
X87798000Y-73482500D03*
X87398000Y-73482500D03*
X86998000Y-73482500D03*
X86598000Y-73482500D03*
X86198000Y-73482500D03*
X85798000Y-73482500D03*
X85398000Y-73482500D03*
X84998000Y-73482500D03*
X84598000Y-73482500D03*
X84198000Y-73482500D03*
X83798000Y-73482500D03*
D58*
X82960500Y-74320000D03*
X82960500Y-74720000D03*
X82960500Y-75120000D03*
X82960500Y-75520000D03*
X82960500Y-75920000D03*
X82960500Y-76320000D03*
X82960500Y-76720000D03*
X82960500Y-77120000D03*
X82960500Y-77520000D03*
X82960500Y-77920000D03*
X82960500Y-78320000D03*
X82960500Y-78720000D03*
X82960500Y-79120000D03*
X82960500Y-79520000D03*
D59*
X83798000Y-80357500D03*
X84198000Y-80357500D03*
X84598000Y-80357500D03*
X84998000Y-80357500D03*
X85398000Y-80357500D03*
X85798000Y-80357500D03*
X86198000Y-80357500D03*
X86598000Y-80357500D03*
X86998000Y-80357500D03*
X87398000Y-80357500D03*
X87798000Y-80357500D03*
X88198000Y-80357500D03*
X88598000Y-80357500D03*
X88998000Y-80357500D03*
%TD*%
D16*
%TO.C,C56*%
X95019000Y-65722200D03*
X95019000Y-67272200D03*
%TD*%
D26*
%TO.C,R8*%
X143587000Y-63951000D03*
X143587000Y-65601000D03*
%TD*%
D60*
%TO.C,Q3*%
X94363300Y-70728800D03*
X94363300Y-72628800D03*
X96238300Y-71678800D03*
%TD*%
D31*
%TO.C,C22*%
X93743000Y-79502000D03*
X95293000Y-79502000D03*
%TD*%
D28*
%TO.C,C37*%
X113907000Y-76560800D03*
X113907000Y-77520800D03*
%TD*%
D61*
%TO.C,J4*%
X141760000Y-76250000D03*
X141760000Y-75450000D03*
D62*
X141760000Y-74250000D03*
X141760000Y-73250000D03*
X141760000Y-72750000D03*
X141760000Y-71750000D03*
D61*
X141760000Y-70550000D03*
X141760000Y-69750000D03*
X141760000Y-69750000D03*
X141760000Y-70550000D03*
D62*
X141760000Y-71250000D03*
X141760000Y-72250000D03*
X141760000Y-73750000D03*
X141760000Y-74750000D03*
D61*
X141760000Y-75450000D03*
X141760000Y-76250000D03*
%TD*%
D32*
%TO.C,C41*%
X115891000Y-98004000D03*
X115891000Y-97044000D03*
%TD*%
D63*
%TO.C,C77*%
X141224000Y-98220000D03*
X141224000Y-101170000D03*
%TD*%
D64*
%TO.C,U15*%
X101721500Y-80452000D03*
X101721500Y-79502000D03*
X101721500Y-78552000D03*
X99446500Y-78552000D03*
X99446500Y-79502000D03*
X99446500Y-80452000D03*
%TD*%
D26*
%TO.C,R7*%
X145587000Y-63951000D03*
X145587000Y-65601000D03*
%TD*%
D30*
%TO.C,L12*%
X118177000Y-95723000D03*
X118177000Y-94753000D03*
%TD*%
D40*
%TO.C,J2*%
X55475000Y-75897000D03*
D41*
X53950000Y-77372000D03*
X53950000Y-74422000D03*
%TD*%
D32*
%TO.C,C32*%
X114300000Y-62710000D03*
X114300000Y-61750000D03*
%TD*%
D13*
%TO.C,R17*%
X122643000Y-98704000D03*
X120993000Y-98704000D03*
%TD*%
D11*
%TO.C,C33*%
X119916000Y-63246000D03*
X120876000Y-63246000D03*
%TD*%
D14*
%TO.C,C28*%
X82055000Y-82804000D03*
X80505000Y-82804000D03*
%TD*%
D30*
%TO.C,L11*%
X118177000Y-98009000D03*
X118177000Y-97039000D03*
%TD*%
D14*
%TO.C,C14*%
X65406000Y-89901000D03*
X63856000Y-89901000D03*
%TD*%
D16*
%TO.C,C65*%
X99060000Y-93967000D03*
X99060000Y-95517000D03*
%TD*%
D54*
%TO.C,U16*%
X97368600Y-63753300D03*
X98018600Y-63753300D03*
X98668600Y-63753300D03*
X98668600Y-62078300D03*
X98018600Y-62078300D03*
X97368600Y-62078300D03*
%TD*%
D25*
%TO.C,R35*%
X76133000Y-78401000D03*
X77783000Y-78401000D03*
%TD*%
D31*
%TO.C,C23*%
X93743000Y-74930000D03*
X95293000Y-74930000D03*
%TD*%
D10*
%TO.C,R37*%
X137037000Y-67262000D03*
X137037000Y-65612000D03*
%TD*%
D13*
%TO.C,R3*%
X64960000Y-95250000D03*
X63310000Y-95250000D03*
%TD*%
D65*
%TO.C,J1*%
X68450000Y-108855000D03*
X68450000Y-103805000D03*
X70990000Y-108855000D03*
X70990000Y-103805000D03*
X73530000Y-108855000D03*
X73530000Y-103805000D03*
X76070000Y-108855000D03*
X76070000Y-103805000D03*
X78610000Y-108855000D03*
X78610000Y-103805000D03*
X81150000Y-108855000D03*
X81150000Y-103805000D03*
X83690000Y-108855000D03*
X83690000Y-103805000D03*
X86230000Y-108855000D03*
X86230000Y-103805000D03*
X88770000Y-108855000D03*
X88770000Y-103805000D03*
X91310000Y-108855000D03*
X91310000Y-103805000D03*
X93850000Y-108855000D03*
X93850000Y-103805000D03*
X96390000Y-108855000D03*
X96390000Y-103805000D03*
X98930000Y-108855000D03*
X98930000Y-103805000D03*
X101470000Y-108855000D03*
X101470000Y-103805000D03*
X104010000Y-108855000D03*
X104010000Y-103805000D03*
X106550000Y-108855000D03*
X106550000Y-103805000D03*
X109090000Y-108855000D03*
X109090000Y-103805000D03*
X111630000Y-108855000D03*
X111630000Y-103805000D03*
X114170000Y-108855000D03*
X114170000Y-103805000D03*
X116710000Y-108855000D03*
X116710000Y-103805000D03*
%TD*%
D15*
%TO.C,C63*%
X107079000Y-85359000D03*
X107079000Y-83809000D03*
%TD*%
D32*
%TO.C,C57*%
X68326000Y-81506000D03*
X68326000Y-80546000D03*
%TD*%
D31*
%TO.C,C4*%
X77965000Y-97790000D03*
X79515000Y-97790000D03*
%TD*%
D32*
%TO.C,C42*%
X115891000Y-95718000D03*
X115891000Y-94758000D03*
%TD*%
D66*
%TO.C,FL2*%
X119264000Y-67818000D03*
D67*
X119764000Y-66548000D03*
X119764000Y-65278000D03*
X116964000Y-65278000D03*
X116964000Y-66548000D03*
X116964000Y-67818000D03*
%TD*%
D26*
%TO.C,R40*%
X134639000Y-87332000D03*
X134639000Y-88982000D03*
%TD*%
D15*
%TO.C,C20*%
X80010000Y-69863000D03*
X80010000Y-68313000D03*
%TD*%
D45*
%TO.C,C75*%
X139115800Y-87162600D03*
X139115800Y-89062600D03*
%TD*%
D53*
%TO.C,C74*%
X143275000Y-85805000D03*
X143275000Y-83905000D03*
%TD*%
D26*
%TO.C,R10*%
X85344000Y-82487000D03*
X85344000Y-84137000D03*
%TD*%
D32*
%TO.C,C35*%
X115087400Y-71574600D03*
X115087400Y-70614600D03*
%TD*%
D68*
%TO.C,U5*%
X61722500Y-89150000D03*
X61722500Y-88650000D03*
D69*
X61460000Y-88137500D03*
X60960000Y-88137500D03*
X60460000Y-88137500D03*
D68*
X60197500Y-88650000D03*
X60197500Y-89150000D03*
D69*
X60460000Y-89662500D03*
X60960000Y-89662500D03*
X61460000Y-89662500D03*
%TD*%
D26*
%TO.C,R38*%
X133115000Y-87332000D03*
X133115000Y-88982000D03*
%TD*%
D15*
%TO.C,C13*%
X59055000Y-93345000D03*
X59055000Y-91795000D03*
%TD*%
%TO.C,C71*%
X133369000Y-79750000D03*
X133369000Y-78200000D03*
%TD*%
D54*
%TO.C,U17*%
X67981000Y-78917500D03*
X68631000Y-78917500D03*
X69281000Y-78917500D03*
X69281000Y-77242500D03*
X68631000Y-77242500D03*
X67981000Y-77242500D03*
%TD*%
D70*
%TO.C,C76*%
X135841000Y-96266000D03*
X132891000Y-96266000D03*
%TD*%
D16*
%TO.C,C19*%
X88392000Y-68313000D03*
X88392000Y-69863000D03*
%TD*%
D32*
%TO.C,C43*%
X115891000Y-93305000D03*
X115891000Y-92345000D03*
%TD*%
%TO.C,C39*%
X118177000Y-93305000D03*
X118177000Y-92345000D03*
%TD*%
D48*
%TO.C,U1*%
X73726000Y-98927500D03*
X74676000Y-98927500D03*
X75626000Y-98927500D03*
X75626000Y-96652500D03*
X73726000Y-96652500D03*
%TD*%
D11*
%TO.C,C44*%
X112347000Y-96469000D03*
X113307000Y-96469000D03*
%TD*%
D35*
%TO.C,F3*%
X98348800Y-72616300D03*
X98348800Y-70741300D03*
%TD*%
D13*
%TO.C,R43*%
X137100000Y-72025000D03*
X135450000Y-72025000D03*
%TD*%
D31*
%TO.C,C47*%
X104120000Y-80446000D03*
X105670000Y-80446000D03*
%TD*%
D28*
%TO.C,C38*%
X111621000Y-76560800D03*
X111621000Y-77520800D03*
%TD*%
D14*
%TO.C,C12*%
X57307000Y-87728000D03*
X55757000Y-87728000D03*
%TD*%
D30*
%TO.C,L10*%
X110921800Y-96217600D03*
X110921800Y-95247600D03*
%TD*%
D71*
%TO.C,Y2*%
X109155600Y-99423400D03*
X109155600Y-97223400D03*
X107455600Y-97223400D03*
X107455600Y-99423400D03*
%TD*%
D25*
%TO.C,R23*%
X92393000Y-77216000D03*
X94043000Y-77216000D03*
%TD*%
D48*
%TO.C,U3*%
X88204000Y-98927500D03*
X89154000Y-98927500D03*
X90104000Y-98927500D03*
X90104000Y-96652500D03*
X88204000Y-96652500D03*
%TD*%
D14*
%TO.C,C78*%
X135141000Y-94234000D03*
X133591000Y-94234000D03*
%TD*%
D72*
%TO.C,R30*%
X97284000Y-77209000D03*
X96264000Y-77209000D03*
%TD*%
D10*
%TO.C,R22*%
X100253800Y-67322200D03*
X100253800Y-65672200D03*
%TD*%
D25*
%TO.C,R27*%
X66485000Y-71120000D03*
X68135000Y-71120000D03*
%TD*%
D11*
%TO.C,C58*%
X57255000Y-76529000D03*
X58215000Y-76529000D03*
%TD*%
D25*
%TO.C,R26*%
X66485000Y-73660000D03*
X68135000Y-73660000D03*
%TD*%
D13*
%TO.C,R21*%
X105875000Y-72599000D03*
X104225000Y-72599000D03*
%TD*%
D73*
%TO.C,Y1*%
X86190000Y-68238000D03*
X83990000Y-68238000D03*
X83990000Y-69938000D03*
X86190000Y-69938000D03*
%TD*%
D74*
%TO.C,Y3*%
X112883000Y-86995000D03*
X110383000Y-86995000D03*
%TD*%
D16*
%TO.C,ZP2*%
X84172000Y-62865000D03*
X84172000Y-64415000D03*
%TD*%
D42*
%TO.C,R25*%
X95504000Y-63375000D03*
X95504000Y-62355000D03*
%TD*%
D75*
%TO.C,L7*%
X97282000Y-93679500D03*
X97282000Y-95804500D03*
%TD*%
D27*
%TO.C,L15*%
X58128000Y-68722000D03*
X57158000Y-68722000D03*
%TD*%
D26*
%TO.C,R1*%
X55245000Y-83630000D03*
X55245000Y-85280000D03*
%TD*%
D31*
%TO.C,C46*%
X104120000Y-78545000D03*
X105670000Y-78545000D03*
%TD*%
D14*
%TO.C,C80*%
X137050000Y-74565000D03*
X135500000Y-74565000D03*
%TD*%
%TO.C,C26*%
X80785000Y-75777000D03*
X79235000Y-75777000D03*
%TD*%
D11*
%TO.C,C59*%
X57160000Y-69850000D03*
X58120000Y-69850000D03*
%TD*%
D26*
%TO.C,R9*%
X87884000Y-82487000D03*
X87884000Y-84137000D03*
%TD*%
D76*
%TO.C,F5*%
X60325000Y-68268500D03*
X60325000Y-70143500D03*
%TD*%
D37*
%TO.C,J5*%
X118516000Y-87783000D03*
D38*
X117041000Y-86258000D03*
X119991000Y-86258000D03*
%TD*%
D77*
%TO.C,FL1*%
X111114000Y-64262000D03*
D78*
X110614000Y-65532000D03*
X110614000Y-66802000D03*
X113414000Y-66802000D03*
X113414000Y-65532000D03*
X113414000Y-64262000D03*
%TD*%
D79*
%TO.C,D3*%
X117500000Y-89380000D03*
X117500000Y-90350000D03*
%TD*%
D80*
%TO.C,U11*%
X106696000Y-61108000D03*
X106696000Y-61608000D03*
X106696000Y-62108000D03*
X106696000Y-62608000D03*
X108696000Y-62608000D03*
X108696000Y-62108000D03*
X108696000Y-61608000D03*
X108696000Y-61108000D03*
%TD*%
D14*
%TO.C,C24*%
X80785000Y-78401000D03*
X79235000Y-78401000D03*
%TD*%
%TO.C,C64*%
X100991000Y-85784000D03*
X99441000Y-85784000D03*
%TD*%
D16*
%TO.C,ZP1*%
X79172000Y-62865000D03*
X79172000Y-64415000D03*
%TD*%
M02*
