%TF.GenerationSoftware,KiCad,Pcbnew,10.0.4*%
%TF.CreationDate,2026-09-07T13:56:33+08:00*%
%TF.ProjectId,adsb-fpc-antenna,61647362-2d66-4706-932d-616e74656e6e,rev?*%
%TF.SameCoordinates,Original*%
%TF.FileFunction,Copper,L1,Top*%
%TF.FilePolarity,Positive*%
%FSLAX46Y46*%
G04 Gerber Fmt 4.6, Leading zero omitted, Abs format (unit mm)*
G04 Created by KiCad (PCBNEW 10.0.4) date 2026-09-07 13:56:33*
%MOMM*%
%LPD*%
G01*
G04 APERTURE LIST*
%TA.AperFunction,Conductor*%
%ADD10C,2.500000*%
%TD*%
%TA.AperFunction,Conductor*%
%ADD11C,2.000000*%
%TD*%
G04 APERTURE END LIST*
%TA.AperFunction,NonConductor*%
G36*
X42000000Y-6500000D02*
G01*
X50400000Y-6500000D01*
X50400000Y-11500000D01*
X42000000Y-11500000D01*
X42000000Y-6500000D01*
G37*
%TD.AperFunction*%
%TA.AperFunction,NonConductor*%
G36*
X42000000Y-29500000D02*
G01*
X50400000Y-29500000D01*
X50400000Y-34500000D01*
X42000000Y-34500000D01*
X42000000Y-29500000D01*
G37*
%TD.AperFunction*%
%TA.AperFunction,NonConductor*%
G36*
X42000000Y-52500000D02*
G01*
X50400000Y-52500000D01*
X50400000Y-57500000D01*
X42000000Y-57500000D01*
X42000000Y-52500000D01*
G37*
%TD.AperFunction*%
%TA.AperFunction,NonConductor*%
G36*
X42000000Y-75500000D02*
G01*
X50400000Y-75500000D01*
X50400000Y-80500000D01*
X42000000Y-80500000D01*
X42000000Y-75500000D01*
G37*
%TD.AperFunction*%
%TA.AperFunction,NonConductor*%
G36*
X51600000Y-6500000D02*
G01*
X58000000Y-6500000D01*
X58000000Y-11500000D01*
X51600000Y-11500000D01*
X51600000Y-6500000D01*
G37*
%TD.AperFunction*%
%TA.AperFunction,NonConductor*%
G36*
X51600000Y-29500000D02*
G01*
X58000000Y-29500000D01*
X58000000Y-34500000D01*
X51600000Y-34500000D01*
X51600000Y-29500000D01*
G37*
%TD.AperFunction*%
%TA.AperFunction,NonConductor*%
G36*
X51600000Y-52500000D02*
G01*
X58000000Y-52500000D01*
X58000000Y-57500000D01*
X51600000Y-57500000D01*
X51600000Y-52500000D01*
G37*
%TD.AperFunction*%
%TA.AperFunction,NonConductor*%
G36*
X51600000Y-75500000D02*
G01*
X58000000Y-75500000D01*
X58000000Y-80500000D01*
X51600000Y-80500000D01*
X51600000Y-75500000D01*
G37*
%TD.AperFunction*%
%TO.N,*%
D10*
X83000000Y-55000000D02*
X83000000Y-60000000D01*
X79000000Y-65000000D02*
X83500000Y-65000000D01*
D11*
X68500000Y-37000000D02*
X68500000Y-42000000D01*
X53000000Y-14000000D02*
X53000000Y-9000000D01*
D10*
X47000000Y-78000000D02*
X18000000Y-78000000D01*
X18000000Y-78000000D02*
X18000000Y-83000000D01*
D11*
X68500000Y-42000000D02*
X78500000Y-42000000D01*
D10*
X47000000Y-83000000D02*
X47000000Y-78000000D01*
X32000000Y-65000000D02*
X21000000Y-65000000D01*
D11*
X19000000Y-37000000D02*
X31500000Y-37000000D01*
X47000000Y-37000000D02*
X47000000Y-32000000D01*
D10*
X47000000Y-55000000D02*
X17000000Y-55000000D01*
D11*
X22000000Y-19000000D02*
X17500000Y-19000000D01*
X81000000Y-32000000D02*
X81000000Y-37000000D01*
D10*
X53000000Y-60000000D02*
X53000000Y-55000000D01*
D11*
X30000000Y-14000000D02*
X30000000Y-19000000D01*
D10*
X32000000Y-60000000D02*
X32000000Y-65000000D01*
D11*
X31500000Y-42000000D02*
X21500000Y-42000000D01*
D10*
X53000000Y-83000000D02*
X53000000Y-78000000D01*
X69000000Y-88000000D02*
X82000000Y-88000000D01*
X53000000Y-55000000D02*
X83000000Y-55000000D01*
D11*
X53000000Y-37000000D02*
X53000000Y-32000000D01*
D10*
X83000000Y-60000000D02*
X68000000Y-60000000D01*
X68000000Y-60000000D02*
X68000000Y-65000000D01*
X69000000Y-83000000D02*
X69000000Y-88000000D01*
D11*
X19000000Y-32000000D02*
X19000000Y-37000000D01*
D10*
X31000000Y-83000000D02*
X31000000Y-88000000D01*
X82000000Y-83000000D02*
X69000000Y-83000000D01*
D11*
X17000000Y-9000000D02*
X17000000Y-14000000D01*
D10*
X53000000Y-78000000D02*
X82000000Y-78000000D01*
X31000000Y-88000000D02*
X18000000Y-88000000D01*
X82000000Y-78000000D02*
X82000000Y-83000000D01*
D11*
X81000000Y-37000000D02*
X68500000Y-37000000D01*
D10*
X47000000Y-60000000D02*
X47000000Y-55000000D01*
X17000000Y-60000000D02*
X32000000Y-60000000D01*
D11*
X70000000Y-19000000D02*
X78000000Y-19000000D01*
X47000000Y-14000000D02*
X47000000Y-9000000D01*
X47000000Y-9000000D02*
X17000000Y-9000000D01*
D10*
X68000000Y-65000000D02*
X79000000Y-65000000D01*
D11*
X17000000Y-14000000D02*
X30000000Y-14000000D01*
X83000000Y-9000000D02*
X83000000Y-14000000D01*
D10*
X18000000Y-83000000D02*
X31000000Y-83000000D01*
D11*
X30000000Y-19000000D02*
X22000000Y-19000000D01*
D10*
X17000000Y-55000000D02*
X17000000Y-60000000D01*
D11*
X47000000Y-32000000D02*
X19000000Y-32000000D01*
X53000000Y-32000000D02*
X81000000Y-32000000D01*
X78000000Y-19000000D02*
X82500000Y-19000000D01*
X53000000Y-9000000D02*
X83000000Y-9000000D01*
X31500000Y-37000000D02*
X31500000Y-42000000D01*
X70000000Y-14000000D02*
X70000000Y-19000000D01*
X83000000Y-14000000D02*
X70000000Y-14000000D01*
D10*
X21000000Y-65000000D02*
X16500000Y-65000000D01*
%TD*%
M02*
