%TF.GenerationSoftware,KiCad,Pcbnew,10.0.4*%
%TF.CreationDate,2026-08-28T23:56:27+08:00*%
%TF.ProjectId,expansion-board-v4,65787061-6e73-4696-9f6e-2d626f617264,rev?*%
%TF.SameCoordinates,Original*%
%TF.FileFunction,Drillmap*%
%TF.FilePolarity,Positive*%
%FSLAX45Y45*%
G04 Gerber Fmt 4.5, Leading zero omitted, Abs format (unit mm)*
G04 Created by KiCad (PCBNEW 10.0.4) date 2026-08-28 23:56:27*
%MOMM*%
%LPD*%
G01*
G04 APERTURE LIST*
%ADD10C,0.100000*%
%ADD11C,0.200000*%
G04 APERTURE END LIST*
D10*
X5000000Y-5000000D02*
X15000000Y-5000000D01*
X5000000Y-11200000D02*
X5000000Y-5000000D01*
X15000000Y-5000000D02*
X15000000Y-11200000D01*
X15000000Y-11200000D02*
X5000000Y-11200000D01*
D11*
D10*
X5170000Y-7905000D02*
X5200000Y-7935000D01*
X5200000Y-7905000D02*
X5170000Y-7935000D01*
X5315050Y-6723600D02*
X5345050Y-6753600D01*
X5345050Y-6723600D02*
X5315050Y-6753600D01*
X5315050Y-7093600D02*
X5345050Y-7123600D01*
X5345050Y-7093600D02*
X5315050Y-7123600D01*
X5315050Y-7389700D02*
X5345050Y-7419700D01*
X5345050Y-7389700D02*
X5315050Y-7419700D01*
X5315050Y-7759700D02*
X5345050Y-7789700D01*
X5345050Y-7759700D02*
X5315050Y-7789700D01*
X5325000Y-8230000D02*
X5355000Y-8260000D01*
X5355000Y-8230000D02*
X5325000Y-8260000D01*
X5472000Y-8283050D02*
X5502000Y-8313050D01*
X5502000Y-8283050D02*
X5472000Y-8313050D01*
X5485700Y-8757800D02*
X5515700Y-8787800D01*
X5515700Y-8757800D02*
X5485700Y-8787800D01*
X5656550Y-8318000D02*
X5686550Y-8348000D01*
X5686550Y-8318000D02*
X5656550Y-8348000D01*
X5684000Y-8570450D02*
X5714000Y-8600450D01*
X5714000Y-8570450D02*
X5684000Y-8600450D01*
X5691500Y-8650450D02*
X5721500Y-8680450D01*
X5721500Y-8650450D02*
X5691500Y-8680450D01*
X5779000Y-8175500D02*
X5809000Y-8205500D01*
X5809000Y-8175500D02*
X5779000Y-8205500D01*
X5814050Y-9802000D02*
X5844050Y-9832000D01*
X5844050Y-9802000D02*
X5814050Y-9832000D01*
X5815500Y-9164500D02*
X5845500Y-9194500D01*
X5845500Y-9164500D02*
X5815500Y-9194500D01*
X5815500Y-9319500D02*
X5845500Y-9349500D01*
X5845500Y-9319500D02*
X5815500Y-9349500D01*
X5821500Y-8405500D02*
X5851500Y-8435500D01*
X5851500Y-8405500D02*
X5821500Y-8435500D01*
X5929000Y-8175500D02*
X5959000Y-8205500D01*
X5959000Y-8175500D02*
X5929000Y-8205500D01*
X5929000Y-8485500D02*
X5959000Y-8515500D01*
X5959000Y-8485500D02*
X5929000Y-8515500D01*
X5929750Y-8850000D02*
X5959750Y-8880000D01*
X5959750Y-8850000D02*
X5929750Y-8880000D01*
X5966050Y-8761250D02*
X5996050Y-8791250D01*
X5996050Y-8761250D02*
X5966050Y-8791250D01*
X5966050Y-8988750D02*
X5996050Y-9018750D01*
X5996050Y-8988750D02*
X5966050Y-9018750D01*
X5979000Y-9584500D02*
X6009000Y-9614500D01*
X6009000Y-9584500D02*
X5979000Y-9614500D01*
X5979000Y-9689500D02*
X6009000Y-9719500D01*
X6009000Y-9689500D02*
X5979000Y-9719500D01*
X6006000Y-9164500D02*
X6036000Y-9194500D01*
X6036000Y-9164500D02*
X6006000Y-9194500D01*
X6043500Y-9016200D02*
X6073500Y-9046200D01*
X6073500Y-9016200D02*
X6043500Y-9046200D01*
X6057640Y-8746770D02*
X6087640Y-8776770D01*
X6087640Y-8746770D02*
X6057640Y-8776770D01*
X6086500Y-8405500D02*
X6116500Y-8435500D01*
X6116500Y-8405500D02*
X6086500Y-8435500D01*
X6099310Y-8508580D02*
X6129310Y-8538580D01*
X6129310Y-8508580D02*
X6099310Y-8538580D01*
X6127200Y-9916400D02*
X6157200Y-9946400D01*
X6157200Y-9916400D02*
X6127200Y-9946400D01*
X6131000Y-8723750D02*
X6161000Y-8753750D01*
X6161000Y-8723750D02*
X6131000Y-8753750D01*
X6131400Y-8657860D02*
X6161400Y-8687860D01*
X6161400Y-8657860D02*
X6131400Y-8687860D01*
X6154660Y-7831060D02*
X6184660Y-7861060D01*
X6184660Y-7831060D02*
X6154660Y-7861060D01*
X6156000Y-9319500D02*
X6186000Y-9349500D01*
X6186000Y-9319500D02*
X6156000Y-9349500D01*
X6168500Y-9016200D02*
X6198500Y-9046200D01*
X6198500Y-9016200D02*
X6168500Y-9046200D01*
X6201590Y-9566220D02*
X6231590Y-9596220D01*
X6231590Y-9566220D02*
X6201590Y-9596220D01*
X6230730Y-8300900D02*
X6260730Y-8330900D01*
X6260730Y-8300900D02*
X6230730Y-8330900D01*
X6232250Y-8900000D02*
X6262250Y-8930000D01*
X6262250Y-8900000D02*
X6232250Y-8930000D01*
X6286500Y-8455500D02*
X6316500Y-8485500D01*
X6316500Y-8455500D02*
X6286500Y-8485500D01*
X6305550Y-9268100D02*
X6335550Y-9298100D01*
X6335550Y-9268100D02*
X6305550Y-9298100D01*
X6305650Y-8937600D02*
X6335650Y-8967600D01*
X6335650Y-8937600D02*
X6305650Y-8967600D01*
X6408000Y-8638550D02*
X6438000Y-8668550D01*
X6438000Y-8638550D02*
X6408000Y-8668550D01*
X6412630Y-9106500D02*
X6442630Y-9136500D01*
X6442630Y-9106500D02*
X6412630Y-9136500D01*
X6416050Y-9726500D02*
X6446050Y-9756500D01*
X6446050Y-9726500D02*
X6416050Y-9756500D01*
X6439140Y-7089380D02*
X6469140Y-7119380D01*
X6469140Y-7089380D02*
X6439140Y-7119380D01*
X6466250Y-6745650D02*
X6496250Y-6775650D01*
X6496250Y-6745650D02*
X6466250Y-6775650D01*
X6466250Y-7414750D02*
X6496250Y-7444750D01*
X6496250Y-7414750D02*
X6466250Y-7444750D01*
X6488000Y-9295550D02*
X6518000Y-9325550D01*
X6518000Y-9295550D02*
X6488000Y-9325550D01*
X6518500Y-9445050D02*
X6548500Y-9475050D01*
X6548500Y-9445050D02*
X6518500Y-9475050D01*
X6563000Y-8638550D02*
X6593000Y-8668550D01*
X6593000Y-8638550D02*
X6563000Y-8668550D01*
X6563100Y-8910150D02*
X6593100Y-8940150D01*
X6593100Y-8910150D02*
X6563100Y-8940150D01*
X6596000Y-7415950D02*
X6626000Y-7445950D01*
X6626000Y-7415950D02*
X6596000Y-7445950D01*
X6611860Y-9870680D02*
X6641860Y-9900680D01*
X6641860Y-9870680D02*
X6611860Y-9900680D01*
X6671000Y-7032050D02*
X6701000Y-7062050D01*
X6701000Y-7032050D02*
X6671000Y-7062050D01*
X6672820Y-7627860D02*
X6702820Y-7657860D01*
X6702820Y-7627860D02*
X6672820Y-7657860D01*
X6731240Y-7803120D02*
X6761240Y-7833120D01*
X6761240Y-7803120D02*
X6731240Y-7833120D01*
X6807440Y-7264640D02*
X6837440Y-7294640D01*
X6837440Y-7264640D02*
X6807440Y-7294640D01*
X6905000Y-10870500D02*
X6935000Y-10900500D01*
X6935000Y-10870500D02*
X6905000Y-10900500D01*
X6941000Y-8454000D02*
X6971000Y-8484000D01*
X6971000Y-8454000D02*
X6941000Y-8484000D01*
X6941000Y-8674000D02*
X6971000Y-8704000D01*
X6971000Y-8674000D02*
X6941000Y-8704000D01*
X7026000Y-9811850D02*
X7056000Y-9841850D01*
X7056000Y-9811850D02*
X7026000Y-9841850D01*
X7035950Y-9674300D02*
X7065950Y-9704300D01*
X7065950Y-9674300D02*
X7035950Y-9704300D01*
X7119280Y-7757170D02*
X7149280Y-7787170D01*
X7149280Y-7757170D02*
X7119280Y-7787170D01*
X7123500Y-9701750D02*
X7153500Y-9731750D01*
X7153500Y-9701750D02*
X7123500Y-9731750D01*
X7143500Y-9801800D02*
X7173500Y-9831800D01*
X7173500Y-9801800D02*
X7143500Y-9831800D01*
X7159000Y-10870500D02*
X7189000Y-10900500D01*
X7189000Y-10870500D02*
X7159000Y-10900500D01*
X7187350Y-8047600D02*
X7217350Y-8077600D01*
X7217350Y-8047600D02*
X7187350Y-8077600D01*
X7187350Y-8127600D02*
X7217350Y-8157600D01*
X7217350Y-8127600D02*
X7187350Y-8157600D01*
X7292650Y-9840250D02*
X7322650Y-9870250D01*
X7322650Y-9840250D02*
X7292650Y-9870250D01*
X7320100Y-9715200D02*
X7350100Y-9745200D01*
X7350100Y-9715200D02*
X7320100Y-9745200D01*
X7362250Y-8008100D02*
X7392250Y-8038100D01*
X7392250Y-8008100D02*
X7362250Y-8038100D01*
X7413000Y-10870500D02*
X7443000Y-10900500D01*
X7443000Y-10870500D02*
X7413000Y-10900500D01*
X7427200Y-8085600D02*
X7457200Y-8115600D01*
X7457200Y-8085600D02*
X7427200Y-8115600D01*
X7452600Y-9952750D02*
X7482600Y-9982750D01*
X7482600Y-9952750D02*
X7452600Y-9982750D01*
X7538750Y-8050100D02*
X7568750Y-8080100D01*
X7568750Y-8050100D02*
X7538750Y-8080100D01*
X7547600Y-9952750D02*
X7577600Y-9982750D01*
X7577600Y-9952750D02*
X7547600Y-9982750D01*
X7565800Y-7497750D02*
X7595800Y-7527750D01*
X7595800Y-7497750D02*
X7565800Y-7527750D01*
X7610790Y-7954790D02*
X7640790Y-7984790D01*
X7640790Y-7954790D02*
X7610790Y-7984790D01*
X7724380Y-7737080D02*
X7754380Y-7767080D01*
X7754380Y-7737080D02*
X7724380Y-7767080D01*
X7744000Y-9699050D02*
X7774000Y-9729050D01*
X7774000Y-9699050D02*
X7744000Y-9729050D01*
X7761000Y-8564000D02*
X7791000Y-8594000D01*
X7791000Y-8564000D02*
X7761000Y-8594000D01*
X7761000Y-8784000D02*
X7791000Y-8814000D01*
X7791000Y-8784000D02*
X7761000Y-8814000D01*
X7798500Y-9398950D02*
X7828500Y-9428950D01*
X7828500Y-9398950D02*
X7798500Y-9428950D01*
X7833600Y-7660880D02*
X7863600Y-7690880D01*
X7863600Y-7660880D02*
X7833600Y-7690880D01*
X7836000Y-8819000D02*
X7866000Y-8849000D01*
X7866000Y-8819000D02*
X7836000Y-8849000D01*
X7883500Y-10430500D02*
X7913500Y-10460500D01*
X7913500Y-10430500D02*
X7883500Y-10460500D01*
X7902200Y-6501500D02*
X7932200Y-6531500D01*
X7932200Y-6501500D02*
X7902200Y-6531500D01*
X7908500Y-7900100D02*
X7938500Y-7930100D01*
X7938500Y-7900100D02*
X7908500Y-7930100D01*
X7922500Y-7203680D02*
X7952500Y-7233680D01*
X7952500Y-7203680D02*
X7922500Y-7233680D01*
X7938010Y-9224000D02*
X7968010Y-9254000D01*
X7968010Y-9224000D02*
X7938010Y-9254000D01*
X7946000Y-7497750D02*
X7976000Y-7527750D01*
X7976000Y-7497750D02*
X7946000Y-7527750D01*
X7946000Y-8152550D02*
X7976000Y-8182550D01*
X7976000Y-8152550D02*
X7946000Y-8182550D01*
X7948500Y-6751350D02*
X7978500Y-6781350D01*
X7978500Y-6751350D02*
X7948500Y-6781350D01*
X7974000Y-9828950D02*
X8004000Y-9858950D01*
X8004000Y-9828950D02*
X7974000Y-9858950D01*
X7991080Y-7698980D02*
X8021080Y-7728980D01*
X8021080Y-7698980D02*
X7991080Y-7728980D01*
X7991080Y-7930120D02*
X8021080Y-7960120D01*
X8021080Y-7930120D02*
X7991080Y-7960120D01*
X7991080Y-8593060D02*
X8021080Y-8623060D01*
X8021080Y-8593060D02*
X7991080Y-8623060D01*
X7993620Y-8730220D02*
X8023620Y-8760220D01*
X8023620Y-8730220D02*
X7993620Y-8760220D01*
X8049710Y-9653290D02*
X8079710Y-9683290D01*
X8079710Y-9653290D02*
X8049710Y-9683290D01*
X8054650Y-9840250D02*
X8084650Y-9870250D01*
X8084650Y-9840250D02*
X8054650Y-9870250D01*
X8059660Y-7406880D02*
X8089660Y-7436880D01*
X8089660Y-7406880D02*
X8059660Y-7436880D01*
X8063500Y-7900100D02*
X8093500Y-7930100D01*
X8093500Y-7900100D02*
X8063500Y-7930100D01*
X8063500Y-8162600D02*
X8093500Y-8192600D01*
X8093500Y-8162600D02*
X8063500Y-8192600D01*
X8068500Y-7225200D02*
X8098500Y-7255200D01*
X8098500Y-7225200D02*
X8068500Y-7255200D01*
X8073000Y-8330350D02*
X8103000Y-8360350D01*
X8103000Y-8330350D02*
X8073000Y-8360350D01*
X8101000Y-7497750D02*
X8131000Y-7527750D01*
X8131000Y-7497750D02*
X8101000Y-7527750D01*
X8108160Y-7040790D02*
X8138160Y-7070790D01*
X8138160Y-7040790D02*
X8108160Y-7070790D01*
X8110460Y-7965680D02*
X8140460Y-7995680D01*
X8140460Y-7965680D02*
X8110460Y-7995680D01*
X8153000Y-8200450D02*
X8183000Y-8230450D01*
X8183000Y-8200450D02*
X8153000Y-8230450D01*
X8184120Y-7737080D02*
X8214120Y-7767080D01*
X8214120Y-7737080D02*
X8184120Y-7767080D01*
X8192300Y-7417000D02*
X8222300Y-7447000D01*
X8222300Y-7417000D02*
X8192300Y-7447000D01*
X8199360Y-8953740D02*
X8229360Y-8983740D01*
X8229360Y-8953740D02*
X8199360Y-8983740D01*
X8200450Y-8454000D02*
X8230450Y-8484000D01*
X8230450Y-8454000D02*
X8200450Y-8484000D01*
X8200450Y-8534000D02*
X8230450Y-8564000D01*
X8230450Y-8534000D02*
X8200450Y-8564000D01*
X8204440Y-7330680D02*
X8234440Y-7360680D01*
X8234440Y-7330680D02*
X8204440Y-7360680D01*
X8204440Y-8052040D02*
X8234440Y-8082040D01*
X8234440Y-8052040D02*
X8204440Y-8082040D01*
X8214600Y-9952750D02*
X8244600Y-9982750D01*
X8244600Y-9952750D02*
X8214600Y-9982750D01*
X8275220Y-10547850D02*
X8305220Y-10577850D01*
X8305220Y-10547850D02*
X8275220Y-10577850D01*
X8281050Y-8012000D02*
X8311050Y-8042000D01*
X8311050Y-8012000D02*
X8281050Y-8042000D01*
X8283180Y-7259560D02*
X8313180Y-7289560D01*
X8313180Y-7259560D02*
X8283180Y-7289560D01*
X8327300Y-8085700D02*
X8357300Y-8115700D01*
X8357300Y-8085700D02*
X8327300Y-8115700D01*
X8339850Y-7983250D02*
X8369850Y-8013250D01*
X8369850Y-7983250D02*
X8339850Y-8013250D01*
X8367000Y-7241780D02*
X8397000Y-7271780D01*
X8397000Y-7241780D02*
X8367000Y-7271780D01*
X8369540Y-7742160D02*
X8399540Y-7772160D01*
X8399540Y-7742160D02*
X8369540Y-7772160D01*
X8374550Y-9915250D02*
X8404550Y-9945250D01*
X8404550Y-9915250D02*
X8374550Y-9945250D01*
X8374620Y-7810740D02*
X8404620Y-7840740D01*
X8404620Y-7810740D02*
X8374620Y-7840740D01*
X8374620Y-7914880D02*
X8404620Y-7944880D01*
X8404620Y-7914880D02*
X8374620Y-7944880D01*
X8381050Y-7577000D02*
X8411050Y-7607000D01*
X8411050Y-7577000D02*
X8381050Y-7607000D01*
X8402200Y-6501500D02*
X8432200Y-6531500D01*
X8432200Y-6501500D02*
X8402200Y-6531500D01*
X8416910Y-9683550D02*
X8446910Y-9713550D01*
X8446910Y-9683550D02*
X8416910Y-9713550D01*
X8418950Y-10833000D02*
X8448950Y-10863000D01*
X8448950Y-10833000D02*
X8418950Y-10863000D01*
X8421500Y-6743850D02*
X8451500Y-6773850D01*
X8451500Y-6743850D02*
X8421500Y-6773850D01*
X8431810Y-9324100D02*
X8461810Y-9354100D01*
X8461810Y-9324100D02*
X8431810Y-9354100D01*
X8444800Y-7920750D02*
X8474800Y-7950750D01*
X8474800Y-7920750D02*
X8444800Y-7950750D01*
X8445740Y-7229080D02*
X8475740Y-7259080D01*
X8475740Y-7229080D02*
X8445740Y-7259080D01*
X8504800Y-7557000D02*
X8534800Y-7587000D01*
X8534800Y-7557000D02*
X8504800Y-7587000D01*
X8504800Y-7677000D02*
X8534800Y-7707000D01*
X8534800Y-7677000D02*
X8504800Y-7707000D01*
X8504800Y-7797000D02*
X8534800Y-7827000D01*
X8534800Y-7797000D02*
X8504800Y-7827000D01*
X8520300Y-10197140D02*
X8550300Y-10227140D01*
X8550300Y-10197140D02*
X8520300Y-10227140D01*
X8529000Y-6978800D02*
X8559000Y-7008800D01*
X8559000Y-6978800D02*
X8529000Y-7008800D01*
X8530200Y-9831150D02*
X8560200Y-9861150D01*
X8560200Y-9831150D02*
X8530200Y-9861150D01*
X8550000Y-8475000D02*
X8580000Y-8505000D01*
X8580000Y-8475000D02*
X8550000Y-8505000D01*
X8564800Y-7163250D02*
X8594800Y-7193250D01*
X8594800Y-7163250D02*
X8564800Y-7193250D01*
X8564800Y-7244500D02*
X8594800Y-7274500D01*
X8594800Y-7244500D02*
X8564800Y-7274500D01*
X8564800Y-7920750D02*
X8594800Y-7950750D01*
X8594800Y-7920750D02*
X8564800Y-7950750D01*
X8590000Y-8550000D02*
X8620000Y-8580000D01*
X8620000Y-8550000D02*
X8590000Y-8580000D01*
X8604800Y-7433250D02*
X8634800Y-7463250D01*
X8634800Y-7433250D02*
X8604800Y-7463250D01*
X8604800Y-8120750D02*
X8634800Y-8150750D01*
X8634800Y-8120750D02*
X8604800Y-8150750D01*
X8610200Y-9831150D02*
X8640200Y-9861150D01*
X8640200Y-9831150D02*
X8610200Y-9861150D01*
X8624800Y-7677000D02*
X8654800Y-7707000D01*
X8654800Y-7677000D02*
X8624800Y-7707000D01*
X8624800Y-7797000D02*
X8654800Y-7827000D01*
X8654800Y-7797000D02*
X8624800Y-7827000D01*
X8644800Y-7920750D02*
X8674800Y-7950750D01*
X8674800Y-7920750D02*
X8644800Y-7950750D01*
X8667250Y-8174150D02*
X8697250Y-8204150D01*
X8697250Y-8174150D02*
X8667250Y-8204150D01*
X8683150Y-9619800D02*
X8713150Y-9649800D01*
X8713150Y-9619800D02*
X8683150Y-9649800D01*
X8684800Y-8109500D02*
X8714800Y-8139500D01*
X8714800Y-8109500D02*
X8684800Y-8139500D01*
X8722600Y-7930120D02*
X8752600Y-7960120D01*
X8752600Y-7930120D02*
X8722600Y-7960120D01*
X8724800Y-7433250D02*
X8754800Y-7463250D01*
X8754800Y-7433250D02*
X8724800Y-7463250D01*
X8733570Y-10240050D02*
X8763570Y-10270050D01*
X8763570Y-10240050D02*
X8733570Y-10270050D01*
X8734860Y-10170830D02*
X8764860Y-10200830D01*
X8764860Y-10170830D02*
X8734860Y-10200830D01*
X8744800Y-7557000D02*
X8774800Y-7587000D01*
X8774800Y-7557000D02*
X8744800Y-7587000D01*
X8744800Y-7797000D02*
X8774800Y-7827000D01*
X8774800Y-7797000D02*
X8744800Y-7827000D01*
X8763240Y-7262100D02*
X8793240Y-7292100D01*
X8793240Y-7262100D02*
X8763240Y-7292100D01*
X8763240Y-10340580D02*
X8793240Y-10370580D01*
X8793240Y-10340580D02*
X8763240Y-10370580D01*
X8768320Y-10010380D02*
X8798320Y-10040380D01*
X8798320Y-10010380D02*
X8768320Y-10040380D01*
X8773400Y-8778500D02*
X8803400Y-8808500D01*
X8803400Y-8778500D02*
X8773400Y-8808500D01*
X8804800Y-8109500D02*
X8834800Y-8139500D01*
X8834800Y-8109500D02*
X8804800Y-8139500D01*
X8835010Y-7415780D02*
X8865010Y-7445780D01*
X8865010Y-7415780D02*
X8835010Y-7445780D01*
X8837500Y-6044000D02*
X8867500Y-6074000D01*
X8867500Y-6044000D02*
X8837500Y-6074000D01*
X8842470Y-7937860D02*
X8872470Y-7967860D01*
X8872470Y-7937860D02*
X8842470Y-7967860D01*
X8844800Y-7104500D02*
X8874800Y-7134500D01*
X8874800Y-7104500D02*
X8844800Y-7134500D01*
X8845620Y-7740840D02*
X8875620Y-7770840D01*
X8875620Y-7740840D02*
X8845620Y-7770840D01*
X8859940Y-8340420D02*
X8889940Y-8370420D01*
X8889940Y-8340420D02*
X8859940Y-8370420D01*
X8868550Y-7577000D02*
X8898550Y-7607000D01*
X8898550Y-7577000D02*
X8868550Y-7607000D01*
X8874460Y-9629950D02*
X8904460Y-9659950D01*
X8904460Y-9629950D02*
X8874460Y-9659950D01*
X8878850Y-8783210D02*
X8908850Y-8813210D01*
X8908850Y-8783210D02*
X8878850Y-8813210D01*
X8889140Y-8458810D02*
X8919140Y-8488810D01*
X8919140Y-8458810D02*
X8889140Y-8488810D01*
X8889150Y-7008800D02*
X8919150Y-7038800D01*
X8919150Y-7008800D02*
X8889150Y-7038800D01*
X8891410Y-8569710D02*
X8921410Y-8599710D01*
X8921410Y-8569710D02*
X8891410Y-8599710D01*
X8900400Y-9952750D02*
X8930400Y-9982750D01*
X8930400Y-9952750D02*
X8900400Y-9982750D01*
X8944120Y-7287110D02*
X8974120Y-7317110D01*
X8974120Y-7287110D02*
X8944120Y-7317110D01*
X8968550Y-8012000D02*
X8998550Y-8042000D01*
X8998550Y-8012000D02*
X8968550Y-8042000D01*
X8981680Y-8123160D02*
X9011680Y-8153160D01*
X9011680Y-8123160D02*
X8981680Y-8153160D01*
X8994380Y-10236440D02*
X9024380Y-10266440D01*
X9024380Y-10236440D02*
X8994380Y-10266440D01*
X8998850Y-8838800D02*
X9028850Y-8868800D01*
X9028850Y-8838800D02*
X8998850Y-8868800D01*
X9009280Y-9998080D02*
X9039280Y-10028080D01*
X9039280Y-9998080D02*
X9009280Y-10028080D01*
X9050260Y-7650720D02*
X9080260Y-7680720D01*
X9080260Y-7650720D02*
X9050260Y-7680720D01*
X9055340Y-7399260D02*
X9085340Y-7429260D01*
X9085340Y-7399260D02*
X9055340Y-7429260D01*
X9057300Y-7857000D02*
X9087300Y-7887000D01*
X9087300Y-7857000D02*
X9057300Y-7887000D01*
X9102770Y-7980470D02*
X9132770Y-8010470D01*
X9132770Y-7980470D02*
X9102770Y-8010470D01*
X9113760Y-7457680D02*
X9143760Y-7487680D01*
X9143760Y-7457680D02*
X9113760Y-7487680D01*
X9127300Y-7777000D02*
X9157300Y-7807000D01*
X9157300Y-7777000D02*
X9127300Y-7807000D01*
X9132500Y-6044000D02*
X9162500Y-6074000D01*
X9162500Y-6044000D02*
X9132500Y-6074000D01*
X9136530Y-9774890D02*
X9166530Y-9804890D01*
X9166530Y-9774890D02*
X9136530Y-9804890D01*
X9153500Y-10805500D02*
X9183500Y-10835500D01*
X9183500Y-10805500D02*
X9153500Y-10835500D01*
X9156700Y-9634750D02*
X9186700Y-9664750D01*
X9186700Y-9634750D02*
X9156700Y-9664750D01*
X9175000Y-8180000D02*
X9205000Y-8210000D01*
X9205000Y-8180000D02*
X9175000Y-8210000D01*
X9185000Y-8270000D02*
X9215000Y-8300000D01*
X9215000Y-8270000D02*
X9185000Y-8300000D01*
X9197580Y-7963140D02*
X9227580Y-7993140D01*
X9227580Y-7963140D02*
X9197580Y-7993140D01*
X9197580Y-8593060D02*
X9227580Y-8623060D01*
X9227580Y-8593060D02*
X9197580Y-8623060D01*
X9245840Y-10249140D02*
X9275840Y-10279140D01*
X9275840Y-10249140D02*
X9245840Y-10279140D01*
X9281400Y-7124880D02*
X9311400Y-7154880D01*
X9311400Y-7124880D02*
X9281400Y-7154880D01*
X9294350Y-7897700D02*
X9324350Y-7927700D01*
X9324350Y-7897700D02*
X9294350Y-7927700D01*
X9310000Y-8270000D02*
X9340000Y-8300000D01*
X9340000Y-8270000D02*
X9310000Y-8300000D01*
X9321800Y-7413050D02*
X9351800Y-7443050D01*
X9351800Y-7413050D02*
X9321800Y-7443050D01*
X9326740Y-9058070D02*
X9356740Y-9088070D01*
X9356740Y-9058070D02*
X9326740Y-9088070D01*
X9346800Y-8098850D02*
X9376800Y-8128850D01*
X9376800Y-8098850D02*
X9346800Y-8128850D01*
X9489550Y-8201300D02*
X9519550Y-8231300D01*
X9519550Y-8201300D02*
X9489550Y-8231300D01*
X9499840Y-10231360D02*
X9529840Y-10261360D01*
X9529840Y-10231360D02*
X9499840Y-10261360D01*
X9551800Y-7870250D02*
X9581800Y-7900250D01*
X9581800Y-7870250D02*
X9551800Y-7900250D01*
X9570960Y-6589000D02*
X9600960Y-6619000D01*
X9600960Y-6589000D02*
X9570960Y-6619000D01*
X9579250Y-7440500D02*
X9609250Y-7470500D01*
X9609250Y-7440500D02*
X9579250Y-7470500D01*
X9595000Y-8395000D02*
X9625000Y-8425000D01*
X9625000Y-8395000D02*
X9595000Y-8425000D01*
X9611400Y-7630900D02*
X9641400Y-7660900D01*
X9641400Y-7630900D02*
X9611400Y-7660900D01*
X9664940Y-6121640D02*
X9694940Y-6151640D01*
X9694940Y-6121640D02*
X9664940Y-6151640D01*
X9699920Y-7795690D02*
X9729920Y-7825690D01*
X9729920Y-7795690D02*
X9699920Y-7825690D01*
X9703040Y-8021560D02*
X9733040Y-8051560D01*
X9733040Y-8021560D02*
X9703040Y-8051560D01*
X9716960Y-9989590D02*
X9746960Y-10019590D01*
X9746960Y-9989590D02*
X9716960Y-10019590D01*
X9725900Y-7549120D02*
X9755900Y-7579120D01*
X9755900Y-7549120D02*
X9725900Y-7579120D01*
X9840500Y-10430500D02*
X9870500Y-10460500D01*
X9870500Y-10430500D02*
X9840500Y-10460500D01*
X9851450Y-9656900D02*
X9881450Y-9686900D01*
X9881450Y-9656900D02*
X9851450Y-9686900D01*
X9891000Y-9306700D02*
X9921000Y-9336700D01*
X9921000Y-9306700D02*
X9891000Y-9336700D01*
X9891000Y-9611700D02*
X9921000Y-9641700D01*
X9921000Y-9611700D02*
X9891000Y-9641700D01*
X9891600Y-8498450D02*
X9921600Y-8528450D01*
X9921600Y-8498450D02*
X9891600Y-8528450D01*
X9918940Y-6124180D02*
X9948940Y-6154180D01*
X9948940Y-6124180D02*
X9918940Y-6154180D01*
X9941800Y-8091600D02*
X9971800Y-8121600D01*
X9971800Y-8091600D02*
X9941800Y-8121600D01*
X9954500Y-6502640D02*
X9984500Y-6532640D01*
X9984500Y-6502640D02*
X9954500Y-6532640D01*
X9955240Y-9782860D02*
X9985240Y-9812860D01*
X9985240Y-9782860D02*
X9955240Y-9812860D01*
X9967150Y-7775250D02*
X9997150Y-7805250D01*
X9997150Y-7775250D02*
X9967150Y-7805250D01*
X9990060Y-6759180D02*
X10020060Y-6789180D01*
X10020060Y-6759180D02*
X9990060Y-6789180D01*
X10003800Y-9406800D02*
X10033800Y-9436800D01*
X10033800Y-9406800D02*
X10003800Y-9436800D01*
X10004600Y-8030200D02*
X10034600Y-8060200D01*
X10034600Y-8030200D02*
X10004600Y-8060200D01*
X10016800Y-8262600D02*
X10046800Y-8292600D01*
X10046800Y-8262600D02*
X10016800Y-8292600D01*
X10046600Y-8628350D02*
X10076600Y-8658350D01*
X10076600Y-8628350D02*
X10046600Y-8658350D01*
X10082200Y-7935200D02*
X10112200Y-7965200D01*
X10112200Y-7935200D02*
X10082200Y-7965200D01*
X10112000Y-9663000D02*
X10142000Y-9693000D01*
X10142000Y-9663000D02*
X10112000Y-9693000D01*
X10165000Y-8215000D02*
X10195000Y-8245000D01*
X10195000Y-8215000D02*
X10165000Y-8245000D01*
X10165320Y-8748000D02*
X10195320Y-8778000D01*
X10195320Y-8748000D02*
X10165320Y-8778000D01*
X10181800Y-9816000D02*
X10211800Y-9846000D01*
X10211800Y-9816000D02*
X10181800Y-9846000D01*
X10256300Y-9001800D02*
X10286300Y-9031800D01*
X10286300Y-9001800D02*
X10256300Y-9031800D01*
X10256300Y-9121800D02*
X10286300Y-9151800D01*
X10286300Y-9121800D02*
X10256300Y-9151800D01*
X10256300Y-9241800D02*
X10286300Y-9271800D01*
X10286300Y-9241800D02*
X10256300Y-9271800D01*
X10256300Y-9361800D02*
X10286300Y-9391800D01*
X10286300Y-9361800D02*
X10256300Y-9391800D01*
X10261300Y-8738050D02*
X10291300Y-8768050D01*
X10291300Y-8738050D02*
X10261300Y-8768050D01*
X10264380Y-10269460D02*
X10294380Y-10299460D01*
X10294380Y-10269460D02*
X10264380Y-10299460D01*
X10311000Y-10870500D02*
X10341000Y-10900500D01*
X10341000Y-10870500D02*
X10311000Y-10900500D01*
X10376140Y-8748000D02*
X10406140Y-8778000D01*
X10406140Y-8748000D02*
X10376140Y-8778000D01*
X10376300Y-9001800D02*
X10406300Y-9031800D01*
X10406300Y-9001800D02*
X10376300Y-9031800D01*
X10376300Y-9121800D02*
X10406300Y-9151800D01*
X10406300Y-9121800D02*
X10376300Y-9151800D01*
X10376300Y-9241800D02*
X10406300Y-9271800D01*
X10406300Y-9241800D02*
X10376300Y-9271800D01*
X10376300Y-9361800D02*
X10406300Y-9391800D01*
X10406300Y-9361800D02*
X10376300Y-9391800D01*
X10404500Y-9635550D02*
X10434500Y-9665550D01*
X10434500Y-9635550D02*
X10404500Y-9665550D01*
X10427200Y-8488400D02*
X10457200Y-8518400D01*
X10457200Y-8488400D02*
X10427200Y-8518400D01*
X10461300Y-8749300D02*
X10491300Y-8779300D01*
X10491300Y-8749300D02*
X10461300Y-8779300D01*
X10496300Y-9001800D02*
X10526300Y-9031800D01*
X10526300Y-9001800D02*
X10496300Y-9031800D01*
X10496300Y-9121800D02*
X10526300Y-9151800D01*
X10526300Y-9121800D02*
X10496300Y-9151800D01*
X10496300Y-9241800D02*
X10526300Y-9271800D01*
X10526300Y-9241800D02*
X10496300Y-9271800D01*
X10496300Y-9361800D02*
X10526300Y-9391800D01*
X10526300Y-9361800D02*
X10496300Y-9391800D01*
X10511300Y-8539300D02*
X10541300Y-8569300D01*
X10541300Y-8539300D02*
X10511300Y-8569300D01*
X10551020Y-10715720D02*
X10581020Y-10745720D01*
X10581020Y-10715720D02*
X10551020Y-10745720D01*
X10552000Y-7954600D02*
X10582000Y-7984600D01*
X10582000Y-7954600D02*
X10552000Y-7984600D01*
X10561300Y-8679300D02*
X10591300Y-8709300D01*
X10591300Y-8679300D02*
X10561300Y-8709300D01*
X10561300Y-9684300D02*
X10591300Y-9714300D01*
X10591300Y-9684300D02*
X10561300Y-9714300D01*
X10586100Y-6054800D02*
X10616100Y-6084800D01*
X10616100Y-6054800D02*
X10586100Y-6084800D01*
X10589600Y-6283300D02*
X10619600Y-6313300D01*
X10619600Y-6283300D02*
X10589600Y-6313300D01*
X10591000Y-9854800D02*
X10621000Y-9884800D01*
X10621000Y-9854800D02*
X10591000Y-9884800D01*
X10610000Y-8395000D02*
X10640000Y-8425000D01*
X10640000Y-8395000D02*
X10610000Y-8425000D01*
X10611300Y-8609300D02*
X10641300Y-8639300D01*
X10641300Y-8609300D02*
X10611300Y-8639300D01*
X10616300Y-9001800D02*
X10646300Y-9031800D01*
X10646300Y-9001800D02*
X10616300Y-9031800D01*
X10616300Y-9121800D02*
X10646300Y-9151800D01*
X10646300Y-9121800D02*
X10616300Y-9151800D01*
X10616300Y-9241800D02*
X10646300Y-9271800D01*
X10646300Y-9241800D02*
X10616300Y-9271800D01*
X10616300Y-9361800D02*
X10646300Y-9391800D01*
X10646300Y-9361800D02*
X10616300Y-9391800D01*
X10617000Y-7802000D02*
X10647000Y-7832000D01*
X10647000Y-7802000D02*
X10617000Y-7832000D01*
X10625080Y-10602910D02*
X10655080Y-10632910D01*
X10655080Y-10602910D02*
X10625080Y-10632910D01*
X10647900Y-9917700D02*
X10677900Y-9947700D01*
X10677900Y-9917700D02*
X10647900Y-9947700D01*
X10654600Y-6270800D02*
X10684600Y-6300800D01*
X10684600Y-6270800D02*
X10654600Y-6300800D01*
X10661300Y-8679300D02*
X10691300Y-8709300D01*
X10691300Y-8679300D02*
X10661300Y-8709300D01*
X10693140Y-10577270D02*
X10723140Y-10607270D01*
X10723140Y-10577270D02*
X10693140Y-10607270D01*
X10748800Y-8773100D02*
X10778800Y-8803100D01*
X10778800Y-8773100D02*
X10748800Y-8803100D01*
X10750100Y-6171800D02*
X10780100Y-6201800D01*
X10780100Y-6171800D02*
X10750100Y-6201800D01*
X10757900Y-8483400D02*
X10787900Y-8513400D01*
X10787900Y-8483400D02*
X10757900Y-8513400D01*
X10767800Y-9557000D02*
X10797800Y-9587000D01*
X10797800Y-9557000D02*
X10767800Y-9587000D01*
X10843400Y-8481300D02*
X10873400Y-8511300D01*
X10873400Y-8481300D02*
X10843400Y-8511300D01*
X10854600Y-6320800D02*
X10884600Y-6350800D01*
X10884600Y-6320800D02*
X10854600Y-6350800D01*
X10856500Y-10805500D02*
X10886500Y-10835500D01*
X10886500Y-10805500D02*
X10856500Y-10835500D01*
X10879060Y-7150340D02*
X10909060Y-7180340D01*
X10909060Y-7150340D02*
X10879060Y-7180340D01*
X10879060Y-7215340D02*
X10909060Y-7245340D01*
X10909060Y-7215340D02*
X10879060Y-7245340D01*
X10892100Y-6260750D02*
X10922100Y-6290750D01*
X10922100Y-6260750D02*
X10892100Y-6290750D01*
X10919600Y-6058300D02*
X10949600Y-6088300D01*
X10949600Y-6058300D02*
X10919600Y-6088300D01*
X11046400Y-6740200D02*
X11076400Y-6770200D01*
X11076400Y-6740200D02*
X11046400Y-6770200D01*
X11072100Y-7641080D02*
X11102100Y-7671080D01*
X11102100Y-7641080D02*
X11072100Y-7671080D01*
X11091900Y-6406700D02*
X11121900Y-6436700D01*
X11121900Y-6406700D02*
X11091900Y-6436700D01*
X11171400Y-6411200D02*
X11201400Y-6441200D01*
X11201400Y-6411200D02*
X11171400Y-6441200D01*
X11182400Y-9002000D02*
X11212400Y-9032000D01*
X11212400Y-9002000D02*
X11182400Y-9032000D01*
X11222100Y-7737080D02*
X11252100Y-7767080D01*
X11252100Y-7737080D02*
X11222100Y-7767080D01*
X11261400Y-6373700D02*
X11291400Y-6403700D01*
X11291400Y-6373700D02*
X11261400Y-6403700D01*
X11300700Y-7737080D02*
X11330700Y-7767080D01*
X11330700Y-7737080D02*
X11300700Y-7767080D01*
X11301460Y-7150340D02*
X11331460Y-7180340D01*
X11331460Y-7150340D02*
X11301460Y-7180340D01*
X11301460Y-7495340D02*
X11331460Y-7525340D01*
X11331460Y-7495340D02*
X11301460Y-7525340D01*
X11307830Y-10669010D02*
X11337830Y-10699010D01*
X11337830Y-10669010D02*
X11307830Y-10699010D01*
X11315700Y-9706900D02*
X11345700Y-9736900D01*
X11345700Y-9706900D02*
X11315700Y-9736900D01*
X11326400Y-6740200D02*
X11356400Y-6770200D01*
X11356400Y-6740200D02*
X11326400Y-6770200D01*
X11450700Y-7641080D02*
X11480700Y-7671080D01*
X11480700Y-7641080D02*
X11450700Y-7671080D01*
X11453200Y-8481300D02*
X11483200Y-8511300D01*
X11483200Y-8481300D02*
X11453200Y-8511300D01*
X11493740Y-6971460D02*
X11523740Y-7001460D01*
X11523740Y-6971460D02*
X11493740Y-7001460D01*
X11499100Y-9460800D02*
X11529100Y-9490800D01*
X11529100Y-9460800D02*
X11499100Y-9490800D01*
X11581000Y-10365500D02*
X11611000Y-10395500D01*
X11611000Y-10365500D02*
X11581000Y-10395500D01*
X11591900Y-6382100D02*
X11621900Y-6412100D01*
X11621900Y-6382100D02*
X11591900Y-6412100D01*
X11611600Y-9154550D02*
X11641600Y-9184550D01*
X11641600Y-9154550D02*
X11611600Y-9184550D01*
X11616400Y-6475300D02*
X11646400Y-6505300D01*
X11646400Y-6475300D02*
X11616400Y-6505300D01*
X11645600Y-9685900D02*
X11675600Y-9715900D01*
X11675600Y-9685900D02*
X11645600Y-9715900D01*
X11651600Y-8545850D02*
X11681600Y-8575850D01*
X11681600Y-8545850D02*
X11651600Y-8575850D01*
X11694400Y-6447150D02*
X11724400Y-6477150D01*
X11724400Y-6447150D02*
X11694400Y-6477150D01*
X11697500Y-9084950D02*
X11727500Y-9114950D01*
X11727500Y-9084950D02*
X11697500Y-9114950D01*
X11756400Y-6766800D02*
X11786400Y-6796800D01*
X11786400Y-6766800D02*
X11756400Y-6796800D01*
X11769400Y-6149650D02*
X11799400Y-6179650D01*
X11799400Y-6149650D02*
X11769400Y-6179650D01*
X11824400Y-6112150D02*
X11854400Y-6142150D01*
X11854400Y-6112150D02*
X11824400Y-6142150D01*
X11826900Y-6772300D02*
X11856900Y-6802300D01*
X11856900Y-6772300D02*
X11826900Y-6802300D01*
X11896400Y-6475300D02*
X11926400Y-6505300D01*
X11926400Y-6475300D02*
X11896400Y-6505300D01*
X11906900Y-6762300D02*
X11936900Y-6792300D01*
X11936900Y-6762300D02*
X11906900Y-6792300D01*
X11911400Y-6841800D02*
X11941400Y-6871800D01*
X11941400Y-6841800D02*
X11911400Y-6871800D01*
X11955450Y-9685830D02*
X11985450Y-9715830D01*
X11985450Y-9685830D02*
X11955450Y-9715830D01*
X11984100Y-8535800D02*
X12014100Y-8565800D01*
X12014100Y-8535800D02*
X11984100Y-8565800D01*
X11986900Y-6772300D02*
X12016900Y-6802300D01*
X12016900Y-6772300D02*
X11986900Y-6802300D01*
X12075400Y-8031700D02*
X12105400Y-8061700D01*
X12105400Y-8031700D02*
X12075400Y-8061700D01*
X12177000Y-9711380D02*
X12207000Y-9741380D01*
X12207000Y-9711380D02*
X12177000Y-9741380D01*
X12283680Y-8631330D02*
X12313680Y-8661330D01*
X12313680Y-8631330D02*
X12283680Y-8661330D01*
X12826700Y-8306600D02*
X12856700Y-8336600D01*
X12856700Y-8306600D02*
X12826700Y-8336600D01*
X12864200Y-8700550D02*
X12894200Y-8730550D01*
X12894200Y-8700550D02*
X12864200Y-8730550D01*
X13134490Y-8427800D02*
X13164490Y-8457800D01*
X13164490Y-8427800D02*
X13134490Y-8457800D01*
X13142200Y-7798300D02*
X13172200Y-7828300D01*
X13172200Y-7798300D02*
X13142200Y-7828300D01*
X13171500Y-6784600D02*
X13201500Y-6814600D01*
X13201500Y-6784600D02*
X13171500Y-6814600D01*
X13171500Y-6904600D02*
X13201500Y-6934600D01*
X13201500Y-6904600D02*
X13171500Y-6934600D01*
X13174100Y-8190300D02*
X13204100Y-8220300D01*
X13204100Y-8190300D02*
X13174100Y-8220300D01*
X13185000Y-10820740D02*
X13215000Y-10850740D01*
X13215000Y-10820740D02*
X13185000Y-10850740D01*
X13193500Y-6489000D02*
X13223500Y-6519000D01*
X13223500Y-6489000D02*
X13193500Y-6519000D01*
X13227980Y-7937870D02*
X13257980Y-7967870D01*
X13257980Y-7937870D02*
X13227980Y-7967870D01*
X13240000Y-10820740D02*
X13270000Y-10850740D01*
X13270000Y-10820740D02*
X13240000Y-10850740D01*
X13291500Y-6784600D02*
X13321500Y-6814600D01*
X13321500Y-6784600D02*
X13291500Y-6814600D01*
X13291500Y-6904600D02*
X13321500Y-6934600D01*
X13321500Y-6904600D02*
X13291500Y-6934600D01*
X13295000Y-10820740D02*
X13325000Y-10850740D01*
X13325000Y-10820740D02*
X13295000Y-10850740D01*
X13296500Y-8958200D02*
X13326500Y-8988200D01*
X13326500Y-8958200D02*
X13296500Y-8988200D01*
X13339100Y-9574100D02*
X13369100Y-9604100D01*
X13369100Y-9574100D02*
X13339100Y-9604100D01*
X13350000Y-10820740D02*
X13380000Y-10850740D01*
X13380000Y-10820740D02*
X13350000Y-10850740D01*
X13381600Y-9343450D02*
X13411600Y-9373450D01*
X13411600Y-9343450D02*
X13381600Y-9373450D01*
X13383900Y-8920700D02*
X13413900Y-8950700D01*
X13413900Y-8920700D02*
X13383900Y-8950700D01*
X13390000Y-7740000D02*
X13420000Y-7770000D01*
X13420000Y-7740000D02*
X13390000Y-7770000D01*
X13461600Y-9343450D02*
X13491600Y-9373450D01*
X13491600Y-9343450D02*
X13461600Y-9373450D01*
X13465000Y-7470000D02*
X13495000Y-7500000D01*
X13495000Y-7470000D02*
X13465000Y-7500000D01*
X13492070Y-8805120D02*
X13522070Y-8835120D01*
X13522070Y-8805120D02*
X13492070Y-8835120D01*
X13494100Y-9611600D02*
X13524100Y-9641600D01*
X13524100Y-9611600D02*
X13494100Y-9641600D01*
X13543930Y-8632970D02*
X13573930Y-8662970D01*
X13573930Y-8632970D02*
X13543930Y-8662970D01*
X13584500Y-10850000D02*
X13614500Y-10880000D01*
X13614500Y-10850000D02*
X13584500Y-10880000D01*
X13657500Y-7252450D02*
X13687500Y-7282450D01*
X13687500Y-7252450D02*
X13657500Y-7282450D01*
X13664000Y-8162850D02*
X13694000Y-8192850D01*
X13694000Y-8162850D02*
X13664000Y-8192850D01*
X13688700Y-6471200D02*
X13718700Y-6501200D01*
X13718700Y-6471200D02*
X13688700Y-6501200D01*
X13690000Y-7516500D02*
X13720000Y-7546500D01*
X13720000Y-7516500D02*
X13690000Y-7546500D01*
X13691500Y-8240300D02*
X13721500Y-8270300D01*
X13721500Y-8240300D02*
X13691500Y-8270300D01*
X13767040Y-7033500D02*
X13797040Y-7063500D01*
X13797040Y-7033500D02*
X13767040Y-7063500D01*
X13791400Y-9960200D02*
X13821400Y-9990200D01*
X13821400Y-9960200D02*
X13791400Y-9990200D01*
X13857400Y-9484600D02*
X13887400Y-9514600D01*
X13887400Y-9484600D02*
X13857400Y-9514600D01*
X13865400Y-9579600D02*
X13895400Y-9609600D01*
X13895400Y-9579600D02*
X13865400Y-9609600D01*
X13930300Y-8883000D02*
X13960300Y-8913000D01*
X13960300Y-8883000D02*
X13930300Y-8913000D01*
X13934680Y-7170660D02*
X13964680Y-7200660D01*
X13964680Y-7170660D02*
X13934680Y-7200660D01*
X13966950Y-7296300D02*
X13996950Y-7326300D01*
X13996950Y-7296300D02*
X13966950Y-7326300D01*
X13970000Y-7360650D02*
X14000000Y-7390650D01*
X14000000Y-7360650D02*
X13970000Y-7390650D01*
X13985000Y-8369830D02*
X14015000Y-8399830D01*
X14015000Y-8369830D02*
X13985000Y-8399830D01*
X14001270Y-9954500D02*
X14031270Y-9984500D01*
X14031270Y-9954500D02*
X14001270Y-9984500D01*
X14018000Y-9314600D02*
X14048000Y-9344600D01*
X14048000Y-9314600D02*
X14018000Y-9344600D01*
X14021900Y-8458500D02*
X14051900Y-8488500D01*
X14051900Y-8458500D02*
X14021900Y-8488500D01*
X14031000Y-7040000D02*
X14061000Y-7070000D01*
X14061000Y-7040000D02*
X14031000Y-7070000D01*
X14031000Y-7530000D02*
X14061000Y-7560000D01*
X14061000Y-7530000D02*
X14031000Y-7560000D01*
X14096000Y-6870000D02*
X14126000Y-6900000D01*
X14126000Y-6870000D02*
X14096000Y-6900000D01*
X14096000Y-6922500D02*
X14126000Y-6952500D01*
X14126000Y-6922500D02*
X14096000Y-6952500D01*
X14096000Y-7647500D02*
X14126000Y-7677500D01*
X14126000Y-7647500D02*
X14096000Y-7677500D01*
X14096000Y-7710000D02*
X14126000Y-7740000D01*
X14126000Y-7710000D02*
X14096000Y-7740000D01*
X14107400Y-10027000D02*
X14137400Y-10057000D01*
X14137400Y-10027000D02*
X14107400Y-10057000D01*
X14136200Y-8845500D02*
X14166200Y-8875500D01*
X14166200Y-8845500D02*
X14136200Y-8875500D01*
X14146200Y-8693000D02*
X14176200Y-8723000D01*
X14176200Y-8693000D02*
X14146200Y-8723000D01*
X14312500Y-8490500D02*
X14342500Y-8520500D01*
X14342500Y-8490500D02*
X14312500Y-8520500D01*
X14352500Y-7667500D02*
X14382500Y-7697500D01*
X14382500Y-7667500D02*
X14352500Y-7697500D01*
X14360000Y-6800000D02*
X14390000Y-6830000D01*
X14390000Y-6800000D02*
X14360000Y-6830000D01*
X14377500Y-8413000D02*
X14407500Y-8443000D01*
X14407500Y-8413000D02*
X14377500Y-8443000D01*
X14408700Y-6507600D02*
X14438700Y-6537600D01*
X14438700Y-6507600D02*
X14408700Y-6537600D01*
X14538000Y-9332100D02*
X14568000Y-9362100D01*
X14568000Y-9332100D02*
X14538000Y-9362100D01*
X14608700Y-6582600D02*
X14638700Y-6612600D01*
X14638700Y-6582600D02*
X14608700Y-6612600D01*
X14670500Y-6928000D02*
X14700500Y-6958000D01*
X14700500Y-6928000D02*
X14670500Y-6958000D01*
X14670500Y-7642000D02*
X14700500Y-7672000D01*
X14700500Y-7642000D02*
X14670500Y-7672000D01*
X13357800Y-8262800D02*
G75*
G02*
X13327800Y-8262800I-15000J0D01*
G01*
X13327800Y-8262800D02*
G75*
G02*
X13357800Y-8262800I15000J0D01*
G01*
X13357800Y-8367800D02*
G75*
G02*
X13327800Y-8367800I-15000J0D01*
G01*
X13327800Y-8367800D02*
G75*
G02*
X13357800Y-8367800I15000J0D01*
G01*
X13357800Y-8472800D02*
G75*
G02*
X13327800Y-8472800I-15000J0D01*
G01*
X13327800Y-8472800D02*
G75*
G02*
X13357800Y-8472800I15000J0D01*
G01*
X13462800Y-8262800D02*
G75*
G02*
X13432800Y-8262800I-15000J0D01*
G01*
X13432800Y-8262800D02*
G75*
G02*
X13462800Y-8262800I15000J0D01*
G01*
X13462800Y-8367800D02*
G75*
G02*
X13432800Y-8367800I-15000J0D01*
G01*
X13432800Y-8367800D02*
G75*
G02*
X13462800Y-8367800I15000J0D01*
G01*
X13462800Y-8472800D02*
G75*
G02*
X13432800Y-8472800I-15000J0D01*
G01*
X13432800Y-8472800D02*
G75*
G02*
X13462800Y-8472800I15000J0D01*
G01*
X13567800Y-8262800D02*
G75*
G02*
X13537800Y-8262800I-15000J0D01*
G01*
X13537800Y-8262800D02*
G75*
G02*
X13567800Y-8262800I15000J0D01*
G01*
X13567800Y-8367800D02*
G75*
G02*
X13537800Y-8367800I-15000J0D01*
G01*
X13537800Y-8367800D02*
G75*
G02*
X13567800Y-8367800I15000J0D01*
G01*
X13567800Y-8472800D02*
G75*
G02*
X13537800Y-8472800I-15000J0D01*
G01*
X13537800Y-8472800D02*
G75*
G02*
X13567800Y-8472800I15000J0D01*
G01*
X14267500Y-6838000D02*
X14267500Y-6898000D01*
X14237500Y-6868000D02*
X14297500Y-6868000D01*
X14212500Y-6898000D02*
X14322500Y-6898000D01*
X14322500Y-6838000D02*
G75*
G02*
X14322500Y-6898000I0J-30000D01*
G01*
X14322500Y-6838000D02*
X14212500Y-6838000D01*
X14212500Y-6838000D02*
G75*
G03*
X14212500Y-6898000I0J-30000D01*
G01*
X14267500Y-7702000D02*
X14267500Y-7762000D01*
X14237500Y-7732000D02*
X14297500Y-7732000D01*
X14212500Y-7762000D02*
X14322500Y-7762000D01*
X14322500Y-7702000D02*
G75*
G02*
X14322500Y-7762000I0J-30000D01*
G01*
X14322500Y-7702000D02*
X14212500Y-7702000D01*
X14212500Y-7702000D02*
G75*
G03*
X14212500Y-7762000I0J-30000D01*
G01*
X14685500Y-6838000D02*
X14685500Y-6898000D01*
X14655500Y-6868000D02*
X14715500Y-6868000D01*
X14655500Y-6898000D02*
X14715500Y-6898000D01*
X14715500Y-6838000D02*
G75*
G02*
X14715500Y-6898000I0J-30000D01*
G01*
X14715500Y-6838000D02*
X14655500Y-6838000D01*
X14655500Y-6838000D02*
G75*
G03*
X14655500Y-6898000I0J-30000D01*
G01*
X14685500Y-7702000D02*
X14685500Y-7762000D01*
X14655500Y-7732000D02*
X14715500Y-7732000D01*
X14655500Y-7762000D02*
X14715500Y-7762000D01*
X14715500Y-7702000D02*
G75*
G02*
X14715500Y-7762000I0J-30000D01*
G01*
X14715500Y-7702000D02*
X14655500Y-7702000D01*
X14655500Y-7702000D02*
G75*
G03*
X14655500Y-7762000I0J-30000D01*
G01*
D11*
X5255777Y-11516484D02*
X5255777Y-11316484D01*
X5255777Y-11316484D02*
X5303396Y-11316484D01*
X5303396Y-11316484D02*
X5331967Y-11326008D01*
X5331967Y-11326008D02*
X5351015Y-11345055D01*
X5351015Y-11345055D02*
X5360539Y-11364103D01*
X5360539Y-11364103D02*
X5370063Y-11402198D01*
X5370063Y-11402198D02*
X5370063Y-11430769D01*
X5370063Y-11430769D02*
X5360539Y-11468865D01*
X5360539Y-11468865D02*
X5351015Y-11487912D01*
X5351015Y-11487912D02*
X5331967Y-11506960D01*
X5331967Y-11506960D02*
X5303396Y-11516484D01*
X5303396Y-11516484D02*
X5255777Y-11516484D01*
X5455777Y-11516484D02*
X5455777Y-11383150D01*
X5455777Y-11421246D02*
X5465301Y-11402198D01*
X5465301Y-11402198D02*
X5474824Y-11392674D01*
X5474824Y-11392674D02*
X5493872Y-11383150D01*
X5493872Y-11383150D02*
X5512920Y-11383150D01*
X5579586Y-11516484D02*
X5579586Y-11383150D01*
X5579586Y-11316484D02*
X5570063Y-11326008D01*
X5570063Y-11326008D02*
X5579586Y-11335531D01*
X5579586Y-11335531D02*
X5589110Y-11326008D01*
X5589110Y-11326008D02*
X5579586Y-11316484D01*
X5579586Y-11316484D02*
X5579586Y-11335531D01*
X5703396Y-11516484D02*
X5684348Y-11506960D01*
X5684348Y-11506960D02*
X5674824Y-11487912D01*
X5674824Y-11487912D02*
X5674824Y-11316484D01*
X5808158Y-11516484D02*
X5789110Y-11506960D01*
X5789110Y-11506960D02*
X5779586Y-11487912D01*
X5779586Y-11487912D02*
X5779586Y-11316484D01*
X6036729Y-11516484D02*
X6036729Y-11316484D01*
X6036729Y-11316484D02*
X6103396Y-11459341D01*
X6103396Y-11459341D02*
X6170062Y-11316484D01*
X6170062Y-11316484D02*
X6170062Y-11516484D01*
X6351015Y-11516484D02*
X6351015Y-11411722D01*
X6351015Y-11411722D02*
X6341491Y-11392674D01*
X6341491Y-11392674D02*
X6322443Y-11383150D01*
X6322443Y-11383150D02*
X6284348Y-11383150D01*
X6284348Y-11383150D02*
X6265301Y-11392674D01*
X6351015Y-11506960D02*
X6331967Y-11516484D01*
X6331967Y-11516484D02*
X6284348Y-11516484D01*
X6284348Y-11516484D02*
X6265301Y-11506960D01*
X6265301Y-11506960D02*
X6255777Y-11487912D01*
X6255777Y-11487912D02*
X6255777Y-11468865D01*
X6255777Y-11468865D02*
X6265301Y-11449817D01*
X6265301Y-11449817D02*
X6284348Y-11440293D01*
X6284348Y-11440293D02*
X6331967Y-11440293D01*
X6331967Y-11440293D02*
X6351015Y-11430769D01*
X6446253Y-11383150D02*
X6446253Y-11583150D01*
X6446253Y-11392674D02*
X6465301Y-11383150D01*
X6465301Y-11383150D02*
X6503396Y-11383150D01*
X6503396Y-11383150D02*
X6522443Y-11392674D01*
X6522443Y-11392674D02*
X6531967Y-11402198D01*
X6531967Y-11402198D02*
X6541491Y-11421246D01*
X6541491Y-11421246D02*
X6541491Y-11478388D01*
X6541491Y-11478388D02*
X6531967Y-11497436D01*
X6531967Y-11497436D02*
X6522443Y-11506960D01*
X6522443Y-11506960D02*
X6503396Y-11516484D01*
X6503396Y-11516484D02*
X6465301Y-11516484D01*
X6465301Y-11516484D02*
X6446253Y-11506960D01*
X6627205Y-11497436D02*
X6636729Y-11506960D01*
X6636729Y-11506960D02*
X6627205Y-11516484D01*
X6627205Y-11516484D02*
X6617682Y-11506960D01*
X6617682Y-11506960D02*
X6627205Y-11497436D01*
X6627205Y-11497436D02*
X6627205Y-11516484D01*
X6627205Y-11392674D02*
X6636729Y-11402198D01*
X6636729Y-11402198D02*
X6627205Y-11411722D01*
X6627205Y-11411722D02*
X6617682Y-11402198D01*
X6617682Y-11402198D02*
X6627205Y-11392674D01*
X6627205Y-11392674D02*
X6627205Y-11411722D01*
D10*
X4965000Y-11830000D02*
X4995000Y-11860000D01*
X4995000Y-11830000D02*
X4965000Y-11860000D01*
D11*
X5293872Y-11736484D02*
X5312920Y-11736484D01*
X5312920Y-11736484D02*
X5331967Y-11746008D01*
X5331967Y-11746008D02*
X5341491Y-11755531D01*
X5341491Y-11755531D02*
X5351015Y-11774579D01*
X5351015Y-11774579D02*
X5360539Y-11812674D01*
X5360539Y-11812674D02*
X5360539Y-11860293D01*
X5360539Y-11860293D02*
X5351015Y-11898388D01*
X5351015Y-11898388D02*
X5341491Y-11917436D01*
X5341491Y-11917436D02*
X5331967Y-11926960D01*
X5331967Y-11926960D02*
X5312920Y-11936484D01*
X5312920Y-11936484D02*
X5293872Y-11936484D01*
X5293872Y-11936484D02*
X5274824Y-11926960D01*
X5274824Y-11926960D02*
X5265301Y-11917436D01*
X5265301Y-11917436D02*
X5255777Y-11898388D01*
X5255777Y-11898388D02*
X5246253Y-11860293D01*
X5246253Y-11860293D02*
X5246253Y-11812674D01*
X5246253Y-11812674D02*
X5255777Y-11774579D01*
X5255777Y-11774579D02*
X5265301Y-11755531D01*
X5265301Y-11755531D02*
X5274824Y-11746008D01*
X5274824Y-11746008D02*
X5293872Y-11736484D01*
X5446253Y-11917436D02*
X5455777Y-11926960D01*
X5455777Y-11926960D02*
X5446253Y-11936484D01*
X5446253Y-11936484D02*
X5436729Y-11926960D01*
X5436729Y-11926960D02*
X5446253Y-11917436D01*
X5446253Y-11917436D02*
X5446253Y-11936484D01*
X5522444Y-11736484D02*
X5646253Y-11736484D01*
X5646253Y-11736484D02*
X5579586Y-11812674D01*
X5579586Y-11812674D02*
X5608158Y-11812674D01*
X5608158Y-11812674D02*
X5627205Y-11822198D01*
X5627205Y-11822198D02*
X5636729Y-11831722D01*
X5636729Y-11831722D02*
X5646253Y-11850769D01*
X5646253Y-11850769D02*
X5646253Y-11898388D01*
X5646253Y-11898388D02*
X5636729Y-11917436D01*
X5636729Y-11917436D02*
X5627205Y-11926960D01*
X5627205Y-11926960D02*
X5608158Y-11936484D01*
X5608158Y-11936484D02*
X5551015Y-11936484D01*
X5551015Y-11936484D02*
X5531967Y-11926960D01*
X5531967Y-11926960D02*
X5522444Y-11917436D01*
X5770062Y-11736484D02*
X5789110Y-11736484D01*
X5789110Y-11736484D02*
X5808158Y-11746008D01*
X5808158Y-11746008D02*
X5817682Y-11755531D01*
X5817682Y-11755531D02*
X5827205Y-11774579D01*
X5827205Y-11774579D02*
X5836729Y-11812674D01*
X5836729Y-11812674D02*
X5836729Y-11860293D01*
X5836729Y-11860293D02*
X5827205Y-11898388D01*
X5827205Y-11898388D02*
X5817682Y-11917436D01*
X5817682Y-11917436D02*
X5808158Y-11926960D01*
X5808158Y-11926960D02*
X5789110Y-11936484D01*
X5789110Y-11936484D02*
X5770062Y-11936484D01*
X5770062Y-11936484D02*
X5751015Y-11926960D01*
X5751015Y-11926960D02*
X5741491Y-11917436D01*
X5741491Y-11917436D02*
X5731967Y-11898388D01*
X5731967Y-11898388D02*
X5722443Y-11860293D01*
X5722443Y-11860293D02*
X5722443Y-11812674D01*
X5722443Y-11812674D02*
X5731967Y-11774579D01*
X5731967Y-11774579D02*
X5741491Y-11755531D01*
X5741491Y-11755531D02*
X5751015Y-11746008D01*
X5751015Y-11746008D02*
X5770062Y-11736484D01*
X5960539Y-11736484D02*
X5979586Y-11736484D01*
X5979586Y-11736484D02*
X5998634Y-11746008D01*
X5998634Y-11746008D02*
X6008158Y-11755531D01*
X6008158Y-11755531D02*
X6017682Y-11774579D01*
X6017682Y-11774579D02*
X6027205Y-11812674D01*
X6027205Y-11812674D02*
X6027205Y-11860293D01*
X6027205Y-11860293D02*
X6017682Y-11898388D01*
X6017682Y-11898388D02*
X6008158Y-11917436D01*
X6008158Y-11917436D02*
X5998634Y-11926960D01*
X5998634Y-11926960D02*
X5979586Y-11936484D01*
X5979586Y-11936484D02*
X5960539Y-11936484D01*
X5960539Y-11936484D02*
X5941491Y-11926960D01*
X5941491Y-11926960D02*
X5931967Y-11917436D01*
X5931967Y-11917436D02*
X5922443Y-11898388D01*
X5922443Y-11898388D02*
X5912920Y-11860293D01*
X5912920Y-11860293D02*
X5912920Y-11812674D01*
X5912920Y-11812674D02*
X5922443Y-11774579D01*
X5922443Y-11774579D02*
X5931967Y-11755531D01*
X5931967Y-11755531D02*
X5941491Y-11746008D01*
X5941491Y-11746008D02*
X5960539Y-11736484D01*
X6112920Y-11936484D02*
X6112920Y-11803150D01*
X6112920Y-11822198D02*
X6122443Y-11812674D01*
X6122443Y-11812674D02*
X6141491Y-11803150D01*
X6141491Y-11803150D02*
X6170063Y-11803150D01*
X6170063Y-11803150D02*
X6189110Y-11812674D01*
X6189110Y-11812674D02*
X6198634Y-11831722D01*
X6198634Y-11831722D02*
X6198634Y-11936484D01*
X6198634Y-11831722D02*
X6208158Y-11812674D01*
X6208158Y-11812674D02*
X6227205Y-11803150D01*
X6227205Y-11803150D02*
X6255777Y-11803150D01*
X6255777Y-11803150D02*
X6274824Y-11812674D01*
X6274824Y-11812674D02*
X6284348Y-11831722D01*
X6284348Y-11831722D02*
X6284348Y-11936484D01*
X6379586Y-11936484D02*
X6379586Y-11803150D01*
X6379586Y-11822198D02*
X6389110Y-11812674D01*
X6389110Y-11812674D02*
X6408158Y-11803150D01*
X6408158Y-11803150D02*
X6436729Y-11803150D01*
X6436729Y-11803150D02*
X6455777Y-11812674D01*
X6455777Y-11812674D02*
X6465301Y-11831722D01*
X6465301Y-11831722D02*
X6465301Y-11936484D01*
X6465301Y-11831722D02*
X6474824Y-11812674D01*
X6474824Y-11812674D02*
X6493872Y-11803150D01*
X6493872Y-11803150D02*
X6522443Y-11803150D01*
X6522443Y-11803150D02*
X6541491Y-11812674D01*
X6541491Y-11812674D02*
X6551015Y-11831722D01*
X6551015Y-11831722D02*
X6551015Y-11936484D01*
X6941491Y-11726960D02*
X6770063Y-11984103D01*
X7198634Y-11736484D02*
X7217682Y-11736484D01*
X7217682Y-11736484D02*
X7236729Y-11746008D01*
X7236729Y-11746008D02*
X7246253Y-11755531D01*
X7246253Y-11755531D02*
X7255777Y-11774579D01*
X7255777Y-11774579D02*
X7265301Y-11812674D01*
X7265301Y-11812674D02*
X7265301Y-11860293D01*
X7265301Y-11860293D02*
X7255777Y-11898388D01*
X7255777Y-11898388D02*
X7246253Y-11917436D01*
X7246253Y-11917436D02*
X7236729Y-11926960D01*
X7236729Y-11926960D02*
X7217682Y-11936484D01*
X7217682Y-11936484D02*
X7198634Y-11936484D01*
X7198634Y-11936484D02*
X7179586Y-11926960D01*
X7179586Y-11926960D02*
X7170063Y-11917436D01*
X7170063Y-11917436D02*
X7160539Y-11898388D01*
X7160539Y-11898388D02*
X7151015Y-11860293D01*
X7151015Y-11860293D02*
X7151015Y-11812674D01*
X7151015Y-11812674D02*
X7160539Y-11774579D01*
X7160539Y-11774579D02*
X7170063Y-11755531D01*
X7170063Y-11755531D02*
X7179586Y-11746008D01*
X7179586Y-11746008D02*
X7198634Y-11736484D01*
X7351015Y-11917436D02*
X7360539Y-11926960D01*
X7360539Y-11926960D02*
X7351015Y-11936484D01*
X7351015Y-11936484D02*
X7341491Y-11926960D01*
X7341491Y-11926960D02*
X7351015Y-11917436D01*
X7351015Y-11917436D02*
X7351015Y-11936484D01*
X7484348Y-11736484D02*
X7503396Y-11736484D01*
X7503396Y-11736484D02*
X7522444Y-11746008D01*
X7522444Y-11746008D02*
X7531967Y-11755531D01*
X7531967Y-11755531D02*
X7541491Y-11774579D01*
X7541491Y-11774579D02*
X7551015Y-11812674D01*
X7551015Y-11812674D02*
X7551015Y-11860293D01*
X7551015Y-11860293D02*
X7541491Y-11898388D01*
X7541491Y-11898388D02*
X7531967Y-11917436D01*
X7531967Y-11917436D02*
X7522444Y-11926960D01*
X7522444Y-11926960D02*
X7503396Y-11936484D01*
X7503396Y-11936484D02*
X7484348Y-11936484D01*
X7484348Y-11936484D02*
X7465301Y-11926960D01*
X7465301Y-11926960D02*
X7455777Y-11917436D01*
X7455777Y-11917436D02*
X7446253Y-11898388D01*
X7446253Y-11898388D02*
X7436729Y-11860293D01*
X7436729Y-11860293D02*
X7436729Y-11812674D01*
X7436729Y-11812674D02*
X7446253Y-11774579D01*
X7446253Y-11774579D02*
X7455777Y-11755531D01*
X7455777Y-11755531D02*
X7465301Y-11746008D01*
X7465301Y-11746008D02*
X7484348Y-11736484D01*
X7741491Y-11936484D02*
X7627206Y-11936484D01*
X7684348Y-11936484D02*
X7684348Y-11736484D01*
X7684348Y-11736484D02*
X7665301Y-11765055D01*
X7665301Y-11765055D02*
X7646253Y-11784103D01*
X7646253Y-11784103D02*
X7627206Y-11793627D01*
X7931967Y-11936484D02*
X7817682Y-11936484D01*
X7874825Y-11936484D02*
X7874825Y-11736484D01*
X7874825Y-11736484D02*
X7855777Y-11765055D01*
X7855777Y-11765055D02*
X7836729Y-11784103D01*
X7836729Y-11784103D02*
X7817682Y-11793627D01*
X8046253Y-11822198D02*
X8027206Y-11812674D01*
X8027206Y-11812674D02*
X8017682Y-11803150D01*
X8017682Y-11803150D02*
X8008158Y-11784103D01*
X8008158Y-11784103D02*
X8008158Y-11774579D01*
X8008158Y-11774579D02*
X8017682Y-11755531D01*
X8017682Y-11755531D02*
X8027206Y-11746008D01*
X8027206Y-11746008D02*
X8046253Y-11736484D01*
X8046253Y-11736484D02*
X8084348Y-11736484D01*
X8084348Y-11736484D02*
X8103396Y-11746008D01*
X8103396Y-11746008D02*
X8112920Y-11755531D01*
X8112920Y-11755531D02*
X8122444Y-11774579D01*
X8122444Y-11774579D02*
X8122444Y-11784103D01*
X8122444Y-11784103D02*
X8112920Y-11803150D01*
X8112920Y-11803150D02*
X8103396Y-11812674D01*
X8103396Y-11812674D02*
X8084348Y-11822198D01*
X8084348Y-11822198D02*
X8046253Y-11822198D01*
X8046253Y-11822198D02*
X8027206Y-11831722D01*
X8027206Y-11831722D02*
X8017682Y-11841246D01*
X8017682Y-11841246D02*
X8008158Y-11860293D01*
X8008158Y-11860293D02*
X8008158Y-11898388D01*
X8008158Y-11898388D02*
X8017682Y-11917436D01*
X8017682Y-11917436D02*
X8027206Y-11926960D01*
X8027206Y-11926960D02*
X8046253Y-11936484D01*
X8046253Y-11936484D02*
X8084348Y-11936484D01*
X8084348Y-11936484D02*
X8103396Y-11926960D01*
X8103396Y-11926960D02*
X8112920Y-11917436D01*
X8112920Y-11917436D02*
X8122444Y-11898388D01*
X8122444Y-11898388D02*
X8122444Y-11860293D01*
X8122444Y-11860293D02*
X8112920Y-11841246D01*
X8112920Y-11841246D02*
X8103396Y-11831722D01*
X8103396Y-11831722D02*
X8084348Y-11822198D01*
X8198634Y-11736484D02*
X8198634Y-11774579D01*
X8274825Y-11736484D02*
X8274825Y-11774579D01*
X8570063Y-12012674D02*
X8560539Y-12003150D01*
X8560539Y-12003150D02*
X8541491Y-11974579D01*
X8541491Y-11974579D02*
X8531968Y-11955531D01*
X8531968Y-11955531D02*
X8522444Y-11926960D01*
X8522444Y-11926960D02*
X8512920Y-11879341D01*
X8512920Y-11879341D02*
X8512920Y-11841246D01*
X8512920Y-11841246D02*
X8522444Y-11793627D01*
X8522444Y-11793627D02*
X8531968Y-11765055D01*
X8531968Y-11765055D02*
X8541491Y-11746008D01*
X8541491Y-11746008D02*
X8560539Y-11717436D01*
X8560539Y-11717436D02*
X8570063Y-11707912D01*
X8627206Y-11736484D02*
X8751015Y-11736484D01*
X8751015Y-11736484D02*
X8684349Y-11812674D01*
X8684349Y-11812674D02*
X8712920Y-11812674D01*
X8712920Y-11812674D02*
X8731968Y-11822198D01*
X8731968Y-11822198D02*
X8741491Y-11831722D01*
X8741491Y-11831722D02*
X8751015Y-11850769D01*
X8751015Y-11850769D02*
X8751015Y-11898388D01*
X8751015Y-11898388D02*
X8741491Y-11917436D01*
X8741491Y-11917436D02*
X8731968Y-11926960D01*
X8731968Y-11926960D02*
X8712920Y-11936484D01*
X8712920Y-11936484D02*
X8655777Y-11936484D01*
X8655777Y-11936484D02*
X8636730Y-11926960D01*
X8636730Y-11926960D02*
X8627206Y-11917436D01*
X8865301Y-11822198D02*
X8846253Y-11812674D01*
X8846253Y-11812674D02*
X8836730Y-11803150D01*
X8836730Y-11803150D02*
X8827206Y-11784103D01*
X8827206Y-11784103D02*
X8827206Y-11774579D01*
X8827206Y-11774579D02*
X8836730Y-11755531D01*
X8836730Y-11755531D02*
X8846253Y-11746008D01*
X8846253Y-11746008D02*
X8865301Y-11736484D01*
X8865301Y-11736484D02*
X8903396Y-11736484D01*
X8903396Y-11736484D02*
X8922444Y-11746008D01*
X8922444Y-11746008D02*
X8931968Y-11755531D01*
X8931968Y-11755531D02*
X8941491Y-11774579D01*
X8941491Y-11774579D02*
X8941491Y-11784103D01*
X8941491Y-11784103D02*
X8931968Y-11803150D01*
X8931968Y-11803150D02*
X8922444Y-11812674D01*
X8922444Y-11812674D02*
X8903396Y-11822198D01*
X8903396Y-11822198D02*
X8865301Y-11822198D01*
X8865301Y-11822198D02*
X8846253Y-11831722D01*
X8846253Y-11831722D02*
X8836730Y-11841246D01*
X8836730Y-11841246D02*
X8827206Y-11860293D01*
X8827206Y-11860293D02*
X8827206Y-11898388D01*
X8827206Y-11898388D02*
X8836730Y-11917436D01*
X8836730Y-11917436D02*
X8846253Y-11926960D01*
X8846253Y-11926960D02*
X8865301Y-11936484D01*
X8865301Y-11936484D02*
X8903396Y-11936484D01*
X8903396Y-11936484D02*
X8922444Y-11926960D01*
X8922444Y-11926960D02*
X8931968Y-11917436D01*
X8931968Y-11917436D02*
X8941491Y-11898388D01*
X8941491Y-11898388D02*
X8941491Y-11860293D01*
X8941491Y-11860293D02*
X8931968Y-11841246D01*
X8931968Y-11841246D02*
X8922444Y-11831722D01*
X8922444Y-11831722D02*
X8903396Y-11822198D01*
X9112920Y-11736484D02*
X9074825Y-11736484D01*
X9074825Y-11736484D02*
X9055777Y-11746008D01*
X9055777Y-11746008D02*
X9046253Y-11755531D01*
X9046253Y-11755531D02*
X9027206Y-11784103D01*
X9027206Y-11784103D02*
X9017682Y-11822198D01*
X9017682Y-11822198D02*
X9017682Y-11898388D01*
X9017682Y-11898388D02*
X9027206Y-11917436D01*
X9027206Y-11917436D02*
X9036730Y-11926960D01*
X9036730Y-11926960D02*
X9055777Y-11936484D01*
X9055777Y-11936484D02*
X9093872Y-11936484D01*
X9093872Y-11936484D02*
X9112920Y-11926960D01*
X9112920Y-11926960D02*
X9122444Y-11917436D01*
X9122444Y-11917436D02*
X9131968Y-11898388D01*
X9131968Y-11898388D02*
X9131968Y-11850769D01*
X9131968Y-11850769D02*
X9122444Y-11831722D01*
X9122444Y-11831722D02*
X9112920Y-11822198D01*
X9112920Y-11822198D02*
X9093872Y-11812674D01*
X9093872Y-11812674D02*
X9055777Y-11812674D01*
X9055777Y-11812674D02*
X9036730Y-11822198D01*
X9036730Y-11822198D02*
X9027206Y-11831722D01*
X9027206Y-11831722D02*
X9017682Y-11850769D01*
X9370063Y-11936484D02*
X9370063Y-11736484D01*
X9455777Y-11936484D02*
X9455777Y-11831722D01*
X9455777Y-11831722D02*
X9446253Y-11812674D01*
X9446253Y-11812674D02*
X9427206Y-11803150D01*
X9427206Y-11803150D02*
X9398634Y-11803150D01*
X9398634Y-11803150D02*
X9379587Y-11812674D01*
X9379587Y-11812674D02*
X9370063Y-11822198D01*
X9579587Y-11936484D02*
X9560539Y-11926960D01*
X9560539Y-11926960D02*
X9551015Y-11917436D01*
X9551015Y-11917436D02*
X9541492Y-11898388D01*
X9541492Y-11898388D02*
X9541492Y-11841246D01*
X9541492Y-11841246D02*
X9551015Y-11822198D01*
X9551015Y-11822198D02*
X9560539Y-11812674D01*
X9560539Y-11812674D02*
X9579587Y-11803150D01*
X9579587Y-11803150D02*
X9608158Y-11803150D01*
X9608158Y-11803150D02*
X9627206Y-11812674D01*
X9627206Y-11812674D02*
X9636730Y-11822198D01*
X9636730Y-11822198D02*
X9646253Y-11841246D01*
X9646253Y-11841246D02*
X9646253Y-11898388D01*
X9646253Y-11898388D02*
X9636730Y-11917436D01*
X9636730Y-11917436D02*
X9627206Y-11926960D01*
X9627206Y-11926960D02*
X9608158Y-11936484D01*
X9608158Y-11936484D02*
X9579587Y-11936484D01*
X9760539Y-11936484D02*
X9741492Y-11926960D01*
X9741492Y-11926960D02*
X9731968Y-11907912D01*
X9731968Y-11907912D02*
X9731968Y-11736484D01*
X9912920Y-11926960D02*
X9893873Y-11936484D01*
X9893873Y-11936484D02*
X9855777Y-11936484D01*
X9855777Y-11936484D02*
X9836730Y-11926960D01*
X9836730Y-11926960D02*
X9827206Y-11907912D01*
X9827206Y-11907912D02*
X9827206Y-11831722D01*
X9827206Y-11831722D02*
X9836730Y-11812674D01*
X9836730Y-11812674D02*
X9855777Y-11803150D01*
X9855777Y-11803150D02*
X9893873Y-11803150D01*
X9893873Y-11803150D02*
X9912920Y-11812674D01*
X9912920Y-11812674D02*
X9922444Y-11831722D01*
X9922444Y-11831722D02*
X9922444Y-11850769D01*
X9922444Y-11850769D02*
X9827206Y-11869817D01*
X9998634Y-11926960D02*
X10017682Y-11936484D01*
X10017682Y-11936484D02*
X10055777Y-11936484D01*
X10055777Y-11936484D02*
X10074825Y-11926960D01*
X10074825Y-11926960D02*
X10084349Y-11907912D01*
X10084349Y-11907912D02*
X10084349Y-11898388D01*
X10084349Y-11898388D02*
X10074825Y-11879341D01*
X10074825Y-11879341D02*
X10055777Y-11869817D01*
X10055777Y-11869817D02*
X10027206Y-11869817D01*
X10027206Y-11869817D02*
X10008158Y-11860293D01*
X10008158Y-11860293D02*
X9998634Y-11841246D01*
X9998634Y-11841246D02*
X9998634Y-11831722D01*
X9998634Y-11831722D02*
X10008158Y-11812674D01*
X10008158Y-11812674D02*
X10027206Y-11803150D01*
X10027206Y-11803150D02*
X10055777Y-11803150D01*
X10055777Y-11803150D02*
X10074825Y-11812674D01*
X10151015Y-12012674D02*
X10160539Y-12003150D01*
X10160539Y-12003150D02*
X10179587Y-11974579D01*
X10179587Y-11974579D02*
X10189111Y-11955531D01*
X10189111Y-11955531D02*
X10198634Y-11926960D01*
X10198634Y-11926960D02*
X10208158Y-11879341D01*
X10208158Y-11879341D02*
X10208158Y-11841246D01*
X10208158Y-11841246D02*
X10198634Y-11793627D01*
X10198634Y-11793627D02*
X10189111Y-11765055D01*
X10189111Y-11765055D02*
X10179587Y-11746008D01*
X10179587Y-11746008D02*
X10160539Y-11717436D01*
X10160539Y-11717436D02*
X10151015Y-11707912D01*
D10*
X4995000Y-12109000D02*
G75*
G02*
X4965000Y-12109000I-15000J0D01*
G01*
X4965000Y-12109000D02*
G75*
G02*
X4995000Y-12109000I15000J0D01*
G01*
D11*
X5293872Y-12000484D02*
X5312920Y-12000484D01*
X5312920Y-12000484D02*
X5331967Y-12010008D01*
X5331967Y-12010008D02*
X5341491Y-12019531D01*
X5341491Y-12019531D02*
X5351015Y-12038579D01*
X5351015Y-12038579D02*
X5360539Y-12076674D01*
X5360539Y-12076674D02*
X5360539Y-12124293D01*
X5360539Y-12124293D02*
X5351015Y-12162388D01*
X5351015Y-12162388D02*
X5341491Y-12181436D01*
X5341491Y-12181436D02*
X5331967Y-12190960D01*
X5331967Y-12190960D02*
X5312920Y-12200484D01*
X5312920Y-12200484D02*
X5293872Y-12200484D01*
X5293872Y-12200484D02*
X5274824Y-12190960D01*
X5274824Y-12190960D02*
X5265301Y-12181436D01*
X5265301Y-12181436D02*
X5255777Y-12162388D01*
X5255777Y-12162388D02*
X5246253Y-12124293D01*
X5246253Y-12124293D02*
X5246253Y-12076674D01*
X5246253Y-12076674D02*
X5255777Y-12038579D01*
X5255777Y-12038579D02*
X5265301Y-12019531D01*
X5265301Y-12019531D02*
X5274824Y-12010008D01*
X5274824Y-12010008D02*
X5293872Y-12000484D01*
X5446253Y-12181436D02*
X5455777Y-12190960D01*
X5455777Y-12190960D02*
X5446253Y-12200484D01*
X5446253Y-12200484D02*
X5436729Y-12190960D01*
X5436729Y-12190960D02*
X5446253Y-12181436D01*
X5446253Y-12181436D02*
X5446253Y-12200484D01*
X5522444Y-12000484D02*
X5646253Y-12000484D01*
X5646253Y-12000484D02*
X5579586Y-12076674D01*
X5579586Y-12076674D02*
X5608158Y-12076674D01*
X5608158Y-12076674D02*
X5627205Y-12086198D01*
X5627205Y-12086198D02*
X5636729Y-12095722D01*
X5636729Y-12095722D02*
X5646253Y-12114769D01*
X5646253Y-12114769D02*
X5646253Y-12162388D01*
X5646253Y-12162388D02*
X5636729Y-12181436D01*
X5636729Y-12181436D02*
X5627205Y-12190960D01*
X5627205Y-12190960D02*
X5608158Y-12200484D01*
X5608158Y-12200484D02*
X5551015Y-12200484D01*
X5551015Y-12200484D02*
X5531967Y-12190960D01*
X5531967Y-12190960D02*
X5522444Y-12181436D01*
X5770062Y-12000484D02*
X5789110Y-12000484D01*
X5789110Y-12000484D02*
X5808158Y-12010008D01*
X5808158Y-12010008D02*
X5817682Y-12019531D01*
X5817682Y-12019531D02*
X5827205Y-12038579D01*
X5827205Y-12038579D02*
X5836729Y-12076674D01*
X5836729Y-12076674D02*
X5836729Y-12124293D01*
X5836729Y-12124293D02*
X5827205Y-12162388D01*
X5827205Y-12162388D02*
X5817682Y-12181436D01*
X5817682Y-12181436D02*
X5808158Y-12190960D01*
X5808158Y-12190960D02*
X5789110Y-12200484D01*
X5789110Y-12200484D02*
X5770062Y-12200484D01*
X5770062Y-12200484D02*
X5751015Y-12190960D01*
X5751015Y-12190960D02*
X5741491Y-12181436D01*
X5741491Y-12181436D02*
X5731967Y-12162388D01*
X5731967Y-12162388D02*
X5722443Y-12124293D01*
X5722443Y-12124293D02*
X5722443Y-12076674D01*
X5722443Y-12076674D02*
X5731967Y-12038579D01*
X5731967Y-12038579D02*
X5741491Y-12019531D01*
X5741491Y-12019531D02*
X5751015Y-12010008D01*
X5751015Y-12010008D02*
X5770062Y-12000484D01*
X5960539Y-12000484D02*
X5979586Y-12000484D01*
X5979586Y-12000484D02*
X5998634Y-12010008D01*
X5998634Y-12010008D02*
X6008158Y-12019531D01*
X6008158Y-12019531D02*
X6017682Y-12038579D01*
X6017682Y-12038579D02*
X6027205Y-12076674D01*
X6027205Y-12076674D02*
X6027205Y-12124293D01*
X6027205Y-12124293D02*
X6017682Y-12162388D01*
X6017682Y-12162388D02*
X6008158Y-12181436D01*
X6008158Y-12181436D02*
X5998634Y-12190960D01*
X5998634Y-12190960D02*
X5979586Y-12200484D01*
X5979586Y-12200484D02*
X5960539Y-12200484D01*
X5960539Y-12200484D02*
X5941491Y-12190960D01*
X5941491Y-12190960D02*
X5931967Y-12181436D01*
X5931967Y-12181436D02*
X5922443Y-12162388D01*
X5922443Y-12162388D02*
X5912920Y-12124293D01*
X5912920Y-12124293D02*
X5912920Y-12076674D01*
X5912920Y-12076674D02*
X5922443Y-12038579D01*
X5922443Y-12038579D02*
X5931967Y-12019531D01*
X5931967Y-12019531D02*
X5941491Y-12010008D01*
X5941491Y-12010008D02*
X5960539Y-12000484D01*
X6112920Y-12200484D02*
X6112920Y-12067150D01*
X6112920Y-12086198D02*
X6122443Y-12076674D01*
X6122443Y-12076674D02*
X6141491Y-12067150D01*
X6141491Y-12067150D02*
X6170063Y-12067150D01*
X6170063Y-12067150D02*
X6189110Y-12076674D01*
X6189110Y-12076674D02*
X6198634Y-12095722D01*
X6198634Y-12095722D02*
X6198634Y-12200484D01*
X6198634Y-12095722D02*
X6208158Y-12076674D01*
X6208158Y-12076674D02*
X6227205Y-12067150D01*
X6227205Y-12067150D02*
X6255777Y-12067150D01*
X6255777Y-12067150D02*
X6274824Y-12076674D01*
X6274824Y-12076674D02*
X6284348Y-12095722D01*
X6284348Y-12095722D02*
X6284348Y-12200484D01*
X6379586Y-12200484D02*
X6379586Y-12067150D01*
X6379586Y-12086198D02*
X6389110Y-12076674D01*
X6389110Y-12076674D02*
X6408158Y-12067150D01*
X6408158Y-12067150D02*
X6436729Y-12067150D01*
X6436729Y-12067150D02*
X6455777Y-12076674D01*
X6455777Y-12076674D02*
X6465301Y-12095722D01*
X6465301Y-12095722D02*
X6465301Y-12200484D01*
X6465301Y-12095722D02*
X6474824Y-12076674D01*
X6474824Y-12076674D02*
X6493872Y-12067150D01*
X6493872Y-12067150D02*
X6522443Y-12067150D01*
X6522443Y-12067150D02*
X6541491Y-12076674D01*
X6541491Y-12076674D02*
X6551015Y-12095722D01*
X6551015Y-12095722D02*
X6551015Y-12200484D01*
X6941491Y-11990960D02*
X6770063Y-12248103D01*
X7198634Y-12000484D02*
X7217682Y-12000484D01*
X7217682Y-12000484D02*
X7236729Y-12010008D01*
X7236729Y-12010008D02*
X7246253Y-12019531D01*
X7246253Y-12019531D02*
X7255777Y-12038579D01*
X7255777Y-12038579D02*
X7265301Y-12076674D01*
X7265301Y-12076674D02*
X7265301Y-12124293D01*
X7265301Y-12124293D02*
X7255777Y-12162388D01*
X7255777Y-12162388D02*
X7246253Y-12181436D01*
X7246253Y-12181436D02*
X7236729Y-12190960D01*
X7236729Y-12190960D02*
X7217682Y-12200484D01*
X7217682Y-12200484D02*
X7198634Y-12200484D01*
X7198634Y-12200484D02*
X7179586Y-12190960D01*
X7179586Y-12190960D02*
X7170063Y-12181436D01*
X7170063Y-12181436D02*
X7160539Y-12162388D01*
X7160539Y-12162388D02*
X7151015Y-12124293D01*
X7151015Y-12124293D02*
X7151015Y-12076674D01*
X7151015Y-12076674D02*
X7160539Y-12038579D01*
X7160539Y-12038579D02*
X7170063Y-12019531D01*
X7170063Y-12019531D02*
X7179586Y-12010008D01*
X7179586Y-12010008D02*
X7198634Y-12000484D01*
X7351015Y-12181436D02*
X7360539Y-12190960D01*
X7360539Y-12190960D02*
X7351015Y-12200484D01*
X7351015Y-12200484D02*
X7341491Y-12190960D01*
X7341491Y-12190960D02*
X7351015Y-12181436D01*
X7351015Y-12181436D02*
X7351015Y-12200484D01*
X7484348Y-12000484D02*
X7503396Y-12000484D01*
X7503396Y-12000484D02*
X7522444Y-12010008D01*
X7522444Y-12010008D02*
X7531967Y-12019531D01*
X7531967Y-12019531D02*
X7541491Y-12038579D01*
X7541491Y-12038579D02*
X7551015Y-12076674D01*
X7551015Y-12076674D02*
X7551015Y-12124293D01*
X7551015Y-12124293D02*
X7541491Y-12162388D01*
X7541491Y-12162388D02*
X7531967Y-12181436D01*
X7531967Y-12181436D02*
X7522444Y-12190960D01*
X7522444Y-12190960D02*
X7503396Y-12200484D01*
X7503396Y-12200484D02*
X7484348Y-12200484D01*
X7484348Y-12200484D02*
X7465301Y-12190960D01*
X7465301Y-12190960D02*
X7455777Y-12181436D01*
X7455777Y-12181436D02*
X7446253Y-12162388D01*
X7446253Y-12162388D02*
X7436729Y-12124293D01*
X7436729Y-12124293D02*
X7436729Y-12076674D01*
X7436729Y-12076674D02*
X7446253Y-12038579D01*
X7446253Y-12038579D02*
X7455777Y-12019531D01*
X7455777Y-12019531D02*
X7465301Y-12010008D01*
X7465301Y-12010008D02*
X7484348Y-12000484D01*
X7741491Y-12200484D02*
X7627206Y-12200484D01*
X7684348Y-12200484D02*
X7684348Y-12000484D01*
X7684348Y-12000484D02*
X7665301Y-12029055D01*
X7665301Y-12029055D02*
X7646253Y-12048103D01*
X7646253Y-12048103D02*
X7627206Y-12057627D01*
X7931967Y-12200484D02*
X7817682Y-12200484D01*
X7874825Y-12200484D02*
X7874825Y-12000484D01*
X7874825Y-12000484D02*
X7855777Y-12029055D01*
X7855777Y-12029055D02*
X7836729Y-12048103D01*
X7836729Y-12048103D02*
X7817682Y-12057627D01*
X8046253Y-12086198D02*
X8027206Y-12076674D01*
X8027206Y-12076674D02*
X8017682Y-12067150D01*
X8017682Y-12067150D02*
X8008158Y-12048103D01*
X8008158Y-12048103D02*
X8008158Y-12038579D01*
X8008158Y-12038579D02*
X8017682Y-12019531D01*
X8017682Y-12019531D02*
X8027206Y-12010008D01*
X8027206Y-12010008D02*
X8046253Y-12000484D01*
X8046253Y-12000484D02*
X8084348Y-12000484D01*
X8084348Y-12000484D02*
X8103396Y-12010008D01*
X8103396Y-12010008D02*
X8112920Y-12019531D01*
X8112920Y-12019531D02*
X8122444Y-12038579D01*
X8122444Y-12038579D02*
X8122444Y-12048103D01*
X8122444Y-12048103D02*
X8112920Y-12067150D01*
X8112920Y-12067150D02*
X8103396Y-12076674D01*
X8103396Y-12076674D02*
X8084348Y-12086198D01*
X8084348Y-12086198D02*
X8046253Y-12086198D01*
X8046253Y-12086198D02*
X8027206Y-12095722D01*
X8027206Y-12095722D02*
X8017682Y-12105246D01*
X8017682Y-12105246D02*
X8008158Y-12124293D01*
X8008158Y-12124293D02*
X8008158Y-12162388D01*
X8008158Y-12162388D02*
X8017682Y-12181436D01*
X8017682Y-12181436D02*
X8027206Y-12190960D01*
X8027206Y-12190960D02*
X8046253Y-12200484D01*
X8046253Y-12200484D02*
X8084348Y-12200484D01*
X8084348Y-12200484D02*
X8103396Y-12190960D01*
X8103396Y-12190960D02*
X8112920Y-12181436D01*
X8112920Y-12181436D02*
X8122444Y-12162388D01*
X8122444Y-12162388D02*
X8122444Y-12124293D01*
X8122444Y-12124293D02*
X8112920Y-12105246D01*
X8112920Y-12105246D02*
X8103396Y-12095722D01*
X8103396Y-12095722D02*
X8084348Y-12086198D01*
X8198634Y-12000484D02*
X8198634Y-12038579D01*
X8274825Y-12000484D02*
X8274825Y-12038579D01*
X8570063Y-12276674D02*
X8560539Y-12267150D01*
X8560539Y-12267150D02*
X8541491Y-12238579D01*
X8541491Y-12238579D02*
X8531968Y-12219531D01*
X8531968Y-12219531D02*
X8522444Y-12190960D01*
X8522444Y-12190960D02*
X8512920Y-12143341D01*
X8512920Y-12143341D02*
X8512920Y-12105246D01*
X8512920Y-12105246D02*
X8522444Y-12057627D01*
X8522444Y-12057627D02*
X8531968Y-12029055D01*
X8531968Y-12029055D02*
X8541491Y-12010008D01*
X8541491Y-12010008D02*
X8560539Y-11981436D01*
X8560539Y-11981436D02*
X8570063Y-11971912D01*
X8655777Y-12200484D02*
X8693872Y-12200484D01*
X8693872Y-12200484D02*
X8712920Y-12190960D01*
X8712920Y-12190960D02*
X8722444Y-12181436D01*
X8722444Y-12181436D02*
X8741491Y-12152865D01*
X8741491Y-12152865D02*
X8751015Y-12114769D01*
X8751015Y-12114769D02*
X8751015Y-12038579D01*
X8751015Y-12038579D02*
X8741491Y-12019531D01*
X8741491Y-12019531D02*
X8731968Y-12010008D01*
X8731968Y-12010008D02*
X8712920Y-12000484D01*
X8712920Y-12000484D02*
X8674825Y-12000484D01*
X8674825Y-12000484D02*
X8655777Y-12010008D01*
X8655777Y-12010008D02*
X8646253Y-12019531D01*
X8646253Y-12019531D02*
X8636730Y-12038579D01*
X8636730Y-12038579D02*
X8636730Y-12086198D01*
X8636730Y-12086198D02*
X8646253Y-12105246D01*
X8646253Y-12105246D02*
X8655777Y-12114769D01*
X8655777Y-12114769D02*
X8674825Y-12124293D01*
X8674825Y-12124293D02*
X8712920Y-12124293D01*
X8712920Y-12124293D02*
X8731968Y-12114769D01*
X8731968Y-12114769D02*
X8741491Y-12105246D01*
X8741491Y-12105246D02*
X8751015Y-12086198D01*
X8989111Y-12200484D02*
X8989111Y-12000484D01*
X9074825Y-12200484D02*
X9074825Y-12095722D01*
X9074825Y-12095722D02*
X9065301Y-12076674D01*
X9065301Y-12076674D02*
X9046253Y-12067150D01*
X9046253Y-12067150D02*
X9017682Y-12067150D01*
X9017682Y-12067150D02*
X8998634Y-12076674D01*
X8998634Y-12076674D02*
X8989111Y-12086198D01*
X9198634Y-12200484D02*
X9179587Y-12190960D01*
X9179587Y-12190960D02*
X9170063Y-12181436D01*
X9170063Y-12181436D02*
X9160539Y-12162388D01*
X9160539Y-12162388D02*
X9160539Y-12105246D01*
X9160539Y-12105246D02*
X9170063Y-12086198D01*
X9170063Y-12086198D02*
X9179587Y-12076674D01*
X9179587Y-12076674D02*
X9198634Y-12067150D01*
X9198634Y-12067150D02*
X9227206Y-12067150D01*
X9227206Y-12067150D02*
X9246253Y-12076674D01*
X9246253Y-12076674D02*
X9255777Y-12086198D01*
X9255777Y-12086198D02*
X9265301Y-12105246D01*
X9265301Y-12105246D02*
X9265301Y-12162388D01*
X9265301Y-12162388D02*
X9255777Y-12181436D01*
X9255777Y-12181436D02*
X9246253Y-12190960D01*
X9246253Y-12190960D02*
X9227206Y-12200484D01*
X9227206Y-12200484D02*
X9198634Y-12200484D01*
X9379587Y-12200484D02*
X9360539Y-12190960D01*
X9360539Y-12190960D02*
X9351015Y-12171912D01*
X9351015Y-12171912D02*
X9351015Y-12000484D01*
X9531968Y-12190960D02*
X9512920Y-12200484D01*
X9512920Y-12200484D02*
X9474825Y-12200484D01*
X9474825Y-12200484D02*
X9455777Y-12190960D01*
X9455777Y-12190960D02*
X9446253Y-12171912D01*
X9446253Y-12171912D02*
X9446253Y-12095722D01*
X9446253Y-12095722D02*
X9455777Y-12076674D01*
X9455777Y-12076674D02*
X9474825Y-12067150D01*
X9474825Y-12067150D02*
X9512920Y-12067150D01*
X9512920Y-12067150D02*
X9531968Y-12076674D01*
X9531968Y-12076674D02*
X9541492Y-12095722D01*
X9541492Y-12095722D02*
X9541492Y-12114769D01*
X9541492Y-12114769D02*
X9446253Y-12133817D01*
X9617682Y-12190960D02*
X9636730Y-12200484D01*
X9636730Y-12200484D02*
X9674825Y-12200484D01*
X9674825Y-12200484D02*
X9693873Y-12190960D01*
X9693873Y-12190960D02*
X9703396Y-12171912D01*
X9703396Y-12171912D02*
X9703396Y-12162388D01*
X9703396Y-12162388D02*
X9693873Y-12143341D01*
X9693873Y-12143341D02*
X9674825Y-12133817D01*
X9674825Y-12133817D02*
X9646253Y-12133817D01*
X9646253Y-12133817D02*
X9627206Y-12124293D01*
X9627206Y-12124293D02*
X9617682Y-12105246D01*
X9617682Y-12105246D02*
X9617682Y-12095722D01*
X9617682Y-12095722D02*
X9627206Y-12076674D01*
X9627206Y-12076674D02*
X9646253Y-12067150D01*
X9646253Y-12067150D02*
X9674825Y-12067150D01*
X9674825Y-12067150D02*
X9693873Y-12076674D01*
X9770063Y-12276674D02*
X9779587Y-12267150D01*
X9779587Y-12267150D02*
X9798634Y-12238579D01*
X9798634Y-12238579D02*
X9808158Y-12219531D01*
X9808158Y-12219531D02*
X9817682Y-12190960D01*
X9817682Y-12190960D02*
X9827206Y-12143341D01*
X9827206Y-12143341D02*
X9827206Y-12105246D01*
X9827206Y-12105246D02*
X9817682Y-12057627D01*
X9817682Y-12057627D02*
X9808158Y-12029055D01*
X9808158Y-12029055D02*
X9798634Y-12010008D01*
X9798634Y-12010008D02*
X9779587Y-11981436D01*
X9779587Y-11981436D02*
X9770063Y-11971912D01*
D10*
X4965000Y-12343000D02*
X4965000Y-12403000D01*
X4935000Y-12373000D02*
X4995000Y-12373000D01*
D11*
X5293872Y-12264484D02*
X5312920Y-12264484D01*
X5312920Y-12264484D02*
X5331967Y-12274008D01*
X5331967Y-12274008D02*
X5341491Y-12283531D01*
X5341491Y-12283531D02*
X5351015Y-12302579D01*
X5351015Y-12302579D02*
X5360539Y-12340674D01*
X5360539Y-12340674D02*
X5360539Y-12388293D01*
X5360539Y-12388293D02*
X5351015Y-12426388D01*
X5351015Y-12426388D02*
X5341491Y-12445436D01*
X5341491Y-12445436D02*
X5331967Y-12454960D01*
X5331967Y-12454960D02*
X5312920Y-12464484D01*
X5312920Y-12464484D02*
X5293872Y-12464484D01*
X5293872Y-12464484D02*
X5274824Y-12454960D01*
X5274824Y-12454960D02*
X5265301Y-12445436D01*
X5265301Y-12445436D02*
X5255777Y-12426388D01*
X5255777Y-12426388D02*
X5246253Y-12388293D01*
X5246253Y-12388293D02*
X5246253Y-12340674D01*
X5246253Y-12340674D02*
X5255777Y-12302579D01*
X5255777Y-12302579D02*
X5265301Y-12283531D01*
X5265301Y-12283531D02*
X5274824Y-12274008D01*
X5274824Y-12274008D02*
X5293872Y-12264484D01*
X5446253Y-12445436D02*
X5455777Y-12454960D01*
X5455777Y-12454960D02*
X5446253Y-12464484D01*
X5446253Y-12464484D02*
X5436729Y-12454960D01*
X5436729Y-12454960D02*
X5446253Y-12445436D01*
X5446253Y-12445436D02*
X5446253Y-12464484D01*
X5627205Y-12264484D02*
X5589110Y-12264484D01*
X5589110Y-12264484D02*
X5570063Y-12274008D01*
X5570063Y-12274008D02*
X5560539Y-12283531D01*
X5560539Y-12283531D02*
X5541491Y-12312103D01*
X5541491Y-12312103D02*
X5531967Y-12350198D01*
X5531967Y-12350198D02*
X5531967Y-12426388D01*
X5531967Y-12426388D02*
X5541491Y-12445436D01*
X5541491Y-12445436D02*
X5551015Y-12454960D01*
X5551015Y-12454960D02*
X5570063Y-12464484D01*
X5570063Y-12464484D02*
X5608158Y-12464484D01*
X5608158Y-12464484D02*
X5627205Y-12454960D01*
X5627205Y-12454960D02*
X5636729Y-12445436D01*
X5636729Y-12445436D02*
X5646253Y-12426388D01*
X5646253Y-12426388D02*
X5646253Y-12378769D01*
X5646253Y-12378769D02*
X5636729Y-12359722D01*
X5636729Y-12359722D02*
X5627205Y-12350198D01*
X5627205Y-12350198D02*
X5608158Y-12340674D01*
X5608158Y-12340674D02*
X5570063Y-12340674D01*
X5570063Y-12340674D02*
X5551015Y-12350198D01*
X5551015Y-12350198D02*
X5541491Y-12359722D01*
X5541491Y-12359722D02*
X5531967Y-12378769D01*
X5770062Y-12264484D02*
X5789110Y-12264484D01*
X5789110Y-12264484D02*
X5808158Y-12274008D01*
X5808158Y-12274008D02*
X5817682Y-12283531D01*
X5817682Y-12283531D02*
X5827205Y-12302579D01*
X5827205Y-12302579D02*
X5836729Y-12340674D01*
X5836729Y-12340674D02*
X5836729Y-12388293D01*
X5836729Y-12388293D02*
X5827205Y-12426388D01*
X5827205Y-12426388D02*
X5817682Y-12445436D01*
X5817682Y-12445436D02*
X5808158Y-12454960D01*
X5808158Y-12454960D02*
X5789110Y-12464484D01*
X5789110Y-12464484D02*
X5770062Y-12464484D01*
X5770062Y-12464484D02*
X5751015Y-12454960D01*
X5751015Y-12454960D02*
X5741491Y-12445436D01*
X5741491Y-12445436D02*
X5731967Y-12426388D01*
X5731967Y-12426388D02*
X5722443Y-12388293D01*
X5722443Y-12388293D02*
X5722443Y-12340674D01*
X5722443Y-12340674D02*
X5731967Y-12302579D01*
X5731967Y-12302579D02*
X5741491Y-12283531D01*
X5741491Y-12283531D02*
X5751015Y-12274008D01*
X5751015Y-12274008D02*
X5770062Y-12264484D01*
X5960539Y-12264484D02*
X5979586Y-12264484D01*
X5979586Y-12264484D02*
X5998634Y-12274008D01*
X5998634Y-12274008D02*
X6008158Y-12283531D01*
X6008158Y-12283531D02*
X6017682Y-12302579D01*
X6017682Y-12302579D02*
X6027205Y-12340674D01*
X6027205Y-12340674D02*
X6027205Y-12388293D01*
X6027205Y-12388293D02*
X6017682Y-12426388D01*
X6017682Y-12426388D02*
X6008158Y-12445436D01*
X6008158Y-12445436D02*
X5998634Y-12454960D01*
X5998634Y-12454960D02*
X5979586Y-12464484D01*
X5979586Y-12464484D02*
X5960539Y-12464484D01*
X5960539Y-12464484D02*
X5941491Y-12454960D01*
X5941491Y-12454960D02*
X5931967Y-12445436D01*
X5931967Y-12445436D02*
X5922443Y-12426388D01*
X5922443Y-12426388D02*
X5912920Y-12388293D01*
X5912920Y-12388293D02*
X5912920Y-12340674D01*
X5912920Y-12340674D02*
X5922443Y-12302579D01*
X5922443Y-12302579D02*
X5931967Y-12283531D01*
X5931967Y-12283531D02*
X5941491Y-12274008D01*
X5941491Y-12274008D02*
X5960539Y-12264484D01*
X6112920Y-12464484D02*
X6112920Y-12331150D01*
X6112920Y-12350198D02*
X6122443Y-12340674D01*
X6122443Y-12340674D02*
X6141491Y-12331150D01*
X6141491Y-12331150D02*
X6170063Y-12331150D01*
X6170063Y-12331150D02*
X6189110Y-12340674D01*
X6189110Y-12340674D02*
X6198634Y-12359722D01*
X6198634Y-12359722D02*
X6198634Y-12464484D01*
X6198634Y-12359722D02*
X6208158Y-12340674D01*
X6208158Y-12340674D02*
X6227205Y-12331150D01*
X6227205Y-12331150D02*
X6255777Y-12331150D01*
X6255777Y-12331150D02*
X6274824Y-12340674D01*
X6274824Y-12340674D02*
X6284348Y-12359722D01*
X6284348Y-12359722D02*
X6284348Y-12464484D01*
X6379586Y-12464484D02*
X6379586Y-12331150D01*
X6379586Y-12350198D02*
X6389110Y-12340674D01*
X6389110Y-12340674D02*
X6408158Y-12331150D01*
X6408158Y-12331150D02*
X6436729Y-12331150D01*
X6436729Y-12331150D02*
X6455777Y-12340674D01*
X6455777Y-12340674D02*
X6465301Y-12359722D01*
X6465301Y-12359722D02*
X6465301Y-12464484D01*
X6465301Y-12359722D02*
X6474824Y-12340674D01*
X6474824Y-12340674D02*
X6493872Y-12331150D01*
X6493872Y-12331150D02*
X6522443Y-12331150D01*
X6522443Y-12331150D02*
X6541491Y-12340674D01*
X6541491Y-12340674D02*
X6551015Y-12359722D01*
X6551015Y-12359722D02*
X6551015Y-12464484D01*
X6941491Y-12254960D02*
X6770063Y-12512103D01*
X7198634Y-12264484D02*
X7217682Y-12264484D01*
X7217682Y-12264484D02*
X7236729Y-12274008D01*
X7236729Y-12274008D02*
X7246253Y-12283531D01*
X7246253Y-12283531D02*
X7255777Y-12302579D01*
X7255777Y-12302579D02*
X7265301Y-12340674D01*
X7265301Y-12340674D02*
X7265301Y-12388293D01*
X7265301Y-12388293D02*
X7255777Y-12426388D01*
X7255777Y-12426388D02*
X7246253Y-12445436D01*
X7246253Y-12445436D02*
X7236729Y-12454960D01*
X7236729Y-12454960D02*
X7217682Y-12464484D01*
X7217682Y-12464484D02*
X7198634Y-12464484D01*
X7198634Y-12464484D02*
X7179586Y-12454960D01*
X7179586Y-12454960D02*
X7170063Y-12445436D01*
X7170063Y-12445436D02*
X7160539Y-12426388D01*
X7160539Y-12426388D02*
X7151015Y-12388293D01*
X7151015Y-12388293D02*
X7151015Y-12340674D01*
X7151015Y-12340674D02*
X7160539Y-12302579D01*
X7160539Y-12302579D02*
X7170063Y-12283531D01*
X7170063Y-12283531D02*
X7179586Y-12274008D01*
X7179586Y-12274008D02*
X7198634Y-12264484D01*
X7351015Y-12445436D02*
X7360539Y-12454960D01*
X7360539Y-12454960D02*
X7351015Y-12464484D01*
X7351015Y-12464484D02*
X7341491Y-12454960D01*
X7341491Y-12454960D02*
X7351015Y-12445436D01*
X7351015Y-12445436D02*
X7351015Y-12464484D01*
X7484348Y-12264484D02*
X7503396Y-12264484D01*
X7503396Y-12264484D02*
X7522444Y-12274008D01*
X7522444Y-12274008D02*
X7531967Y-12283531D01*
X7531967Y-12283531D02*
X7541491Y-12302579D01*
X7541491Y-12302579D02*
X7551015Y-12340674D01*
X7551015Y-12340674D02*
X7551015Y-12388293D01*
X7551015Y-12388293D02*
X7541491Y-12426388D01*
X7541491Y-12426388D02*
X7531967Y-12445436D01*
X7531967Y-12445436D02*
X7522444Y-12454960D01*
X7522444Y-12454960D02*
X7503396Y-12464484D01*
X7503396Y-12464484D02*
X7484348Y-12464484D01*
X7484348Y-12464484D02*
X7465301Y-12454960D01*
X7465301Y-12454960D02*
X7455777Y-12445436D01*
X7455777Y-12445436D02*
X7446253Y-12426388D01*
X7446253Y-12426388D02*
X7436729Y-12388293D01*
X7436729Y-12388293D02*
X7436729Y-12340674D01*
X7436729Y-12340674D02*
X7446253Y-12302579D01*
X7446253Y-12302579D02*
X7455777Y-12283531D01*
X7455777Y-12283531D02*
X7465301Y-12274008D01*
X7465301Y-12274008D02*
X7484348Y-12264484D01*
X7627206Y-12283531D02*
X7636729Y-12274008D01*
X7636729Y-12274008D02*
X7655777Y-12264484D01*
X7655777Y-12264484D02*
X7703396Y-12264484D01*
X7703396Y-12264484D02*
X7722444Y-12274008D01*
X7722444Y-12274008D02*
X7731967Y-12283531D01*
X7731967Y-12283531D02*
X7741491Y-12302579D01*
X7741491Y-12302579D02*
X7741491Y-12321627D01*
X7741491Y-12321627D02*
X7731967Y-12350198D01*
X7731967Y-12350198D02*
X7617682Y-12464484D01*
X7617682Y-12464484D02*
X7741491Y-12464484D01*
X7808158Y-12264484D02*
X7931967Y-12264484D01*
X7931967Y-12264484D02*
X7865301Y-12340674D01*
X7865301Y-12340674D02*
X7893872Y-12340674D01*
X7893872Y-12340674D02*
X7912920Y-12350198D01*
X7912920Y-12350198D02*
X7922444Y-12359722D01*
X7922444Y-12359722D02*
X7931967Y-12378769D01*
X7931967Y-12378769D02*
X7931967Y-12426388D01*
X7931967Y-12426388D02*
X7922444Y-12445436D01*
X7922444Y-12445436D02*
X7912920Y-12454960D01*
X7912920Y-12454960D02*
X7893872Y-12464484D01*
X7893872Y-12464484D02*
X7836729Y-12464484D01*
X7836729Y-12464484D02*
X7817682Y-12454960D01*
X7817682Y-12454960D02*
X7808158Y-12445436D01*
X8103396Y-12264484D02*
X8065301Y-12264484D01*
X8065301Y-12264484D02*
X8046253Y-12274008D01*
X8046253Y-12274008D02*
X8036729Y-12283531D01*
X8036729Y-12283531D02*
X8017682Y-12312103D01*
X8017682Y-12312103D02*
X8008158Y-12350198D01*
X8008158Y-12350198D02*
X8008158Y-12426388D01*
X8008158Y-12426388D02*
X8017682Y-12445436D01*
X8017682Y-12445436D02*
X8027206Y-12454960D01*
X8027206Y-12454960D02*
X8046253Y-12464484D01*
X8046253Y-12464484D02*
X8084348Y-12464484D01*
X8084348Y-12464484D02*
X8103396Y-12454960D01*
X8103396Y-12454960D02*
X8112920Y-12445436D01*
X8112920Y-12445436D02*
X8122444Y-12426388D01*
X8122444Y-12426388D02*
X8122444Y-12378769D01*
X8122444Y-12378769D02*
X8112920Y-12359722D01*
X8112920Y-12359722D02*
X8103396Y-12350198D01*
X8103396Y-12350198D02*
X8084348Y-12340674D01*
X8084348Y-12340674D02*
X8046253Y-12340674D01*
X8046253Y-12340674D02*
X8027206Y-12350198D01*
X8027206Y-12350198D02*
X8017682Y-12359722D01*
X8017682Y-12359722D02*
X8008158Y-12378769D01*
X8198634Y-12264484D02*
X8198634Y-12302579D01*
X8274825Y-12264484D02*
X8274825Y-12302579D01*
X8570063Y-12540674D02*
X8560539Y-12531150D01*
X8560539Y-12531150D02*
X8541491Y-12502579D01*
X8541491Y-12502579D02*
X8531968Y-12483531D01*
X8531968Y-12483531D02*
X8522444Y-12454960D01*
X8522444Y-12454960D02*
X8512920Y-12407341D01*
X8512920Y-12407341D02*
X8512920Y-12369246D01*
X8512920Y-12369246D02*
X8522444Y-12321627D01*
X8522444Y-12321627D02*
X8531968Y-12293055D01*
X8531968Y-12293055D02*
X8541491Y-12274008D01*
X8541491Y-12274008D02*
X8560539Y-12245436D01*
X8560539Y-12245436D02*
X8570063Y-12235912D01*
X8684349Y-12264484D02*
X8703396Y-12264484D01*
X8703396Y-12264484D02*
X8722444Y-12274008D01*
X8722444Y-12274008D02*
X8731968Y-12283531D01*
X8731968Y-12283531D02*
X8741491Y-12302579D01*
X8741491Y-12302579D02*
X8751015Y-12340674D01*
X8751015Y-12340674D02*
X8751015Y-12388293D01*
X8751015Y-12388293D02*
X8741491Y-12426388D01*
X8741491Y-12426388D02*
X8731968Y-12445436D01*
X8731968Y-12445436D02*
X8722444Y-12454960D01*
X8722444Y-12454960D02*
X8703396Y-12464484D01*
X8703396Y-12464484D02*
X8684349Y-12464484D01*
X8684349Y-12464484D02*
X8665301Y-12454960D01*
X8665301Y-12454960D02*
X8655777Y-12445436D01*
X8655777Y-12445436D02*
X8646253Y-12426388D01*
X8646253Y-12426388D02*
X8636730Y-12388293D01*
X8636730Y-12388293D02*
X8636730Y-12340674D01*
X8636730Y-12340674D02*
X8646253Y-12302579D01*
X8646253Y-12302579D02*
X8655777Y-12283531D01*
X8655777Y-12283531D02*
X8665301Y-12274008D01*
X8665301Y-12274008D02*
X8684349Y-12264484D01*
X8989111Y-12464484D02*
X8989111Y-12264484D01*
X9074825Y-12464484D02*
X9074825Y-12359722D01*
X9074825Y-12359722D02*
X9065301Y-12340674D01*
X9065301Y-12340674D02*
X9046253Y-12331150D01*
X9046253Y-12331150D02*
X9017682Y-12331150D01*
X9017682Y-12331150D02*
X8998634Y-12340674D01*
X8998634Y-12340674D02*
X8989111Y-12350198D01*
X9198634Y-12464484D02*
X9179587Y-12454960D01*
X9179587Y-12454960D02*
X9170063Y-12445436D01*
X9170063Y-12445436D02*
X9160539Y-12426388D01*
X9160539Y-12426388D02*
X9160539Y-12369246D01*
X9160539Y-12369246D02*
X9170063Y-12350198D01*
X9170063Y-12350198D02*
X9179587Y-12340674D01*
X9179587Y-12340674D02*
X9198634Y-12331150D01*
X9198634Y-12331150D02*
X9227206Y-12331150D01*
X9227206Y-12331150D02*
X9246253Y-12340674D01*
X9246253Y-12340674D02*
X9255777Y-12350198D01*
X9255777Y-12350198D02*
X9265301Y-12369246D01*
X9265301Y-12369246D02*
X9265301Y-12426388D01*
X9265301Y-12426388D02*
X9255777Y-12445436D01*
X9255777Y-12445436D02*
X9246253Y-12454960D01*
X9246253Y-12454960D02*
X9227206Y-12464484D01*
X9227206Y-12464484D02*
X9198634Y-12464484D01*
X9379587Y-12464484D02*
X9360539Y-12454960D01*
X9360539Y-12454960D02*
X9351015Y-12435912D01*
X9351015Y-12435912D02*
X9351015Y-12264484D01*
X9531968Y-12454960D02*
X9512920Y-12464484D01*
X9512920Y-12464484D02*
X9474825Y-12464484D01*
X9474825Y-12464484D02*
X9455777Y-12454960D01*
X9455777Y-12454960D02*
X9446253Y-12435912D01*
X9446253Y-12435912D02*
X9446253Y-12359722D01*
X9446253Y-12359722D02*
X9455777Y-12340674D01*
X9455777Y-12340674D02*
X9474825Y-12331150D01*
X9474825Y-12331150D02*
X9512920Y-12331150D01*
X9512920Y-12331150D02*
X9531968Y-12340674D01*
X9531968Y-12340674D02*
X9541492Y-12359722D01*
X9541492Y-12359722D02*
X9541492Y-12378769D01*
X9541492Y-12378769D02*
X9446253Y-12397817D01*
X9617682Y-12454960D02*
X9636730Y-12464484D01*
X9636730Y-12464484D02*
X9674825Y-12464484D01*
X9674825Y-12464484D02*
X9693873Y-12454960D01*
X9693873Y-12454960D02*
X9703396Y-12435912D01*
X9703396Y-12435912D02*
X9703396Y-12426388D01*
X9703396Y-12426388D02*
X9693873Y-12407341D01*
X9693873Y-12407341D02*
X9674825Y-12397817D01*
X9674825Y-12397817D02*
X9646253Y-12397817D01*
X9646253Y-12397817D02*
X9627206Y-12388293D01*
X9627206Y-12388293D02*
X9617682Y-12369246D01*
X9617682Y-12369246D02*
X9617682Y-12359722D01*
X9617682Y-12359722D02*
X9627206Y-12340674D01*
X9627206Y-12340674D02*
X9646253Y-12331150D01*
X9646253Y-12331150D02*
X9674825Y-12331150D01*
X9674825Y-12331150D02*
X9693873Y-12340674D01*
X9941492Y-12388293D02*
X10093873Y-12388293D01*
X10017682Y-12464484D02*
X10017682Y-12312103D01*
X10427206Y-12331150D02*
X10427206Y-12464484D01*
X10379587Y-12254960D02*
X10331968Y-12397817D01*
X10331968Y-12397817D02*
X10455777Y-12397817D01*
X10674825Y-12454960D02*
X10693873Y-12464484D01*
X10693873Y-12464484D02*
X10731968Y-12464484D01*
X10731968Y-12464484D02*
X10751016Y-12454960D01*
X10751016Y-12454960D02*
X10760539Y-12435912D01*
X10760539Y-12435912D02*
X10760539Y-12426388D01*
X10760539Y-12426388D02*
X10751016Y-12407341D01*
X10751016Y-12407341D02*
X10731968Y-12397817D01*
X10731968Y-12397817D02*
X10703396Y-12397817D01*
X10703396Y-12397817D02*
X10684349Y-12388293D01*
X10684349Y-12388293D02*
X10674825Y-12369246D01*
X10674825Y-12369246D02*
X10674825Y-12359722D01*
X10674825Y-12359722D02*
X10684349Y-12340674D01*
X10684349Y-12340674D02*
X10703396Y-12331150D01*
X10703396Y-12331150D02*
X10731968Y-12331150D01*
X10731968Y-12331150D02*
X10751016Y-12340674D01*
X10874825Y-12464484D02*
X10855777Y-12454960D01*
X10855777Y-12454960D02*
X10846254Y-12435912D01*
X10846254Y-12435912D02*
X10846254Y-12264484D01*
X10979587Y-12464484D02*
X10960539Y-12454960D01*
X10960539Y-12454960D02*
X10951016Y-12445436D01*
X10951016Y-12445436D02*
X10941492Y-12426388D01*
X10941492Y-12426388D02*
X10941492Y-12369246D01*
X10941492Y-12369246D02*
X10951016Y-12350198D01*
X10951016Y-12350198D02*
X10960539Y-12340674D01*
X10960539Y-12340674D02*
X10979587Y-12331150D01*
X10979587Y-12331150D02*
X11008158Y-12331150D01*
X11008158Y-12331150D02*
X11027206Y-12340674D01*
X11027206Y-12340674D02*
X11036730Y-12350198D01*
X11036730Y-12350198D02*
X11046254Y-12369246D01*
X11046254Y-12369246D02*
X11046254Y-12426388D01*
X11046254Y-12426388D02*
X11036730Y-12445436D01*
X11036730Y-12445436D02*
X11027206Y-12454960D01*
X11027206Y-12454960D02*
X11008158Y-12464484D01*
X11008158Y-12464484D02*
X10979587Y-12464484D01*
X11103397Y-12331150D02*
X11179587Y-12331150D01*
X11131968Y-12264484D02*
X11131968Y-12435912D01*
X11131968Y-12435912D02*
X11141492Y-12454960D01*
X11141492Y-12454960D02*
X11160539Y-12464484D01*
X11160539Y-12464484D02*
X11179587Y-12464484D01*
X11236730Y-12454960D02*
X11255777Y-12464484D01*
X11255777Y-12464484D02*
X11293873Y-12464484D01*
X11293873Y-12464484D02*
X11312920Y-12454960D01*
X11312920Y-12454960D02*
X11322444Y-12435912D01*
X11322444Y-12435912D02*
X11322444Y-12426388D01*
X11322444Y-12426388D02*
X11312920Y-12407341D01*
X11312920Y-12407341D02*
X11293873Y-12397817D01*
X11293873Y-12397817D02*
X11265301Y-12397817D01*
X11265301Y-12397817D02*
X11246254Y-12388293D01*
X11246254Y-12388293D02*
X11236730Y-12369246D01*
X11236730Y-12369246D02*
X11236730Y-12359722D01*
X11236730Y-12359722D02*
X11246254Y-12340674D01*
X11246254Y-12340674D02*
X11265301Y-12331150D01*
X11265301Y-12331150D02*
X11293873Y-12331150D01*
X11293873Y-12331150D02*
X11312920Y-12340674D01*
X11389111Y-12540674D02*
X11398635Y-12531150D01*
X11398635Y-12531150D02*
X11417682Y-12502579D01*
X11417682Y-12502579D02*
X11427206Y-12483531D01*
X11427206Y-12483531D02*
X11436730Y-12454960D01*
X11436730Y-12454960D02*
X11446254Y-12407341D01*
X11446254Y-12407341D02*
X11446254Y-12369246D01*
X11446254Y-12369246D02*
X11436730Y-12321627D01*
X11436730Y-12321627D02*
X11427206Y-12293055D01*
X11427206Y-12293055D02*
X11417682Y-12274008D01*
X11417682Y-12274008D02*
X11398635Y-12245436D01*
X11398635Y-12245436D02*
X11389111Y-12235912D01*
M02*
