G04 #@! TF.GenerationSoftware,KiCad,Pcbnew,10.0.4*
G04 #@! TF.CreationDate,2026-08-30T20:57:31+08:00*
G04 #@! TF.ProjectId,expansion-board-v4,65787061-6e73-4696-9f6e-2d626f617264,rev?*
G04 #@! TF.SameCoordinates,Original*
G04 #@! TF.FileFunction,Copper,L3,Inr*
G04 #@! TF.FilePolarity,Positive*
%FSLAX46Y46*%
G04 Gerber Fmt 4.6, Leading zero omitted, Abs format (unit mm)*
G04 Created by KiCad (PCBNEW 10.0.4) date 2026-08-30 20:57:31*
%MOMM*%
%LPD*%
G01*
G04 APERTURE LIST*
G04 #@! TA.AperFunction,HeatsinkPad*
%ADD10C,0.500000*%
G04 #@! TD*
G04 #@! TA.AperFunction,ComponentPad*
%ADD11O,2.100000X1.000000*%
G04 #@! TD*
G04 #@! TA.AperFunction,ComponentPad*
%ADD12O,1.600000X1.000000*%
G04 #@! TD*
G04 #@! TA.AperFunction,ViaPad*
%ADD13C,0.450000*%
G04 #@! TD*
G04 #@! TA.AperFunction,ViaPad*
%ADD14C,0.500000*%
G04 #@! TD*
G04 #@! TA.AperFunction,Conductor*
%ADD15C,0.150000*%
G04 #@! TD*
G04 #@! TA.AperFunction,Conductor*
%ADD16C,0.250000*%
G04 #@! TD*
G04 #@! TA.AperFunction,Conductor*
%ADD17C,0.500000*%
G04 #@! TD*
G04 APERTURE END LIST*
D10*
X133428000Y-82628000D03*
X133428000Y-83678000D03*
X133428000Y-84728000D03*
X134478000Y-82628000D03*
X134478000Y-83678000D03*
X134478000Y-84728000D03*
X135528000Y-82628000D03*
X135528000Y-83678000D03*
X135528000Y-84728000D03*
D11*
X142675000Y-77320000D03*
D12*
X146855000Y-77320000D03*
D11*
X142675000Y-68680000D03*
D12*
X146855000Y-68680000D03*
D13*
X107729000Y-84984000D03*
X80785000Y-79151000D03*
X64310500Y-97415000D03*
X77590000Y-97140500D03*
X85798000Y-79357500D03*
X83960500Y-75920000D03*
X73351000Y-97302000D03*
X102763000Y-87530500D03*
X59940000Y-95995000D03*
X86198000Y-81357500D03*
X128417000Y-83216000D03*
X91900000Y-81950000D03*
X59447500Y-88650000D03*
X81160000Y-75127500D03*
X59440000Y-85005000D03*
X82960500Y-80270000D03*
X58305000Y-93345000D03*
X107638000Y-87881000D03*
X100616000Y-86433500D03*
X83423000Y-81007000D03*
X86198000Y-74482500D03*
X54870000Y-82980500D03*
X65780000Y-86535500D03*
X62472500Y-89150000D03*
X57940000Y-81905000D03*
X89835500Y-80270000D03*
X82154500Y-84690000D03*
X61710000Y-93345000D03*
X95045500Y-82163000D03*
X61015000Y-84205000D03*
X99060000Y-93217000D03*
X65030000Y-93105500D03*
X128792000Y-87155500D03*
X93093500Y-79127000D03*
X83548500Y-79982500D03*
X58365000Y-84205000D03*
X104195000Y-96505500D03*
X87884000Y-87935000D03*
X65335000Y-94600500D03*
X96100000Y-84100000D03*
X65781000Y-89251500D03*
X61835000Y-90312000D03*
X93368000Y-74280500D03*
X80835000Y-72402000D03*
X88835500Y-75920000D03*
X53400000Y-82450000D03*
X86050000Y-85650000D03*
X119219000Y-67773000D03*
X131572000Y-78133000D03*
X84365000Y-67588500D03*
X59810500Y-87762500D03*
X98664500Y-96719000D03*
X53300500Y-74047000D03*
X75808000Y-75127500D03*
X64230000Y-86535500D03*
X104422000Y-85034000D03*
X107651000Y-61868000D03*
X74280000Y-108855000D03*
X133065000Y-69196000D03*
X61422000Y-99314000D03*
X138064000Y-99752000D03*
X137065000Y-82553000D03*
X112371000Y-77520800D03*
X103913000Y-93768000D03*
X69560000Y-86890000D03*
X53300500Y-77747000D03*
X111069000Y-64217000D03*
X115141000Y-94758000D03*
X115960000Y-103805000D03*
X117125000Y-90999500D03*
X82296000Y-99677500D03*
X100972000Y-79502000D03*
X146237000Y-65976000D03*
X133541000Y-95891000D03*
X59810500Y-90037500D03*
X79635000Y-67663500D03*
X69560000Y-84690000D03*
X105113000Y-90168000D03*
X106250000Y-84100000D03*
X119264000Y-68568000D03*
X78985000Y-104455000D03*
X101270000Y-96780000D03*
X95668000Y-78852500D03*
X90138500Y-88538000D03*
X106046000Y-62983000D03*
X132085000Y-65040000D03*
X116666000Y-85608500D03*
X109071000Y-62757500D03*
X60585000Y-90312000D03*
X141110000Y-68850000D03*
X63015000Y-84705000D03*
X118419000Y-67873000D03*
X95148400Y-102463600D03*
X138804000Y-95946000D03*
X141110000Y-69375000D03*
X105113000Y-92568000D03*
X51850000Y-79200000D03*
X116606000Y-97009000D03*
X86981500Y-96348000D03*
X75537500Y-80651000D03*
X119991000Y-85508000D03*
X103913000Y-91368000D03*
X80880000Y-83453500D03*
X86398000Y-76920000D03*
X66268600Y-98856800D03*
X133065000Y-67996000D03*
X87398000Y-74482500D03*
X84339500Y-108480000D03*
X143750000Y-68150000D03*
X117714000Y-67818000D03*
X137037000Y-64862000D03*
X106629000Y-99327000D03*
X99066000Y-85134500D03*
X141224000Y-100420000D03*
X95942500Y-74555000D03*
X102713000Y-92568000D03*
X89041500Y-70238000D03*
X72023500Y-80626000D03*
X103913000Y-92568000D03*
X70410000Y-98268500D03*
X106696000Y-62858000D03*
X53300500Y-67386000D03*
X109346000Y-60733000D03*
X120019000Y-67873000D03*
X113307000Y-97219000D03*
X67462400Y-78181200D03*
X59940000Y-97045000D03*
X91475000Y-60590000D03*
X141110000Y-77250000D03*
X79610000Y-81675500D03*
X116314000Y-64903000D03*
X87598000Y-75720000D03*
X134050000Y-77550000D03*
X108715000Y-108205000D03*
X79610000Y-75127500D03*
X79172000Y-65165000D03*
X82154500Y-85490000D03*
X70509500Y-96893000D03*
X131865000Y-67996000D03*
X89154000Y-99677500D03*
X105113000Y-91368000D03*
X92608400Y-102641400D03*
X91685000Y-108205000D03*
X85440000Y-69938000D03*
X105670000Y-79696000D03*
X74676000Y-99677500D03*
X84172000Y-65165000D03*
X99060000Y-96267000D03*
X108940600Y-72303400D03*
X108940600Y-71653400D03*
X56715500Y-83330000D03*
X146855000Y-76570000D03*
X143675000Y-76825000D03*
X113414000Y-67552000D03*
X114682000Y-84963000D03*
X79890000Y-98439500D03*
X120904000Y-80467000D03*
X87782400Y-103555800D03*
X102713000Y-91368000D03*
X118394000Y-61271500D03*
X141110000Y-76625000D03*
X102713000Y-90168000D03*
X56990000Y-85854500D03*
X86252000Y-98461500D03*
X134800000Y-74850000D03*
X106060000Y-98698000D03*
X91717000Y-96497500D03*
X116266000Y-91695500D03*
X143925000Y-84280000D03*
X63205500Y-92831000D03*
X115087400Y-69864600D03*
X133989000Y-89357000D03*
X60210000Y-91795000D03*
X106313000Y-91368000D03*
X111864000Y-64262000D03*
X100318000Y-82776000D03*
X141512000Y-88605000D03*
X105113000Y-93768000D03*
X102713000Y-93768000D03*
X133966000Y-93584500D03*
X93618000Y-81138500D03*
X58305000Y-91795000D03*
X119114000Y-64903000D03*
X53300500Y-71086000D03*
X92125800Y-79781400D03*
X117844000Y-61646500D03*
X106313000Y-92568000D03*
X78135000Y-94139500D03*
X136790000Y-81778500D03*
X139453000Y-88980000D03*
X117094000Y-64621500D03*
X103913000Y-90168000D03*
X57065000Y-86654500D03*
X98555000Y-104455000D03*
X63206500Y-89526000D03*
X106313000Y-93768000D03*
X79235000Y-79151000D03*
X103260000Y-108855000D03*
X88525000Y-60590000D03*
X66878200Y-76428600D03*
X55007000Y-87728000D03*
X92125800Y-86080600D03*
X101968000Y-98310000D03*
X87598000Y-78120000D03*
X113157000Y-77520800D03*
X135995000Y-108650000D03*
X108584000Y-84963000D03*
X146855000Y-69430000D03*
X106320000Y-78170000D03*
X86398000Y-78120000D03*
X90093800Y-102514400D03*
X108696000Y-63358000D03*
X59440000Y-81905000D03*
X61696600Y-78460600D03*
X133115000Y-89732000D03*
X58290500Y-98170000D03*
X106313000Y-90168000D03*
X112764000Y-63887000D03*
X139496800Y-71856600D03*
X85198000Y-78120000D03*
X144237000Y-65226000D03*
X73772500Y-80231000D03*
X85198000Y-76920000D03*
X131865000Y-69196000D03*
X110614000Y-67552000D03*
X102793800Y-102844600D03*
X111974000Y-90170000D03*
X61460000Y-87387500D03*
X85198000Y-75720000D03*
X79375000Y-72186800D03*
X84607400Y-72440800D03*
X91515300Y-97898900D03*
X82143600Y-89687400D03*
X72023500Y-81426000D03*
X77760000Y-85790000D03*
X66860000Y-70470500D03*
X74422000Y-81006000D03*
X99702400Y-97978600D03*
X64812500Y-67606500D03*
X77760000Y-87990000D03*
X121920000Y-97263800D03*
X78510000Y-88340000D03*
X81231600Y-70557900D03*
X92964000Y-71398800D03*
X64812500Y-74297500D03*
X88894600Y-96449500D03*
X66110000Y-74309500D03*
X105763000Y-96993000D03*
X107828000Y-95720000D03*
X137050000Y-75315000D03*
X136725000Y-72674500D03*
X137820400Y-70485000D03*
X140460000Y-75450000D03*
X140460000Y-70550000D03*
X131891000Y-82053000D03*
X131494900Y-84428000D03*
X106400800Y-106179100D03*
X122986800Y-86463300D03*
X62457300Y-83159000D03*
X62165900Y-95812200D03*
X60726400Y-87617700D03*
X135589300Y-86479700D03*
X133100000Y-108357400D03*
X132000000Y-108357400D03*
X133650000Y-108357400D03*
X132550000Y-108357400D03*
X140369000Y-84735000D03*
X140330000Y-93296000D03*
X138724000Y-94996000D03*
X140000000Y-83848300D03*
X145530000Y-93471000D03*
X134766000Y-93584500D03*
X141612000Y-87080000D03*
X143275000Y-85055000D03*
X135091000Y-96266000D03*
X135070700Y-88201200D03*
X132429800Y-79528700D03*
X113164600Y-71653400D03*
X99568000Y-81066000D03*
X110871000Y-76560800D03*
X113164600Y-75103400D03*
X80647100Y-96682900D03*
X106011000Y-60698000D03*
X99821500Y-77902500D03*
X93250000Y-82850000D03*
X84319100Y-96985500D03*
X100196000Y-80452000D03*
X114657000Y-76560800D03*
X93417400Y-90730700D03*
X96264000Y-76459000D03*
X116069000Y-63971000D03*
X84468100Y-93391000D03*
X83896200Y-78257400D03*
X86598000Y-79357500D03*
X80746600Y-74218800D03*
X85798000Y-72595000D03*
X82194400Y-73456800D03*
X80785000Y-81776000D03*
X81680000Y-82154500D03*
X84598000Y-79357500D03*
X85798000Y-71782500D03*
X83896200Y-79298800D03*
X78486000Y-76758800D03*
X83845400Y-77571600D03*
X61143100Y-85235800D03*
X85353000Y-102121400D03*
X82902200Y-105628500D03*
X61464000Y-86728600D03*
X97149200Y-78106900D03*
X76257900Y-79697900D03*
X80696500Y-98552500D03*
X140162700Y-99695000D03*
X85452000Y-98461500D03*
X71585000Y-98168000D03*
X97319600Y-100045900D03*
X75626000Y-99677500D03*
X71740000Y-108855000D03*
X90242800Y-100130800D03*
X83895500Y-99302500D03*
X73076500Y-98552500D03*
X87485700Y-102550500D03*
X71385000Y-97167500D03*
X87833200Y-100253800D03*
X69200000Y-108855000D03*
X71342800Y-77721700D03*
X68224400Y-72796400D03*
X64541400Y-71043800D03*
X90652600Y-76657200D03*
X81991200Y-77520800D03*
X77393800Y-77520800D03*
X81254600Y-79806800D03*
X97180400Y-80365600D03*
X82194400Y-80670400D03*
X113228300Y-106840100D03*
X79530100Y-92390000D03*
X91423000Y-77920000D03*
X119704500Y-97008300D03*
X89041400Y-84738100D03*
X88574700Y-79528600D03*
X88198000Y-81245000D03*
X89064100Y-85847100D03*
X86822500Y-81891500D03*
X88938500Y-87982100D03*
X89966800Y-81381600D03*
X87376000Y-79451200D03*
X86998000Y-81245000D03*
X92000000Y-82850000D03*
X99339400Y-61391800D03*
X99695000Y-65176400D03*
X90703400Y-74142600D03*
X106763000Y-86943000D03*
X106263000Y-86243000D03*
X89591200Y-73021100D03*
X91287600Y-74726800D03*
X105763000Y-86943000D03*
X88598000Y-71195000D03*
X105263000Y-85543000D03*
X88500100Y-74307800D03*
X104763000Y-87643000D03*
X103911400Y-87630000D03*
X87782400Y-72771000D03*
X80060800Y-77139800D03*
X80060800Y-86080600D03*
X101803200Y-87630000D03*
X80060800Y-79451200D03*
X83820000Y-72567800D03*
X80086200Y-87452200D03*
X82981800Y-72745600D03*
X101800000Y-82300000D03*
X82073000Y-74320000D03*
X100188000Y-94218000D03*
X91177700Y-79954700D03*
X107081400Y-105922700D03*
X90723000Y-78720000D03*
X105660200Y-107307200D03*
X100050600Y-67741800D03*
X88606200Y-77558400D03*
X97409000Y-75641200D03*
X95859600Y-66040000D03*
X96799400Y-61366400D03*
X88749400Y-83554200D03*
X139819500Y-73113000D03*
X139850000Y-73756500D03*
X85650000Y-84900000D03*
X64276300Y-91215000D03*
X87498600Y-101858300D03*
D14*
X65300000Y-76500000D03*
X68700000Y-75200000D03*
X67700000Y-76500000D03*
X67500000Y-72200000D03*
D15*
X63150000Y-83150000D02*
X62450000Y-82450000D01*
X84800000Y-86900000D02*
X77000000Y-86900000D01*
X62450000Y-82450000D02*
X53400000Y-82450000D01*
X77000000Y-86900000D02*
X73250000Y-83150000D01*
X86050000Y-85650000D02*
X84800000Y-86900000D01*
X73250000Y-83150000D02*
X63150000Y-83150000D01*
X84074000Y-71907400D02*
X79654400Y-71907400D01*
X84607400Y-72440800D02*
X84074000Y-71907400D01*
X79654400Y-71907400D02*
X79375000Y-72186800D01*
D16*
X90344000Y-97898900D02*
X88894600Y-96449500D01*
X83096400Y-90651300D02*
X88894600Y-96449500D01*
X99702400Y-97978600D02*
X99885500Y-97795500D01*
X82401400Y-69388100D02*
X81231600Y-70557900D01*
X90953300Y-69388100D02*
X82401400Y-69388100D01*
X92964000Y-71398800D02*
X90953300Y-69388100D01*
X91515300Y-97898900D02*
X90344000Y-97898900D01*
X82143600Y-89687400D02*
X83096400Y-90640200D01*
X99885500Y-97795500D02*
X121388300Y-97795500D01*
X121388300Y-97795500D02*
X121920000Y-97263800D01*
X83096400Y-90640200D02*
X83096400Y-90651300D01*
X105763000Y-96993000D02*
X106380500Y-96993000D01*
X106380500Y-96993000D02*
X107828000Y-95720000D01*
D15*
X106400800Y-106179100D02*
X106598500Y-106376800D01*
X114075400Y-106376800D02*
X131494900Y-88957300D01*
X106598500Y-106376800D02*
X114075400Y-106376800D01*
X131494900Y-88957300D02*
X131494900Y-84428000D01*
X60726400Y-87617700D02*
X61042300Y-87933600D01*
X60691400Y-85048800D02*
X60691400Y-87582700D01*
X61042300Y-87933600D02*
X61042300Y-94688600D01*
X60956100Y-84784100D02*
X60691400Y-85048800D01*
X61074700Y-84784100D02*
X60956100Y-84784100D01*
X60691400Y-87582700D02*
X60726400Y-87617700D01*
X61042300Y-94688600D02*
X62165900Y-95812200D01*
X62457300Y-83159000D02*
X62457300Y-83401500D01*
X62457300Y-83401500D02*
X61074700Y-84784100D01*
X132429800Y-79528700D02*
X132429800Y-85560300D01*
X132429800Y-85560300D02*
X135070700Y-88201200D01*
D16*
X93439200Y-83039200D02*
X93439200Y-90708900D01*
X84319100Y-96985500D02*
X84319100Y-93540000D01*
X84016600Y-96683000D02*
X80647100Y-96683000D01*
X84319100Y-93540000D02*
X84468100Y-93391000D01*
X93439200Y-90708900D02*
X93417400Y-90730700D01*
X93250000Y-82850000D02*
X93439200Y-83039200D01*
X84319100Y-96985500D02*
X84016600Y-96683000D01*
D15*
X82905600Y-76631800D02*
X83845400Y-77571600D01*
X78613000Y-76631800D02*
X82905600Y-76631800D01*
X78486000Y-76758800D02*
X78613000Y-76631800D01*
X82194500Y-98860500D02*
X85352900Y-102018900D01*
X80135000Y-95463700D02*
X80135000Y-96879800D01*
X69907100Y-85235800D02*
X80135000Y-95463700D01*
X82115700Y-98860500D02*
X82194500Y-98860500D01*
X61143100Y-85235800D02*
X69907100Y-85235800D01*
X80135000Y-96879800D02*
X82115700Y-98860500D01*
X85352900Y-102018900D02*
X85352900Y-102121400D01*
X78283300Y-105628500D02*
X82902200Y-105628500D01*
X63824600Y-89089200D02*
X63824600Y-91402000D01*
X63824600Y-91402000D02*
X64089300Y-91666700D01*
X70884800Y-98055700D02*
X70884800Y-98230000D01*
X64495800Y-91666700D02*
X70884800Y-98055700D01*
X70884800Y-98230000D02*
X78283300Y-105628500D01*
X64089300Y-91666700D02*
X64495800Y-91666700D01*
X61464000Y-86728600D02*
X63824600Y-89089200D01*
D17*
X87823100Y-102550500D02*
X87485700Y-102550500D01*
X90242800Y-100130800D02*
X87823100Y-102550500D01*
D15*
X90652600Y-76790400D02*
X88694900Y-78748100D01*
X82207000Y-78748100D02*
X81430600Y-77971700D01*
X81430600Y-77971700D02*
X71592800Y-77971700D01*
X88694900Y-78748100D02*
X82207000Y-78748100D01*
X90652600Y-76657200D02*
X90652600Y-76790400D01*
X68224400Y-72796400D02*
X66294000Y-72796400D01*
X71592800Y-77971700D02*
X71342800Y-77721700D01*
X66294000Y-72796400D02*
X64541400Y-71043800D01*
X81889600Y-77622400D02*
X77495400Y-77622400D01*
X81991200Y-77520800D02*
X81889600Y-77622400D01*
X77495400Y-77622400D02*
X77393800Y-77520800D01*
X82118200Y-80670400D02*
X81254600Y-79806800D01*
X82194400Y-80670400D02*
X82118200Y-80670400D01*
X106114800Y-107803600D02*
X99563100Y-107803600D01*
X107078300Y-106840100D02*
X106114800Y-107803600D01*
X84149500Y-92390000D02*
X79530100Y-92390000D01*
X99563100Y-107803600D02*
X84149500Y-92390000D01*
X113228300Y-106840100D02*
X107078300Y-106840100D01*
X91423000Y-78101900D02*
X94817800Y-81496700D01*
X97609600Y-84060800D02*
X97609600Y-84984300D01*
X95045500Y-81496700D02*
X97609600Y-84060800D01*
X97609600Y-84984300D02*
X101336900Y-88711600D01*
X91423000Y-77920000D02*
X91423000Y-78101900D01*
X101336900Y-88711600D02*
X111407800Y-88711600D01*
X94817800Y-81496700D02*
X95045500Y-81496700D01*
X111407800Y-88711600D02*
X119704500Y-97008300D01*
X89041400Y-84738100D02*
X89460400Y-84319100D01*
X88574700Y-79984200D02*
X88574700Y-79528600D01*
X89460400Y-84319100D02*
X89460400Y-80869900D01*
X89460400Y-80869900D02*
X88574700Y-79984200D01*
X89064100Y-85847100D02*
X88198000Y-84981000D01*
X88198000Y-84981000D02*
X88198000Y-81245000D01*
X86822500Y-85866100D02*
X88938500Y-87982100D01*
X86822500Y-81891500D02*
X86822500Y-85866100D01*
X99568000Y-61620400D02*
X99568000Y-65049400D01*
X99695000Y-65176400D02*
X99771200Y-65252600D01*
X99339400Y-61391800D02*
X99568000Y-61620400D01*
X99568000Y-65049400D02*
X99695000Y-65176400D01*
X90551000Y-73990200D02*
X89901900Y-73990200D01*
X88108200Y-72196500D02*
X88108200Y-71030500D01*
X106763000Y-86095200D02*
X106763000Y-86943000D01*
X91862800Y-71195000D02*
X106763000Y-86095200D01*
X90703400Y-74142600D02*
X90551000Y-73990200D01*
X89901900Y-73990200D02*
X88108200Y-72196500D01*
X88108200Y-71030500D02*
X88450500Y-70688200D01*
X88730000Y-70688200D02*
X89236800Y-71195000D01*
X88450500Y-70688200D02*
X88730000Y-70688200D01*
X89236800Y-71195000D02*
X91862800Y-71195000D01*
X89591200Y-73021100D02*
X90535600Y-73021100D01*
X98814600Y-81378000D02*
X99399700Y-81963100D01*
X98814600Y-81300100D02*
X98814600Y-81378000D01*
X99399700Y-81963100D02*
X100173900Y-81963100D01*
X90535600Y-73021100D02*
X98814600Y-81300100D01*
X104453800Y-86243000D02*
X106263000Y-86243000D01*
X100173900Y-81963100D02*
X104453800Y-86243000D01*
X91287600Y-75209400D02*
X102793800Y-86715600D01*
X105535600Y-86715600D02*
X105763000Y-86943000D01*
X102793800Y-86715600D02*
X105535600Y-86715600D01*
X91287600Y-74726800D02*
X91287600Y-75209400D01*
X88598000Y-71195000D02*
X88899700Y-71496700D01*
X100266900Y-81517700D02*
X104292200Y-85543000D01*
X99381000Y-81517700D02*
X100266900Y-81517700D01*
X88899700Y-71496700D02*
X89466700Y-71496700D01*
X89466700Y-71496700D02*
X99116300Y-81146300D01*
X99116300Y-81253000D02*
X99381000Y-81517700D01*
X99116300Y-81146300D02*
X99116300Y-81253000D01*
X104292200Y-85543000D02*
X105263000Y-85543000D01*
X88842900Y-74650600D02*
X88500100Y-74307800D01*
X89865200Y-74650600D02*
X88842900Y-74650600D01*
X104299900Y-88106100D02*
X101584800Y-88106100D01*
X101311300Y-87832600D02*
X101311300Y-86096700D01*
X104763000Y-87643000D02*
X104299900Y-88106100D01*
X101584800Y-88106100D02*
X101311300Y-87832600D01*
X101311300Y-86096700D02*
X89865200Y-74650600D01*
X89992200Y-74345800D02*
X89357200Y-74345800D01*
X103911400Y-87630000D02*
X103327200Y-87045800D01*
X103327200Y-87045800D02*
X102692200Y-87045800D01*
X89357200Y-74345800D02*
X87782400Y-72771000D01*
X102692200Y-87045800D02*
X89992200Y-74345800D01*
X91629500Y-80507400D02*
X93890900Y-82768800D01*
X93890900Y-82768800D02*
X93890900Y-86428600D01*
X90931300Y-77528200D02*
X90931300Y-78131400D01*
X89596150Y-74955400D02*
X91185700Y-76544950D01*
X91185700Y-77273800D02*
X90931300Y-77528200D01*
X100188000Y-92725700D02*
X100188000Y-94218000D01*
X91629500Y-78829600D02*
X91629500Y-80507400D01*
X91185700Y-76544950D02*
X91185700Y-77273800D01*
X93890900Y-86428600D02*
X100188000Y-92725700D01*
X90931300Y-78131400D02*
X91629500Y-78829600D01*
X82708400Y-74955400D02*
X89596150Y-74955400D01*
X82073000Y-74320000D02*
X82708400Y-74955400D01*
X107081300Y-99080400D02*
X106247200Y-98246300D01*
X107081300Y-105922700D02*
X107081300Y-99080400D01*
X106247200Y-98246300D02*
X105873000Y-98246300D01*
X99856500Y-98771400D02*
X91177700Y-90092600D01*
X105873000Y-98246300D02*
X105347900Y-98771400D01*
X105347900Y-98771400D02*
X99856500Y-98771400D01*
X91177700Y-90092600D02*
X91177700Y-79954700D01*
X105660200Y-107307200D02*
X90723000Y-92370000D01*
X90723000Y-92370000D02*
X90723000Y-78720000D01*
X97409000Y-75184000D02*
X97409000Y-75641200D01*
X95859600Y-66040000D02*
X95859600Y-73634600D01*
X96570800Y-65328800D02*
X95859600Y-66040000D01*
X95859600Y-73634600D02*
X97409000Y-75184000D01*
X96799400Y-61366400D02*
X96570800Y-61595000D01*
X96570800Y-61595000D02*
X96570800Y-65328800D01*
X80417700Y-102575600D02*
X85965700Y-102575600D01*
X64276300Y-91215000D02*
X69057100Y-91215000D01*
X85965700Y-102575600D02*
X86683000Y-101858300D01*
X69057100Y-91215000D02*
X80417700Y-102575600D01*
X86683000Y-101858300D02*
X87498600Y-101858300D01*
X65300000Y-76500000D02*
X66000000Y-75800000D01*
X66000000Y-75800000D02*
X68700000Y-75200000D01*
M02*
