M48
; DRILL file KiCad 10.0.4 date 2026-08-30T20:14:21
; FORMAT={-:-/ absolute / metric / decimal}
; #@! TF.CreationDate,2026-08-30T20:14:21+08:00
; #@! TF.GenerationSoftware,Kicad,Pcbnew,10.0.4
; #@! TF.FileFunction,Plated,1,6,PTH
FMAT,2
METRIC
; #@! TA.AperFunction,Plated,PTH,ViaDrill
T1C0.300
; #@! TA.AperFunction,Plated,PTH,ComponentDrill
T2C0.300
; #@! TA.AperFunction,Plated,PTH,ComponentDrill
T3C0.600
%
G90
G05
T1
X51.85Y-79.2
X53.3Y-67.386
X53.3Y-71.086
X53.3Y-74.047
X53.3Y-77.747
X53.4Y-82.45
X54.87Y-82.98
X55.007Y-87.728
X56.715Y-83.33
X56.99Y-85.855
X57.065Y-86.654
X57.94Y-81.905
X58.29Y-98.17
X58.305Y-91.795
X58.305Y-93.345
X58.365Y-84.205
X59.44Y-81.905
X59.44Y-85.005
X59.447Y-88.65
X59.81Y-87.763
X59.81Y-90.037
X59.94Y-95.995
X59.94Y-97.045
X60.21Y-91.795
X60.585Y-90.312
X60.726Y-87.618
X61.015Y-84.205
X61.143Y-85.236
X61.422Y-99.314
X61.46Y-87.388
X61.464Y-86.729
X61.697Y-78.461
X61.71Y-93.345
X61.835Y-90.312
X62.166Y-95.812
X62.457Y-83.159
X62.472Y-89.15
X63.015Y-84.705
X63.206Y-92.831
X63.206Y-89.526
X64.23Y-86.535
X64.276Y-91.215
X64.31Y-97.415
X64.541Y-71.044
X64.812Y-67.606
X64.812Y-74.297
X65.03Y-93.105
X65.3Y-76.5
X65.335Y-94.6
X65.78Y-86.535
X65.781Y-89.251
X66.11Y-74.309
X66.269Y-98.857
X66.86Y-70.471
X66.878Y-76.429
X67.462Y-78.181
X67.5Y-72.2
X67.7Y-76.5
X68.224Y-72.796
X68.7Y-75.2
X69.2Y-108.855
X69.56Y-84.69
X69.56Y-86.89
X70.41Y-98.268
X70.51Y-96.893
X71.343Y-77.722
X71.385Y-97.167
X71.585Y-98.168
X71.74Y-108.855
X72.023Y-80.626
X72.023Y-81.426
X73.076Y-98.552
X73.351Y-97.302
X73.772Y-80.231
X74.28Y-108.855
X74.422Y-81.006
X74.676Y-99.677
X75.537Y-80.651
X75.626Y-99.677
X75.808Y-75.127
X76.258Y-79.698
X77.394Y-77.521
X77.59Y-97.14
X77.76Y-85.79
X77.76Y-87.99
X78.135Y-94.139
X78.486Y-76.759
X78.51Y-88.34
X78.985Y-104.455
X79.172Y-65.165
X79.235Y-79.151
X79.375Y-72.187
X79.53Y-92.39
X79.61Y-75.127
X79.61Y-81.675
X79.635Y-67.663
X79.89Y-98.439
X80.061Y-77.14
X80.061Y-79.451
X80.061Y-86.081
X80.086Y-87.452
X80.647Y-96.683
X80.697Y-98.552
X80.747Y-74.219
X80.785Y-79.151
X80.785Y-81.776
X80.835Y-72.402
X80.88Y-83.453
X81.16Y-75.127
X81.232Y-70.558
X81.255Y-79.807
X81.68Y-82.154
X81.991Y-77.521
X82.073Y-74.32
X82.144Y-89.687
X82.154Y-84.69
X82.154Y-85.49
X82.194Y-73.457
X82.194Y-80.67
X82.296Y-99.677
X82.902Y-105.628
X82.96Y-80.27
X82.982Y-72.746
X83.423Y-81.007
X83.548Y-79.983
X83.82Y-72.568
X83.845Y-77.572
X83.895Y-99.302
X83.896Y-78.257
X83.896Y-79.299
X83.96Y-75.92
X84.172Y-65.165
X84.319Y-96.986
X84.34Y-108.48
X84.365Y-67.588
X84.468Y-93.391
X84.598Y-79.358
X84.607Y-72.441
X85.198Y-75.72
X85.198Y-76.92
X85.198Y-78.12
X85.353Y-102.121
X85.44Y-69.938
X85.452Y-98.462
X85.65Y-84.9
X85.798Y-71.782
X85.798Y-72.595
X85.798Y-79.358
X86.05Y-85.65
X86.198Y-74.483
X86.198Y-81.358
X86.252Y-98.462
X86.398Y-76.92
X86.398Y-78.12
X86.598Y-79.358
X86.822Y-81.891
X86.981Y-96.348
X86.998Y-81.245
X87.376Y-79.451
X87.398Y-74.483
X87.486Y-102.55
X87.499Y-101.858
X87.598Y-75.72
X87.598Y-78.12
X87.782Y-72.771
X87.782Y-103.556
X87.833Y-100.254
X87.884Y-87.935
X88.198Y-81.245
X88.5Y-74.308
X88.525Y-60.59
X88.575Y-79.529
X88.598Y-71.195
X88.606Y-77.558
X88.749Y-83.554
X88.835Y-75.92
X88.895Y-96.45
X88.938Y-87.982
X89.041Y-84.738
X89.041Y-70.238
X89.064Y-85.847
X89.154Y-99.677
X89.591Y-73.021
X89.835Y-80.27
X89.967Y-81.382
X90.094Y-102.514
X90.138Y-88.538
X90.243Y-100.131
X90.653Y-76.657
X90.703Y-74.143
X90.723Y-78.72
X91.178Y-79.955
X91.288Y-74.727
X91.423Y-77.92
X91.475Y-60.59
X91.515Y-97.899
X91.685Y-108.205
X91.717Y-96.498
X91.9Y-81.95
X92.0Y-82.85
X92.126Y-79.781
X92.126Y-86.081
X92.608Y-102.641
X92.964Y-71.399
X93.093Y-79.127
X93.25Y-82.85
X93.368Y-74.281
X93.417Y-90.731
X93.618Y-81.138
X95.045Y-82.163
X95.148Y-102.464
X95.668Y-78.852
X95.86Y-66.04
X95.942Y-74.555
X96.1Y-84.1
X96.264Y-76.459
X96.799Y-61.366
X97.149Y-78.107
X97.18Y-80.366
X97.32Y-100.046
X97.409Y-75.641
X98.555Y-104.455
X98.664Y-96.719
X99.06Y-93.217
X99.06Y-96.267
X99.066Y-85.135
X99.339Y-61.392
X99.568Y-81.066
X99.695Y-65.176
X99.702Y-97.979
X99.822Y-77.903
X100.051Y-67.742
X100.188Y-94.218
X100.196Y-80.452
X100.318Y-82.776
X100.616Y-86.433
X100.972Y-79.502
X101.27Y-96.78
X101.8Y-82.3
X101.803Y-87.63
X101.968Y-98.31
X102.713Y-90.168
X102.713Y-91.368
X102.713Y-92.568
X102.713Y-93.768
X102.763Y-87.53
X102.794Y-102.845
X103.26Y-108.855
X103.911Y-87.63
X103.913Y-90.168
X103.913Y-91.368
X103.913Y-92.568
X103.913Y-93.768
X104.195Y-96.505
X104.422Y-85.034
X104.763Y-87.643
X105.113Y-90.168
X105.113Y-91.368
X105.113Y-92.568
X105.113Y-93.768
X105.263Y-85.543
X105.66Y-107.307
X105.67Y-79.696
X105.763Y-86.943
X105.763Y-96.993
X106.011Y-60.698
X106.046Y-62.983
X106.06Y-98.698
X106.25Y-84.1
X106.263Y-86.243
X106.313Y-90.168
X106.313Y-91.368
X106.313Y-92.568
X106.313Y-93.768
X106.32Y-78.17
X106.401Y-106.179
X106.629Y-99.327
X106.696Y-62.858
X106.763Y-86.943
X107.081Y-105.923
X107.638Y-87.881
X107.651Y-61.868
X107.729Y-84.984
X107.828Y-95.72
X108.584Y-84.963
X108.696Y-63.358
X108.715Y-108.205
X108.941Y-71.653
X108.941Y-72.303
X109.071Y-62.758
X109.346Y-60.733
X110.614Y-67.552
X110.871Y-76.561
X111.069Y-64.217
X111.864Y-64.262
X111.974Y-90.17
X112.371Y-77.521
X112.764Y-63.887
X113.157Y-77.521
X113.165Y-71.653
X113.165Y-75.103
X113.228Y-106.84
X113.307Y-97.219
X113.414Y-67.552
X114.657Y-76.561
X114.682Y-84.963
X115.087Y-69.865
X115.141Y-94.758
X115.96Y-103.805
X116.069Y-63.971
X116.266Y-91.695
X116.314Y-64.903
X116.606Y-97.009
X116.666Y-85.608
X117.094Y-64.621
X117.125Y-90.999
X117.714Y-67.818
X117.844Y-61.646
X118.394Y-61.271
X118.419Y-67.873
X119.114Y-64.903
X119.219Y-67.773
X119.264Y-68.568
X119.704Y-97.008
X119.991Y-85.508
X120.019Y-67.873
X120.904Y-80.467
X121.92Y-97.264
X122.987Y-86.463
X128.417Y-83.216
X128.792Y-87.155
X131.495Y-84.428
X131.572Y-78.133
X131.865Y-67.996
X131.865Y-69.196
X131.891Y-82.053
X132.0Y-108.357
X132.085Y-65.04
X132.43Y-79.529
X132.55Y-108.357
X133.065Y-67.996
X133.065Y-69.196
X133.1Y-108.357
X133.115Y-89.732
X133.541Y-95.891
X133.65Y-108.357
X133.966Y-93.584
X133.989Y-89.357
X134.05Y-77.55
X134.766Y-93.584
X134.8Y-74.85
X135.071Y-88.201
X135.091Y-96.266
X135.589Y-86.48
X135.995Y-108.65
X136.725Y-72.674
X136.79Y-81.778
X137.037Y-64.862
X137.05Y-75.315
X137.065Y-82.553
X137.82Y-70.485
X138.064Y-99.752
X138.724Y-94.996
X138.804Y-95.946
X139.453Y-88.98
X139.497Y-71.857
X139.82Y-73.113
X139.85Y-73.757
X140.0Y-83.848
X140.163Y-99.695
X140.33Y-93.296
X140.369Y-84.735
X140.46Y-70.55
X140.46Y-75.45
X141.11Y-68.85
X141.11Y-69.375
X141.11Y-76.625
X141.11Y-77.25
X141.224Y-100.42
X141.512Y-88.605
X141.612Y-87.08
X143.275Y-85.055
X143.675Y-76.825
X143.75Y-68.15
X143.925Y-84.28
X144.237Y-65.226
X145.53Y-93.471
X146.237Y-65.976
X146.855Y-69.43
X146.855Y-76.57
T2
X133.428Y-82.628
X133.428Y-83.678
X133.428Y-84.728
X134.478Y-82.628
X134.478Y-83.678
X134.478Y-84.728
X135.528Y-82.628
X135.528Y-83.678
X135.528Y-84.728
T3
X142.125Y-68.68G85X143.225Y-68.68
G05
X142.125Y-77.32G85X143.225Y-77.32
G05
X146.555Y-68.68G85X147.155Y-68.68
G05
X146.555Y-77.32G85X147.155Y-77.32
G05
M30
